<svg width="201" height="66" viewBox="0 0 201 66" fill="none" xmlns="http://www.w3.org/2000/svg">
<path d="M173.87 17.8836L182.565 17.8178C183.282 17.8158 184.771 17.5954 185.367 17.9086L184.83 26.1413C185.817 24.6351 186.7 23.0459 187.937 21.7254C191.329 18.1074 195.568 18.0156 200.195 17.8548C199.938 19.5804 200.316 29.4507 200.052 29.8815L195.265 29.4706C192.808 29.4695 189.843 29.7434 188.025 31.574C185.226 34.3935 185.489 38.8909 185.513 42.5711L185.619 64.7676L173.166 64.8606C173.462 60.8678 173.217 56.7365 173.21 52.7296L173.193 29.1312C173.2 25.5573 172.925 21.8152 173.311 18.2664L173.87 17.8836Z" fill="#FFFDFA"/>
<path d="M124.376 1.62688L128.34 1.65348L128.387 11.035C126.458 10.8665 121.418 10.6483 119.965 11.8623C118.716 12.9058 118.988 16.3946 118.869 17.9005L128.326 17.7953L128.336 26.4857L119.054 26.4732L119.145 64.7876L113.158 64.7326L106.639 64.8356L106.695 26.5485L100.341 26.4116C100.095 25.7958 100.226 24.7519 100.226 24.0837L100.27 18.0156C101.206 17.3942 105.455 17.8697 106.799 17.9195L106.697 15.8569C106.598 12.3318 107.06 8.18108 109.586 5.52118C113.234 1.67958 119.435 1.75378 124.376 1.62688Z" fill="#FFFDFA"/>
<path d="M148.748 16.6075C152.436 16.7592 156.211 17.1555 159.547 18.862C168.694 23.5409 168.806 32.8339 168.768 41.8429C168.744 47.491 168.49 53.2243 169.123 58.8439C169.364 60.9836 169.489 62.7189 170.162 64.8026L158.696 64.7276C158.283 62.7905 158.231 60.9432 158.215 58.9747C156.511 61.1492 154.54 62.9842 151.979 64.0986C147.486 66.0536 140.949 66.6236 136.335 64.7966C131.807 63.0035 128.691 60.7644 126.723 56.2074C126.476 55.3868 126.32 54.5682 126.212 53.7195C125.813 50.5896 126.249 47.6956 128.235 45.1399C134.126 37.5612 147.979 36.5904 156.806 35.4807C156.625 33.6399 156.372 31.15 155.472 29.5213C154.495 27.7542 153.171 26.4233 151.185 25.8455C148.716 25.127 145.758 25.0993 143.443 26.3836C140.802 27.8481 140.028 30.3162 139.243 33.038L128.507 32.9764L128.163 32.5086C128.136 28.9254 130.493 25.0695 132.85 22.5269C136.949 18.1037 142.971 16.8344 148.748 16.6075ZM155.724 43.6336C151.349 44.1589 146.245 44.374 142.244 46.3202C141.344 46.7582 140.297 47.303 139.681 48.1082C138.676 49.4204 138.542 51.1554 138.787 52.7483C138.971 53.9438 139.684 54.9975 140.656 55.7044L141.331 56.1407C144.304 57.5384 148.053 57.8662 151.189 56.6981C153.14 55.9717 154.983 54.1859 155.822 52.3006C157.01 49.6301 156.732 46.6366 156.924 43.787C156.43 43.4562 156.288 43.5436 155.724 43.6336Z" fill="#FFFDFA"/>
<path d="M25.4718 0.613179C31.7091 0.0211794 38.7059 2.23888 43.7428 5.85808C48.9638 9.60958 50.8967 14.4729 51.8979 20.5795L39.5995 20.7695C39.2493 18.5339 38.5068 16.7008 37.0565 14.9316C35.0999 12.5448 31.9388 11.3509 28.9423 11.0578C24.9921 10.6715 20.1033 10.9101 16.928 13.5495C15.6648 14.5994 14.674 16.0399 14.5259 17.7035C13.9454 24.2271 20.3103 25.4058 25.2577 26.3965C28.6564 27.077 32.1339 27.5197 35.4939 28.3674C40.8145 29.7099 45.9119 31.8448 49.4995 36.1542C52.241 39.4472 53.1076 44.1285 52.7295 48.3007C52.352 52.467 50.0473 56.8062 46.8541 59.4732C40.9288 64.4216 32.0061 66.4036 24.4455 65.7176C18.8646 65.1146 14.0115 63.8746 9.3521 60.5899C3.6934 56.6012 1.37 50.3455 0.233398 43.7922L1.0191 43.7533C2.6054 43.685 11.6877 43.2559 12.5652 43.857C12.807 44.0227 13.3255 46.7938 13.5106 47.29C14.1899 49.1115 15.2438 50.8048 16.6827 52.1171C20.1589 55.2875 24.8438 55.7403 29.341 55.5254C32.4187 55.3784 36.168 54.3434 38.2883 51.9706C39.6256 50.474 40.2184 48.4567 40.0771 46.466C39.6153 39.962 30.3496 39.0651 25.4564 38.1954C22.8227 37.7272 19.9439 37.1739 17.3638 36.4483C13.6182 35.395 10.078 33.7441 7.132 31.1681C3.9057 28.3469 2.0657 24.2228 1.7868 19.9761C1.5077 15.7266 2.9588 11.7575 5.7713 8.57508C10.6463 3.05898 18.3839 1.06218 25.4718 0.613179Z" fill="#FFFDFA"/>
<path d="M76.432 16.8369C82.183 16.1359 88.401 18.1265 93.062 21.4491C98.082 25.0278 101.773 36.1072 101.773 36.1072C101.773 36.1072 101.931 50.8671 97.76 56.6777C93.793 62.2048 87.853 64.6696 81.351 65.7206C76.022 66.3656 69.887 64.8676 65.425 61.91C59.898 58.2469 57.1767 52.9971 55.9018 46.6607C54.5576 39.9795 55.6912 32.3923 59.5 26.6965C63.679 20.4487 69.357 18.2312 76.432 16.8369ZM77.639 26.5664C74.343 27.1345 72.251 28.505 70.325 31.2275C67.461 35.2757 67.514 42.1447 68.342 46.8448C68.807 49.482 70.611 52.7505 72.803 54.2786C75.168 55.9281 77.615 56.3214 80.419 55.977C82.901 55.6607 85.2 54.3905 86.735 52.394C89.853 48.3386 90.087 42.0005 89.419 37.1472C88.949 33.736 87.359 30.3821 84.56 28.2839C82.713 26.8997 80.019 26.1913 77.712 26.5541L77.639 26.5664Z" fill="#FFFDFA"/>
</svg>
