<svg width="201" height="95" viewBox="0 0 201 95" fill="none" xmlns="http://www.w3.org/2000/svg">
<path d="M174.56 46.5577L183.255 46.4919C183.972 46.4899 185.461 46.2695 186.057 46.5827L185.52 54.8154C186.507 53.3092 187.39 51.72 188.627 50.3995C192.019 46.7815 196.258 46.6897 200.885 46.5289C200.628 48.2545 201.006 58.1248 200.742 58.5556L195.955 58.1446C193.498 58.1436 190.533 58.4174 188.715 60.2481C185.916 63.0676 186.179 67.5649 186.203 71.2451L186.309 93.4417L173.856 93.5346C174.152 89.5418 173.907 85.4105 173.9 81.4036L173.883 57.8052C173.89 54.2313 173.615 50.4893 174.001 46.9405L174.56 46.5577Z" fill="#04045c"/>
<path d="M73.8839 0.29753L113.526 0.432161L121.902 0.354571C123.932 0.296651 126.034 0.0632803 128.037 0.44392C124.157 1.93945 120.098 2.13965 116.077 2.99745L86.0719 8.91085L72.6899 11.3355L79.0059 25.5432L84.2409 37.2126C79.9829 34.951 75.3969 33.2917 70.9469 31.4362L49.0719 22.2286C46.2418 21.0282 42.9844 20.0315 40.2913 18.61C39.9641 18.4373 39.7398 18.1499 39.5719 17.8261L39.8219 17.4665L72.2799 11.3816L67.5299 0.335301L73.8839 0.29753Z" fill="#04045c"/>
<path d="M125.066 30.301L129.03 30.3276L129.077 39.7091C127.148 39.5406 122.108 39.3223 120.655 40.5364C119.406 41.5798 119.678 45.0686 119.559 46.5746L129.016 46.4694L129.026 55.1598L119.744 55.1473L119.835 93.4616L113.848 93.4066L107.329 93.5097L107.385 55.2226L101.031 55.0857C100.785 54.4699 100.916 53.426 100.916 52.7578L100.96 46.6897C101.896 46.0683 106.145 46.5438 107.489 46.5936L107.387 44.531C107.288 41.0059 107.75 36.8552 110.276 34.1953C113.924 30.3537 120.125 30.4279 125.066 30.301Z" fill="#04045c"/>
<path d="M149.438 45.2816C153.126 45.4333 156.901 45.8296 160.237 47.5361C169.384 52.215 169.496 61.5079 169.458 70.5169C169.434 76.165 169.18 81.8983 169.813 87.5179C170.054 89.6576 170.179 91.3929 170.852 93.4766L159.386 93.4016C158.973 91.4645 158.921 89.6172 158.905 87.6488C157.201 89.8232 155.23 91.6582 152.669 92.7726C148.176 94.7276 141.639 95.2977 137.025 93.4706C132.497 91.6776 129.381 89.4384 127.413 84.8814C127.166 84.0608 127.01 83.2422 126.902 82.3935C126.503 79.2636 126.939 76.3697 128.925 73.8139C134.816 66.2353 148.669 65.2645 157.496 64.1548C157.315 62.3139 157.062 59.8241 156.162 58.1954C155.185 56.4283 153.861 55.0974 151.875 54.5196C149.406 53.8011 146.448 53.7733 144.133 55.0577C141.492 56.5222 140.718 58.9903 139.933 61.7121L129.197 61.6504L128.853 61.1827C128.826 57.5995 131.183 53.7435 133.54 51.201C137.639 46.7778 143.661 45.5084 149.438 45.2816ZM156.414 72.3076C152.039 72.8329 146.935 73.048 142.934 74.9942C142.034 75.4323 140.987 75.9771 140.371 76.7822C139.366 78.0945 139.232 79.8294 139.477 81.4223C139.661 82.6179 140.374 83.6715 141.346 84.3784L142.021 84.8148C144.994 86.2124 148.743 86.5402 151.879 85.3721C153.83 84.6457 155.673 82.8599 156.512 80.9746C157.7 78.3041 157.422 75.3106 157.614 72.461C157.12 72.1302 156.978 72.2177 156.414 72.3076Z" fill="#04045c"/>
<path d="M26.1617 29.2873C32.399 28.6953 39.3958 30.913 44.4327 34.5322C49.6537 38.2836 51.5866 43.1469 52.5878 49.2536L40.2894 49.4436C39.9392 47.208 39.1967 45.3749 37.7464 43.6057C35.7898 41.2189 32.6287 40.0249 29.6322 39.7318C25.682 39.3456 20.7932 39.5842 17.6179 42.2236C16.3547 43.2735 15.3639 44.714 15.2158 46.3776C14.6353 52.9012 21.0002 54.0799 25.9476 55.0706C29.3463 55.7511 32.8238 56.1938 36.1838 57.0415C41.5044 58.384 46.6018 60.5188 50.1894 64.8282C52.9309 68.1212 53.7975 72.8025 53.4194 76.9747C53.0419 81.141 50.7372 85.4802 47.544 88.1472C41.6187 93.0956 32.696 95.0777 25.1354 94.3917C19.5545 93.7887 14.7014 92.5486 10.042 89.2639C4.38334 85.2752 2.05994 79.0195 0.92334 72.4662L1.70904 72.4273C3.29534 72.359 12.3776 71.9299 13.2551 72.531C13.4969 72.6967 14.0154 75.4678 14.2005 75.9641C14.8798 77.7856 15.9337 79.4788 17.3726 80.7911C20.8488 83.9615 25.5337 84.4143 30.0309 84.1994C33.1086 84.0524 36.8579 83.0174 38.9782 80.6446C40.3155 79.148 40.9083 77.1307 40.767 75.14C40.3052 68.636 31.0395 67.7391 26.1463 66.8694C23.5126 66.4012 20.6338 65.8479 18.0537 65.1223C14.3081 64.069 10.7679 62.4182 7.82194 59.8422C4.59564 57.021 2.75564 52.8969 2.47674 48.6502C2.19764 44.4007 3.64874 40.4316 6.46124 37.2492C11.3362 31.7331 19.0738 29.7362 26.1617 29.2873Z" fill="#04045c"/>
<path d="M77.1219 45.511C82.8729 44.81 89.0909 46.8005 93.7519 50.1231C98.7719 53.7019 101.479 58.7954 102.463 64.7812C103.603 71.7185 102.621 79.5411 98.4499 85.3517C94.4829 90.8788 88.5429 93.3436 82.0409 94.3946C76.7119 95.0396 70.5769 93.5416 66.1149 90.584C60.5879 86.9209 57.8666 81.6712 56.5917 75.3347C55.2475 68.6535 56.3811 61.0664 60.1899 55.3706C64.3689 49.1228 70.0469 46.9053 77.1219 45.511ZM78.3289 55.2405C75.0329 55.8086 72.9409 57.1791 71.0149 59.9016C68.1509 63.9498 68.2039 70.8187 69.0319 75.5188C69.4969 78.156 71.3009 81.4245 73.4929 82.9526C75.8579 84.6021 78.3049 84.9954 81.1089 84.651C83.5909 84.3347 85.8899 83.0645 87.4249 81.068C90.5429 77.0126 90.7769 70.6746 90.1089 65.8213C89.6389 62.41 88.0489 59.0562 85.2499 56.958C83.4029 55.5737 80.7089 54.8654 78.4019 55.2282L78.3289 55.2405Z" fill="#04045c"/>
</svg>
