<svg width="96" height="201" viewBox="0 0 96 201" fill="none" xmlns="http://www.w3.org/2000/svg">
<path d="M48.9062 173.867L48.972 182.562C48.974 183.279 49.1944 184.768 48.8812 185.364L40.6485 184.827C42.1547 185.814 43.7439 186.697 45.0644 187.934C48.6824 191.326 48.7742 195.565 48.935 200.192C47.2094 199.935 37.3391 200.313 36.9083 200.049L37.3192 195.262C37.3203 192.805 37.0464 189.84 35.2158 188.022C32.3963 185.223 27.8989 185.486 24.2187 185.51L2.02222 185.616L1.92922 173.163C5.92202 173.459 10.0533 173.214 14.0602 173.207L37.6586 173.19C41.2325 173.197 44.9746 172.922 48.5234 173.308L48.9062 173.867Z" fill="#FFFDFA"/>
<path d="M95.1663 73.1913L95.0317 112.833L95.1093 121.209C95.1672 123.239 95.4006 125.341 95.0199 127.344C93.5244 123.464 93.3242 119.405 92.4664 115.384L86.553 85.3793L84.1284 71.9973L69.9207 78.3133L58.2513 83.5483C60.5128 79.2903 62.1722 74.7043 64.0277 70.2543L73.2353 48.3793C74.4357 45.5492 75.4324 42.2918 76.8539 39.5987C77.0266 39.2715 77.314 39.0472 77.6378 38.8793L77.9974 39.1293L84.0823 71.5873L95.1286 66.8373L95.1663 73.1913Z" fill="#FFFDFA"/>
<path d="M65.1629 124.373L65.1363 128.337L55.7548 128.384C55.9233 126.455 56.1415 121.415 54.9275 119.962C53.884 118.713 50.3952 118.985 48.8893 118.866L48.9945 128.323L40.3041 128.333L40.3166 119.051L2.00222 119.142L2.05722 113.155L1.95422 106.636L40.2413 106.692L40.3782 100.338C40.994 100.092 42.0379 100.223 42.7061 100.223L48.7742 100.267C49.3956 101.203 48.9201 105.452 48.8703 106.796L50.9329 106.694C54.458 106.595 58.6087 107.057 61.2686 109.583C65.1102 113.231 65.036 119.432 65.1629 124.373Z" fill="#FFFDFA"/>
<path d="M50.1823 148.745C50.0306 152.433 49.6343 156.208 47.9278 159.544C43.2489 168.691 33.9559 168.803 24.9469 168.765C19.2988 168.741 13.5655 168.487 7.94592 169.12C5.80622 169.361 4.07092 169.486 1.98722 170.159L2.06222 158.693C3.99932 158.28 5.84662 158.228 7.81512 158.212C5.64062 156.508 3.80562 154.537 2.69122 151.976C0.736223 147.483 0.166217 140.946 1.99322 136.332C3.78632 131.804 6.02542 128.688 10.5824 126.72C11.403 126.473 12.2216 126.317 13.0703 126.209C16.2002 125.81 19.0942 126.246 21.6499 128.232C29.2286 134.123 30.1994 147.976 31.3091 156.803C33.1499 156.622 35.6398 156.369 37.2685 155.469C39.0356 154.492 40.3665 153.168 40.9443 151.182C41.6628 148.713 41.6905 145.755 40.4062 143.44C38.9417 140.799 36.4736 140.025 33.7518 139.24L33.8134 128.504L34.2812 128.16C37.8644 128.133 41.7203 130.49 44.2629 132.847C48.6861 136.946 49.9554 142.968 50.1823 148.745ZM23.1562 155.721C22.6309 151.346 22.4158 146.242 20.4696 142.241C20.0316 141.341 19.4868 140.294 18.6816 139.678C17.3694 138.673 15.6344 138.539 14.0415 138.784C12.846 138.968 11.7923 139.681 11.0854 140.653L10.6491 141.328C9.25142 144.301 8.92362 148.05 10.0917 151.186C10.8181 153.137 12.6039 154.98 14.4892 155.819C17.1597 157.007 20.1532 156.729 23.0028 156.921C23.3336 156.427 23.2462 156.285 23.1562 155.721Z" fill="#FFFDFA"/>
<path d="M66.1766 25.4691C66.7686 31.7064 64.5509 38.7032 60.9317 43.7401C57.1802 48.9611 52.3169 50.894 46.2103 51.8952L46.0203 39.5968C48.2559 39.2466 50.089 38.5041 51.8582 37.0538C54.245 35.0972 55.4389 31.9361 55.732 28.9396C56.1183 24.9894 55.8797 20.1006 53.2403 16.9253C52.1904 15.6621 50.7499 14.6713 49.0863 14.5232C42.5627 13.9427 41.384 20.3076 40.3933 25.255C39.7128 28.6537 39.2701 32.1312 38.4224 35.4912C37.0799 40.8118 34.945 45.9092 30.6356 49.4968C27.3426 52.2383 22.6613 53.1049 18.4891 52.7268C14.3228 52.3493 9.98362 50.0446 7.31662 46.8514C2.36822 40.9261 0.386212 32.0034 1.07221 24.4428C1.67521 18.8619 2.91522 14.0088 6.19992 9.34941C10.1886 3.69071 16.4443 1.36731 22.9976 0.230713L23.0365 1.01641C23.1048 2.60271 23.5339 11.685 22.9328 12.5625C22.7671 12.8043 19.996 13.3228 19.4998 13.5079C17.6783 14.1872 15.985 15.2411 14.6727 16.68C11.5023 20.1562 11.0495 24.8411 11.2644 29.3383C11.4114 32.416 12.4464 36.1653 14.8192 38.2856C16.3158 39.6229 18.3331 40.2157 20.3238 40.0744C26.8278 39.6126 27.7247 30.3469 28.5944 25.4537C29.0626 22.82 29.6159 19.9412 30.3415 17.3611C31.3948 13.6155 33.0457 10.0753 35.6217 7.12931C38.4429 3.90301 42.567 2.06301 46.8137 1.78411C51.0632 1.50501 55.0323 2.95612 58.2147 5.76862C63.7308 10.6436 65.7276 18.3812 66.1766 25.4691Z" fill="#FFFDFA"/>
<path d="M49.9529 76.4293C50.6539 82.1803 48.6633 88.3983 45.3407 93.0593C41.762 98.0793 30.6826 101.77 30.6826 101.77C30.6826 101.77 15.9227 101.928 10.1121 97.7573C4.58502 93.7903 2.12022 87.8503 1.06922 81.3483C0.424222 76.0193 1.92222 69.8843 4.87982 65.4223C8.54292 59.8953 13.7927 57.174 20.1291 55.8991C26.8103 54.5549 34.3975 55.6885 40.0933 59.4973C46.3411 63.6763 48.5586 69.3543 49.9529 76.4293ZM40.2234 77.6363C39.6553 74.3403 38.2848 72.2483 35.5623 70.3223C31.5141 67.4583 24.6451 67.5113 19.945 68.3393C17.3078 68.8043 14.0393 70.6083 12.5112 72.8003C10.8617 75.1653 10.4684 77.6123 10.8128 80.4163C11.1291 82.8983 12.3993 85.1973 14.3958 86.7323C18.4512 89.8503 24.7893 90.0843 29.6426 89.4163C33.0538 88.9463 36.4077 87.3563 38.5059 84.5573C39.8901 82.7103 40.5985 80.0163 40.2357 77.7093L40.2234 77.6363Z" fill="#FFFDFA"/>
</svg>
