<svg width="21" height="20" viewBox="0 0 21 20" fill="none" xmlns="http://www.w3.org/2000/svg">
<path d="M10.1828 19.0364C9.00331 19.0364 7.89818 18.8134 6.86741 18.3672C5.83665 17.921 4.93793 17.3146 4.17126 16.548C3.40461 15.7813 2.79821 14.8826 2.35206 13.8518C1.9059 12.8211 1.68281 11.7159 1.68281 10.5365C1.68281 9.35697 1.9059 8.25185 2.35206 7.22108C2.79821 6.19032 3.40461 5.2916 4.17126 4.52493C4.93793 3.75828 5.83665 3.15188 6.86741 2.70573C7.89818 2.25957 9.00331 2.03648 10.1828 2.03648C11.3623 2.03648 12.4674 2.25957 13.4982 2.70573C14.5289 3.15188 15.4276 3.75828 16.1943 4.52493C16.961 5.2916 17.5674 6.19032 18.0135 7.22108C18.4597 8.25185 18.6828 9.35697 18.6828 10.5365C18.6828 11.7159 18.4597 12.8211 18.0135 13.8518C17.5674 14.8826 16.961 15.7813 16.1943 16.548C15.4276 17.3146 14.5289 17.921 13.4982 18.3672C12.4674 18.8134 11.3623 19.0364 10.1828 19.0364ZM13.1559 14.5634L14.2097 13.5096L10.9328 10.2326V5.53646H9.43281V10.8403L13.1559 14.5634ZM3.93664 0.424957L4.99046 1.47878L1.12511 5.34413L0.0712891 4.29031L3.93664 0.424957ZM16.4289 0.424957L20.2943 4.29031L19.2405 5.34413L15.3751 1.47878L16.4289 0.424957ZM10.1828 17.5365C12.1264 17.5365 13.7789 16.8557 15.1405 15.4942C16.502 14.1326 17.1828 12.48 17.1828 10.5365C17.1828 8.59287 16.502 6.94031 15.1405 5.57876C13.7789 4.21722 12.1264 3.53646 10.1828 3.53646C8.23921 3.53646 6.58664 4.21722 5.22509 5.57876C3.86356 6.94031 3.18279 8.59287 3.18279 10.5365C3.18279 12.48 3.86356 14.1326 5.22509 15.4942C6.58664 16.8557 8.23921 17.5365 10.1828 17.5365Z" fill="#04045C"/>
</svg>
