<svg width="17" height="17" viewBox="0 0 17 17" fill="none" xmlns="http://www.w3.org/2000/svg">
<path d="M8.97449 16.0791C7.84355 16.0791 6.7833 15.8646 5.79374 15.4356C4.80416 15.0067 3.94092 14.4238 3.204 13.6869C2.4671 12.9499 1.88418 12.0867 1.45522 11.0971C1.02625 10.1076 0.811768 9.04731 0.811768 7.91638C0.811768 6.05448 1.37944 4.39616 2.51478 2.94142C3.65011 1.48668 5.1182 0.532565 6.91905 0.0790787C6.76209 1.44389 6.90272 2.76727 7.34094 4.04923C7.77917 5.33121 8.48501 6.45893 9.45847 7.43239C10.4319 8.40586 11.5597 9.1117 12.8416 9.54992C14.1236 9.98815 15.447 10.1288 16.8118 9.97182C16.367 11.7727 15.4151 13.2408 13.956 14.3761C12.4969 15.5114 10.8364 16.0791 8.97449 16.0791ZM8.97449 14.8037C10.2216 14.8037 11.3765 14.4919 12.4394 13.8684C13.5023 13.2448 14.3384 12.3867 14.9477 11.294C13.729 11.1805 12.574 10.8718 11.4828 10.368C10.3916 9.86425 9.4138 9.17953 8.54935 8.31389C7.68489 7.44822 6.99758 6.47116 6.4874 5.38269C5.97723 4.29422 5.67255 3.1406 5.57335 1.92186C4.48215 2.53123 3.62832 3.37089 3.01186 4.44083C2.3954 5.51078 2.08718 6.66929 2.08718 7.91638C2.08718 9.82952 2.75678 11.4557 4.09598 12.7949C5.43518 14.1341 7.06135 14.8037 8.97449 14.8037Z" fill="#052545"/>
</svg>
