<svg width="20" height="18" viewBox="0 0 20 18" fill="none" xmlns="http://www.w3.org/2000/svg">
<path d="M2.55965 17.829C2.05452 17.829 1.62695 17.654 1.27695 17.304C0.926953 16.954 0.751953 16.5265 0.751953 16.0213V5.63678C0.751953 5.13165 0.926953 4.70408 1.27695 4.35408C1.62695 4.00408 2.05452 3.82908 2.55965 3.82908H6.75195V2.13681C6.75195 1.63169 6.92695 1.20413 7.27695 0.854132C7.62695 0.504132 8.05452 0.329132 8.55965 0.329132H11.9442C12.4493 0.329132 12.8769 0.504132 13.2269 0.854132C13.5769 1.20413 13.7519 1.63169 13.7519 2.13681V3.82908H17.9442C18.4493 3.82908 18.8769 4.00408 19.2269 4.35408C19.5769 4.70408 19.7519 5.13165 19.7519 5.63678V16.0213C19.7519 16.5265 19.5769 16.954 19.2269 17.304C18.8769 17.654 18.4493 17.829 17.9442 17.829H2.55965ZM8.25193 3.82908H12.2519V2.13681C12.2519 2.05987 12.2199 1.98936 12.1558 1.92526C12.0917 1.86114 12.0211 1.82908 11.9442 1.82908H8.55965C8.48272 1.82908 8.4122 1.86114 8.34808 1.92526C8.28398 1.98936 8.25193 2.05987 8.25193 2.13681V3.82908ZM18.2519 12.079H12.7519V13.829H7.75195V12.079H2.25193V16.0213C2.25193 16.0983 2.28398 16.1688 2.34808 16.2329C2.41219 16.297 2.48272 16.3291 2.55965 16.3291H17.9442C18.0211 16.3291 18.0917 16.297 18.1558 16.2329C18.2199 16.1688 18.2519 16.0983 18.2519 16.0213V12.079ZM9.25193 12.3291H11.2519V10.3291H9.25193V12.3291ZM2.25193 10.5791H7.75195V8.82908H12.7519V10.5791H18.2519V5.63678C18.2519 5.55985 18.2199 5.48932 18.1558 5.42521C18.0917 5.36111 18.0211 5.32906 17.9442 5.32906H2.55965C2.48272 5.32906 2.41219 5.36111 2.34808 5.42521C2.28398 5.48932 2.25193 5.55985 2.25193 5.63678V10.5791Z" fill="#fffdfa"/>
</svg>
