<svg width="17" height="20" viewBox="0 0 17 20" fill="none" xmlns="http://www.w3.org/2000/svg">
<path d="M5.49998 14.1944C4.85768 14.1944 4.31248 13.9704 3.8644 13.5223C3.41633 13.0742 3.1923 12.529 3.1923 11.8867C3.1923 11.2444 3.41633 10.6993 3.8644 10.2512C4.31248 9.80311 4.85768 9.57907 5.49998 9.57907C6.14228 9.57907 6.68747 9.80311 7.13555 10.2512C7.58362 10.6993 7.80765 11.2444 7.80765 11.8867C7.80765 12.529 7.58362 13.0742 7.13555 13.5223C6.68747 13.9704 6.14228 14.1944 5.49998 14.1944ZM1.8077 19.6367C1.30257 19.6367 0.875 19.4617 0.525 19.1117C0.175 18.7617 0 18.3342 0 17.829V4.44449C0 3.93936 0.175 3.51179 0.525 3.16179C0.875 2.81179 1.30257 2.63679 1.8077 2.63679H3.19233V0.521416H4.73075V2.63679H12.3077V0.521416H13.8076V2.63679H15.1923C15.6974 2.63679 16.125 2.81179 16.475 3.16179C16.825 3.51179 17 3.93936 17 4.44449V17.829C17 18.3342 16.825 18.7617 16.475 19.1117C16.125 19.4617 15.6974 19.6367 15.1923 19.6367H1.8077ZM1.8077 18.1368H15.1923C15.2692 18.1368 15.3397 18.1047 15.4038 18.0406C15.4679 17.9765 15.5 17.906 15.5 17.829V8.44449H1.49997V17.829C1.49997 17.906 1.53202 17.9765 1.59612 18.0406C1.66024 18.1047 1.73077 18.1368 1.8077 18.1368ZM1.49997 6.94452H15.5V4.44449C15.5 4.36756 15.4679 4.29703 15.4038 4.23292C15.3397 4.16882 15.2692 4.13677 15.1923 4.13677H1.8077C1.73077 4.13677 1.66024 4.16882 1.59612 4.23292C1.53202 4.29703 1.49997 4.36756 1.49997 4.44449V6.94452Z" fill="#04045C"/>
</svg>
