<svg width="18" height="20" viewBox="0 0 18 20" fill="none" xmlns="http://www.w3.org/2000/svg">
<path d="M2.51668 19.2884C2.01155 19.2884 1.58398 19.1134 1.23398 18.7634C0.883984 18.4134 0.708984 17.9858 0.708984 17.4807V4.09611C0.708984 3.59098 0.883984 3.16341 1.23398 2.81341C1.58398 2.46341 2.01155 2.28841 2.51668 2.28841H3.90131V0.173035H5.43973V2.28841H13.0166V0.173035H14.5166V2.28841H15.9012C16.4064 2.28841 16.8339 2.46341 17.1839 2.81341C17.5339 3.16341 17.7089 3.59098 17.7089 4.09611V17.4807C17.7089 17.9858 17.5339 18.4134 17.1839 18.7634C16.8339 19.1134 16.4064 19.2884 15.9012 19.2884H2.51668ZM2.51668 17.7884H15.9012C15.9782 17.7884 16.0487 17.7563 16.1128 17.6922C16.1769 17.6281 16.209 17.5576 16.209 17.4807V8.09611H2.20896V17.4807C2.20896 17.5576 2.24101 17.6281 2.30511 17.6922C2.36923 17.7563 2.43975 17.7884 2.51668 17.7884ZM2.20896 6.59614H16.209V4.09611C16.209 4.01918 16.1769 3.94865 16.1128 3.88454C16.0487 3.82044 15.9782 3.78839 15.9012 3.78839H2.51668C2.43975 3.78839 2.36923 3.82044 2.30511 3.88454C2.24101 3.94865 2.20896 4.01918 2.20896 4.09611V6.59614Z" fill="#04045C"/>
</svg>
