<svg width="17" height="20" viewBox="0 0 17 20" fill="none" xmlns="http://www.w3.org/2000/svg">
<path d="M11.1923 16.1368C10.55 16.1368 10.0048 15.9127 9.55673 15.4647C9.10866 15.0166 8.88463 14.4714 8.88463 13.8291C8.88463 13.1868 9.10866 12.6416 9.55673 12.1935C10.0048 11.7454 10.55 11.5214 11.1923 11.5214C11.8346 11.5214 12.3798 11.7454 12.8279 12.1935C13.2759 12.6416 13.5 13.1868 13.5 13.8291C13.5 14.4714 13.2759 15.0166 12.8279 15.4647C12.3798 15.9127 11.8346 16.1368 11.1923 16.1368ZM1.8077 19.6367C1.30257 19.6367 0.875 19.4617 0.525 19.1117C0.175 18.7617 0 18.3342 0 17.829V4.44449C0 3.93936 0.175 3.51179 0.525 3.16179C0.875 2.81179 1.30257 2.63679 1.8077 2.63679H3.19233V0.521416H4.73075V2.63679H12.3077V0.521416H13.8076V2.63679H15.1923C15.6974 2.63679 16.125 2.81179 16.475 3.16179C16.825 3.51179 17 3.93936 17 4.44449V17.829C17 18.3342 16.825 18.7617 16.475 19.1117C16.125 19.4617 15.6974 19.6367 15.1923 19.6367H1.8077ZM1.8077 18.1368H15.1923C15.2692 18.1368 15.3397 18.1047 15.4038 18.0406C15.4679 17.9765 15.5 17.906 15.5 17.829V8.44449H1.49997V17.829C1.49997 17.906 1.53202 17.9765 1.59612 18.0406C1.66024 18.1047 1.73077 18.1368 1.8077 18.1368ZM1.49997 6.94452H15.5V4.44449C15.5 4.36756 15.4679 4.29703 15.4038 4.23292C15.3397 4.16882 15.2692 4.13677 15.1923 4.13677H1.8077C1.73077 4.13677 1.66024 4.16882 1.59612 4.23292C1.53202 4.29703 1.49997 4.36756 1.49997 4.44449V6.94452Z" fill="#04045C"/>
</svg>
