<svg width="18" height="18" viewBox="0 0 18 18" fill="none" xmlns="http://www.w3.org/2000/svg">
<path d="M6.68455 14.6944C4.84995 14.6944 3.28714 14.0666 1.99612 12.8108C0.705087 11.555 0.0595703 10.0163 0.0595703 8.19448V2.07908C0.0595703 1.67011 0.207328 1.31788 0.502845 1.02238C0.798345 0.72686 1.15058 0.579102 1.55955 0.579102H13.9345C14.7976 0.579102 15.5342 0.877503 16.1443 1.4743C16.7545 2.07109 17.0595 2.79832 17.0595 3.656C17.0595 4.53237 16.7563 5.2803 16.1499 5.8998C15.5435 6.5193 14.805 6.82905 13.9345 6.82905H13.2134V8.19448C13.2134 10.0052 12.5791 11.5412 11.3105 12.8025C10.0419 14.0638 8.49993 14.6944 6.68455 14.6944ZM1.55955 5.3291H11.7134V2.07908H1.55955V5.3291ZM6.68455 13.1945C8.08071 13.1945 9.2679 12.7086 10.2461 11.7368C11.2243 10.765 11.7134 9.58421 11.7134 8.19448V6.82905H1.55955V8.19448C1.55955 9.59063 2.06147 10.773 3.06532 11.7416C4.06917 12.7102 5.27558 13.1945 6.68455 13.1945ZM13.2134 5.3291H13.9345C14.3897 5.3291 14.7743 5.16644 15.0884 4.8411C15.4025 4.51579 15.5595 4.12075 15.5595 3.656C15.5595 3.2137 15.3993 2.8403 15.0788 2.5358C14.7583 2.23132 14.3768 2.07908 13.9345 2.07908H13.2134V5.3291ZM0.0595703 17.5791V16.0791H15.0595V17.5791H0.0595703Z" fill="#fffdfa"/>
</svg>
