<svg width="16" height="19" viewBox="0 0 16 19" fill="none" xmlns="http://www.w3.org/2000/svg">
<path d="M11.7382 18.9768L9.13818 14.5768H6.05163C5.81318 14.5768 5.61254 14.4954 5.44971 14.3326C5.28689 14.1698 5.20548 13.9691 5.20548 13.7307C5.20548 13.4922 5.28689 13.2916 5.44971 13.1288C5.61254 12.9659 5.81318 12.8845 6.05163 12.8845H9.13818L11.7382 8.48453H12.5497L11.2497 12.8845H14.3786L15.1286 11.8845H15.8401L15.2882 13.7307L15.8401 15.5768H15.1286L14.3786 14.5768H11.2497L12.5497 18.9768H11.7382ZM3.55358 10.9768L4.85358 6.57683H1.72471L0.974709 7.57683H0.263184L0.815108 5.73068L0.263184 3.88453H0.974709L1.72471 4.88453H4.85358L3.55358 0.484528H4.36508L6.96508 4.88453H10.0516C10.2901 4.88453 10.4907 4.96594 10.6536 5.12875C10.8164 5.29159 10.8978 5.49223 10.8978 5.73068C10.8978 5.96913 10.8164 6.16977 10.6536 6.3326C10.4907 6.49542 10.2901 6.57683 10.0516 6.57683H6.96508L4.36508 10.9768H3.55358Z" fill="#052545"/>
</svg>
