<svg width="20" height="20" viewBox="0 0 20 20" fill="none" xmlns="http://www.w3.org/2000/svg">
<path d="M4.93996 14.9037L11.8438 11.4614L15.2861 4.55764L8.38226 7.99994L4.93996 14.9037ZM10.113 10.7307C9.82968 10.7307 9.59218 10.6349 9.40051 10.4432C9.20885 10.2515 9.11301 10.014 9.11301 9.73069C9.11301 9.44736 9.20885 9.20986 9.40051 9.01819C9.59218 8.82652 9.82968 8.73069 10.113 8.73069C10.3963 8.73069 10.6338 8.82652 10.8255 9.01819C11.0172 9.20986 11.113 9.44736 11.113 9.73069C11.113 10.014 11.0172 10.2515 10.8255 10.4432C10.6338 10.6349 10.3963 10.7307 10.113 10.7307ZM10.1147 19.2307C8.80075 19.2307 7.56572 18.9813 6.40959 18.4827C5.25344 17.984 4.24775 17.3072 3.39254 16.4524C2.5373 15.5976 1.86025 14.5923 1.36136 13.4367C0.862479 12.2811 0.613037 11.0463 0.613037 9.73236C0.613037 8.41843 0.862371 7.1834 1.36104 6.02726C1.8597 4.87111 2.53645 3.86543 3.39129 3.01021C4.24614 2.15498 5.25138 1.47792 6.40701 0.979039C7.56263 0.480156 8.7974 0.230713 10.1113 0.230713C11.4253 0.230713 12.6603 0.480047 13.8164 0.978714C14.9726 1.47738 15.9783 2.15413 16.8335 3.00896C17.6887 3.86381 18.3658 4.86906 18.8647 6.02469C19.3635 7.18031 19.613 8.41508 19.613 9.72901C19.613 11.0429 19.3637 12.278 18.865 13.4341C18.3663 14.5903 17.6896 15.5959 16.8347 16.4512C15.9799 17.3064 14.9746 17.9835 13.819 18.4823C12.6634 18.9812 11.4286 19.2307 10.1147 19.2307ZM10.113 17.7307C12.3463 17.7307 14.238 16.9557 15.788 15.4057C17.338 13.8557 18.113 11.964 18.113 9.73069C18.113 7.49736 17.338 5.60569 15.788 4.05569C14.238 2.50569 12.3463 1.73069 10.113 1.73069C7.87968 1.73069 5.98801 2.50569 4.43801 4.05569C2.88801 5.60569 2.11301 7.49736 2.11301 9.73069C2.11301 11.964 2.88801 13.8557 4.43801 15.4057C5.98801 16.9557 7.87968 17.7307 10.113 17.7307Z" fill="#04045C"/>
</svg>
