<svg width="20" height="21" viewBox="0 0 20 21" fill="none" xmlns="http://www.w3.org/2000/svg">
<path d="M10 0.192383C4.5 0.192383 0 4.68238 0 10.2124C0 15.2124 3.66 19.3624 8.44 20.1124V13.1124H5.9V10.2124H8.44V8.00238C8.44 5.49238 9.93 4.11238 12.22 4.11238C13.31 4.11238 14.45 4.30238 14.45 4.30238V6.77238H13.19C11.95 6.77238 11.56 7.54238 11.56 8.33238V10.2124H14.34L13.89 13.1124H11.56V20.1124C13.9164 19.7402 16.0622 18.5379 17.6099 16.7224C19.1576 14.907 20.0053 12.598 20 10.2124C20 4.68238 15.5 0.192383 10 0.192383Z" fill="#FFFDFA"/>
</svg>
