<svg width="24" height="16" viewBox="0 0 24 16" fill="none" xmlns="http://www.w3.org/2000/svg">
<path d="M12.5019 7.72135C12.9275 7.25853 13.2423 6.72713 13.4461 6.12715C13.65 5.52715 13.7519 4.90857 13.7519 4.2714C13.7519 3.63423 13.65 3.01565 13.4461 2.41565C13.2423 1.81565 12.9275 1.28424 12.5019 0.821423C13.3801 0.922707 14.1092 1.30187 14.6894 1.95892C15.2695 2.61596 15.5596 3.38678 15.5596 4.2714C15.5596 5.156 15.2695 5.92682 14.6894 6.58387C14.1092 7.24092 13.3801 7.62008 12.5019 7.72135ZM17.7519 15.3867V13.0406C17.7519 12.4954 17.641 11.9768 17.4192 11.4846C17.1974 10.9925 16.8827 10.5701 16.475 10.2175C17.2416 10.4727 17.9474 10.8169 18.5923 11.2502C19.2371 11.6836 19.5596 12.2803 19.5596 13.0406V15.3867H17.7519ZM19.5596 8.82905V6.82905H17.5596V5.3291H19.5596V3.3291H21.0595V5.3291H23.0595V6.82905H21.0595V8.82905H19.5596ZM8.2519 7.77135C7.28942 7.77135 6.46547 7.42865 5.78005 6.74325C5.09465 6.05783 4.75195 5.23388 4.75195 4.2714C4.75195 3.3089 5.09465 2.48495 5.78005 1.79955C6.46547 1.11413 7.28942 0.771423 8.2519 0.771423C9.2144 0.771423 10.0384 1.11413 10.7238 1.79955C11.4092 2.48495 11.7519 3.3089 11.7519 4.2714C11.7519 5.23388 11.4092 6.05783 10.7238 6.74325C10.0384 7.42865 9.2144 7.77135 8.2519 7.77135ZM0.751953 15.3867V13.1637C0.751953 12.6739 0.884961 12.2204 1.15098 11.8031C1.41701 11.3858 1.77246 11.065 2.21733 10.8406C3.20578 10.356 4.20289 9.99255 5.20865 9.75025C6.21442 9.50795 7.22884 9.3868 8.2519 9.3868C9.27497 9.3868 10.2894 9.50795 11.2952 9.75025C12.3009 9.99255 13.298 10.356 14.2865 10.8406C14.7314 11.065 15.0868 11.3858 15.3528 11.8031C15.6189 12.2204 15.7519 12.6739 15.7519 13.1637V15.3867H0.751953ZM8.2519 6.2714C8.8019 6.2714 9.27274 6.07557 9.6644 5.6839C10.0561 5.29223 10.2519 4.8214 10.2519 4.2714C10.2519 3.7214 10.0561 3.25057 9.6644 2.8589C9.27274 2.46723 8.8019 2.2714 8.2519 2.2714C7.7019 2.2714 7.23107 2.46723 6.8394 2.8589C6.44774 3.25057 6.2519 3.7214 6.2519 4.2714C6.2519 4.8214 6.44774 5.29223 6.8394 5.6839C7.23107 6.07557 7.7019 6.2714 8.2519 6.2714ZM2.2519 13.8867H14.2519V13.1637C14.2519 12.9611 14.1933 12.7736 14.076 12.6012C13.9586 12.4287 13.7993 12.288 13.5981 12.179C12.7365 11.7547 11.858 11.4332 10.9626 11.2146C10.0672 10.996 9.16362 10.8867 8.2519 10.8867C7.3402 10.8867 6.43664 10.996 5.5412 11.2146C4.64579 11.4332 3.7673 11.7547 2.90575 12.179C2.70447 12.288 2.54518 12.4287 2.42788 12.6012C2.31056 12.7736 2.2519 12.9611 2.2519 13.1637V13.8867Z" fill="#04045c"/>
</svg>
