<svg width="18" height="19" viewBox="0 0 18 19" fill="none" xmlns="http://www.w3.org/2000/svg">
<rect y="0.152374" width="18" height="18" rx="5" fill="#FFFDFA"/>
<path d="M13.725 4.25238C13.8908 4.25238 14.0497 4.31823 14.1669 4.43544C14.2842 4.55265 14.35 4.71162 14.35 4.87738C14.35 5.04314 14.2842 5.20211 14.1669 5.31932C14.0497 5.43653 13.8908 5.50238 13.725 5.50238C13.5592 5.50238 13.4003 5.43653 13.2831 5.31932C13.1658 5.20211 13.1 5.04314 13.1 4.87738C13.1 4.71162 13.1658 4.55265 13.2831 4.43544C13.4003 4.31823 13.5592 4.25238 13.725 4.25238ZM9 5.60238C10.0609 5.60238 11.0783 6.02381 11.8284 6.77395C12.5786 7.5241 13 8.54151 13 9.60238C13 10.6632 12.5786 11.6807 11.8284 12.4308C11.0783 13.181 10.0609 13.6024 9 13.6024C7.93913 13.6024 6.92172 13.181 6.17157 12.4308C5.42143 11.6807 5 10.6632 5 9.60238C5 8.54151 5.42143 7.5241 6.17157 6.77395C6.92172 6.02381 7.93913 5.60238 9 5.60238ZM9 6.40238C8.15131 6.40238 7.33737 6.73952 6.73726 7.33964C6.13714 7.93975 5.8 8.75369 5.8 9.60238C5.8 10.4511 6.13714 11.265 6.73726 11.8651C7.33737 12.4652 8.15131 12.8024 9 12.8024C9.84869 12.8024 10.6626 12.4652 11.2627 11.8651C11.8629 11.265 12.2 10.4511 12.2 9.60238C12.2 8.75369 11.8629 7.93975 11.2627 7.33964C10.6626 6.73952 9.84869 6.40238 9 6.40238Z" fill="#FFFDFA" stroke="#04045C"/>
</svg>
