<svg width="17" height="17" viewBox="0 0 17 17" fill="none" xmlns="http://www.w3.org/2000/svg">
<path d="M8.81178 10.3116C9.43193 10.3116 9.95906 10.0946 10.3932 9.66047C10.8273 9.22636 11.0443 8.69923 11.0443 8.07907C11.0443 7.45891 10.8273 6.93178 10.3932 6.49767C9.95906 6.06356 9.43193 5.84651 8.81178 5.84651C8.19162 5.84651 7.66449 6.06356 7.23038 6.49767C6.79627 6.93178 6.57922 7.45891 6.57922 8.07907C6.57922 8.69923 6.79627 9.22636 7.23038 9.66047C7.66449 10.0946 8.19162 10.3116 8.81178 10.3116ZM8.81178 11.4279C7.88251 11.4279 7.09205 11.1021 6.44041 10.4504C5.78877 9.79879 5.46295 9.00834 5.46295 8.07907C5.46295 7.1498 5.78877 6.35935 6.44041 5.7077C7.09205 5.05606 7.88251 4.73025 8.81178 4.73025C9.74104 4.73025 10.5315 5.05606 11.1831 5.7077C11.8348 6.35935 12.1606 7.1498 12.1606 8.07907C12.1606 9.00834 11.8348 9.79879 11.1831 10.4504C10.5315 11.1021 9.74104 11.4279 8.81178 11.4279ZM3.60247 8.63719H0.811768V7.52095H3.60247V8.63719ZM16.8118 8.63719H14.0211V7.52095H16.8118V8.63719ZM8.25366 2.86976V0.0790787H9.3699V2.86976H8.25366ZM8.25366 16.0791V13.2884H9.3699V16.0791H8.25366ZM4.77315 4.78744L3.03004 3.10444L3.81856 2.27871L5.49728 4.00321L4.77315 4.78744ZM13.805 13.8794L12.1148 12.1434L12.8504 11.3707L14.5935 13.0537L13.805 13.8794ZM12.1034 4.04042L13.7864 2.29731L14.6121 3.08584L12.8876 4.76455L12.1034 4.04042ZM3.01144 13.0723L4.74738 11.3821L5.50586 12.1177L3.83002 13.868L3.01144 13.0723Z" fill="#052545"/>
</svg>
