<svg width="18" height="19" viewBox="0 0 18 19" fill="none" xmlns="http://www.w3.org/2000/svg">
<path d="M16 0.152374C16.5304 0.152374 17.0391 0.363088 17.4142 0.738161C17.7893 1.11323 18 1.62194 18 2.15237V16.1524C18 16.6828 17.7893 17.1915 17.4142 17.5666C17.0391 17.9417 16.5304 18.1524 16 18.1524H2C1.46957 18.1524 0.960859 17.9417 0.585786 17.5666C0.210714 17.1915 0 16.6828 0 16.1524V2.15237C0 1.62194 0.210714 1.11323 0.585786 0.738161C0.960859 0.363088 1.46957 0.152374 2 0.152374H16ZM15.5 15.6524V10.3524C15.5 9.48777 15.1565 8.65857 14.5452 8.04721C13.9338 7.43584 13.1046 7.09237 12.24 7.09237C11.39 7.09237 10.4 7.61237 9.92 8.39237V7.28237H7.13V15.6524H9.92V10.7224C9.92 9.95237 10.54 9.32237 11.31 9.32237C11.6813 9.32237 12.0374 9.46987 12.2999 9.73242C12.5625 9.99498 12.71 10.3511 12.71 10.7224V15.6524H15.5ZM3.88 5.71237C4.32556 5.71237 4.75288 5.53538 5.06794 5.22031C5.383 4.90525 5.56 4.47794 5.56 4.03237C5.56 3.10237 4.81 2.34237 3.88 2.34237C3.43178 2.34237 3.00193 2.52043 2.68499 2.83736C2.36805 3.1543 2.19 3.58416 2.19 4.03237C2.19 4.96237 2.95 5.71237 3.88 5.71237ZM5.27 15.6524V7.28237H2.5V15.6524H5.27Z" fill="#FFFDFA"/>
</svg>
