<svg width="16" height="20" viewBox="0 0 16 20" fill="none" xmlns="http://www.w3.org/2000/svg">
<path d="M8.16279 9.59127C8.66037 9.59127 9.08576 9.41411 9.43896 9.05977C9.79216 8.70544 9.96876 8.27948 9.96876 7.7819C9.96876 7.28431 9.7916 6.85892 9.43726 6.50572C9.08293 6.15252 8.65697 5.97592 8.15939 5.97592C7.6618 5.97592 7.23641 6.15309 6.88321 6.50742C6.53001 6.86176 6.35341 7.28771 6.35341 7.7853C6.35341 8.28288 6.53058 8.70827 6.88491 9.06147C7.23925 9.41467 7.6652 9.59127 8.16279 9.59127ZM8.16109 17.2394C10.1175 15.4881 11.6146 13.8083 12.6524 12.1999C13.6903 10.5916 14.2092 9.18295 14.2092 7.97397C14.2092 6.15091 13.63 4.65219 12.4717 3.47782C11.3133 2.30346 9.87647 1.71627 8.16109 1.71627C6.4457 1.71627 5.00885 2.30346 3.85051 3.47782C2.69218 4.65219 2.11301 6.15091 2.11301 7.97397C2.11301 9.18295 2.63192 10.5916 3.66974 12.1999C4.70757 13.8083 6.20469 15.4881 8.16109 17.2394ZM8.16109 19.2355C5.64444 17.0547 3.75726 15.0252 2.49956 13.147C1.24188 11.2688 0.613037 9.54449 0.613037 7.97397C0.613037 5.66631 1.35951 3.79805 2.85246 2.3692C4.3454 0.940347 6.11494 0.225922 8.16109 0.225922C10.2072 0.225922 11.9768 0.940347 13.4697 2.3692C14.9627 3.79805 15.7091 5.66631 15.7091 7.97397C15.7091 9.54449 15.0803 11.2688 13.8226 13.147C12.5649 15.0252 10.6777 17.0547 8.16109 19.2355Z" fill="#04045C"/>
</svg>
