<svg width="18" height="18" viewBox="0 0 18 18" fill="none" xmlns="http://www.w3.org/2000/svg">
<path d="M12.113 17.1922L6.11301 15.0922L1.80919 16.7576C1.51432 16.8717 1.24125 16.839 0.989962 16.6595C0.738679 16.48 0.613037 16.2345 0.613037 15.923V2.80765C0.613037 2.61021 0.665929 2.43297 0.771712 2.27592C0.877479 2.11887 1.02587 2.00509 1.21689 1.93457L6.11301 0.269196L12.113 2.3692L16.4168 0.703821C16.7117 0.589721 16.9848 0.617604 17.2361 0.787471C17.4873 0.957338 17.613 1.19484 17.613 1.49997V14.6922C17.613 14.8961 17.5553 15.0749 17.4399 15.2287C17.3245 15.3826 17.1681 15.4948 16.9707 15.5653L12.113 17.1922ZM11.363 15.3576V3.65762L6.86299 2.08455V13.7845L11.363 15.3576ZM12.863 15.3576L16.113 14.2807V2.4307L12.863 3.65762V15.3576ZM2.11301 15.0307L5.36304 13.7845V2.08455L2.11301 3.1807V15.0307Z" fill="#fffdfa"/>
</svg>
