<svg width="18" height="19" viewBox="0 0 18 19" fill="none" xmlns="http://www.w3.org/2000/svg">
<path d="M17.8563 5.59075C17.8677 3.46465 16.5395 1.3858 14.4776 0.65684C12.7631 0.0111397 11.3504 0.186629 9.0735 0.15738C8.07909 0.14613 7.08012 0.150631 6.08342 0.204627C5.06617 0.283371 3.99174 0.339618 3.03621 0.740098C0.638208 1.90551 0.162714 4.77858 0.0667018 7.1589C-0.0407389 8.90928 -0.00873621 10.6664 0.0941337 12.4191C0.146711 13.5755 0.309017 14.7701 0.974234 15.7601C1.21884 16.1831 1.53203 16.525 1.89092 16.8085C2.6613 17.4137 3.64426 17.7332 4.63639 17.9222C4.77127 17.9492 4.90842 17.9717 5.0433 17.9942C5.12787 18.0167 5.2056 18.0032 5.2376 17.9559C5.24447 17.9447 5.25133 17.9312 5.25133 17.9177C5.37019 16.6218 5.56223 15.3326 5.96227 14.0884C6.53833 12.2818 7.12354 10.4527 6.91095 8.53806C6.84467 7.30514 8.65975 6.40745 9.28609 7.74387C9.86904 9.04428 8.87233 10.3919 9.06435 11.7238C9.13294 12.1041 9.29296 12.4235 9.69529 12.5563C11.0989 13.0063 12.3447 11.7193 12.6899 10.4797C13.33 8.51781 12.3196 5.70775 9.99705 5.51427C7.52816 5.26004 4.93357 7.37488 5.46163 9.92622C5.47534 10.5899 5.88912 11.2694 5.70395 11.9241C5.11187 12.8353 4.02376 11.5821 3.68771 10.9971C2.0098 7.78212 5.31075 4.02038 8.62544 3.72789C12.6556 3.21043 16.2881 6.47046 14.7931 10.5202C13.9289 12.8915 10.7263 15.1706 8.36256 13.337C7.95794 14.9501 7.40701 16.5025 6.73036 18.0369C6.72579 18.0482 6.72121 18.0594 6.71665 18.0707C7.3933 18.1224 8.07453 18.1472 8.75574 18.1517C10.1708 18.1607 11.5927 18.0842 13.0031 17.9964C14.025 17.9829 14.8548 17.7444 15.5223 17.3395C17.2825 16.273 17.918 14.0569 17.982 11.7441C18.0277 9.69224 17.9866 7.63587 17.8563 5.59075Z" fill="#FFFDFA"/>
</svg>
