<svg width="19" height="19" viewBox="0 0 19 19" fill="none" xmlns="http://www.w3.org/2000/svg">
<path d="M17.7814 18.7307L11.2056 12.1548C10.6821 12.587 10.0801 12.9253 9.39952 13.1696C8.71898 13.4139 8.01495 13.536 7.28744 13.536C5.49797 13.536 3.98349 12.9164 2.744 11.6773C1.50451 10.4381 0.884766 8.924 0.884766 7.135C0.884766 5.34599 1.50435 3.83134 2.74353 2.59107C3.9827 1.35081 5.4968 0.730682 7.28581 0.730682C9.07481 0.730682 10.5894 1.35043 11.8297 2.58992C13.07 3.82941 13.6901 5.34388 13.6901 7.13335C13.6901 7.881 13.5646 8.5951 13.3136 9.27564C13.0626 9.95618 12.7277 10.5481 12.3089 11.0515L18.8848 17.6273L17.7814 18.7307ZM7.28744 11.9656C8.63644 11.9656 9.77906 11.4975 10.7153 10.5612C11.6516 9.62498 12.1197 8.48236 12.1197 7.13335C12.1197 5.78435 11.6516 4.64173 10.7153 3.70548C9.77906 2.76923 8.63644 2.3011 7.28744 2.3011C5.93843 2.3011 4.79581 2.76923 3.85956 3.70548C2.92333 4.64173 2.45521 5.78435 2.45521 7.13335C2.45521 8.48236 2.92333 9.62498 3.85956 10.5612C4.79581 11.4975 5.93843 11.9656 7.28744 11.9656Z" fill="#052545"/>
</svg>
