<svg width="14" height="22" viewBox="0 0 14 22" fill="none" xmlns="http://www.w3.org/2000/svg">
<path d="M2.42098 21.2306C1.91585 21.2306 1.48828 21.0556 1.13828 20.7056C0.788281 20.3557 0.613281 19.9281 0.613281 19.423V2.03841C0.613281 1.53328 0.788281 1.10571 1.13828 0.755713C1.48828 0.405713 1.91585 0.230713 2.42098 0.230713H11.8055C12.3107 0.230713 12.7382 0.405713 13.0882 0.755713C13.4382 1.10571 13.6132 1.53328 13.6132 2.03841V19.423C13.6132 19.9281 13.4382 20.3557 13.0882 20.7057C12.7382 21.0557 12.3107 21.2307 11.8055 21.2307L2.42098 21.2306ZM2.11326 18.4807V19.423C2.11326 19.4999 2.14531 19.5704 2.20941 19.6346C2.27352 19.6987 2.34405 19.7307 2.42098 19.7307H11.8055C11.8825 19.7307 11.953 19.6987 12.0171 19.6346C12.0812 19.5704 12.1133 19.4999 12.1133 19.423V18.4807H2.11326ZM2.11326 16.9807H12.1133V4.48069H2.11326V16.9807ZM2.11326 2.98074H12.1133V2.03844C12.1133 1.96151 12.0812 1.89098 12.0171 1.82686C11.953 1.76276 11.8825 1.73071 11.8055 1.73071H2.42098C2.34405 1.73071 2.27352 1.76276 2.20941 1.82686C2.14531 1.89098 2.11326 1.96151 2.11326 2.03844V2.98074Z" fill="#04045C"/>
</svg>
