<svg width="18" height="19" viewBox="0 0 18 19" fill="none" xmlns="http://www.w3.org/2000/svg">
<path fill-rule="evenodd" clip-rule="evenodd" d="M4 0.152374C1.79077 0.152374 0 1.94324 0 4.15237V14.1524C0 16.3615 1.79077 18.1524 4 18.1524H14C16.2092 18.1524 18 16.3615 18 14.1524V4.15237C18 1.94324 16.2092 0.152374 14 0.152374H4ZM12.5327 4.3793C12.9995 4.91376 13.6221 5.28262 14.3096 5.43216C14.5366 5.48083 14.7681 5.50522 15 5.50494V7.90073C13.8218 7.90286 12.6726 7.5293 11.7144 6.83267V11.7222C11.7141 12.6028 11.4561 13.4633 10.9729 14.1941C10.4895 14.9248 9.80298 15.4926 9.00098 15.8248C8.19897 16.1571 7.31763 16.2389 6.46973 16.0596C5.62183 15.8804 4.8457 15.4484 4.24023 14.8186C3.60547 14.158 3.1897 13.3121 3.05103 12.3993C2.91235 11.4865 3.05786 10.5526 3.46704 9.72797C3.87622 8.90338 4.52856 8.22943 5.33301 7.80042C6.13745 7.37137 7.05371 7.20871 7.95361 7.33521V9.78488C7.55005 9.65433 7.11597 9.65787 6.7146 9.79495C6.31323 9.93207 5.96509 10.1956 5.72095 10.5474C5.47681 10.8991 5.34912 11.3208 5.35669 11.7513C5.36401 12.1818 5.5061 12.5986 5.76245 12.9415C6.01465 13.2787 6.3645 13.527 6.7627 13.6516C7.16089 13.7762 7.5874 13.7709 7.98267 13.6363C8.37769 13.5016 8.72144 13.2446 8.96533 12.9011C9.20923 12.5577 9.34131 12.1452 9.34277 11.7215V2.15237H11.7144V2.46103C11.7791 3.17279 12.0659 3.84485 12.5327 4.3793Z" fill="#FFFDFA"/>
</svg>
