<svg width="18" height="15" viewBox="0 0 18 15" fill="none" xmlns="http://www.w3.org/2000/svg">
<path d="M14.5305 5.12399L13.5679 4.13328L15.3385 2.39076L16.3011 3.35335L14.5305 5.12399ZM0 14.0791V12.709H17.8118V14.0791H0ZM8.22086 2.5383V0.0790787H9.59095V2.5383H8.22086ZM3.28131 5.09588L1.53878 3.32524L2.50138 2.36265L4.27199 4.13328L3.28131 5.09588ZM4.72697 8.82689H13.0848C12.7347 8.0048 12.1852 7.34257 11.4363 6.84018C10.6874 6.3378 9.84392 6.08661 8.9059 6.08661C7.96789 6.08661 7.12443 6.3378 6.37552 6.84018C5.62663 7.34257 5.07712 8.0048 4.72697 8.82689ZM3.02135 10.197C3.12676 8.6442 3.74273 7.34258 4.86928 6.29215C5.99584 5.24171 7.34138 4.71649 8.9059 4.71649C10.4704 4.71649 11.816 5.24171 12.9425 6.29215C14.0691 7.34258 14.685 8.6442 14.7905 10.197H3.02135Z" fill="#052545"/>
</svg>
