<svg width="183" height="151" viewBox="0 0 183 151" fill="none" xmlns="http://www.w3.org/2000/svg">
<path d="M12.5158 1.38889C8.11584 1.78889 4.61584 4.28888 2.51584 8.68888L1.81584 10.0889V63.4889C1.61584 100.589 1.81584 117.389 2.01584 118.389C2.41584 120.089 3.31584 121.989 3.81584 122.289C4.01584 122.389 4.21584 122.689 4.21584 122.889C4.21584 123.489 6.71584 125.489 8.71584 126.489L10.8158 127.489H62.0158C99.8158 127.689 113.716 127.489 114.916 127.289C117.116 126.789 120.116 125.089 121.216 123.589C121.716 122.889 122.216 122.289 122.316 122.189C122.416 122.189 122.816 121.189 123.316 120.289L124.116 118.489V65.4889C124.216 29.4889 124.116 11.9889 123.916 10.8889C123.516 8.9889 122.616 6.58889 122.216 6.58889C122.116 6.58889 122.016 6.48889 122.016 6.28889C122.016 5.18889 117.816 2.08889 115.516 1.48889C113.916 1.08889 17.4158 0.78889 12.6158 1.18889M121.516 1.88889C120.616 2.08889 120.816 2.88889 121.716 2.88889C122.616 2.88889 122.516 2.68889 122.516 2.38889C122.516 1.78889 122.216 1.68889 121.516 1.78889M123.916 1.78889C123.016 2.18889 123.516 2.88889 124.816 2.88889C126.116 2.88889 126.116 2.78889 126.116 2.48889C126.116 1.78889 124.916 1.48889 123.916 1.88889M127.116 1.78889C126.316 2.08889 127.416 2.88889 128.516 2.88889C129.616 2.88889 129.616 2.78889 129.616 2.28889C129.616 1.78889 128.216 1.38889 127.116 1.88889M131.016 1.78889C130.016 2.18889 130.616 2.88889 132.016 2.88889C133.416 2.88889 133.416 2.78889 133.416 2.48889C133.416 1.78889 132.016 1.38889 130.916 1.88889M138.016 1.88889C137.116 2.18889 137.716 2.88889 138.816 2.88889C139.516 2.88889 140.016 2.88889 140.216 3.28889C140.716 4.08889 140.616 117.489 140.216 117.589C140.016 117.589 139.416 117.589 138.816 117.589C138.116 117.589 137.816 117.789 137.716 118.289C137.716 118.889 137.716 118.989 140.216 118.989C142.716 118.989 142.816 118.989 142.816 118.289C142.816 117.589 142.616 117.589 142.316 117.589C141.916 117.589 141.816 110.989 141.816 60.2889C141.816 9.58889 141.816 2.98889 142.316 2.98889C142.816 2.98889 142.816 2.68889 142.816 2.28889C142.816 1.68889 139.616 1.38889 138.116 1.88889M113.816 2.58889C117.716 3.18889 120.616 5.38889 122.016 8.98889L122.816 10.9889V36.6889C122.816 50.7889 122.816 62.3889 122.616 62.3889C122.416 62.3889 122.316 53.2889 122.316 42.1889C122.316 13.8889 122.116 10.9889 120.816 8.58889C118.816 5.08889 116.116 3.38889 112.616 3.28889C111.716 3.28889 111.416 3.18889 111.816 2.98889C112.116 2.78889 95.0158 2.68888 63.3158 2.68888C35.2158 2.68888 14.2158 2.78889 14.1158 2.98889C14.1158 3.18889 13.2158 3.38889 12.4158 3.48889C10.8158 3.68889 8.11584 5.28889 7.01584 6.48889C6.11584 7.58889 4.31584 10.8889 4.51584 11.0889C4.51584 11.0889 4.51584 11.3889 4.51584 11.5889C4.31584 11.9889 4.21584 117.189 4.41584 118.089C5.11584 120.889 7.31584 123.489 10.2158 124.989L12.1158 125.989H114.316L116.016 125.189C118.916 123.889 121.316 120.989 121.916 118.089C122.216 116.589 122.616 116.789 122.516 118.389C122.316 121.289 117.516 126.789 116.016 125.789C115.816 125.689 115.616 125.789 115.616 125.889C115.416 126.589 13.1158 126.889 10.8158 126.289C8.41584 125.589 5.31584 122.989 4.01584 120.489L3.31584 119.089V10.5889L4.11584 8.98889C5.51584 5.98889 9.01584 3.28889 12.1158 2.78889C14.4158 2.38889 111.416 2.38889 114.116 2.78889M82.2158 3.08889C69.7158 3.08889 49.4158 3.08889 36.9158 3.08889C24.4158 3.08889 34.6158 3.08889 59.5158 3.08889C84.4158 3.08889 94.6158 3.08889 82.1158 3.08889M115.416 5.08889C117.316 5.98889 118.916 7.48889 120.016 9.78889L120.816 11.3889V63.1889C120.916 91.6889 120.916 115.489 120.816 116.089L120.616 117.089H108.416C97.6158 116.989 96.8158 116.689 106.916 116.489C111.316 116.489 112.016 115.189 111.516 108.089C110.916 99.8889 110.116 88.5889 110.016 86.9889V85.5889L112.416 85.3889C122.816 84.5889 122.116 70.6889 111.616 70.1889C108.416 69.9889 108.616 70.1889 108.416 66.5889C108.316 64.8889 108.016 61.5889 107.916 59.2889C107.816 56.9889 107.416 52.2889 107.116 48.8889C106.416 39.2889 106.716 39.4889 97.8158 39.6889C88.4158 39.9889 89.2158 38.4889 89.7158 55.0889C90.2158 74.2889 90.2158 74.7889 90.0158 74.7889C89.8158 74.7889 89.7158 78.8889 90.0158 78.9889C90.3158 79.0889 90.5158 83.9889 90.8158 99.0889C90.9158 103.589 91.0158 108.089 91.1158 109.089C91.1158 110.489 91.1158 110.989 90.6158 111.189C89.5158 111.889 88.9158 114.289 89.4158 115.789L89.9158 117.089H84.9158C81.2158 117.089 80.3158 116.889 81.5158 116.689C84.7158 116.189 84.6158 117.189 84.1158 90.9889C84.1158 89.0889 84.1158 88.7889 84.6158 88.7889C85.4158 88.7889 85.3158 87.4889 84.5158 85.7889C83.8158 84.3889 83.5158 67.0889 84.0158 58.3889C84.1158 56.6889 84.2158 53.7889 84.3158 51.9889C84.3158 50.1889 84.6158 46.2889 84.7158 43.4889C85.1158 35.0889 85.0158 30.7889 84.5158 29.6889C83.7158 28.0889 81.7158 26.3889 80.4158 26.1889C79.4158 25.9889 79.1158 25.7889 78.5158 24.5889C76.7158 21.1889 73.7158 20.4889 71.4158 23.0889C69.1158 25.4889 69.1158 25.7889 70.3158 49.3889C70.3158 51.2889 70.3158 52.2889 70.1158 52.1889C69.7158 51.8889 69.7158 52.4889 70.1158 52.8889C70.9158 53.6889 70.9158 78.8889 70.1158 80.5889C69.7158 81.3889 69.4158 82.1889 69.4158 82.4889C69.4158 82.7889 69.1158 82.9889 68.4158 82.9889C67.8158 82.9889 67.1158 82.9889 66.8158 83.1889C66.3158 83.3889 66.2158 82.4889 66.2158 66.5889C66.2158 50.6889 66.2158 49.7889 66.7158 49.6889C67.0158 49.6889 67.4158 49.6889 67.6158 49.6889C67.9158 49.6889 68.0158 48.6889 68.1158 46.2889C68.1158 40.6889 68.1158 40.7889 68.9158 40.5889C69.8158 40.3889 69.7158 39.0889 68.9158 38.7889C64.2158 37.2889 64.2158 37.2889 64.2158 39.4889C64.2158 43.0889 63.8158 47.6889 63.5158 47.9889C63.0158 48.2889 63.0158 49.1889 63.5158 49.5889C63.7158 49.7889 63.9158 49.8889 63.9158 49.6889C63.9158 49.4889 64.1158 49.6889 64.4158 49.8889C65.0158 50.3889 65.1158 82.8889 64.6158 82.8889C64.1158 82.8889 63.9158 82.7889 63.5158 82.5889C62.9158 82.3889 62.5158 82.3889 62.0158 82.7889L61.3158 83.2889V46.4889H62.2158C63.2158 46.2889 63.5158 44.9889 62.7158 44.6889C62.4158 44.5889 62.3158 43.7889 62.3158 41.9889C62.3158 40.1889 62.1158 38.7889 61.9158 37.9889C61.6158 36.7889 61.6158 36.4889 61.9158 36.2889C63.4158 35.3889 61.4158 34.0889 59.8158 34.8889C59.1158 35.2889 58.2158 35.5889 57.7158 35.7889C56.6158 36.0889 56.5158 36.8889 57.5158 37.8889C57.9158 38.2889 58.1158 38.7889 58.0158 39.1889C57.9158 39.4889 58.0158 40.1889 58.3158 40.6889C58.9158 41.8889 58.9158 43.9889 58.3158 44.8889C57.6158 45.7889 57.9158 46.5889 59.0158 46.5889C60.1158 46.5889 60.2158 47.1889 59.4158 47.2889C59.1158 47.2889 59.1158 47.2889 59.4158 47.4889C59.8158 47.6889 60.0158 106.089 59.6158 107.689C59.4158 108.289 59.3158 108.389 58.3158 108.289C56.7158 107.989 55.9158 108.289 56.0158 109.189C56.0158 109.789 56.3158 109.889 57.7158 109.989C59.7158 110.089 59.8158 110.289 59.8158 112.989C59.8158 115.489 61.1158 116.289 61.3158 113.989C61.3158 112.989 61.4158 112.989 62.7158 113.089C64.9158 113.389 64.9158 113.289 64.8158 115.389V117.189H57.1158C49.9158 117.189 49.5158 117.189 49.5158 116.689C49.5158 116.189 49.9158 115.989 50.9158 115.789C52.1158 115.489 52.3158 115.389 52.6158 114.389C52.8158 113.789 53.1158 113.089 53.4158 112.889C54.2158 112.289 54.1158 95.8889 53.4158 95.0889C53.1158 94.7889 52.8158 94.1889 52.6158 93.7889C52.5158 93.1889 52.0158 92.8889 50.9158 92.5889C50.1158 92.2889 49.7158 92.0889 49.9158 92.0889C51.2158 92.0889 50.8158 91.0889 49.5158 91.0889C48.2158 91.0889 48.2158 91.0889 48.4158 91.6889C48.5158 92.1889 48.4158 92.2889 47.2158 92.3889C45.7158 92.5889 44.2158 92.0889 44.8158 91.5889C45.1158 91.3889 45.1158 91.2889 44.8158 91.2889C44.5158 91.2889 44.4158 90.6889 44.4158 89.4889C44.4158 88.2889 44.4158 87.6889 43.7158 87.6889C43.3158 87.6889 42.8158 87.6889 42.7158 87.5889C42.6158 87.4889 42.0158 87.5889 41.5158 87.4889H40.6158V84.3889C40.6158 81.5889 40.6158 81.1889 39.6158 79.4889C38.4158 77.1889 38.4158 77.1889 35.0158 77.1889C30.7158 77.1889 30.9158 77.4889 30.9158 70.9889C30.9158 64.4889 31.2158 64.5889 25.6158 64.6889C19.9158 64.6889 20.3158 64.2889 20.3158 70.6889C20.3158 77.3889 20.5158 77.1889 16.1158 77.1889C11.7158 77.1889 11.0158 78.1889 11.8158 78.9889C11.8158 78.9889 11.7158 79.3889 11.3158 79.7889C10.3158 80.8889 10.3158 111.189 11.3158 112.389C11.7158 112.789 11.9158 113.489 11.9158 113.789C11.9158 114.689 12.9158 115.489 14.0158 115.589C14.5158 115.589 14.8158 115.589 14.6158 115.789C14.3158 115.889 14.3158 116.089 14.7158 116.489C15.4158 117.189 6.41584 117.489 5.61584 116.789C5.11584 116.289 4.91584 12.3889 5.51584 11.6889C5.71584 11.4889 5.91584 11.0889 5.91584 10.6889C6.21584 9.38888 6.51584 8.58889 6.81584 8.58889C7.11584 8.58889 7.21584 8.28889 7.31584 7.98889C7.41584 7.68889 8.21584 6.88889 9.01584 6.28889C12.0158 4.08889 8.31583 4.18889 63.8158 4.28889H113.916L115.616 5.08889M76.4158 25.2889C78.2158 26.3889 78.2158 26.4889 77.7158 39.0889C77.6158 42.3889 77.4158 45.6889 77.3158 46.4889C77.3158 47.2889 77.1158 50.0889 77.0158 52.6889C76.8158 57.9889 76.8158 58.0889 75.9158 57.0889C75.0158 55.8889 72.9158 56.1889 72.6158 57.5889C72.1158 59.6889 71.8158 58.1889 71.6158 51.1889C71.5158 47.2889 71.3158 43.4889 71.3158 42.7889C71.3158 42.0889 71.1158 38.8889 71.0158 35.5889C70.9158 32.3889 70.8158 29.5889 70.8158 29.4889C70.0158 26.3889 73.8158 23.6889 76.5158 25.2889M82.0158 29.7889C82.3158 29.9889 82.5158 30.2889 82.4158 30.4889C82.3158 30.6889 82.4158 30.7889 82.5158 30.5889C83.7158 29.8889 84.0158 32.1889 83.6158 40.2889C83.4158 44.5889 83.1158 50.6889 83.1158 53.8889C82.9158 61.0889 82.7158 63.6889 82.3158 63.6889C81.9158 63.6889 82.1158 63.5889 82.2158 63.3889C82.3158 63.1889 82.2158 63.0889 82.1158 63.0889C82.0158 63.0889 81.7158 62.6889 81.6158 62.0889C81.3158 60.8889 78.7158 60.5889 78.5158 61.6889C78.1158 63.2889 78.8158 41.2889 79.4158 32.0889L79.6158 29.4889H80.6158C81.1158 29.4889 81.8158 29.6889 82.2158 29.7889M102.516 41.8889C102.516 42.0889 102.516 42.1889 102.716 42.0889C103.316 41.6889 103.716 42.8889 104.016 46.3889C104.216 48.7889 104.216 50.0889 104.016 50.1889C103.816 50.1889 103.816 50.3889 104.016 50.4889C104.216 50.5889 104.416 51.6889 104.516 52.7889L104.716 54.8889H94.5158L94.3158 52.0889C94.1158 49.7889 94.0158 42.2889 94.1158 41.3889C94.1158 41.2889 96.0158 41.1889 98.4158 41.1889C101.716 41.1889 102.616 41.3889 102.616 41.6889M74.8158 57.7889C74.7158 57.8889 74.8158 58.2889 75.1158 58.6889C75.9158 59.7889 75.7158 63.1889 74.9158 62.7889C74.6158 62.5889 74.2158 62.4889 74.0158 62.4889C73.0158 62.6889 72.9158 62.4889 73.0158 60.8889C73.2158 58.8889 73.7158 57.5889 74.4158 57.5889C75.1158 57.5889 74.9158 57.5889 74.7158 57.7889M101.916 59.1889C101.816 59.3889 101.916 59.4889 102.016 59.4889C102.116 59.4889 102.416 59.3889 102.516 59.1889C102.616 58.9889 103.216 58.8889 103.916 58.8889C104.516 58.8889 104.916 58.9889 104.616 59.0889C104.316 59.1889 104.316 59.2889 104.616 59.4889C104.916 59.6889 105.816 68.9889 105.516 69.2889C105.316 69.4889 103.516 69.5889 101.616 69.4889C100.216 69.4889 100.116 69.3889 100.116 68.6889C100.116 66.0889 97.1158 63.9889 93.4158 63.9889H91.1158V61.7889C91.1158 59.1889 90.9158 59.2889 95.7158 59.0889C97.5158 59.0889 99.6158 58.9889 100.416 58.8889C101.416 58.8889 101.916 58.8889 101.716 59.1889M80.5158 62.9889C80.6158 63.4889 80.8158 63.9889 80.9158 64.1889C81.0158 64.3889 81.1158 65.1889 81.2158 65.9889V67.4889C81.3158 67.4889 79.8158 67.5889 79.8158 67.5889H78.3158C78.3158 67.6889 78.3158 66.5889 78.3158 66.5889C78.3158 65.5889 79.0158 62.9889 79.4158 62.3889C79.7158 61.8889 80.2158 62.1889 80.4158 62.9889M96.8158 66.1889C98.4158 67.1889 98.8158 68.2889 99.0158 72.5889C99.1158 75.9889 99.0158 76.1889 98.6158 75.4889C98.3158 75.0889 98.1158 74.6889 98.2158 74.4889C98.3158 74.2889 98.2158 74.2889 98.1158 74.2889C98.0158 74.2889 97.9158 73.3889 98.0158 72.3889C98.2158 69.1889 96.2158 66.9889 93.9158 67.8889C92.7158 68.3889 92.3158 69.3889 92.5158 71.5889C92.7158 73.5889 92.4158 76.3889 92.1158 76.0889C92.0158 75.9889 91.8158 73.4889 91.8158 70.5889V65.2889C91.7158 65.2889 93.7158 65.2889 93.7158 65.2889C95.1158 65.2889 96.1158 65.5889 97.0158 66.0889M28.4158 71.0889C28.5158 76.1889 28.6158 76.1889 25.1158 76.1889H22.4158V72.0889C22.4158 66.5889 22.2158 66.8889 25.6158 66.9889H28.4158L28.5158 71.1889M82.5158 75.0889C82.5158 78.5889 82.4158 81.1889 82.3158 80.8889C82.3158 80.5889 82.0158 80.3889 81.9158 80.4889C81.7158 80.5889 81.6158 78.9889 81.6158 76.4889C81.6158 73.9889 81.7158 72.2889 81.9158 72.2889C82.1158 72.2889 82.2158 71.4889 82.2158 70.4889C82.2158 69.4889 82.2158 68.6889 82.4158 68.6889C82.6158 68.6889 82.5158 71.4889 82.5158 74.9889M102.116 79.1889C102.216 82.6889 102.116 82.6889 101.516 82.7889C100.816 82.7889 100.816 82.7889 100.716 80.6889C100.716 79.4889 100.716 77.4889 100.616 76.1889C100.616 74.2889 100.616 73.8889 101.016 73.7889C101.716 73.6889 101.916 74.7889 102.116 79.0889M106.116 74.1889C106.116 74.4889 106.416 76.4889 106.516 78.6889L106.716 82.5889H105.216C103.716 82.5889 103.716 82.5889 104.416 82.0889C105.416 81.3889 105.116 75.0889 104.116 74.1889C103.516 73.6889 103.516 73.5889 104.816 73.5889C106.116 73.5889 106.116 73.6889 106.316 74.1889M122.816 91.3889C122.816 107.689 122.716 111.689 122.216 105.889C121.716 99.5889 122.016 73.5889 122.616 74.1889C122.716 74.2889 122.816 82.0889 122.816 91.4889M18.4158 95.4889V112.589H13.1158V95.8889C13.1158 85.7889 13.2158 78.9889 13.4158 78.8889C13.6158 78.6889 14.8158 78.5889 16.0158 78.4889H18.3158V95.4889M30.2158 78.7889C30.1158 78.9889 30.2158 79.0889 30.4158 79.0889C30.6158 79.0889 30.7158 80.4889 30.7158 82.9889C30.7158 86.7889 30.7158 86.7889 30.1158 86.4889C29.6158 86.1889 29.5158 85.7889 29.5158 84.8889C29.5158 83.9889 29.6158 83.6889 29.8158 83.7889C30.1158 83.9889 30.6158 82.0889 30.3158 81.7889C30.2158 81.6889 29.7158 81.7889 29.3158 81.9889C28.5158 82.3889 28.5158 82.3889 28.7158 81.2889C28.9158 80.2889 28.7158 80.0889 28.1158 79.6889C27.1158 79.0889 23.1158 79.1889 22.9158 79.7889C22.7158 80.3889 21.1158 81.7889 20.6158 81.7889C20.1158 81.7889 20.2158 82.0889 20.1158 82.3889C20.1158 82.6889 19.9158 81.9889 19.9158 80.7889V78.6889H25.2158C28.4158 78.6889 30.4158 78.6889 30.3158 78.9889M37.5158 82.9889C37.5158 86.8889 37.5158 87.2889 36.9158 87.2889C33.8158 87.2889 33.6158 87.4889 33.3158 89.8889C33.2158 90.9889 33.0158 91.7889 32.8158 91.7889C32.6158 91.7889 32.4158 91.9889 32.2158 92.1889C32.0158 92.3889 31.9158 89.5889 31.9158 85.6889V78.7889H37.3158V83.0889M56.1158 85.1889C54.2158 88.0889 54.0158 92.1889 55.7158 92.1889C57.4158 92.1889 56.3158 92.0889 56.2158 91.8889C56.1158 91.6889 56.2158 91.5889 56.2158 91.5889C56.6158 91.5889 57.6158 89.7889 57.3158 89.5889C57.2158 89.4889 57.3158 89.3889 57.3158 89.3889C57.9158 89.3889 57.4158 85.5889 56.8158 85.1889C56.4158 84.9889 56.1158 84.9889 56.0158 85.1889M107.216 88.5889C107.216 89.7889 107.216 91.6889 107.416 92.7889C107.516 93.8889 107.616 95.4889 107.616 96.2889V97.6889L102.716 97.7889C98.3158 97.7889 97.8158 97.7889 98.2158 97.3889C98.4158 97.0889 98.8158 96.8889 99.1158 96.8889C99.8158 96.8889 99.6158 96.1889 98.7158 94.8889L97.9158 93.6889L99.0158 92.5889C100.316 91.3889 101.116 89.5889 101.116 88.0889C101.116 86.5889 101.316 86.8889 105.316 86.5889C106.116 86.5889 106.816 86.4889 107.016 86.3889C107.116 86.3889 107.216 87.2889 107.316 88.4889M44.2158 95.3889C44.2158 96.6889 44.2158 96.9889 43.7158 96.7889C43.4158 96.6889 42.8158 96.7889 42.4158 96.9889C40.5158 97.9889 41.8158 103.389 43.7158 102.589C44.1158 102.389 44.2158 102.789 44.2158 104.489C44.2158 106.189 44.1158 106.489 43.9158 106.389C43.7158 106.289 43.1158 106.389 42.6158 106.589C41.1158 107.189 41.2158 111.089 42.6158 111.989C43.9158 112.789 43.5158 112.989 40.9158 112.989C38.3158 112.989 38.5158 113.189 38.3158 109.489C38.1158 105.389 36.7158 103.389 34.0158 103.389C31.3158 103.389 33.6158 103.189 33.6158 102.889C33.6158 102.589 33.8158 102.489 34.1158 102.589C36.2158 103.389 37.6158 98.7889 35.7158 97.2889C35.2158 96.8889 34.6158 96.6889 34.3158 96.7889C33.8158 96.8889 33.7158 96.7889 33.7158 95.3889V93.7889H44.3158V95.3889M50.8158 99.8889C50.8158 106.489 51.0158 106.289 48.8158 105.389C46.8158 104.589 45.9158 105.589 46.1158 108.389C46.2158 110.889 48.0158 111.589 49.9158 109.889C50.6158 109.189 50.9158 109.589 50.9158 111.389V112.889H45.8158V105.389C45.8158 97.7889 45.8158 97.0889 46.5158 98.8889C46.8158 99.6889 47.0158 99.8889 47.7158 99.6889C49.2158 99.2889 51.5158 96.9889 50.3158 96.9889C49.1158 96.9889 49.6158 96.6889 49.1158 96.3889C47.8158 95.3889 46.5158 95.7889 46.5158 97.1889C46.5158 98.5889 46.4158 97.5889 46.2158 97.4889C46.0158 97.3889 45.9158 96.4889 45.9158 95.4889V93.6889H48.4158L50.9158 93.8889V99.8889M108.316 104.089C109.316 115.189 109.416 114.789 103.516 115.089C101.216 115.089 98.9158 115.289 98.4158 115.389C97.5158 115.389 97.4158 115.389 97.6158 114.889C97.8158 114.289 97.4158 113.289 96.3158 111.789C95.9158 111.189 95.7158 110.089 95.6158 106.589V102.189C95.5158 102.189 99.2158 102.089 99.2158 102.089C101.216 102.089 104.116 101.989 105.516 101.889H108.116L108.316 104.189M98.2158 104.389C97.0158 106.089 97.4158 111.889 98.9158 112.489C101.216 113.389 106.116 112.889 106.516 111.689C107.016 110.189 107.316 105.489 107.016 104.989C106.116 103.289 99.4158 102.889 98.3158 104.389M34.9158 106.389C34.9158 107.489 34.6158 108.189 34.2158 107.989C32.8158 107.189 31.8158 108.889 32.0158 111.389C32.2158 113.489 32.3158 113.589 33.7158 113.689C34.3158 113.689 34.8158 113.989 34.8158 114.189C34.8158 114.389 33.4158 114.589 29.4158 114.589H24.0158V105.389H34.9158V106.289M26.6158 106.589C25.9158 107.989 26.6158 108.489 29.5158 108.489C32.4158 108.489 32.9158 108.089 32.6158 106.689C32.3158 105.589 27.2158 105.389 26.6158 106.489M37.0158 110.289C37.1158 112.089 37.3158 113.789 37.4158 114.089C37.5158 114.489 37.4158 114.689 36.9158 114.689C36.4158 114.689 36.2158 114.489 36.3158 110.289C36.3158 105.389 36.7158 105.389 37.1158 110.289M44.2158 109.289C44.2158 111.089 44.2158 111.389 43.7158 110.989C43.4158 110.789 43.3158 110.489 43.4158 110.289C43.4158 110.089 43.4158 109.989 43.2158 109.989C42.9158 109.989 42.9158 109.989 43.2158 109.689C43.5158 109.489 43.5158 109.389 43.2158 109.389C42.6158 109.389 42.7158 108.589 43.4158 107.789C44.1158 106.889 44.1158 106.889 44.1158 109.289M24.3158 108.289C24.3158 109.289 24.7158 110.189 25.0158 109.789C25.2158 109.489 25.3158 109.989 25.3158 110.989C25.3158 111.989 25.3158 112.389 25.0158 112.189C24.8158 111.889 24.7158 111.989 24.5158 112.789C24.2158 114.089 24.5158 114.289 25.6158 113.789C27.5158 112.989 26.9158 108.089 24.9158 107.989C24.6158 107.989 24.3158 108.189 24.3158 108.389M83.2158 111.089C83.2158 111.789 83.2158 112.289 83.0158 112.189C82.7158 111.889 82.6158 109.389 83.0158 109.589C83.1158 109.589 83.3158 110.389 83.3158 111.089M122.816 112.189C122.816 112.589 122.816 112.989 122.616 112.989C122.416 112.989 122.316 112.489 122.316 111.989C122.316 110.889 122.716 110.989 122.916 112.189M19.9158 115.789C19.6158 115.889 19.7158 116.189 20.2158 116.589L20.9158 117.189H19.6158C18.4158 117.089 18.3158 116.989 18.4158 116.289C18.5158 115.689 18.7158 115.589 19.4158 115.589C19.9158 115.589 20.1158 115.589 19.8158 115.789M36.2158 116.189C35.3158 116.589 23.3158 116.489 22.3158 116.189C21.9158 116.089 25.1158 115.989 29.3158 115.989C33.5158 115.989 36.7158 115.989 36.2158 116.289M125.016 117.689C124.916 117.789 124.816 118.189 124.816 118.489C124.816 119.189 125.716 119.289 126.316 118.689C126.616 118.389 126.816 118.389 127.116 118.689C127.616 119.089 129.716 119.089 130.016 118.689C130.116 118.489 130.516 118.489 130.916 118.689C132.016 119.289 133.516 119.189 133.516 118.389C133.516 117.589 133.416 117.689 133.316 117.689C132.416 117.489 131.116 117.589 130.816 117.689C130.616 117.789 130.316 117.789 130.016 117.689C129.316 117.289 128.016 117.289 127.516 117.689C127.216 117.989 127.016 117.989 126.516 117.689C125.816 117.289 125.416 117.189 125.116 117.489M134.416 117.889C133.216 118.789 134.916 119.489 136.416 118.689C136.916 118.389 137.016 118.289 136.716 117.889C136.216 117.289 135.116 117.289 134.516 117.889M92.5158 118.789C92.6158 118.889 93.0158 118.889 93.5158 118.789C93.9158 118.589 94.7158 118.489 95.2158 118.589C95.7158 118.589 101.616 118.589 108.216 118.689H120.316L119.716 119.989C118.916 121.589 117.316 123.089 115.316 123.989L113.716 124.689H64.9158C11.3158 124.889 12.1158 124.889 9.31584 123.089C7.81584 122.089 6.01584 119.889 6.01584 119.089C6.01584 118.289 92.0158 118.289 92.4158 118.889M123.016 123.789C123.116 125.189 123.716 125.589 124.016 124.389C124.216 123.389 124.016 122.589 123.316 122.589C122.616 122.589 122.916 122.889 122.916 123.789M1.71584 125.689C1.21584 125.989 1.31584 127.989 1.91584 128.189C2.21584 128.189 2.31584 127.889 2.31584 126.889C2.31584 125.889 2.31584 125.389 2.31584 125.389C2.31584 125.389 2.01584 125.489 1.81584 125.689M123.116 129.189C122.616 129.689 122.916 131.289 123.416 131.189C123.816 131.189 124.016 130.789 124.016 130.189C124.016 129.289 123.516 128.789 123.116 129.289M1.11584 137.089C0.815838 139.089 1.11584 140.189 1.81584 139.989C2.11584 139.989 2.31584 139.589 2.31584 139.389C2.31584 138.989 11.2158 138.989 62.3158 138.989C113.416 138.989 122.316 139.089 122.316 139.289C122.316 139.489 122.516 139.589 122.816 139.589C123.116 139.589 123.316 139.689 123.316 139.889C123.316 140.089 123.516 140.089 123.816 139.989C124.316 139.789 124.516 136.489 124.016 135.789C123.616 135.089 123.016 135.689 123.016 136.689V137.589H2.31584V136.489C2.31584 134.589 1.41584 135.089 1.21584 137.089M134.516 1.78889C133.616 2.18889 134.116 2.88889 135.416 2.88889C136.716 2.88889 136.716 2.78889 136.716 2.28889C136.716 1.78889 135.416 1.38889 134.516 1.78889ZM76.7158 66.4889C76.7158 66.9889 76.6158 66.6889 76.6158 65.7889C76.6158 64.8889 76.6158 64.4889 76.7158 64.8889C76.7158 65.2889 76.7158 65.9889 76.7158 66.4889ZM122.916 72.3889C122.916 73.4889 122.916 73.5889 122.616 73.0889C122.216 72.1889 122.216 70.9889 122.616 70.9889C123.016 70.9889 122.916 71.5889 122.916 72.3889ZM110.416 72.6889C110.416 72.8889 110.916 72.9889 111.516 72.9889C112.116 72.9889 112.616 72.8889 112.616 72.6889C112.616 72.1889 114.816 73.1889 115.716 74.0889C118.416 76.5889 117.716 80.9889 114.516 82.5889C113.416 83.1889 109.916 83.5889 109.616 83.1889C109.116 82.5889 108.816 73.0889 109.316 72.6889C109.916 72.1889 110.416 72.1889 110.416 72.6889ZM82.0158 74.3889C82.0158 75.0889 82.0158 75.3889 82.1158 74.9889C82.1158 74.5889 82.1158 73.9889 82.1158 73.6889C82.1158 73.3889 82.0158 73.6889 82.0158 74.3889ZM82.0158 78.5889C82.0158 79.4889 82.0158 79.7889 82.1158 79.2889C82.1158 78.7889 82.1158 78.0889 82.1158 77.6889C82.1158 77.2889 82.0158 77.6889 82.0158 78.5889ZM37.5158 90.5889C37.5158 91.4889 37.4158 91.5889 36.5158 91.5889C35.6158 91.5889 35.5158 91.4889 35.5158 90.5889C35.5158 89.6889 35.6158 89.5889 36.5158 89.5889C37.4158 89.5889 37.5158 89.6889 37.5158 90.5889ZM41.7158 89.7889C41.3158 89.8889 41.3158 89.9889 41.7158 90.2889C42.1158 90.5889 42.1158 90.5889 41.7158 90.7889C41.3158 90.8889 41.3158 90.9889 41.7158 91.2889C42.0158 91.4889 41.8158 91.5889 41.2158 91.5889C40.6158 91.5889 40.4158 91.5889 40.7158 91.2889C41.1158 91.0889 41.1158 90.9889 40.7158 90.7889C40.3158 90.5889 40.3158 90.5889 40.7158 90.3889C41.1158 90.1889 41.1158 90.1889 40.7158 89.8889C40.4158 89.6889 40.6158 89.5889 41.2158 89.5889C41.7158 89.5889 42.0158 89.5889 41.7158 89.7889ZM32.0158 101.489H29.6158C28.2158 101.289 27.1158 101.489 27.1158 101.589C27.1158 101.789 27.0158 100.089 26.9158 97.7889V93.6889H32.0158V101.489ZM36.6158 94.2889C36.1158 94.4889 36.1158 96.0889 36.6158 96.5889C37.7158 97.6889 42.3158 96.8889 42.3158 95.5889C42.3158 94.2889 38.7158 93.3889 36.6158 94.2889ZM34.6158 99.4889C34.6158 100.189 34.4158 100.889 34.1158 101.089C33.7158 101.389 33.6158 101.189 33.6158 99.4889C33.6158 97.7889 33.6158 97.5889 34.1158 97.8889C34.4158 98.0889 34.6158 98.7889 34.6158 99.4889ZM44.2158 99.8889C44.2158 101.489 44.2158 101.789 43.8158 101.389C43.6158 101.189 43.4158 100.689 43.5158 100.289C43.5158 99.8889 43.5158 99.5889 43.3158 99.5889C42.8158 99.5889 42.8158 98.3889 43.3158 98.1889C44.1158 97.8889 44.2158 97.9889 44.2158 99.8889ZM76.6158 98.0889C77.0158 98.2889 77.1158 98.8889 77.1158 101.689C77.1158 104.489 76.7158 105.689 75.6158 102.389C74.4158 98.6889 74.7158 97.3889 76.6158 98.0889ZM20.8158 105.089C21.1158 104.889 21.0158 105.989 20.5158 107.989C20.4158 108.489 20.3158 109.389 20.4158 109.889C20.4158 110.389 20.4158 111.189 20.2158 111.689C20.0158 112.289 19.9158 111.389 19.9158 108.189C19.9158 104.989 19.9158 104.089 20.2158 104.589C20.4158 104.989 20.6158 105.289 20.8158 105.089ZM22.7158 110.189C22.7158 113.989 22.7158 114.489 22.1158 114.589C21.6158 114.689 21.5158 114.589 21.6158 113.189C21.6158 109.789 21.7158 109.689 22.1158 109.889C22.4158 110.089 22.4158 109.989 22.1158 109.689C21.8158 109.289 21.8158 108.689 22.0158 107.989C22.2158 107.289 22.2158 106.989 22.3158 106.489C22.4158 104.389 22.7158 106.689 22.7158 110.189ZM34.6158 110.989C34.6158 112.989 34.3158 113.489 34.0158 112.389C33.9158 111.889 33.7158 111.789 33.5158 112.089C33.3158 112.389 33.2158 112.089 33.2158 111.089C33.2158 110.089 33.4158 109.589 33.8158 109.289C34.6158 108.689 34.6158 108.889 34.6158 110.989ZM64.3158 110.089C64.3158 110.289 64.3158 110.489 64.3158 110.689C64.3158 110.889 63.6158 110.989 62.7158 111.089C61.4158 111.189 61.1158 111.089 61.3158 110.789C61.3158 110.589 61.5158 110.189 61.5158 110.089C61.5158 109.989 62.1158 109.789 62.9158 109.789C63.7158 109.789 64.3158 109.889 64.3158 110.089ZM71.0158 111.289C71.5158 111.789 72.4158 112.089 73.6158 112.189L75.4158 112.389L75.6158 113.789C75.8158 115.489 76.6158 116.489 78.3158 116.789C79.0158 116.889 76.8158 117.089 72.9158 117.089H66.3158V115.589C66.3158 113.489 66.8158 112.989 68.6158 112.989C70.4158 112.989 70.1158 112.889 70.3158 112.289C70.6158 111.389 70.0158 111.089 68.3158 111.089C67.6158 111.089 66.9158 110.989 66.9158 110.789C66.9158 110.189 70.2158 110.589 71.0158 111.289ZM78.4158 112.789C78.4158 112.989 78.6158 113.289 78.9158 113.389C80.3158 113.889 80.1158 114.889 78.5158 114.789C76.9158 114.689 76.1158 113.089 77.2158 111.789C77.6158 111.289 78.4158 111.989 78.4158 112.789ZM45.7158 116.489C45.7158 117.089 45.6158 117.089 42.0158 117.089C38.4158 117.089 38.2158 117.089 38.4158 116.489C38.6158 115.889 38.8158 115.889 42.1158 115.889C45.4158 115.889 45.7158 115.889 45.7158 116.489ZM1.31584 123.689C1.31584 124.389 1.51584 124.889 1.81584 124.989C2.21584 125.089 2.31584 124.989 2.31584 123.889C2.31584 122.789 2.21584 122.589 1.81584 122.589C1.41584 122.589 1.31584 122.889 1.31584 123.689ZM122.916 127.089C122.916 128.289 122.916 128.389 123.516 127.989C124.416 127.489 124.316 125.789 123.316 125.789C122.316 125.789 122.916 126.189 122.916 127.089ZM1.31584 130.089C1.31584 130.889 1.41584 131.189 1.81584 131.189C2.21584 131.189 2.31584 130.889 2.31584 130.089C2.31584 129.289 2.21584 128.989 1.81584 128.989C1.41584 128.989 1.31584 129.289 1.31584 130.089ZM1.31584 133.489C1.31584 134.389 1.41584 134.789 1.81584 134.789C2.21584 134.789 2.31584 134.389 2.31584 133.489C2.31584 132.589 2.21584 132.189 1.81584 132.189C1.41584 132.189 1.31584 132.589 1.31584 133.489ZM123.016 132.589C122.716 133.389 123.016 134.589 123.516 134.689C123.916 134.689 124.016 134.489 124.016 133.589C124.016 132.389 123.316 131.789 123.016 132.589ZM53.3874 141.162V149.889H52.3306V142.27H52.2795L50.1488 143.684V142.61L52.3306 141.162H53.3874ZM56.1318 149.957C55.9215 149.957 55.7411 149.882 55.5906 149.731C55.44 149.581 55.3647 149.4 55.3647 149.19C55.3647 148.98 55.44 148.799 55.5906 148.649C55.7411 148.498 55.9215 148.423 56.1318 148.423C56.342 148.423 56.5224 148.498 56.6729 148.649C56.8235 148.799 56.8988 148.98 56.8988 149.19C56.8988 149.329 56.8633 149.457 56.7923 149.574C56.7241 149.69 56.6318 149.784 56.5153 149.855C56.4016 149.923 56.2738 149.957 56.1318 149.957ZM61.3072 150.008C60.7447 150.008 60.2433 149.912 59.8029 149.718C59.3654 149.525 59.0174 149.257 58.7589 148.913C58.5032 148.566 58.364 148.164 58.3413 147.707H59.4151C59.4379 147.988 59.5345 148.231 59.7049 148.436C59.8754 148.637 60.0984 148.794 60.3739 148.905C60.6495 149.015 60.9549 149.071 61.2901 149.071C61.6651 149.071 61.9975 149.005 62.2873 148.875C62.5771 148.744 62.8043 148.562 62.9691 148.329C63.1339 148.096 63.2163 147.826 63.2163 147.52C63.2163 147.199 63.1367 146.916 62.9776 146.672C62.8185 146.424 62.5856 146.231 62.2788 146.092C61.9719 145.953 61.5969 145.883 61.1538 145.883H60.4549V144.946H61.1538C61.5004 144.946 61.8043 144.883 62.0657 144.758C62.3299 144.633 62.5359 144.457 62.6836 144.23C62.8342 144.003 62.9095 143.735 62.9095 143.429C62.9095 143.133 62.8441 142.876 62.7134 142.657C62.5827 142.439 62.3981 142.268 62.1595 142.146C61.9237 142.024 61.6452 141.963 61.3242 141.963C61.0231 141.963 60.739 142.018 60.472 142.129C60.2077 142.237 59.9918 142.395 59.8242 142.602C59.6566 142.807 59.5657 143.054 59.5515 143.343H58.5288C58.5458 142.886 58.6836 142.485 58.9421 142.142C59.2006 141.795 59.5387 141.525 59.9563 141.332C60.3768 141.139 60.8384 141.042 61.3413 141.042C61.881 141.042 62.3441 141.152 62.7305 141.37C63.1168 141.586 63.4137 141.872 63.6211 142.227C63.8285 142.582 63.9322 142.966 63.9322 143.378C63.9322 143.869 63.8029 144.288 63.5444 144.635C63.2887 144.981 62.9407 145.221 62.5004 145.355V145.423C63.0515 145.514 63.4819 145.748 63.7916 146.126C64.1012 146.501 64.256 146.966 64.256 147.52C64.256 147.994 64.1268 148.42 63.8683 148.798C63.6126 149.173 63.2631 149.468 62.82 149.684C62.3768 149.9 61.8725 150.008 61.3072 150.008ZM68.7262 150.008C68.2262 150.008 67.7759 149.909 67.3754 149.71C66.9748 149.511 66.6538 149.238 66.4123 148.892C66.1708 148.545 66.0387 148.15 66.016 147.707H67.0387C67.0785 148.102 67.2575 148.429 67.5756 148.687C67.8967 148.943 68.2802 149.071 68.7262 149.071C69.0842 149.071 69.4023 148.987 69.6808 148.819C69.962 148.652 70.1822 148.422 70.3413 148.129C70.5032 147.833 70.5842 147.5 70.5842 147.128C70.5842 146.747 70.5004 146.407 70.3327 146.109C70.168 145.808 69.9407 145.571 69.6509 145.397C69.3612 145.224 69.0302 145.136 68.658 145.133C68.391 145.13 68.1168 145.172 67.8356 145.257C67.5543 145.339 67.3228 145.446 67.141 145.576L66.1524 145.457L66.6808 141.162H71.2149V142.099H67.5671L67.2603 144.673H67.3114C67.4904 144.531 67.7148 144.413 67.9847 144.319C68.2546 144.226 68.5359 144.179 68.8285 144.179C69.3626 144.179 69.8384 144.307 70.256 144.562C70.6765 144.815 71.006 145.162 71.2447 145.602C71.4862 146.042 71.6069 146.545 71.6069 147.11C71.6069 147.667 71.4819 148.164 71.2319 148.602C70.9847 149.037 70.6438 149.38 70.2092 149.633C69.7745 149.883 69.2802 150.008 68.7262 150.008ZM76.6918 149.889V143.343H77.6634V144.366H77.7486C77.8849 144.017 78.1051 143.745 78.4091 143.552C78.7131 143.356 79.0781 143.258 79.5043 143.258C79.9361 143.258 80.2955 143.356 80.5824 143.552C80.8722 143.745 81.098 144.017 81.2599 144.366H81.3281C81.4957 144.028 81.7472 143.76 82.0824 143.561C82.4176 143.359 82.8196 143.258 83.2884 143.258C83.8736 143.258 84.3523 143.441 84.7244 143.808C85.0966 144.172 85.2827 144.738 85.2827 145.508V149.889H84.277V145.508C84.277 145.025 84.1449 144.68 83.8807 144.473C83.6165 144.265 83.3054 144.162 82.9474 144.162C82.4872 144.162 82.1307 144.301 81.8778 144.579C81.625 144.855 81.4986 145.204 81.4986 145.628V149.889H80.4759V145.406C80.4759 145.034 80.3551 144.734 80.1136 144.507C79.8722 144.277 79.5611 144.162 79.1804 144.162C78.919 144.162 78.6747 144.231 78.4474 144.37C78.223 144.51 78.0412 144.703 77.902 144.95C77.7656 145.194 77.6974 145.477 77.6974 145.798V149.889H76.6918ZM149.987 56.4616V65.1889H148.931V57.5696H148.879L146.749 58.9843V57.9105L148.931 56.4616H149.987ZM152.732 65.2571C152.522 65.2571 152.341 65.1818 152.191 65.0312C152.04 64.8806 151.965 64.7002 151.965 64.49C151.965 64.2798 152.04 64.0994 152.191 63.9488C152.341 63.7983 152.522 63.723 152.732 63.723C152.942 63.723 153.122 63.7983 153.273 63.9488C153.424 64.0994 153.499 64.2798 153.499 64.49C153.499 64.6292 153.463 64.7571 153.392 64.8735C153.324 64.99 153.232 65.0838 153.115 65.1548C153.002 65.223 152.874 65.2571 152.732 65.2571ZM157.907 65.3082C157.345 65.3082 156.843 65.2116 156.403 65.0184C155.965 64.8252 155.617 64.5568 155.359 64.213C155.103 63.8664 154.964 63.4645 154.941 63.0071H156.015C156.038 63.2883 156.134 63.5312 156.305 63.7358C156.475 63.9375 156.698 64.0937 156.974 64.2045C157.249 64.3153 157.555 64.3707 157.89 64.3707C158.265 64.3707 158.598 64.3054 158.887 64.1747C159.177 64.044 159.404 63.8622 159.569 63.6292C159.734 63.3963 159.816 63.1264 159.816 62.8196C159.816 62.4985 159.737 62.2159 159.578 61.9715C159.419 61.7244 159.186 61.5312 158.879 61.392C158.572 61.2528 158.197 61.1832 157.754 61.1832H157.055V60.2457H157.754C158.1 60.2457 158.404 60.1832 158.666 60.0582C158.93 59.9332 159.136 59.7571 159.284 59.5298C159.434 59.3025 159.509 59.0355 159.509 58.7287C159.509 58.4332 159.444 58.1761 159.313 57.9573C159.183 57.7386 158.998 57.5681 158.759 57.446C158.524 57.3238 158.245 57.2627 157.924 57.2627C157.623 57.2627 157.339 57.3181 157.072 57.4289C156.808 57.5369 156.592 57.6946 156.424 57.902C156.257 58.1065 156.166 58.3537 156.151 58.6434H155.129C155.146 58.186 155.284 57.7855 155.542 57.4417C155.801 57.0951 156.139 56.8252 156.556 56.6321C156.977 56.4389 157.438 56.3423 157.941 56.3423C158.481 56.3423 158.944 56.4517 159.33 56.6704C159.717 56.8863 160.014 57.1718 160.221 57.527C160.428 57.8821 160.532 58.2656 160.532 58.6775C160.532 59.169 160.403 59.588 160.144 59.9346C159.889 60.2812 159.541 60.5213 159.1 60.6548V60.723C159.651 60.8139 160.082 61.0483 160.392 61.4261C160.701 61.8011 160.856 62.2656 160.856 62.8196C160.856 63.294 160.727 63.7201 160.468 64.098C160.213 64.473 159.863 64.7684 159.42 64.9843C158.977 65.2002 158.473 65.3082 157.907 65.3082ZM162.599 65.1889V64.4218L165.48 61.2684C165.818 60.8991 166.096 60.5781 166.315 60.3054C166.534 60.0298 166.696 59.7713 166.801 59.5298C166.909 59.2855 166.963 59.0298 166.963 58.7627C166.963 58.4559 166.889 58.1903 166.741 57.9659C166.596 57.7414 166.397 57.5681 166.144 57.446C165.892 57.3238 165.607 57.2627 165.292 57.2627C164.957 57.2627 164.664 57.3323 164.414 57.4715C164.167 57.6079 163.975 57.7997 163.839 58.0468C163.705 58.294 163.639 58.5838 163.639 58.9162H162.633C162.633 58.4048 162.751 57.9559 162.987 57.5696C163.223 57.1832 163.544 56.8821 163.95 56.6662C164.359 56.4502 164.818 56.3423 165.326 56.3423C165.838 56.3423 166.291 56.4502 166.686 56.6662C167.08 56.8821 167.39 57.1733 167.615 57.5397C167.839 57.9062 167.951 58.3139 167.951 58.7627C167.951 59.0838 167.893 59.3977 167.776 59.7045C167.663 60.0085 167.464 60.348 167.18 60.723C166.899 61.0951 166.508 61.5497 166.008 62.0866L164.048 64.1832V64.2514H168.105V65.1889H162.599ZM173.257 65.1889V58.6434H174.228V59.6662H174.313C174.45 59.3167 174.67 59.0454 174.974 58.8522C175.278 58.6562 175.643 58.5582 176.069 58.5582C176.501 58.5582 176.86 58.6562 177.147 58.8522C177.437 59.0454 177.663 59.3167 177.825 59.6662H177.893C178.061 59.3281 178.312 59.0596 178.647 58.8608C178.982 58.6591 179.384 58.5582 179.853 58.5582C180.438 58.5582 180.917 58.7414 181.289 59.1079C181.661 59.4716 181.848 60.0383 181.848 60.8082V65.1889H180.842V60.8082C180.842 60.3252 180.71 59.9801 180.446 59.7727C180.181 59.5653 179.87 59.4616 179.512 59.4616C179.052 59.4616 178.696 59.6008 178.443 59.8792C178.19 60.1548 178.063 60.5042 178.063 60.9275V65.1889H177.041V60.7059C177.041 60.3338 176.92 60.0341 176.678 59.8068C176.437 59.5767 176.126 59.4616 175.745 59.4616C175.484 59.4616 175.24 59.5312 175.012 59.6704C174.788 59.8096 174.606 60.0028 174.467 60.25C174.33 60.4943 174.262 60.7769 174.262 61.098V65.1889H173.257Z" stroke="white" stroke-width="0.5" stroke-miterlimit="10"/>
</svg>
