<svg width="376" height="156" viewBox="0 0 376 156" fill="none" xmlns="http://www.w3.org/2000/svg">
<path d="M253.5 0.599609C248.7 1.09961 238.3 3.69961 236.9 4.69961C236.7 4.79961 236 5.09961 235.3 5.29961C234 5.69961 231.6 6.89961 231.3 7.19961C231.3 7.29961 230.9 7.49962 230.6 7.59962C229.4 7.99962 223.3 12.1996 222 13.4996C221.2 14.2996 220.5 14.8996 220.3 14.8996C220 14.8996 214.1 20.7996 212.3 22.8996C210.8 24.6996 208.1 28.8996 206.6 31.7996C206.1 32.6996 205.2 34.3996 204.6 35.4996C203.7 37.1996 201.5 42.7996 201 44.9996C199 53.0996 198.3 65.2996 199.1 77.4996C199.3 80.0996 199.2 80.5996 198.9 80.5996C198.6 80.5996 198.5 80.5996 198.9 80.8996C199.3 81.0996 199.5 82.3996 199.8 86.1996C199.9 88.0996 200.8 94.8996 201.1 96.1996C201.3 96.8996 201.5 98.3996 201.8 100.4C201.8 101.1 202.1 102 202.3 102.6C202.5 103.1 202.7 104 202.8 104.6C202.9 105.2 203.1 106 203.3 106.4C203.5 106.8 203.6 107.1 203.6 107.2C203.5 107.4 204 109.1 204.4 109.8C204.6 110.2 204.8 110.5 204.7 110.5C204.6 110.5 204.9 111.3 205.4 112.3C207.9 117.9 209.6 120.4 212.8 122.9C214 123.9 215 124.7 215.1 124.9C215.1 125 215.4 125.2 215.7 125.2C216 125.2 216.2 125.3 216.2 125.4C216.2 125.5 216.5 125.8 216.8 126C217.1 126.2 218 126.7 218.8 127.1C219.6 127.5 220.3 127.9 220.4 127.9C220.5 127.9 221 128.2 221.5 128.4C229.7 132.7 238.7 134 261 133.9C278.4 133.9 285.2 133.2 292.7 130.8C296.2 129.7 302.3 127.1 302.3 126.7C302.3 126.3 302.7 126.3 303.2 126.1C303.7 125.9 304.4 125.4 304.8 125.1C305.2 124.7 305.5 124.5 305.6 124.5C305.7 124.5 306.4 124 307.1 123.3C311.4 119.6 313.7 116.2 315.6 110.6C316.1 109.2 316.6 107.8 316.7 107.4C317 106.6 318.1 102 318.6 99.5996C318.9 97.9996 319 97.2996 319.5 93.9996C319.5 93.2996 319.8 91.8996 320 90.7996C321.2 82.3996 321.6 57.5996 320.5 51.5996C319.7 47.1996 318.5 42.4996 317.5 40.0996C317.3 39.4996 317 38.7996 316.9 38.4996C316.7 37.5996 314.5 32.8996 314.1 32.6996C313.9 32.5996 313.8 32.3996 313.9 32.2996C313.9 32.1996 313.6 31.5996 313.1 30.9996C312.6 30.3996 312.2 29.7996 312.2 29.6996C312.2 29.5996 311.8 28.9996 311.4 28.4996C311 27.8996 310.6 27.2996 310.6 27.0996C310.6 26.8996 310.5 26.6996 310.3 26.6996C310.1 26.6996 310 26.4996 310 26.2996C310 25.7996 306.7 21.7996 303.8 18.6996C292.8 7.19961 277.9 0.799609 261.7 0.599609C258.6 0.599609 255.1 0.599614 253.9 0.799614M254.9 2.49961C253.9 2.79961 252.9 3.19961 252.7 3.39961C252.3 3.69961 250.3 4.39961 246.6 5.29961C243.9 5.99961 240.1 8.29962 239.8 9.59962C239.4 11.0996 236.8 12.1996 236.8 10.8996C236.8 9.5996 230.6 12.0996 227.5 14.0996C223.1 16.8996 215.3 23.8996 215.3 24.9996C215.3 26.0996 215.1 25.4996 214.9 25.5996C214.3 25.9996 210.8 31.2996 209.1 34.3996C207.7 36.9996 207.3 37.9996 205.6 42.6996C205.3 43.6996 204.9 44.6996 204.8 44.8996C204.7 45.1996 204.6 45.4996 204.7 45.5996C204.7 45.6996 204.5 46.2996 204.3 46.7996C204 47.2996 203.9 47.6996 204 47.6996C204.1 47.6996 204 47.8996 204 48.0996C203.9 48.2996 203.7 48.6996 203.7 48.9996C203.7 49.2996 203.6 49.8996 203.5 50.3996C203.2 51.5996 202.9 53.1996 202.8 54.6996C202.8 55.2996 202.6 59.9996 202.5 65.1996L202.3 74.5996L203.2 75.0996C204.1 75.5996 208.7 77.0996 209.1 76.9996C209.8 76.7996 208.6 83.9996 207.8 84.5996C205.8 85.9996 205.5 86.3996 205.2 87.8996C204.6 91.6996 207.2 108 209.1 112.4L210 114.5H259.9L309.8 114.7L310.4 113.8C311 112.9 311.6 111.4 312.2 109.5C312.4 108.8 312.7 108.3 312.9 108.3C313.1 108.3 313.1 108.1 313 107.8C312.9 107.5 313 107.3 313.2 107.3C313.4 107.3 313.5 107.1 313.4 106.9C313.4 106.7 313.4 106.2 313.6 105.9C314 105.3 314.7 102.5 314.9 100.6C314.9 100.1 315.1 99.2996 315.1 98.7996C316.7 88.6996 316.5 86.6996 313.8 85.0996C313 84.5996 312.4 83.9996 312.4 83.8996C312.4 83.6996 312.2 82.1996 311.9 80.3996C311.6 78.6996 311.4 77.1996 311.4 77.1996C311.4 77.1996 312.2 76.9996 313.2 76.6996C314.2 76.3996 315.3 76.1996 315.6 75.9996C315.9 75.7996 316.4 75.6996 316.7 75.6996C317 75.6996 317.3 75.3996 317.5 74.9996C317.8 74.1996 317.7 55.6996 317.5 54.6996C317.5 54.3996 317.2 53.3996 317.1 52.4996C316.8 49.8996 315.5 44.8996 314.4 42.1996C314.1 41.2996 313.8 40.4996 313.9 40.3996C313.9 40.3996 313.9 40.1996 313.7 40.1996C313.5 40.1996 313.4 40.1996 313.5 39.9996C313.8 39.6996 309.9 32.3996 307.4 28.5996C304.9 24.7996 302 21.3996 298.8 18.6996C297 17.1996 290.7 12.7996 290.4 12.8996C290.4 12.8996 290 12.7996 289.6 12.5996C289.2 12.3996 288.9 12.2996 288.7 12.2996C288.6 12.2996 288.5 12.2996 288.5 12.0996C288.5 11.6996 284.5 10.9996 283.5 11.2996C281.8 11.7996 280.5 11.2996 280.5 9.99961C280.5 8.69961 276.8 6.29961 271.7 4.99961C269.6 4.49961 267.9 3.89961 267.8 3.79961C267.8 3.59961 267 3.29961 266.3 3.09961C263.8 2.29961 264.7 2.09961 268 2.59961C268.7 2.69961 269.8 2.89961 270.4 2.99961C274 3.59961 280.5 5.39961 282.3 6.39961C282.6 6.59961 283.1 6.69961 283.3 6.69961C283.5 6.69961 284 6.99961 284.3 7.29961C284.6 7.59961 284.9 7.89961 285.1 7.79961C285.6 7.49961 294.3 12.4996 295.9 13.9996C296.2 14.2996 297.1 14.9996 297.8 15.4996C301.2 18.0996 309.4 27.1996 309.4 28.3996C309.4 29.5996 309.5 28.7996 309.7 28.7996C309.9 28.7996 310 28.9996 310 29.1996C310 29.3996 310.3 29.8996 310.6 30.2996C311 30.6996 311.2 31.0996 311.2 31.2996C311.2 31.4996 311.6 32.1996 312.2 33.0996C312.7 33.8996 313.1 34.7996 313 34.9996C312.9 35.1996 313 35.2996 313.1 35.1996C314.2 34.4996 317.9 45.8996 319.1 53.1996C320.9 64.7996 319.1 92.8996 316 104.6C314.5 110.1 314.2 111 313.4 112.9C312.9 114 312.4 114.9 312.2 115.1C312 115.3 312 115.3 312.1 115.3C312.2 115.3 311.9 115.9 311.4 116.6C310.9 117.3 310.4 118 310.4 118.2C310.4 118.6 306.2 122.8 305.4 123.2C305.1 123.4 304.5 123.8 304 124.2C302.9 125.2 298.5 127.5 295.8 128.6C286 132.3 280.7 133 258.7 132.9C238.7 132.8 231.9 131.9 224.1 128.4C223.2 128 222.3 127.6 222.1 127.6C221.9 127.6 221.8 127.5 221.7 127.4C221.7 127.3 220.6 126.7 219.4 126.1C218.2 125.5 216.9 124.7 216.5 124.3C216.1 123.9 215.7 123.6 215.5 123.6C215.2 123.6 213.2 121.8 211.6 120.3C209.7 118.4 206.3 111.6 205.7 108.8C205.7 108.5 205.4 107.7 205.1 107.2C203.8 104.3 201.8 92.2996 201.3 83.9996C201.3 82.4996 201 80.1996 200.9 78.9996C200.8 77.2996 200.9 76.4996 201.1 76.1996C201.4 75.7996 201.4 75.6996 201.1 75.6996C200.8 75.6996 200.8 55.9996 201.2 53.5996C202 48.7996 204.1 41.2996 204.9 39.9996C205 39.7996 205.1 39.4996 205.2 39.1996C205.2 38.8996 205.4 38.6996 205.6 38.5996C205.8 38.5996 205.9 38.3996 205.8 38.1996C205.8 37.9996 205.8 37.8996 206 37.8996C206.2 37.8996 206.3 37.7996 206.2 37.5996C206.1 37.3996 206.2 37.2996 206.3 37.2996C206.4 37.2996 206.7 36.8996 206.8 36.3996C206.9 35.8996 207.1 35.3996 207.2 35.3996C207.3 35.3996 207.6 34.6996 207.9 34.0996C208.2 33.4996 208.6 32.6996 208.9 32.2996C209.1 31.9996 210.1 30.3996 211 28.8996C213.6 24.7996 220.1 17.3996 221.1 17.3996C222.1 17.3996 222.4 16.4996 224.3 14.6996C226.5 12.6996 233.5 8.59961 236.7 7.49961C237.7 7.19961 238.9 6.59961 239.5 6.29961C240.8 5.59961 249.7 3.39961 252 3.19961C252.9 3.19961 253.8 2.99961 253.8 2.89961C253.8 2.89961 254.6 2.79961 255.4 2.69961H256.9L255.1 3.19961M265 4.19961C265.9 4.59961 267.3 5.09961 268.1 5.49961C268.9 5.89961 270.4 6.29961 271.5 6.49961C275 7.09961 278 8.89962 279.2 11.0996C280 12.5996 281.9 13.4996 282.9 12.8996C283.7 12.3996 285.6 12.3996 287 13.0996C287.7 13.3996 288.3 13.5996 288.4 13.5996C288.5 13.5996 288.6 13.5996 288.6 13.8996C288.6 14.1996 288.7 14.1996 288.8 14.1996C289.3 14.1996 291.1 14.8996 291.1 15.1996C291.1 15.4996 291.3 15.4996 291.5 15.4996C291.7 15.4996 292.2 15.7996 292.6 16.0996C293 16.4996 293.4 16.6996 293.6 16.6996C293.8 16.6996 294.4 17.0996 294.9 17.5996C295.5 18.0996 296 18.5996 296.2 18.5996C296.7 18.7996 302.4 24.4996 303.4 25.8996C303.9 26.5996 304.8 27.8996 305.4 28.5996C306 29.3996 306.6 30.3996 306.9 30.8996C307.2 31.3996 307.8 32.3996 308.2 33.0996C308.6 33.7996 309.6 35.5996 310.3 37.0996C311 38.5996 312 40.5996 312.4 41.4996C313.5 43.7996 315.3 51.1996 315.7 55.2996C316.1 59.4996 316.2 74.0996 315.7 73.7996C315.5 73.7996 315.3 73.7996 315.2 74.0996C315.2 74.2996 314.2 74.6996 313.2 74.8996C312.2 75.0996 311.2 75.3996 310.9 75.3996C310.6 75.4996 310.5 73.9996 310.5 68.0996C310.5 61.0996 310.1 54.6996 309.2 49.2996C308.5 45.1996 307 43.4996 303.3 42.7996C302.1 42.5996 300.9 42.1996 300.6 41.9996C300 41.3996 285.6 41.3996 284.9 41.9996C284.6 42.1996 283.4 42.5996 282.1 42.7996C278.3 43.3996 276.7 45.1996 276 49.5996C275.8 50.6996 275.5 51.6996 275.3 51.8996C275 52.0996 275 52.1996 275.3 52.1996C275.7 52.1996 275.6 55.3996 275.1 57.5996C274.7 59.4996 274.6 75.1996 275.1 75.6996C275.7 76.3996 275.4 76.4996 273.6 76.0996C269.5 75.2996 269.4 75.8996 271.7 95.4996C272.2 100.2 272.4 100.4 275.3 100.1C275.9 100.1 276.2 100.1 276.2 100.4C276.2 100.6 276.2 103.4 276.2 106.6V112.4H244.6V106.4C244.6 103.1 244.6 100.2 244.6 99.9996C244.6 99.6996 244.7 99.6996 245 99.8996C247 101.4 248.4 99.9996 248.8 96.3996C249 94.7996 249.2 92.4996 249.4 91.2996C250.1 86.5996 250.5 77.8996 250.1 77.0996C249.6 76.0996 248.6 75.7996 246.7 76.1996L245.2 76.4996L245.4 75.6996C245.8 74.3996 245.6 60.5996 245.2 56.4996C244.1 45.5996 243 43.5996 238 42.8996C237.1 42.7996 236 42.4996 235.6 42.1996C234.4 41.5996 221 41.5996 220.1 42.1996C219.8 42.3996 218.7 42.6996 217.7 42.8996C213.8 43.3996 212 45.1996 211.3 48.9996C210.2 55.2996 209.3 71.0996 209.9 74.3996C210.1 75.2996 210.1 75.9996 209.9 75.8996C209.7 75.7996 209.6 75.4996 209.6 75.1996C209.6 74.7996 209.6 74.6996 209.3 75.0996C209 75.5996 206.3 75.0996 204.5 74.2996L203.4 73.7996L203.6 64.1996C203.7 58.8996 203.9 53.9996 204.1 53.2996C204.9 49.8996 206.5 43.9996 206.7 43.6996C206.8 43.4996 207.1 42.6996 207.3 41.8996C207.5 41.0996 208.4 38.9996 209.2 37.2996C210.8 34.0996 211 33.6996 212.2 31.8996C212.6 31.3996 213 30.4996 213.3 30.0996C213.5 29.5996 213.9 29.1996 214 29.1996C214.1 29.1996 214.3 29.0996 214.3 28.8996C214.3 28.6996 214.4 28.3996 214.6 28.1996C217.9 24.1996 218.6 23.4996 224.4 18.2996C225.1 17.6996 225.9 17.1996 226.1 17.0996C226.3 17.0996 226.5 16.9996 226.5 16.7996C226.5 16.5996 227 16.1996 227.6 15.8996C233.9 12.6996 234.9 12.3996 236.5 13.0996C238 13.7996 239.8 13.0996 240.7 11.1996C241.7 9.39961 246 6.89961 248.3 6.89961C250.6 6.89961 253.1 5.59961 253.1 5.29961C253.1 4.99961 256.1 4.19961 257.9 3.89961C259.4 3.59961 263.1 4.09961 264.7 4.69961M12.4001 7.09962C8.00012 7.49962 4.50012 9.9996 2.40012 14.3996L1.70012 15.7996V69.1996C1.50012 106.3 1.70012 123.1 1.90012 124.1C2.30012 125.8 3.20012 127.7 3.70012 128C3.90012 128.1 4.10012 128.4 4.10012 128.6C4.10012 129.2 6.60011 131.2 8.60011 132.2L10.7001 133.2H61.9001C99.7001 133.4 113.6 133.2 114.8 133C117 132.5 120 130.8 121.1 129.3C121.6 128.6 122.1 128 122.2 127.9C122.3 127.9 122.7 126.9 123.2 126L124 124.2V71.1996C124.1 35.1996 124 17.6996 123.8 16.5996C123.4 14.6996 122.5 12.2996 122.1 12.2996C122 12.2996 121.9 12.1996 121.9 11.9996C121.9 10.8996 117.7 7.79961 115.4 7.19961C113.8 6.79961 17.3001 6.49961 12.5001 6.89961M121.4 7.59962C120.5 7.79962 120.7 8.59962 121.6 8.59962C122.5 8.59962 122.4 8.39962 122.4 8.09962C122.4 7.49962 122.1 7.39961 121.4 7.49961M123.8 7.49961C122.9 7.89961 123.4 8.59962 124.7 8.59962C126 8.59962 126 8.49961 126 8.19961C126 7.49961 124.8 7.19962 123.8 7.59962M127 7.49961C126.2 7.79961 127.3 8.59962 128.4 8.59962C129.5 8.59962 129.5 8.49961 129.5 7.99961C129.5 7.49961 128.1 7.09962 127 7.59962M130.9 7.49961C129.9 7.89961 130.5 8.59962 131.9 8.59962C133.3 8.59962 133.3 8.49961 133.3 8.19961C133.3 7.49961 131.9 7.09962 130.8 7.59962M137.9 7.59962C137 7.89962 137.6 8.59962 138.7 8.59962C139.4 8.59962 139.9 8.59961 140.1 8.99961C140.6 9.79961 140.5 123.2 140.1 123.3C139.9 123.3 139.3 123.3 138.7 123.3C138 123.3 137.7 123.5 137.6 124C137.6 124.6 137.6 124.7 140.1 124.7C142.6 124.7 142.7 124.7 142.7 124C142.7 123.3 142.5 123.3 142.2 123.3C141.8 123.3 141.7 116.7 141.7 65.9996C141.7 15.2996 141.7 8.69961 142.2 8.69961C142.7 8.69961 142.7 8.39961 142.7 7.99961C142.7 7.39961 139.5 7.09962 138 7.59962M113.7 8.29961C117.6 8.89961 120.5 11.0996 121.9 14.6996L122.7 16.6996V42.3996C122.7 56.4996 122.7 68.0996 122.5 68.0996C122.3 68.0996 122.2 58.9996 122.2 47.8996C122.2 19.5996 122 16.6996 120.7 14.2996C118.7 10.7996 116 9.09961 112.5 8.99961C111.6 8.99961 111.3 8.89961 111.7 8.69961C112 8.49961 94.9001 8.3996 63.2001 8.3996C35.1001 8.3996 14.1001 8.49961 14.0001 8.69961C14.0001 8.89961 13.1001 9.09961 12.3001 9.19961C10.7001 9.39961 8.00012 10.9996 6.90012 12.1996C6.00012 13.2996 4.20012 16.5996 4.40012 16.7996C4.40012 16.7996 4.40012 17.0996 4.40012 17.2996C4.20012 17.6996 4.10011 122.9 4.30011 123.8C5.00011 126.6 7.20011 129.2 10.1001 130.7L12.0001 131.7H114.2L115.9 130.9C118.8 129.6 121.2 126.7 121.8 123.8C122.1 122.3 122.5 122.5 122.4 124.1C122.2 127 117.4 132.5 115.9 131.5C115.7 131.4 115.5 131.5 115.5 131.6C115.3 132.3 13.0001 132.6 10.7001 132C8.30012 131.3 5.20012 128.7 3.90012 126.2L3.20012 124.8V16.2996L4.00012 14.6996C5.40012 11.6996 8.90012 8.99961 12.0001 8.49961C14.3001 8.09961 111.3 8.09961 114 8.49961M82.1001 8.79961C69.6001 8.79961 49.3001 8.79961 36.8001 8.79961C24.3001 8.79961 34.5001 8.79961 59.4001 8.79961C84.3001 8.79961 94.5001 8.79961 82.0001 8.79961M115.3 10.7996C117.2 11.6996 118.8 13.1996 119.9 15.4996L120.7 17.0996V68.8996C120.8 97.3996 120.8 121.2 120.7 121.8L120.5 122.8H108.3C97.5001 122.7 96.7001 122.4 106.8 122.2C111.2 122.2 111.9 120.9 111.4 113.8C110.8 105.6 110 94.2996 109.9 92.6996V91.2996L112.3 91.0996C122.7 90.2996 122 76.3996 111.5 75.8996C108.3 75.6996 108.5 75.8996 108.3 72.2996C108.2 70.5996 107.9 67.2996 107.8 64.9996C107.7 62.6996 107.3 57.9996 107 54.5996C106.3 44.9996 106.6 45.1996 97.7001 45.3996C88.3001 45.6996 89.1001 44.1996 89.6001 60.7996C90.1001 79.9996 90.1001 80.4996 89.9001 80.4996C89.7001 80.4996 89.6001 84.5996 89.9001 84.6996C90.2001 84.7996 90.4001 89.6996 90.7001 104.8C90.8001 109.3 90.9001 113.8 91.0001 114.8C91.0001 116.2 91.0001 116.7 90.5001 116.9C89.4001 117.6 88.8001 120 89.3001 121.5L89.8001 122.8H84.8001C81.1001 122.8 80.2001 122.6 81.4001 122.4C84.6001 121.9 84.5001 122.9 84.0001 96.6996C84.0001 94.7996 84.0001 94.4996 84.5001 94.4996C85.3001 94.4996 85.2001 93.1996 84.4001 91.4996C83.7001 90.0996 83.4001 72.7996 83.9001 64.0996C84.0001 62.3996 84.1001 59.4996 84.2001 57.6996C84.2001 55.8996 84.5001 51.9996 84.6001 49.1996C85.0001 40.7996 84.9001 36.4996 84.4001 35.3996C83.6001 33.7996 81.6001 32.0996 80.3001 31.8996C79.3001 31.6996 79.0001 31.4996 78.4001 30.2996C76.6001 26.8996 73.6001 26.1996 71.3001 28.7996C69.0001 31.1996 69.0001 31.4996 70.2001 55.0996C70.2001 56.9996 70.2001 57.9996 70.0001 57.8996C69.6001 57.5996 69.6001 58.1996 70.0001 58.5996C70.8001 59.3996 70.8001 84.5996 70.0001 86.2996C69.6001 87.0996 69.3001 87.8996 69.3001 88.1996C69.3001 88.4996 69.0001 88.6996 68.3001 88.6996C67.7001 88.6996 67.0001 88.6996 66.7001 88.8996C66.2001 89.0996 66.1001 88.1996 66.1001 72.2996C66.1001 56.3996 66.1001 55.4996 66.6001 55.3996C66.9001 55.3996 67.3001 55.3996 67.5001 55.3996C67.8001 55.3996 67.9001 54.3996 68.0001 51.9996C68.0001 46.3996 68.0001 46.4996 68.8001 46.2996C69.7001 46.0996 69.6001 44.7996 68.8001 44.4996C64.1001 42.9996 64.1001 42.9996 64.1001 45.1996C64.1001 48.7996 63.7001 53.3996 63.4001 53.6996C62.9001 53.9996 62.9001 54.8996 63.4001 55.2996C63.6001 55.4996 63.8001 55.5996 63.8001 55.3996C63.8001 55.1996 64.0001 55.3996 64.3001 55.5996C64.9001 56.0996 65.0001 88.5996 64.5001 88.5996C64.0001 88.5996 63.8001 88.4996 63.4001 88.2996C62.8001 88.0996 62.4001 88.0996 61.9001 88.4996L61.2001 88.9996V52.1996H62.1001C63.1001 51.9996 63.4001 50.6996 62.6001 50.3996C62.3001 50.2996 62.2001 49.4996 62.2001 47.6996C62.2001 45.8996 62.0001 44.4996 61.8001 43.6996C61.5001 42.4996 61.5001 42.1996 61.8001 41.9996C63.3001 41.0996 61.3001 39.7996 59.7001 40.5996C59.0001 40.9996 58.1001 41.2996 57.6001 41.4996C56.5001 41.7996 56.4001 42.5996 57.4001 43.5996C57.8001 43.9996 58.0001 44.4996 57.9001 44.8996C57.8001 45.1996 57.9001 45.8996 58.2001 46.3996C58.8001 47.5996 58.8001 49.6996 58.2001 50.5996C57.5001 51.4996 57.8001 52.2996 58.9001 52.2996C60.0001 52.2996 60.1001 52.8996 59.3001 52.9996C59.0001 52.9996 59.0001 52.9996 59.3001 53.1996C59.7001 53.3996 59.9001 111.8 59.5001 113.4C59.3001 114 59.2001 114.1 58.2001 114C56.6001 113.7 55.8001 114 55.9001 114.9C55.9001 115.5 56.2001 115.6 57.6001 115.7C59.6001 115.8 59.7001 116 59.7001 118.7C59.7001 121.2 61.0001 122 61.2001 119.7C61.2001 118.7 61.3001 118.7 62.6001 118.8C64.8001 119.1 64.8001 119 64.7001 121.1V122.9H57.0001C49.8001 122.9 49.4001 122.9 49.4001 122.4C49.4001 121.9 49.8001 121.7 50.8001 121.5C52.0001 121.2 52.2001 121.1 52.5001 120.1C52.7001 119.5 53.0001 118.8 53.3001 118.6C54.1001 118 54.0001 101.6 53.3001 100.8C53.0001 100.5 52.7001 99.8996 52.5001 99.4996C52.4001 98.8996 51.9001 98.5996 50.8001 98.2996C50.0001 97.9996 49.6001 97.7996 49.8001 97.7996C51.1001 97.7996 50.7001 96.7996 49.4001 96.7996C48.1001 96.7996 48.1001 96.7996 48.3001 97.3996C48.4001 97.8996 48.3001 97.9996 47.1001 98.0996C45.6001 98.2996 44.1001 97.7996 44.7001 97.2996C45.0001 97.0996 45.0001 96.9996 44.7001 96.9996C44.4001 96.9996 44.3001 96.3996 44.3001 95.1996C44.3001 93.9996 44.3001 93.3996 43.6001 93.3996C43.2001 93.3996 42.7001 93.3996 42.6001 93.2996C42.5001 93.1996 41.9001 93.2996 41.4001 93.1996H40.5001V90.0996C40.5001 87.2996 40.5001 86.8996 39.5001 85.1996C38.3001 82.8996 38.3001 82.8996 34.9001 82.8996C30.6001 82.8996 30.8001 83.1996 30.8001 76.6996C30.8001 70.1996 31.1001 70.2996 25.5001 70.3996C19.8001 70.3996 20.2001 69.9996 20.2001 76.3996C20.2001 83.0996 20.4001 82.8996 16.0001 82.8996C11.6001 82.8996 10.9001 83.8996 11.7001 84.6996C11.7001 84.6996 11.6001 85.0996 11.2001 85.4996C10.2001 86.5996 10.2001 116.9 11.2001 118.1C11.6001 118.5 11.8001 119.2 11.8001 119.5C11.8001 120.4 12.8001 121.2 13.9001 121.3C14.4001 121.3 14.7001 121.3 14.5001 121.5C14.2001 121.6 14.2001 121.8 14.6001 122.2C15.3001 122.9 6.30012 123.2 5.50012 122.5C5.00012 122 4.80011 18.0996 5.40012 17.3996C5.60012 17.1996 5.80011 16.7996 5.80011 16.3996C6.10011 15.0996 6.40012 14.2996 6.70012 14.2996C7.00012 14.2996 7.10012 13.9996 7.20012 13.6996C7.30012 13.3996 8.10012 12.5996 8.90012 11.9996C11.9001 9.79961 8.20011 9.89961 63.7001 9.99961H113.8L115.5 10.7996M76.3001 30.9996C78.1001 32.0996 78.1001 32.1996 77.6001 44.7996C77.5001 48.0996 77.3001 51.3996 77.2001 52.1996C77.2001 52.9996 77.0001 55.7996 76.9001 58.3996C76.7001 63.6996 76.7001 63.7996 75.8001 62.7996C74.9001 61.5996 72.8001 61.8996 72.5001 63.2996C72.0001 65.3996 71.7001 63.8996 71.5001 56.8996C71.4001 52.9996 71.2001 49.1996 71.2001 48.4996C71.2001 47.7996 71.0001 44.5996 70.9001 41.2996C70.8001 38.0996 70.7001 35.2996 70.7001 35.1996C69.9001 32.0996 73.7001 29.3996 76.4001 30.9996M81.9001 35.4996C82.2001 35.6996 82.4001 35.9996 82.3001 36.1996C82.2001 36.3996 82.3001 36.4996 82.4001 36.2996C83.6001 35.5996 83.9001 37.8996 83.5001 45.9996C83.3001 50.2996 83.0001 56.3996 83.0001 59.5996C82.8001 66.7996 82.6001 69.3996 82.2001 69.3996C81.8001 69.3996 82.0001 69.2996 82.1001 69.0996C82.2001 68.8996 82.1001 68.7996 82.0001 68.7996C81.9001 68.7996 81.6001 68.3996 81.5001 67.7996C81.2001 66.5996 78.6001 66.2996 78.4001 67.3996C78.0001 68.9996 78.7001 46.9996 79.3001 37.7996L79.5001 35.1996H80.5001C81.0001 35.1996 81.7001 35.3996 82.1001 35.4996M221.4 43.1996C221.4 43.4996 221.5 43.3996 221.7 43.1996C221.9 42.8996 222 43.7996 222 45.9996C222 48.6996 222 49.1996 221.5 49.0996C220.8 48.7996 220.5 46.7996 220.7 43.4996C220.7 42.8996 221.4 42.6996 221.4 43.2996M234.8 43.1996C234.8 42.9996 234.9 42.7996 235 42.9996C235.4 43.3996 235.5 47.9996 235 48.4996C234.2 49.3996 234 48.8996 234.1 45.7996C234.1 43.6996 234.2 42.7996 234.4 43.1996C234.7 43.5996 234.7 43.5996 234.7 43.1996M219 44.1996C219.3 44.5996 219.4 50.5996 219.2 50.9996C219.2 51.1996 219 51.3996 219 51.4996C219 51.7996 218.5 53.8996 218.3 54.6996C218 55.9996 216.2 65.9996 215.6 69.8996C215.4 71.0996 215.1 74.0996 214.9 76.3996C214.5 81.2996 214.4 81.5996 214.1 79.0996C213.8 76.5996 213.4 75.7996 212.7 75.7996C212 75.7996 212.1 75.5996 212.1 75.2996C212.1 74.9996 211.9 74.7996 211.7 74.6996C211.2 74.4996 211.2 62.0996 211.7 56.7996C212.5 48.2996 213.4 45.3996 215.5 44.4996C217.5 43.6996 218.6 43.4996 218.9 43.9996M284.3 47.5996C284.1 51.5996 283.9 52.8996 283.4 52.5996C283.2 52.5996 283.2 52.5996 283.4 52.8996C283.6 53.2996 282.1 61.7996 281.7 62.9996C281.7 63.2996 281.5 63.7996 281.4 64.0996C281.4 64.4996 281.2 64.9996 281.2 65.3996C281 66.2996 280.6 68.6996 280.5 69.7996C280.5 70.2996 280.3 71.1996 280.2 71.7996C279.8 74.1996 279.5 77.0996 279.6 78.9996C279.6 81.2996 279.3 80.9996 278.9 78.4996C278.6 76.1996 278.5 75.8996 277.4 75.6996C276.1 75.3996 276.1 75.1996 276.1 68.1996C276.1 58.9996 277.2 48.8996 278.3 46.6996C279.2 44.9996 281.1 43.9996 283.5 43.8996H284.4L284.2 47.5996M305.2 44.5996C307.5 45.7996 308 47.1996 308.7 54.9996C309.3 60.5996 309.3 62.0996 309.3 67.9996C309.3 75.7996 309.3 75.4996 308.3 75.6996C307.1 75.8996 306.7 76.8996 306.5 79.9996C306.5 81.0996 305.9 79.7996 305.9 78.3996C305.7 74.1996 304.4 64.5996 303.1 57.7996C302.7 55.5996 302.3 53.4996 302.2 53.1996C302.2 52.7996 301.9 51.9996 301.8 51.2996C301.4 49.8996 301.3 45.5996 301.7 44.4996C301.9 43.6996 303.6 43.6996 305.3 44.5996M102.4 47.5996C102.4 47.7996 102.4 47.8996 102.6 47.7996C103.2 47.3996 103.6 48.5996 103.9 52.0996C104.1 54.4996 104.1 55.7996 103.9 55.8996C103.7 55.8996 103.7 56.0996 103.9 56.1996C104.1 56.2996 104.3 57.3996 104.4 58.4996L104.6 60.5996H94.4001L94.2001 57.7996C94.0001 55.4996 93.9001 47.9996 94.0001 47.0996C94.0001 46.9996 95.9001 46.8996 98.3001 46.8996C101.6 46.8996 102.5 47.0996 102.5 47.3996M236.3 54.2996C239.3 69.8996 240.5 80.2996 239.4 80.7996C238.6 81.0996 216.8 80.9996 216.3 80.7996C215.7 80.3996 216.6 70.8996 217.8 64.3996C218 63.3996 218.5 60.5996 218.9 58.1996C219.3 55.6996 219.9 52.9996 220.2 52.0996L220.7 50.4996H228.1L235.5 50.5996L236.2 54.3996M74.7001 63.4996C74.6001 63.5996 74.7001 63.9996 75.0001 64.3996C75.8001 65.4996 75.6001 68.8996 74.8001 68.4996C74.5001 68.2996 74.1001 68.1996 73.9001 68.1996C72.9001 68.3996 72.8001 68.1996 72.9001 66.5996C73.1001 64.5996 73.6001 63.2996 74.3001 63.2996C75.0001 63.2996 74.8001 63.2996 74.6001 63.4996M101.8 64.8996C101.7 65.0996 101.8 65.1996 101.9 65.1996C102 65.1996 102.3 65.0996 102.4 64.8996C102.5 64.6996 103.1 64.5996 103.8 64.5996C104.4 64.5996 104.8 64.6996 104.5 64.7996C104.2 64.8996 104.2 64.9996 104.5 65.1996C104.8 65.3996 105.7 74.6996 105.4 74.9996C105.2 75.1996 103.4 75.2996 101.5 75.1996C100.1 75.1996 100 75.0996 100 74.3996C100 71.7996 97.0001 69.6996 93.3001 69.6996H91.0001V67.4996C91.0001 64.8996 90.8001 64.9996 95.6001 64.7996C97.4001 64.7996 99.5001 64.6996 100.3 64.5996C101.3 64.5996 101.8 64.5996 101.6 64.8996M80.4001 68.6996C80.5001 69.1996 80.7001 69.6996 80.8001 69.8996C80.9001 70.0996 81.0001 70.8996 81.1001 71.6996V73.1996C81.2001 73.1996 79.7001 73.2996 79.7001 73.2996H78.2001C78.2001 73.3996 78.2001 72.2996 78.2001 72.2996C78.2001 71.2996 78.9001 68.6996 79.3001 68.0996C79.6001 67.5996 80.1001 67.8996 80.3001 68.6996M96.7001 71.8996C98.3001 72.8996 98.7001 73.9996 98.9001 78.2996C99.0001 81.6996 98.9001 81.8996 98.5001 81.1996C98.2001 80.7996 98.0001 80.3996 98.1001 80.1996C98.2001 79.9996 98.1001 79.9996 98.0001 79.9996C97.9001 79.9996 97.8001 79.0996 97.9001 78.0996C98.1001 74.8996 96.1001 72.6996 93.8001 73.5996C92.6001 74.0996 92.2001 75.0996 92.4001 77.2996C92.6001 79.2996 92.3001 82.0996 92.0001 81.7996C91.9001 81.6996 91.7001 79.1996 91.7001 76.2996V70.9996C91.6001 70.9996 93.6001 70.9996 93.6001 70.9996C95.0001 70.9996 96.0001 71.2996 96.9001 71.7996M28.3001 76.7996C28.4001 81.8996 28.5001 81.8996 25.0001 81.8996H22.3001V77.7996C22.3001 72.2996 22.1001 72.5996 25.5001 72.6996H28.3001L28.4001 76.8996M82.4001 80.7996C82.4001 84.2996 82.3001 86.8996 82.2001 86.5996C82.2001 86.2996 81.9001 86.0996 81.8001 86.1996C81.6001 86.2996 81.5001 84.6996 81.5001 82.1996C81.5001 79.6996 81.6001 77.9996 81.8001 77.9996C82.0001 77.9996 82.1001 77.1996 82.1001 76.1996C82.1001 75.1996 82.1001 74.3996 82.3001 74.3996C82.5001 74.3996 82.4001 77.1996 82.4001 80.6996M212.3 77.1996C212.5 77.3996 212.7 78.2996 212.8 79.1996L213 80.7996H212C211.4 80.8996 210.8 81.0996 210.6 81.2996C210.3 81.4996 210.3 81.1996 210.4 79.7996C210.4 78.5996 210.7 77.7996 211.1 77.5996C211.4 77.3996 211.5 77.1996 211.2 77.1996C210.9 77.1996 210.8 77.0996 210.8 76.8996C210.8 76.4996 212 76.8996 212.3 77.2996M249.1 77.5996C249.2 77.8996 249.3 78.1996 249.3 78.2996C249.3 78.2996 249.2 79.8996 249.1 81.6996C249 83.4996 248.8 85.1996 248.8 85.6996C248.8 86.0996 248.6 87.3996 248.6 88.4996C248.6 89.5996 248.4 90.5996 248.3 90.6996C248.2 90.6996 248.1 91.1996 248.2 91.6996C248.2 92.2996 248.2 92.5996 247.5 92.6996C246.4 92.9996 245.8 92.1996 246 90.7996C246 90.1996 246.3 88.0996 246.5 85.8996C247.2 77.2996 247.3 77.0996 248.4 77.0996C249.5 77.0996 249.1 77.3996 249.2 77.6996M277.1 78.3996C277.2 80.6996 277.2 80.6996 276.3 80.9996C275.3 81.2996 275.4 81.2996 274.9 78.6996C274.767 77.8996 275.067 77.4996 275.8 77.4996C276.8 77.4996 276.9 77.4996 277 78.4996M102 84.8996C102.1 88.3996 102 88.3996 101.4 88.4996C100.7 88.4996 100.7 88.4996 100.6 86.3996C100.6 85.1996 100.6 83.1996 100.5 81.8996C100.5 79.9996 100.5 79.5996 100.9 79.4996C101.6 79.3996 101.8 80.4996 102 84.7996M106 79.8996C106 80.1996 106.3 82.1996 106.4 84.3996L106.6 88.2996H105.1C103.6 88.2996 103.6 88.2996 104.3 87.7996C105.3 87.0996 105 80.7996 104 79.8996C103.4 79.3996 103.4 79.2996 104.7 79.2996C106 79.2996 106 79.3996 106.2 79.8996M122.7 97.0996C122.7 113.4 122.6 117.4 122.1 111.6C121.6 105.3 121.9 79.2996 122.5 79.8996C122.6 79.9996 122.7 87.7996 122.7 97.1996M244.8 82.2996C244.9 82.3996 244.5 89.5996 244.3 89.7996C244 90.1996 212 89.8996 211.8 89.4996C211.6 89.0996 211.4 87.0996 211.5 86.2996C211.5 86.1996 211.4 85.2996 211.2 84.3996C211 83.4996 211 82.5996 211.1 82.4996C211.3 82.1996 244.6 82.0996 244.9 82.3996M309.4 82.4996C309 82.6996 309 82.7996 309.4 82.7996C309.7 82.7996 309.8 83.1996 309.6 84.7996C309.5 85.8996 309.3 87.2996 309.3 87.8996C309.3 88.4996 309.2 89.0996 309.2 89.1996C309.2 89.1996 309.2 89.4996 309.2 89.5996C309.2 89.6996 303.2 89.8996 295.7 89.8996C288.3 89.8996 281 89.8996 279.6 89.8996C278.2 89.8996 277.1 89.7996 277.2 89.5996C277.2 89.3996 277.2 89.1996 276.9 89.0996C276.6 88.8996 276.4 88.0996 276.4 86.9996C276.4 85.9996 276.2 84.6996 276.1 84.0996C275.7 81.9996 274.6 82.0996 293.2 82.0996C304.2 82.0996 309.9 82.1996 309.6 82.3996M18.3001 101.2V118.3H13.0001V101.6C13.0001 91.4996 13.1001 84.6996 13.3001 84.5996C13.5001 84.3996 14.7001 84.2996 15.9001 84.1996H18.2001V101.2M30.1001 84.4996C30.0001 84.6996 30.1001 84.7996 30.3001 84.7996C30.5001 84.7996 30.6001 86.1996 30.6001 88.6996C30.6001 92.4996 30.6001 92.4996 30.0001 92.1996C29.5001 91.8996 29.4001 91.4996 29.4001 90.5996C29.4001 89.6996 29.5001 89.3996 29.7001 89.4996C30.0001 89.6996 30.5001 87.7996 30.2001 87.4996C30.1001 87.3996 29.6001 87.4996 29.2001 87.6996C28.4001 88.0996 28.4001 88.0996 28.6001 86.9996C28.8001 85.9996 28.6001 85.7996 28.0001 85.3996C27.0001 84.7996 23.0001 84.8996 22.8001 85.4996C22.6001 86.0996 21.0001 87.4996 20.5001 87.4996C20.0001 87.4996 20.1001 87.7996 20.0001 88.0996C20.0001 88.3996 19.8001 87.6996 19.8001 86.4996V84.3996H25.1001C28.3001 84.3996 30.3001 84.3996 30.2001 84.6996M37.4001 88.6996C37.4001 92.5996 37.4001 92.9996 36.8001 92.9996C33.7001 92.9996 33.5001 93.1996 33.2001 95.5996C33.1001 96.6996 32.9001 97.4996 32.7001 97.4996C32.5001 97.4996 32.3001 97.6996 32.1001 97.8996C31.9001 98.0996 31.8001 95.2996 31.8001 91.3996V84.4996H37.2001V88.7996M210.3 91.1996C210.3 91.5996 210.3 93.6996 210.6 95.7996C211 99.6996 211.4 112.9 211.1 112.9C210.8 112.9 209.3 109.2 209.1 107.8C209 107 208.8 105.9 208.6 105.4C208.4 104.9 208.2 103.8 208.1 103C208 102.2 207.9 101.2 207.8 100.8C206.7 94.6996 206.2 88.7996 206.6 87.5996C206.8 87.0996 207.4 86.4996 208 86.2996C208.6 86.0996 209.2 85.5996 209.3 85.2996C209.6 84.5996 210.5 90.0996 210.3 91.2996M311.7 85.4996C311.9 85.6996 312.6 86.0996 313.1 86.3996C313.7 86.6996 314 87.0996 314 87.5996C314 87.9996 314 88.1996 314.2 88.0996C314.8 87.6996 314.4 93.1996 313.3 99.2996C312.8 102 312.6 102.9 312 104.4C311.9 104.8 311.7 105.1 311.7 105.2C311.7 105.2 311.3 106.4 310.9 107.6C310.5 108.8 310.1 110 310.1 110.3C309.8 111.9 309.7 110.3 309.6 105.8C309.6 99.4996 309.5 100.3 310 96.3996C310.2 94.5996 310.4 92.7996 310.4 92.1996C310.4 89.7996 310.4 89.2996 310.4 88.4996C310.4 88.0996 310.5 87.0996 310.5 86.2996C310.5 84.8996 310.8 84.5996 311.5 85.3996M56.0001 90.8996C54.1001 93.7996 53.9001 97.8996 55.6001 97.8996C57.3001 97.8996 56.2001 97.7996 56.1001 97.5996C56.0001 97.3996 56.1001 97.2996 56.1001 97.2996C56.5001 97.2996 57.5001 95.4996 57.2001 95.2996C57.1001 95.1996 57.2001 95.0996 57.2001 95.0996C57.8001 95.0996 57.3001 91.2996 56.7001 90.8996C56.3001 90.6996 56.0001 90.6996 55.9001 90.8996M244.1 93.5996C244.1 94.6996 243.9 96.2996 243.8 97.2996L243.6 99.0996H212.2L212 97.4996C211.6 94.6996 211.5 91.8996 211.8 92.0996C211.9 92.0996 212.1 92.0996 212.1 91.8996C212.1 91.6996 216.9 91.5996 228.2 91.5996H244.3V93.5996M107.1 94.2996C107.1 95.4996 107.1 97.3996 107.3 98.4996C107.4 99.5996 107.5 101.2 107.5 102V103.4L102.6 103.5C98.2001 103.5 97.7001 103.5 98.1001 103.1C98.3001 102.8 98.7001 102.6 99.0001 102.6C99.7001 102.6 99.5001 101.9 98.6001 100.6L97.8001 99.3996L98.9001 98.2996C100.2 97.0996 101 95.2996 101 93.7996C101 92.2996 101.2 92.5996 105.2 92.2996C106 92.2996 106.7 92.1996 106.9 92.0996C107 92.0996 107.1 92.9996 107.2 94.1996M247.5 95.8996C247.5 97.8996 247 98.9996 246.1 98.6996C245 98.2996 245.5 93.9996 246.7 93.9996C247.9 93.9996 247.4 94.0996 247.4 95.8996M44.1001 101.1C44.1001 102.4 44.1001 102.7 43.6001 102.5C43.3001 102.4 42.7001 102.5 42.3001 102.7C40.4001 103.7 41.7001 109.1 43.6001 108.3C44.0001 108.1 44.1001 108.5 44.1001 110.2C44.1001 111.9 44.0001 112.2 43.8001 112.1C43.6001 112 43.0001 112.1 42.5001 112.3C41.0001 112.9 41.1001 116.8 42.5001 117.7C43.8001 118.5 43.4001 118.7 40.8001 118.7C38.2001 118.7 38.4001 118.9 38.2001 115.2C38.0001 111.1 36.6001 109.1 33.9001 109.1C31.2001 109.1 33.5001 108.9 33.5001 108.6C33.5001 108.3 33.7001 108.2 34.0001 108.3C36.1001 109.1 37.5001 104.5 35.6001 103C35.1001 102.6 34.5001 102.4 34.2001 102.5C33.7001 102.6 33.6001 102.5 33.6001 101.1V99.4996H44.2001V101.1M50.7001 105.6C50.7001 112.2 50.9001 112 48.7001 111.1C46.7001 110.3 45.8001 111.3 46.0001 114.1C46.1001 116.6 47.9001 117.3 49.8001 115.6C50.5001 114.9 50.8001 115.3 50.8001 117.1V118.6H45.7001V111.1C45.7001 103.5 45.7001 102.8 46.4001 104.6C46.7001 105.4 46.9001 105.6 47.6001 105.4C49.1001 105 51.4001 102.7 50.2001 102.7C49.0001 102.7 49.5001 102.4 49.0001 102.1C47.7001 101.1 46.4001 101.5 46.4001 102.9C46.4001 104.3 46.3001 103.3 46.1001 103.2C45.9001 103.1 45.8001 102.2 45.8001 101.2V99.3996H48.3001L50.8001 99.5996V105.6M243.1 101.1C243.5 101.9 243.5 111.4 243.1 111.4C242.7 111.4 242.8 111.7 242.9 112C242.9 112.5 242.6 112.6 241.1 112.7C239.9 112.7 239.3 112.7 239.4 112.5C239.5 112.3 239.4 112.2 239.3 112.2C239.2 112.2 239 110.9 239 108.5C239 103.4 240 103.8 228 103.8C216 103.8 216.9 103.3 216.9 108.8V112.8H215C213.8 112.8 213.1 112.7 213.3 112.5C213.4 112.3 213.3 112.2 213 112.2C212.4 112.2 212.2 101.7 212.9 101.1C213.6 100.5 242.8 100.6 243.2 101.3M308.1 101.1C308.6 102 308.5 111.8 308.1 112.3C307.9 112.5 306.9 112.7 305.9 112.7H304V108.8C304 103.3 305 103.7 293.4 103.7C281.8 103.7 283.9 103.6 283.9 103.4C283.9 103.2 283.5 103.4 283.1 103.8C282.3 104.5 282.3 104.7 282.3 108.6V112.6H280.3C277.5 112.6 277.5 112.6 277.5 106.5C277.5 100.4 277.6 101.1 277.9 100.8C278.7 99.9996 307.8 100.3 308.2 101M237 105.3C237 105.6 237 105.6 237.3 105.3C237.5 105 237.6 106.1 237.6 108.8C237.6 111.5 237.5 112.6 237.3 112.3C237.1 112 237 112 237 112.3C237 112.6 235 112.7 227.9 112.7C220.8 112.7 218.8 112.7 218.8 112.3C218.8 112 218.7 112.1 218.5 112.3C218.3 112.6 218.2 111.5 218.2 108.9V105H227.6C235.1 105 237 105 237 105.4M302.3 105.4C302.5 105.7 302.7 107 302.6 109.2V112.6H293.1C286.7 112.6 283.7 112.5 283.7 112.3C283.7 112.1 283.6 112.1 283.4 112.2C282.9 112.5 283 105.9 283.4 105.4C284 104.8 301.7 104.9 302.2 105.4M108.2 109.8C109.2 120.9 109.3 120.5 103.4 120.8C101.1 120.8 98.8001 121 98.3001 121.1C97.4001 121.1 97.3001 121.1 97.5001 120.6C97.7001 120 97.3001 119 96.2001 117.5C95.8001 116.9 95.6001 115.8 95.5001 112.3V107.9C95.4001 107.9 99.1001 107.8 99.1001 107.8C101.1 107.8 104 107.7 105.4 107.6H108L108.2 109.9M98.1001 110.1C96.9001 111.8 97.3001 117.6 98.8001 118.2C101.1 119.1 106 118.6 106.4 117.4C106.9 115.9 107.2 111.2 106.9 110.7C106 109 99.3001 108.6 98.2001 110.1M34.8001 112.1C34.8001 113.2 34.5001 113.9 34.1001 113.7C32.7001 112.9 31.7001 114.6 31.9001 117.1C32.1001 119.2 32.2001 119.3 33.6001 119.4C34.2001 119.4 34.7001 119.7 34.7001 119.9C34.7001 120.1 33.3001 120.3 29.3001 120.3H23.9001V111.1H34.8001V112M26.5001 112.3C25.8001 113.7 26.5001 114.2 29.4001 114.2C32.3001 114.2 32.8001 113.8 32.5001 112.4C32.2001 111.3 27.1001 111.1 26.5001 112.2M36.9001 116C37.0001 117.8 37.2001 119.5 37.3001 119.8C37.4001 120.2 37.3001 120.4 36.8001 120.4C36.3001 120.4 36.1001 120.2 36.2001 116C36.2001 111.1 36.6001 111.1 37.0001 116M44.1001 115C44.1001 116.8 44.1001 117.1 43.6001 116.7C43.3001 116.5 43.2001 116.2 43.3001 116C43.3001 115.8 43.3001 115.7 43.1001 115.7C42.8001 115.7 42.8001 115.7 43.1001 115.4C43.4001 115.2 43.4001 115.1 43.1001 115.1C42.5001 115.1 42.6001 114.3 43.3001 113.5C44.0001 112.6 44.0001 112.6 44.0001 115M24.2001 114C24.2001 115 24.6001 115.9 24.9001 115.5C25.1001 115.2 25.2001 115.7 25.2001 116.7C25.2001 117.7 25.2001 118.1 24.9001 117.9C24.7001 117.6 24.6001 117.7 24.4001 118.5C24.1001 119.8 24.4001 120 25.5001 119.5C27.4001 118.7 26.8001 113.8 24.8001 113.7C24.5001 113.7 24.2001 113.9 24.2001 114.1M83.1001 116.8C83.1001 117.5 83.1001 118 82.9001 117.9C82.6001 117.6 82.5001 115.1 82.9001 115.3C83.0001 115.3 83.2001 116.1 83.2001 116.8M122.7 117.9C122.7 118.3 122.7 118.7 122.5 118.7C122.3 118.7 122.2 118.2 122.2 117.7C122.2 116.6 122.6 116.7 122.8 117.9M19.8001 121.5C19.5001 121.6 19.6001 121.9 20.1001 122.3L20.8001 122.9H19.5001C18.3001 122.8 18.2001 122.7 18.3001 122C18.4001 121.4 18.6001 121.3 19.3001 121.3C19.8001 121.3 20.0001 121.3 19.7001 121.5M36.1001 121.9C35.2001 122.3 23.2001 122.2 22.2001 121.9C21.8001 121.8 25.0001 121.7 29.2001 121.7C33.4001 121.7 36.6001 121.7 36.1001 122M124.9 123.4C124.8 123.5 124.7 123.9 124.7 124.2C124.7 124.9 125.6 125 126.2 124.4C126.5 124.1 126.7 124.1 127 124.4C127.5 124.8 129.6 124.8 129.9 124.4C130 124.2 130.4 124.2 130.8 124.4C131.9 125 133.4 124.9 133.4 124.1C133.4 123.3 133.3 123.4 133.2 123.4C132.3 123.2 131 123.3 130.7 123.4C130.5 123.5 130.2 123.5 129.9 123.4C129.2 123 127.9 123 127.4 123.4C127.1 123.7 126.9 123.7 126.4 123.4C125.7 123 125.3 122.9 125 123.2M134.3 123.6C133.1 124.5 134.8 125.2 136.3 124.4C136.8 124.1 136.9 124 136.6 123.6C136.1 123 135 123 134.4 123.6M92.4001 124.5C92.5001 124.6 92.9001 124.6 93.4001 124.5C93.8001 124.3 94.6001 124.2 95.1001 124.3C95.6001 124.3 101.5 124.3 108.1 124.4H120.2L119.6 125.7C118.8 127.3 117.2 128.8 115.2 129.7L113.6 130.4H64.8001C11.2001 130.6 12.0001 130.6 9.20012 128.8C7.70012 127.8 5.90012 125.6 5.90012 124.8C5.90012 124 91.9001 124 92.3001 124.6M122.9 129.5C123 130.9 123.6 131.3 123.9 130.1C124.1 129.1 123.9 128.3 123.2 128.3C122.5 128.3 122.8 128.6 122.8 129.5M1.60012 131.4C1.10012 131.7 1.20011 133.7 1.80011 133.9C2.10011 133.9 2.20012 133.6 2.20012 132.6C2.20012 131.6 2.20012 131.1 2.20012 131.1C2.20012 131.1 1.90012 131.2 1.70012 131.4M123 134.9C122.5 135.4 122.8 137 123.3 136.9C123.7 136.9 123.9 136.5 123.9 135.9C123.9 135 123.4 134.5 123 135M1.00012 142.8C0.700116 144.8 1.00012 145.9 1.70012 145.7C2.00012 145.7 2.20012 145.3 2.20012 145.1C2.20012 144.7 11.1001 144.7 62.2001 144.7C113.3 144.7 122.2 144.8 122.2 145C122.2 145.2 122.4 145.3 122.7 145.3C123 145.3 123.2 145.4 123.2 145.6C123.2 145.8 123.4 145.8 123.7 145.7C124.2 145.5 124.4 142.2 123.9 141.5C123.5 140.8 122.9 141.4 122.9 142.4V143.3H2.20012V142.2C2.20012 140.3 1.30012 140.8 1.10012 142.8M200.6 144.7H320.8M335.1 1.89961L335 133.9M134.4 7.49961C133.5 7.89961 134 8.59962 135.3 8.59962C136.6 8.59962 136.6 8.49961 136.6 7.99961C136.6 7.49961 135.3 7.09961 134.4 7.49961ZM232.5 43.1996C232.9 43.5996 233 47.7996 232.7 48.6996C232.4 49.4996 223.8 49.4996 223.5 48.6996C223.1 47.7996 223.3 43.5996 223.7 43.1996C224.1 42.7996 225.4 42.7996 228.1 42.7996C230.8 42.7996 232.3 42.8996 232.5 43.1996ZM286.6 46.0996C286.6 48.4996 286.6 49.2996 286.2 49.1996C285.8 49.0996 285.4 44.1996 285.8 43.2996C286.3 41.9996 286.6 43.0996 286.6 46.0996ZM297.8 49.2996H287.9V42.8996H297.8V49.2996ZM299.4 43.1996C299.4 42.8996 299.5 42.7996 299.9 43.1996C300.4 43.6996 300.2 48.5996 299.6 48.9996C298.9 49.3996 298.8 48.7996 298.8 45.7996C298.8 43.6996 298.9 42.8996 299.1 43.1996C299.3 43.5996 299.4 43.5996 299.4 43.1996ZM240.5 44.6996C243.2 45.8996 244.6 53.8996 244.6 68.5996C244.6 83.2996 244.5 75.2996 242.8 75.8996C242.5 75.9996 242.2 76.2996 242.2 76.5996C242.2 76.8996 242.1 76.9996 241.9 76.8996C241.7 76.7996 241.6 76.8996 241.6 77.2996C241.6 78.3996 241.2 77.4996 241.1 76.1996C241.1 75.4996 241.1 74.7996 241.3 74.6996C241.5 74.5996 241.4 74.2996 241.3 73.9996C241.1 73.6996 240.6 71.4996 240.3 68.9996C240 66.4996 239.6 63.9996 239.5 63.4996C239.5 62.9996 239.3 62.1996 239.2 61.6996C239.2 61.2996 239 60.6996 238.9 60.3996C238.9 60.0996 238.3 57.8996 237.9 55.3996C237 50.5996 236.9 49.9996 236.8 49.9996C236.6 49.9996 236.6 45.5996 236.8 44.7996C237.2 43.5996 238.2 43.5996 240.5 44.6996ZM301.2 54.8996C302.6 61.7996 303.2 65.1996 303.7 69.1996C304.6 77.3996 304.8 79.1996 304.7 79.9996V80.8996H281V78.4996C281 75.3996 281.6 69.5996 282 69.0996C282.2 68.8996 282.2 68.5996 282 68.3996C281.9 68.1996 282 67.8996 282.2 67.5996C282.4 67.3996 282.5 66.9996 282.5 66.6996C282.5 66.2996 282.5 65.4996 283 62.8996C283 62.5996 283.2 61.8996 283.3 61.2996C283.3 60.6996 283.6 59.8996 283.7 59.3996C283.8 58.9996 284.1 57.3996 284.3 55.9996C284.8 53.1996 285.3 51.3996 285.8 50.8996C286 50.6996 286 50.4996 285.9 50.3996C285.9 50.3996 289 50.3996 293 50.3996H300.3L301.2 54.8996ZM76.6001 72.1996C76.6001 72.6996 76.5001 72.3996 76.5001 71.4996C76.5001 70.5996 76.5001 70.1996 76.6001 70.5996C76.6001 70.9996 76.6001 71.6996 76.6001 72.1996ZM122.8 78.0996C122.8 79.1996 122.8 79.2996 122.5 78.7996C122.1 77.8996 122.1 76.6996 122.5 76.6996C122.9 76.6996 122.8 77.2996 122.8 78.0996ZM309.9 77.9996C309.9 78.6996 310 79.5996 310.1 80.0996C310.3 80.9996 309.1 81.2996 308.1 80.5996C307.6 80.2996 307.9 77.2996 308.5 76.9996C309.4 76.3996 309.9 76.7996 309.9 77.9996ZM273.5 77.4996C273.7 77.6996 273.9 78.4996 273.9 79.1996C273.9 79.8996 274 81.6996 274.2 83.2996C274.4 84.8996 274.6 87.5996 274.7 89.2996L274.9 92.3996L274 92.5996C272.8 92.8996 272.6 92.5996 272.4 89.7996C272.4 88.4996 272.2 86.9996 272.1 86.4996C271 79.3996 271.6 75.1996 273.5 77.4996ZM245.7 77.6996C245.7 77.8996 245.5 77.9996 245.3 77.9996C245 77.9996 245 77.9996 245.3 78.1996C245.5 78.1996 245.7 78.7996 245.7 79.2996C245.7 80.7996 245.4 81.0996 244.4 80.9996C243.5 80.8996 242.9 78.3996 243.7 77.5996C244 77.2996 245.7 77.3996 245.7 77.6996ZM110.3 78.3996C110.3 78.5996 110.8 78.6996 111.4 78.6996C112 78.6996 112.5 78.5996 112.5 78.3996C112.5 77.8996 114.7 78.8996 115.6 79.7996C118.3 82.2996 117.6 86.6996 114.4 88.2996C113.3 88.8996 109.8 89.2996 109.5 88.8996C109 88.2996 108.7 78.7996 109.2 78.3996C109.8 77.8996 110.3 77.8996 110.3 78.3996ZM81.9001 80.0996C81.9001 80.7996 81.9001 81.0996 82.0001 80.6996C82.0001 80.2996 82.0001 79.6996 82.0001 79.3996C82.0001 79.0996 81.9001 79.3996 81.9001 80.0996ZM241.8 79.6996C241.8 80.5996 241.2 81.0996 241.2 80.1996C241.2 79.6996 241.3 79.2996 241.5 79.2996C241.7 79.2996 241.8 79.4996 241.8 79.6996ZM81.9001 84.2996C81.9001 85.1996 81.9001 85.4996 82.0001 84.9996C82.0001 84.4996 82.0001 83.7996 82.0001 83.3996C82.0001 82.9996 81.9001 83.3996 81.9001 84.2996ZM309.2 92.6996C309.2 93.3996 309 94.0996 308.9 94.3996C308.9 94.6996 308.7 95.6996 308.7 96.5996C308.7 97.5996 308.5 98.4996 308.3 98.7996C308 99.1996 277 99.3996 277.1 98.8996C277.1 98.7996 277.1 97.8996 276.9 96.8996C276.8 95.8996 276.6 94.2996 276.6 93.2996V91.4996C276.5 91.4996 292.9 91.4996 292.9 91.4996H309.4L309.2 92.6996ZM274.9 96.0996C275.1 98.3996 275 98.7996 274.1 98.7996C273.2 98.7996 273.2 98.5996 273.1 95.9996C273.033 94.6663 273.267 93.9996 273.8 93.9996C274.6 93.9996 274.7 93.9996 274.9 96.0996ZM37.4001 96.2996C37.4001 97.1996 37.3001 97.2996 36.4001 97.2996C35.5001 97.2996 35.4001 97.1996 35.4001 96.2996C35.4001 95.3996 35.5001 95.2996 36.4001 95.2996C37.3001 95.2996 37.4001 95.3996 37.4001 96.2996ZM41.6001 95.4996C41.2001 95.5996 41.2001 95.6996 41.6001 95.9996C42.0001 96.2996 42.0001 96.2996 41.6001 96.4996C41.2001 96.5996 41.2001 96.6996 41.6001 96.9996C41.9001 97.1996 41.7001 97.2996 41.1001 97.2996C40.5001 97.2996 40.3001 97.2996 40.6001 96.9996C41.0001 96.7996 41.0001 96.6996 40.6001 96.4996C40.2001 96.2996 40.2001 96.2996 40.6001 96.0996C41.0001 95.8996 41.0001 95.8996 40.6001 95.5996C40.3001 95.3996 40.5001 95.2996 41.1001 95.2996C41.6001 95.2996 41.9001 95.2996 41.6001 95.4996ZM31.9001 107.2H29.5001C28.1001 107 27.0001 107.2 27.0001 107.3C27.0001 107.5 26.9001 105.8 26.8001 103.5V99.3996H31.9001V107.2ZM36.5001 99.9996C36.0001 100.2 36.0001 101.8 36.5001 102.3C37.6001 103.4 42.2001 102.6 42.2001 101.3C42.2001 99.9996 38.6001 99.0996 36.5001 99.9996ZM34.5001 105.2C34.5001 105.9 34.3001 106.6 34.0001 106.8C33.6001 107.1 33.5001 106.9 33.5001 105.2C33.5001 103.5 33.5001 103.3 34.0001 103.6C34.3001 103.8 34.5001 104.5 34.5001 105.2ZM44.1001 105.6C44.1001 107.2 44.1001 107.5 43.7001 107.1C43.5001 106.9 43.3001 106.4 43.4001 106C43.4001 105.6 43.4001 105.3 43.2001 105.3C42.7001 105.3 42.7001 104.1 43.2001 103.9C44.0001 103.6 44.1001 103.7 44.1001 105.6ZM76.5001 103.8C76.9001 104 77.0001 104.6 77.0001 107.4C77.0001 110.2 76.6001 111.4 75.5001 108.1C74.3001 104.4 74.6001 103.1 76.5001 103.8ZM20.7001 110.8C21.0001 110.6 20.9001 111.7 20.4001 113.7C20.3001 114.2 20.2001 115.1 20.3001 115.6C20.3001 116.1 20.3001 116.9 20.1001 117.4C19.9001 118 19.8001 117.1 19.8001 113.9C19.8001 110.7 19.8001 109.8 20.1001 110.3C20.3001 110.7 20.5001 111 20.7001 110.8ZM22.6001 115.9C22.6001 119.7 22.6001 120.2 22.0001 120.3C21.5001 120.4 21.4001 120.3 21.5001 118.9C21.5001 115.5 21.6001 115.4 22.0001 115.6C22.3001 115.8 22.3001 115.7 22.0001 115.4C21.7001 115 21.7001 114.4 21.9001 113.7C22.1001 113 22.1001 112.7 22.2001 112.2C22.3001 110.1 22.6001 112.4 22.6001 115.9ZM268.6 112.8C264.2 112.8 257.1 112.8 252.8 112.8C248.4 112.8 252 112.8 260.7 112.8C269.4 112.8 273 112.8 268.6 112.8ZM34.5001 116.7C34.5001 118.7 34.2001 119.2 33.9001 118.1C33.8001 117.6 33.6001 117.5 33.4001 117.8C33.2001 118.1 33.1001 117.8 33.1001 116.8C33.1001 115.8 33.3001 115.3 33.7001 115C34.5001 114.4 34.5001 114.6 34.5001 116.7ZM64.2001 115.8C64.2001 116 64.2001 116.2 64.2001 116.4C64.2001 116.6 63.5001 116.7 62.6001 116.8C61.3001 116.9 61.0001 116.8 61.2001 116.5C61.2001 116.3 61.4001 115.9 61.4001 115.8C61.4001 115.7 62.0001 115.5 62.8001 115.5C63.6001 115.5 64.2001 115.6 64.2001 115.8ZM70.9001 117C71.4001 117.5 72.3001 117.8 73.5001 117.9L75.3001 118.1L75.5001 119.5C75.7001 121.2 76.5001 122.2 78.2001 122.5C78.9001 122.6 76.7001 122.8 72.8001 122.8H66.2001V121.3C66.2001 119.2 66.7001 118.7 68.5001 118.7C70.3001 118.7 70.0001 118.6 70.2001 118C70.5001 117.1 69.9001 116.8 68.2001 116.8C67.5001 116.8 66.8001 116.7 66.8001 116.5C66.8001 115.9 70.1001 116.3 70.9001 117ZM78.3001 118.5C78.3001 118.7 78.5001 119 78.8001 119.1C80.2001 119.6 80.0001 120.6 78.4001 120.5C76.8001 120.4 76.0001 118.8 77.1001 117.5C77.5001 117 78.3001 117.7 78.3001 118.5ZM45.6001 122.2C45.6001 122.8 45.5001 122.8 41.9001 122.8C38.3001 122.8 38.1001 122.8 38.3001 122.2C38.5001 121.6 38.7001 121.6 42.0001 121.6C45.3001 121.6 45.6001 121.6 45.6001 122.2ZM1.20012 129.4C1.20012 130.1 1.40012 130.6 1.70012 130.7C2.10012 130.8 2.20012 130.7 2.20012 129.6C2.20012 128.5 2.10012 128.3 1.70012 128.3C1.30012 128.3 1.20012 128.6 1.20012 129.4ZM122.8 132.8C122.8 134 122.8 134.1 123.4 133.7C124.3 133.2 124.2 131.5 123.2 131.5C122.2 131.5 122.8 131.9 122.8 132.8ZM1.20012 135.8C1.20012 136.6 1.30012 136.9 1.70012 136.9C2.10012 136.9 2.20012 136.6 2.20012 135.8C2.20012 135 2.10012 134.7 1.70012 134.7C1.30012 134.7 1.20012 135 1.20012 135.8ZM1.20012 139.2C1.20012 140.1 1.30012 140.5 1.70012 140.5C2.10012 140.5 2.20012 140.1 2.20012 139.2C2.20012 138.3 2.10012 137.9 1.70012 137.9C1.30012 137.9 1.20012 138.3 1.20012 139.2ZM122.9 138.3C122.6 139.1 122.9 140.3 123.4 140.4C123.8 140.4 123.9 140.2 123.9 139.3C123.9 138.1 123.2 137.5 122.9 138.3ZM53.2717 146.872V155.6H52.2149V147.98H52.1638L50.0331 149.395V148.321L52.2149 146.872H53.2717ZM56.016 155.668C55.8058 155.668 55.6254 155.593 55.4748 155.442C55.3243 155.291 55.249 155.111 55.249 154.901C55.249 154.691 55.3243 154.51 55.4748 154.36C55.6254 154.209 55.8058 154.134 56.016 154.134C56.2263 154.134 56.4067 154.209 56.5572 154.36C56.7078 154.51 56.7831 154.691 56.7831 154.901C56.7831 155.04 56.7476 155.168 56.6765 155.284C56.6084 155.401 56.516 155.494 56.3996 155.566C56.2859 155.634 56.1581 155.668 56.016 155.668ZM61.1915 155.719C60.629 155.719 60.1275 155.622 59.6872 155.429C59.2497 155.236 58.9017 154.968 58.6432 154.624C58.3875 154.277 58.2483 153.875 58.2255 153.418H59.2994C59.3221 153.699 59.4187 153.942 59.5892 154.146C59.7596 154.348 59.9826 154.504 60.2582 154.615C60.5338 154.726 60.8392 154.781 61.1744 154.781C61.5494 154.781 61.8818 154.716 62.1716 154.585C62.4613 154.455 62.6886 154.273 62.8534 154.04C63.0182 153.807 63.1005 153.537 63.1005 153.23C63.1005 152.909 63.021 152.627 62.8619 152.382C62.7028 152.135 62.4699 151.942 62.163 151.803C61.8562 151.664 61.4812 151.594 61.038 151.594H60.3392V150.656H61.038C61.3846 150.656 61.6886 150.594 61.95 150.469C62.2142 150.344 62.4201 150.168 62.5679 149.941C62.7184 149.713 62.7937 149.446 62.7937 149.139C62.7937 148.844 62.7284 148.587 62.5977 148.368C62.467 148.149 62.2824 147.979 62.0437 147.857C61.8079 147.735 61.5295 147.673 61.2085 147.673C60.9074 147.673 60.6233 147.729 60.3562 147.84C60.092 147.948 59.8761 148.105 59.7085 148.313C59.5409 148.517 59.45 148.764 59.4358 149.054H58.413C58.4301 148.597 58.5679 148.196 58.8264 147.852C59.0849 147.506 59.423 147.236 59.8406 147.043C60.2611 146.85 60.7227 146.753 61.2255 146.753C61.7653 146.753 62.2284 146.862 62.6147 147.081C63.0011 147.297 63.298 147.583 63.5054 147.938C63.7128 148.293 63.8165 148.676 63.8165 149.088C63.8165 149.58 63.6872 149.999 63.4287 150.345C63.173 150.692 62.825 150.932 62.3846 151.066V151.134C62.9358 151.225 63.3662 151.459 63.6758 151.837C63.9855 152.212 64.1403 152.676 64.1403 153.23C64.1403 153.705 64.0111 154.131 63.7525 154.509C63.4969 154.884 63.1474 155.179 62.7042 155.395C62.2611 155.611 61.7568 155.719 61.1915 155.719ZM68.6105 155.719C68.1105 155.719 67.6602 155.62 67.2596 155.421C66.8591 155.222 66.538 154.949 66.2966 154.602C66.0551 154.256 65.923 153.861 65.9003 153.418H66.923C66.9628 153.813 67.1417 154.139 67.4599 154.398C67.7809 154.654 68.1645 154.781 68.6105 154.781C68.9684 154.781 69.2866 154.698 69.565 154.53C69.8463 154.362 70.0665 154.132 70.2255 153.84C70.3875 153.544 70.4684 153.21 70.4684 152.838C70.4684 152.458 70.3846 152.118 70.217 151.82C70.0523 151.519 69.825 151.281 69.5352 151.108C69.2454 150.935 68.9145 150.847 68.5423 150.844C68.2753 150.841 68.0011 150.882 67.7199 150.968C67.4386 151.05 67.2071 151.156 67.0253 151.287L66.0366 151.168L66.565 146.872H71.0991V147.81H67.4514L67.1446 150.384H67.1957C67.3747 150.242 67.5991 150.124 67.869 150.03C68.1389 149.936 68.4201 149.889 68.7128 149.889C69.2469 149.889 69.7227 150.017 70.1403 150.273C70.5608 150.526 70.8903 150.872 71.129 151.313C71.3704 151.753 71.4912 152.256 71.4912 152.821C71.4912 153.378 71.3662 153.875 71.1162 154.313C70.869 154.747 70.5281 155.091 70.0934 155.344C69.6588 155.594 69.1645 155.719 68.6105 155.719ZM76.576 155.6V149.054H77.5476V150.077H77.6329C77.7692 149.727 77.9894 149.456 78.2934 149.263C78.5974 149.067 78.9624 148.969 79.3885 148.969C79.8204 148.969 80.1797 149.067 80.4667 149.263C80.7564 149.456 80.9823 149.727 81.1442 150.077H81.2124C81.38 149.739 81.6314 149.47 81.9667 149.271C82.3019 149.07 82.7039 148.969 83.1726 148.969C83.7579 148.969 84.2366 149.152 84.6087 149.519C84.9809 149.882 85.167 150.449 85.167 151.219V155.6H84.1613V151.219C84.1613 150.736 84.0292 150.391 83.765 150.183C83.5008 149.976 83.1897 149.872 82.8317 149.872C82.3715 149.872 82.015 150.012 81.7621 150.29C81.5093 150.566 81.3829 150.915 81.3829 151.338V155.6H80.3601V151.117C80.3601 150.745 80.2394 150.445 79.9979 150.218C79.7564 149.987 79.4454 149.872 79.0647 149.872C78.8033 149.872 78.559 149.942 78.3317 150.081C78.1073 150.22 77.9255 150.414 77.7863 150.661C77.6499 150.905 77.5817 151.188 77.5817 151.509V155.6H76.576ZM149.872 62.1723V70.8996H148.815V63.2803H148.764L146.633 64.6951V63.6212L148.815 62.1723H149.872ZM152.616 70.9678C152.406 70.9678 152.225 70.8925 152.075 70.7419C151.924 70.5914 151.849 70.411 151.849 70.2007C151.849 69.9905 151.924 69.8101 152.075 69.6595C152.225 69.509 152.406 69.4337 152.616 69.4337C152.826 69.4337 153.007 69.509 153.157 69.6595C153.308 69.8101 153.383 69.9905 153.383 70.2007C153.383 70.3399 153.348 70.4678 153.277 70.5843C153.208 70.7007 153.116 70.7945 153 70.8655C152.886 70.9337 152.758 70.9678 152.616 70.9678ZM157.791 71.0189C157.229 71.0189 156.728 70.9223 156.287 70.7291C155.85 70.536 155.502 70.2675 155.243 69.9238C154.987 69.5772 154.848 69.1752 154.826 68.7178H155.899C155.922 68.999 156.019 69.2419 156.189 69.4465C156.36 69.6482 156.583 69.8044 156.858 69.9152C157.134 70.026 157.439 70.0814 157.774 70.0814C158.149 70.0814 158.482 70.0161 158.772 69.8854C159.061 69.7547 159.289 69.5729 159.453 69.3399C159.618 69.107 159.701 68.8371 159.701 68.5303C159.701 68.2093 159.621 67.9266 159.462 67.6823C159.303 67.4351 159.07 67.2419 158.763 67.1027C158.456 66.9635 158.081 66.8939 157.638 66.8939H156.939V65.9564H157.638C157.985 65.9564 158.289 65.8939 158.55 65.7689C158.814 65.6439 159.02 65.4678 159.168 65.2405C159.318 65.0132 159.394 64.7462 159.394 64.4394C159.394 64.1439 159.328 63.8868 159.198 63.6681C159.067 63.4493 158.882 63.2789 158.644 63.1567C158.408 63.0345 158.13 62.9735 157.808 62.9735C157.507 62.9735 157.223 63.0289 156.956 63.1397C156.692 63.2476 156.476 63.4053 156.308 63.6127C156.141 63.8172 156.05 64.0644 156.036 64.3541H155.013C155.03 63.8968 155.168 63.4962 155.426 63.1524C155.685 62.8059 156.023 62.536 156.441 62.3428C156.861 62.1496 157.323 62.053 157.826 62.053C158.365 62.053 158.828 62.1624 159.215 62.3811C159.601 62.597 159.898 62.8826 160.105 63.2377C160.313 63.5928 160.416 63.9763 160.416 64.3882C160.416 64.8797 160.287 65.2987 160.029 65.6453C159.773 65.9919 159.425 66.232 158.985 66.3655V66.4337C159.536 66.5246 159.966 66.759 160.276 67.1368C160.585 67.5118 160.74 67.9763 160.74 68.5303C160.74 69.0047 160.611 69.4309 160.353 69.8087C160.097 70.1837 159.747 70.4792 159.304 70.6951C158.861 70.911 158.357 71.0189 157.791 71.0189ZM162.483 70.8996V70.1326L165.364 66.9791C165.702 66.6098 165.98 66.2888 166.199 66.0161C166.418 65.7405 166.58 65.482 166.685 65.2405C166.793 64.9962 166.847 64.7405 166.847 64.4735C166.847 64.1667 166.773 63.901 166.625 63.6766C166.48 63.4522 166.281 63.2789 166.029 63.1567C165.776 63.0345 165.492 62.9735 165.176 62.9735C164.841 62.9735 164.549 63.0431 164.299 63.1823C164.051 63.3186 163.86 63.5104 163.723 63.7576C163.59 64.0047 163.523 64.2945 163.523 64.6269H162.517C162.517 64.1155 162.635 63.6666 162.871 63.2803C163.107 62.8939 163.428 62.5928 163.834 62.3769C164.243 62.161 164.702 62.053 165.21 62.053C165.722 62.053 166.175 62.161 166.57 62.3769C166.965 62.5928 167.274 62.884 167.499 63.2505C167.723 63.6169 167.835 64.0246 167.835 64.4735C167.835 64.7945 167.777 65.1084 167.661 65.4152C167.547 65.7192 167.348 66.0587 167.064 66.4337C166.783 66.8059 166.392 67.2604 165.892 67.7973L163.932 69.8939V69.9621H167.989V70.8996H162.483ZM173.141 70.8996V64.3541H174.112V65.3769H174.198C174.334 65.0274 174.554 64.7561 174.858 64.563C175.162 64.3669 175.527 64.2689 175.953 64.2689C176.385 64.2689 176.745 64.3669 177.032 64.563C177.321 64.7561 177.547 65.0274 177.709 65.3769H177.777C177.945 65.0388 178.196 64.7703 178.532 64.5715C178.867 64.3698 179.269 64.2689 179.737 64.2689C180.323 64.2689 180.801 64.4522 181.174 64.8186C181.546 65.1823 181.732 65.749 181.732 66.5189V70.8996H180.726V66.5189C180.726 66.036 180.594 65.6908 180.33 65.4834C180.066 65.276 179.755 65.1723 179.397 65.1723C178.936 65.1723 178.58 65.3115 178.327 65.5899C178.074 65.8655 177.948 66.2149 177.948 66.6382V70.8996H176.925V66.4166C176.925 66.0445 176.804 65.7448 176.563 65.5175C176.321 65.2874 176.01 65.1723 175.63 65.1723C175.368 65.1723 175.124 65.2419 174.897 65.3811C174.672 65.5203 174.49 65.7135 174.351 65.9607C174.215 66.205 174.147 66.4877 174.147 66.8087V70.8996H173.141ZM253.372 146.872V155.6H252.315V147.98H252.264L250.133 149.395V148.321L252.315 146.872H253.372ZM256.116 155.668C255.906 155.668 255.725 155.593 255.575 155.442C255.424 155.291 255.349 155.111 255.349 154.901C255.349 154.691 255.424 154.51 255.575 154.36C255.725 154.209 255.906 154.134 256.116 154.134C256.326 154.134 256.507 154.209 256.657 154.36C256.808 154.51 256.883 154.691 256.883 154.901C256.883 155.04 256.848 155.168 256.777 155.284C256.708 155.401 256.616 155.494 256.5 155.566C256.386 155.634 256.258 155.668 256.116 155.668ZM261.222 155.719C260.722 155.719 260.272 155.62 259.871 155.421C259.471 155.222 259.15 154.949 258.908 154.602C258.667 154.256 258.535 153.861 258.512 153.418H259.535C259.574 153.813 259.753 154.139 260.072 154.398C260.393 154.654 260.776 154.781 261.222 154.781C261.58 154.781 261.898 154.698 262.177 154.53C262.458 154.362 262.678 154.132 262.837 153.84C262.999 153.544 263.08 153.21 263.08 152.838C263.08 152.458 262.996 152.118 262.829 151.82C262.664 151.519 262.437 151.281 262.147 151.108C261.857 150.935 261.526 150.847 261.154 150.844C260.887 150.841 260.613 150.882 260.332 150.968C260.05 151.05 259.819 151.156 259.637 151.287L258.648 151.168L259.177 146.872H263.711V147.81H260.063L259.756 150.384H259.807C259.986 150.242 260.211 150.124 260.481 150.03C260.751 149.936 261.032 149.889 261.324 149.889C261.859 149.889 262.334 150.017 262.752 150.273C263.172 150.526 263.502 150.872 263.741 151.313C263.982 151.753 264.103 152.256 264.103 152.821C264.103 153.378 263.978 153.875 263.728 154.313C263.481 154.747 263.14 155.091 262.705 155.344C262.27 155.594 261.776 155.719 261.222 155.719ZM265.796 155.6V154.833L268.676 151.679C269.014 151.31 269.293 150.989 269.512 150.716C269.73 150.441 269.892 150.182 269.997 149.941C270.105 149.696 270.159 149.441 270.159 149.173C270.159 148.867 270.085 148.601 269.938 148.377C269.793 148.152 269.594 147.979 269.341 147.857C269.088 147.735 268.804 147.673 268.489 147.673C268.154 147.673 267.861 147.743 267.611 147.882C267.364 148.019 267.172 148.21 267.036 148.458C266.902 148.705 266.835 148.995 266.835 149.327H265.83C265.83 148.816 265.948 148.367 266.184 147.98C266.419 147.594 266.74 147.293 267.147 147.077C267.556 146.861 268.014 146.753 268.523 146.753C269.034 146.753 269.487 146.861 269.882 147.077C270.277 147.293 270.587 147.584 270.811 147.95C271.036 148.317 271.148 148.725 271.148 149.173C271.148 149.494 271.09 149.808 270.973 150.115C270.86 150.419 270.661 150.759 270.377 151.134C270.095 151.506 269.705 151.96 269.205 152.497L267.245 154.594V154.662H271.301V155.6H265.796ZM276.453 155.6V149.054H277.425V150.077H277.51C277.647 149.727 277.867 149.456 278.171 149.263C278.475 149.067 278.84 148.969 279.266 148.969C279.698 148.969 280.057 149.067 280.344 149.263C280.634 149.456 280.86 149.727 281.022 150.077H281.09C281.257 149.739 281.509 149.47 281.844 149.271C282.179 149.07 282.581 148.969 283.05 148.969C283.635 148.969 284.114 149.152 284.486 149.519C284.858 149.882 285.044 150.449 285.044 151.219V155.6H284.039V151.219C284.039 150.736 283.907 150.391 283.642 150.183C283.378 149.976 283.067 149.872 282.709 149.872C282.249 149.872 281.892 150.012 281.639 150.29C281.387 150.566 281.26 150.915 281.26 151.338V155.6H280.237V151.117C280.237 150.745 280.117 150.445 279.875 150.218C279.634 149.987 279.323 149.872 278.942 149.872C278.681 149.872 278.436 149.942 278.209 150.081C277.985 150.22 277.803 150.414 277.664 150.661C277.527 150.905 277.459 151.188 277.459 151.509V155.6H276.453ZM343.772 68.2723V76.9996H342.715V69.3803H342.664L340.533 70.7951V69.7212L342.715 68.2723H343.772ZM346.516 77.0678C346.306 77.0678 346.125 76.9925 345.975 76.8419C345.824 76.6914 345.749 76.511 345.749 76.3008C345.749 76.0905 345.824 75.9101 345.975 75.7596C346.125 75.609 346.306 75.5337 346.516 75.5337C346.726 75.5337 346.907 75.609 347.057 75.7596C347.208 75.9101 347.283 76.0905 347.283 76.3008C347.283 76.44 347.248 76.5678 347.177 76.6843C347.108 76.8008 347.016 76.8945 346.9 76.9655C346.786 77.0337 346.658 77.0678 346.516 77.0678ZM348.866 75.2098V74.3405L352.701 68.2723H353.332V69.6189H352.906L350.008 74.2042V74.2723H355.173V75.2098H348.866ZM352.974 76.9996H353.98V68.2723H352.974V76.9996ZM357.043 76.9996L360.946 69.278V69.2098H356.446V68.2723H362.037V69.261L358.151 76.9996H357.043ZM367.017 76.9996V70.4542H367.989V71.4769H368.074C368.211 71.1275 368.431 70.8561 368.735 70.663C369.039 70.4669 369.404 70.3689 369.83 70.3689C370.262 70.3689 370.621 70.4669 370.908 70.663C371.198 70.8561 371.424 71.1275 371.586 71.4769H371.654C371.821 71.1388 372.073 70.8703 372.408 70.6715C372.743 70.4698 373.145 70.3689 373.614 70.3689C374.199 70.3689 374.678 70.5522 375.05 70.9186C375.422 71.2823 375.608 71.849 375.608 72.6189V76.9996H374.603V72.6189C374.603 72.136 374.471 71.7908 374.206 71.5834C373.942 71.376 373.631 71.2723 373.273 71.2723C372.813 71.2723 372.456 71.4115 372.204 71.6899C371.951 71.9655 371.824 72.315 371.824 72.7383V76.9996H370.802V72.5167C370.802 72.1445 370.681 71.8448 370.439 71.6175C370.198 71.3874 369.887 71.2723 369.506 71.2723C369.245 71.2723 369 71.3419 368.773 71.4811C368.549 71.6204 368.367 71.8135 368.228 72.0607C368.091 72.305 368.023 72.5877 368.023 72.9087V76.9996H367.017Z" stroke="white" stroke-width="0.5" stroke-miterlimit="10"/>
</svg>
