<svg width="179" height="157" viewBox="0 0 179 157" fill="none" xmlns="http://www.w3.org/2000/svg">
<path d="M55.8638 1C51.0638 1.5 40.6638 4.1 39.2638 5.1C39.0638 5.2 38.3638 5.5 37.6638 5.7C36.3638 6.1 33.9638 7.3 33.6638 7.6C33.6638 7.7 33.2638 7.90001 32.9638 8.00001C31.7638 8.40001 25.6638 12.6 24.3638 13.9C23.5638 14.7 22.8638 15.3 22.6638 15.3C22.3638 15.3 16.4638 21.2 14.6638 23.3C13.1638 25.1 10.4638 29.3 8.96384 32.2C8.46384 33.1 7.56384 34.8 6.96384 35.9C6.06384 37.6 3.86383 43.2 3.36383 45.4C1.36383 53.5 0.663838 65.7 1.46384 77.9C1.66384 80.5 1.56383 81 1.26383 81C0.963826 81 0.863826 81 1.26383 81.3C1.66383 81.5 1.86384 82.8 2.16384 86.6C2.26384 88.5 3.16384 95.3 3.46384 96.6C3.66384 97.3 3.86384 98.8 4.16384 100.8C4.16384 101.5 4.46384 102.4 4.66384 103C4.86384 103.5 5.06384 104.4 5.16384 105C5.26384 105.6 5.46384 106.4 5.66384 106.8C5.86384 107.2 5.96384 107.5 5.96384 107.6C5.86384 107.8 6.36383 109.5 6.76383 110.2C6.96383 110.6 7.16383 110.9 7.06383 110.9C6.96383 110.9 7.26383 111.7 7.76383 112.7C10.2638 118.3 11.9638 120.8 15.1638 123.3C16.3638 124.3 17.3638 125.1 17.4638 125.3C17.4638 125.4 17.7638 125.6 18.0638 125.6C18.3638 125.6 18.5638 125.7 18.5638 125.8C18.5638 125.9 18.8638 126.2 19.1638 126.4C19.4638 126.6 20.3638 127.1 21.1638 127.5C21.9638 127.9 22.6638 128.3 22.7638 128.3C22.8638 128.3 23.3638 128.6 23.8638 128.8C32.0638 133.1 41.0638 134.4 63.3638 134.3C80.7638 134.3 87.5638 133.6 95.0638 131.2C98.5638 130.1 104.664 127.5 104.664 127.1C104.664 126.7 105.064 126.7 105.564 126.5C106.064 126.3 106.764 125.8 107.164 125.5C107.564 125.1 107.864 124.9 107.964 124.9C108.064 124.9 108.764 124.4 109.464 123.7C113.764 120 116.064 116.6 117.964 111C118.464 109.6 118.964 108.2 119.064 107.8C119.364 107 120.464 102.4 120.964 100C121.264 98.4 121.364 97.7 121.864 94.4C121.864 93.7 122.164 92.3 122.364 91.2C123.564 82.8 123.964 58 122.864 52C122.064 47.6 120.864 42.9 119.864 40.5C119.664 39.9 119.364 39.2 119.264 38.9C119.064 38 116.864 33.3 116.464 33.1C116.264 33 116.164 32.8 116.264 32.7C116.264 32.6 115.964 32 115.464 31.4C114.964 30.8 114.564 30.2 114.564 30.1C114.564 30 114.164 29.4 113.764 28.9C113.364 28.3 112.964 27.7 112.964 27.5C112.964 27.3 112.864 27.1 112.664 27.1C112.464 27.1 112.364 26.9 112.364 26.7C112.364 26.2 109.064 22.2 106.164 19.1C95.1638 7.6 80.2638 1.2 64.0638 1C60.9638 1 57.4638 1 56.2638 1.2M57.2638 2.9C56.2638 3.2 55.2638 3.6 55.0638 3.8C54.6638 4.1 52.6638 4.8 48.9638 5.7C46.2638 6.4 42.4638 8.70001 42.1638 10C41.7638 11.5 39.1638 12.6 39.1638 11.3C39.1638 10 32.9638 12.5 29.8638 14.5C25.4638 17.3 17.6638 24.3 17.6638 25.4C17.6638 26.5 17.4638 25.9 17.2638 26C16.6638 26.4 13.1638 31.7 11.4638 34.8C10.0638 37.4 9.66384 38.4 7.96384 43.1C7.66384 44.1 7.26384 45.1 7.16384 45.3C7.06384 45.6 6.96383 45.9 7.06383 46C7.06383 46.1 6.86384 46.7 6.66384 47.2C6.36384 47.7 6.26383 48.1 6.36383 48.1C6.46383 48.1 6.36383 48.3 6.36383 48.5C6.26383 48.7 6.06383 49.1 6.06383 49.4C6.06383 49.7 5.96383 50.3 5.86383 50.8C5.56383 52 5.26384 53.6 5.16384 55.1C5.16384 55.7 4.96383 60.4 4.86383 65.6L4.66384 75L5.56383 75.5C6.46383 76 11.0638 77.5 11.4638 77.4C12.1638 77.2 10.9638 84.4 10.1638 85C8.16384 86.4 7.86383 86.8 7.56383 88.3C6.96383 92.1 9.56384 108.4 11.4638 112.8L12.3638 114.9H62.2638L112.164 115.1L112.764 114.2C113.364 113.3 113.964 111.8 114.564 109.9C114.764 109.2 115.064 108.7 115.264 108.7C115.464 108.7 115.464 108.5 115.364 108.2C115.264 107.9 115.364 107.7 115.564 107.7C115.764 107.7 115.864 107.5 115.764 107.3C115.764 107.1 115.764 106.6 115.964 106.3C116.364 105.7 117.064 102.9 117.264 101C117.264 100.5 117.464 99.7 117.464 99.2C119.064 89.1 118.864 87.1 116.164 85.5C115.364 85 114.764 84.4 114.764 84.3C114.764 84.1 114.564 82.6 114.264 80.8C113.964 79.1 113.764 77.6 113.764 77.6C113.764 77.6 114.564 77.4 115.564 77.1C116.564 76.8 117.664 76.6 117.964 76.4C118.264 76.2 118.764 76.1 119.064 76.1C119.364 76.1 119.664 75.8 119.864 75.4C120.164 74.6 120.064 56.1 119.864 55.1C119.864 54.8 119.564 53.8 119.464 52.9C119.164 50.3 117.864 45.3 116.764 42.6C116.464 41.7 116.164 40.9 116.264 40.8C116.264 40.8 116.264 40.6 116.064 40.6C115.864 40.6 115.764 40.6 115.864 40.4C116.164 40.1 112.264 32.8 109.764 29C107.264 25.2 104.364 21.8 101.164 19.1C99.3638 17.6 93.0638 13.2 92.7638 13.3C92.7638 13.3 92.3638 13.2 91.9638 13C91.5638 12.8 91.2638 12.7 91.0638 12.7C90.9638 12.7 90.8638 12.7 90.8638 12.5C90.8638 12.1 86.8638 11.4 85.8638 11.7C84.1638 12.2 82.8638 11.7 82.8638 10.4C82.8638 9.1 79.1638 6.7 74.0638 5.4C71.9638 4.9 70.2638 4.3 70.1638 4.2C70.1638 4 69.3638 3.7 68.6638 3.5C66.1638 2.7 67.0638 2.5 70.3638 3C71.0638 3.1 72.1638 3.3 72.7638 3.4C76.3638 4 82.8638 5.8 84.6638 6.8C84.9638 7 85.4638 7.1 85.6638 7.1C85.8638 7.1 86.3638 7.4 86.6638 7.7C86.9638 8 87.2638 8.3 87.4638 8.2C87.9638 7.9 96.6638 12.9 98.2638 14.4C98.5638 14.7 99.4638 15.4 100.164 15.9C103.564 18.5 111.764 27.6 111.764 28.8C111.764 30 111.864 29.2 112.064 29.2C112.264 29.2 112.364 29.4 112.364 29.6C112.364 29.8 112.664 30.3 112.964 30.7C113.364 31.1 113.564 31.5 113.564 31.7C113.564 31.9 113.964 32.6 114.564 33.5C115.064 34.3 115.464 35.2 115.364 35.4C115.264 35.6 115.364 35.7 115.464 35.6C116.564 34.9 120.264 46.3 121.464 53.6C123.264 65.2 121.464 93.3 118.364 105C116.864 110.5 116.564 111.4 115.764 113.3C115.264 114.4 114.764 115.3 114.564 115.5C114.364 115.7 114.364 115.7 114.464 115.7C114.564 115.7 114.264 116.3 113.764 117C113.264 117.7 112.764 118.4 112.764 118.6C112.764 119 108.564 123.2 107.764 123.6C107.464 123.8 106.864 124.2 106.364 124.6C105.264 125.6 100.864 127.9 98.1638 129C88.3638 132.7 83.0638 133.4 61.0638 133.3C41.0638 133.2 34.2638 132.3 26.4638 128.8C25.5638 128.4 24.6638 128 24.4638 128C24.2638 128 24.1638 127.9 24.0638 127.8C24.0638 127.7 22.9638 127.1 21.7638 126.5C20.5638 125.9 19.2638 125.1 18.8638 124.7C18.4638 124.3 18.0638 124 17.8638 124C17.5638 124 15.5638 122.2 13.9638 120.7C12.0638 118.8 8.66383 112 8.06383 109.2C8.06383 108.9 7.76384 108.1 7.46384 107.6C6.16384 104.7 4.16384 92.7 3.66384 84.4C3.66384 82.9 3.36383 80.6 3.26383 79.4C3.16383 77.7 3.26384 76.9 3.46384 76.6C3.76384 76.2 3.76384 76.1 3.46384 76.1C3.16384 76.1 3.16383 56.4 3.56383 54C4.36383 49.2 6.46383 41.7 7.26383 40.4C7.36383 40.2 7.46383 39.9 7.56383 39.6C7.56383 39.3 7.76384 39.1 7.96384 39C8.16384 39 8.26384 38.8 8.16384 38.6C8.16384 38.4 8.16383 38.3 8.36383 38.3C8.56383 38.3 8.66383 38.2 8.56383 38C8.46383 37.8 8.56384 37.7 8.66384 37.7C8.76384 37.7 9.06384 37.3 9.16384 36.8C9.26384 36.3 9.46383 35.8 9.56383 35.8C9.66383 35.8 9.96383 35.1 10.2638 34.5C10.5638 33.9 10.9638 33.1 11.2638 32.7C11.4638 32.4 12.4638 30.8 13.3638 29.3C15.9638 25.2 22.4638 17.8 23.4638 17.8C24.4638 17.8 24.7638 16.9 26.6638 15.1C28.8638 13.1 35.8638 9 39.0638 7.9C40.0638 7.6 41.2638 7 41.8638 6.7C43.1638 6 52.0638 3.8 54.3638 3.6C55.2638 3.6 56.1638 3.4 56.1638 3.3C56.1638 3.3 56.9638 3.2 57.7638 3.1H59.2638L57.4638 3.6M67.3638 4.6C68.2638 5 69.6638 5.5 70.4638 5.9C71.2638 6.3 72.7638 6.7 73.8638 6.9C77.3638 7.5 80.3638 9.30001 81.5638 11.5C82.3638 13 84.2638 13.9 85.2638 13.3C86.0638 12.8 87.9638 12.8 89.3638 13.5C90.0638 13.8 90.6638 14 90.7638 14C90.8638 14 90.9638 14 90.9638 14.3C90.9638 14.6 91.0638 14.6 91.1638 14.6C91.6638 14.6 93.4638 15.3 93.4638 15.6C93.4638 15.9 93.6638 15.9 93.8638 15.9C94.0638 15.9 94.5638 16.2 94.9638 16.5C95.3638 16.9 95.7638 17.1 95.9638 17.1C96.1638 17.1 96.7638 17.5 97.2638 18C97.8638 18.5 98.3638 19 98.5638 19C99.0638 19.2 104.764 24.9 105.764 26.3C106.264 27 107.164 28.3 107.764 29C108.364 29.8 108.964 30.8 109.264 31.3C109.564 31.8 110.164 32.8 110.564 33.5C110.964 34.2 111.964 36 112.664 37.5C113.364 39 114.364 41 114.764 41.9C115.864 44.2 117.664 51.6 118.064 55.7C118.464 59.9 118.564 74.5 118.064 74.2C117.864 74.2 117.664 74.2 117.564 74.5C117.564 74.7 116.564 75.1 115.564 75.3C114.564 75.5 113.564 75.8 113.264 75.8C112.964 75.9 112.864 74.4 112.864 68.5C112.864 61.5 112.464 55.1 111.564 49.7C110.864 45.6 109.364 43.9 105.664 43.2C104.464 43 103.264 42.6 102.964 42.4C102.364 41.8 87.9638 41.8 87.2638 42.4C86.9638 42.6 85.7638 43 84.4638 43.2C80.6638 43.8 79.0638 45.6 78.3638 50C78.1638 51.1 77.8638 52.1 77.6638 52.3C77.3638 52.5 77.3638 52.6 77.6638 52.6C78.0638 52.6 77.9638 55.8 77.4638 58C77.0638 59.9 76.9638 75.6 77.4638 76.1C78.0638 76.8 77.7638 76.9 75.9638 76.5C71.8638 75.7 71.7638 76.3 74.0638 95.9C74.5638 100.6 74.7638 100.8 77.6638 100.5C78.2638 100.5 78.5638 100.5 78.5638 100.8C78.5638 101 78.5638 103.8 78.5638 107V112.8H46.9638V106.8C46.9638 103.5 46.9638 100.6 46.9638 100.4C46.9638 100.1 47.0638 100.1 47.3638 100.3C49.3638 101.8 50.7638 100.4 51.1638 96.8C51.3638 95.2 51.5638 92.9 51.7638 91.7C52.4638 87 52.8638 78.3 52.4638 77.5C51.9638 76.5 50.9638 76.2 49.0638 76.6L47.5638 76.9L47.7638 76.1C48.1638 74.8 47.9638 61 47.5638 56.9C46.4638 46 45.3638 44 40.3638 43.3C39.4638 43.2 38.3638 42.9 37.9638 42.6C36.7638 42 23.3638 42 22.4638 42.6C22.1638 42.8 21.0638 43.1 20.0638 43.3C16.1638 43.8 14.3638 45.6 13.6638 49.4C12.5638 55.7 11.6638 71.5 12.2638 74.8C12.4638 75.7 12.4638 76.4 12.2638 76.3C12.0638 76.2 11.9638 75.9 11.9638 75.6C11.9638 75.2 11.9638 75.1 11.6638 75.5C11.3638 76 8.66383 75.5 6.86383 74.7L5.76383 74.2L5.96384 64.6C6.06384 59.3 6.26384 54.4 6.46384 53.7C7.26384 50.3 8.86383 44.4 9.06383 44.1C9.16383 43.9 9.46384 43.1 9.66384 42.3C9.86384 41.5 10.7638 39.4 11.5638 37.7C13.1638 34.5 13.3638 34.1 14.5638 32.3C14.9638 31.8 15.3638 30.9 15.6638 30.5C15.8638 30 16.2638 29.6 16.3638 29.6C16.4638 29.6 16.6638 29.5 16.6638 29.3C16.6638 29.1 16.7638 28.8 16.9638 28.6C20.2638 24.6 20.9638 23.9 26.7638 18.7C27.4638 18.1 28.2638 17.6 28.4638 17.5C28.6638 17.5 28.8638 17.4 28.8638 17.2C28.8638 17 29.3638 16.6 29.9638 16.3C36.2638 13.1 37.2638 12.8 38.8638 13.5C40.3638 14.2 42.1638 13.5 43.0638 11.6C44.0638 9.8 48.3638 7.3 50.6638 7.3C52.9638 7.3 55.4638 6 55.4638 5.7C55.4638 5.4 58.4638 4.6 60.2638 4.3C61.7638 4 65.4638 4.5 67.0638 5.1M23.7638 43.6C23.7638 43.9 23.8638 43.8 24.0638 43.6C24.2638 43.3 24.3638 44.2 24.3638 46.4C24.3638 49.1 24.3638 49.6 23.8638 49.5C23.1638 49.2 22.8638 47.2 23.0638 43.9C23.0638 43.3 23.7638 43.1 23.7638 43.7M37.1638 43.6C37.1638 43.4 37.2638 43.2 37.3638 43.4C37.7638 43.8 37.8638 48.4 37.3638 48.9C36.5638 49.8 36.3638 49.3 36.4638 46.2C36.4638 44.1 36.5638 43.2 36.7638 43.6C37.0638 44 37.0638 44 37.0638 43.6M21.3638 44.6C21.6638 45 21.7638 51 21.5638 51.4C21.5638 51.6 21.3638 51.8 21.3638 51.9C21.3638 52.2 20.8638 54.3 20.6638 55.1C20.3638 56.4 18.5638 66.4 17.9638 70.3C17.7638 71.5 17.4638 74.5 17.2638 76.8C16.8638 81.7 16.7638 82 16.4638 79.5C16.1638 77 15.7638 76.2 15.0638 76.2C14.3638 76.2 14.4638 76 14.4638 75.7C14.4638 75.4 14.2638 75.2 14.0638 75.1C13.5638 74.9 13.5638 62.5 14.0638 57.2C14.8638 48.7 15.7638 45.8 17.8638 44.9C19.8638 44.1 20.9638 43.9 21.2638 44.4M86.6638 48C86.4638 52 86.2638 53.3 85.7638 53C85.5638 53 85.5638 53 85.7638 53.3C85.9638 53.7 84.4638 62.2 84.0638 63.4C84.0638 63.7 83.8638 64.2 83.7638 64.5C83.7638 64.9 83.5638 65.4 83.5638 65.8C83.3638 66.7 82.9638 69.1 82.8638 70.2C82.8638 70.7 82.6638 71.6 82.5638 72.2C82.1638 74.6 81.8638 77.5 81.9638 79.4C81.9638 81.7 81.6638 81.4 81.2638 78.9C80.9638 76.6 80.8638 76.3 79.7638 76.1C78.4638 75.8 78.4638 75.6 78.4638 68.6C78.4638 59.4 79.5638 49.3 80.6638 47.1C81.5638 45.4 83.4638 44.4 85.8638 44.3H86.7638L86.5638 48M107.564 45C109.864 46.2 110.364 47.6 111.064 55.4C111.664 61 111.664 62.5 111.664 68.4C111.664 76.2 111.664 75.9 110.664 76.1C109.464 76.3 109.064 77.3 108.864 80.4C108.864 81.5 108.264 80.2 108.264 78.8C108.064 74.6 106.764 65 105.464 58.2C105.064 56 104.664 53.9 104.564 53.6C104.564 53.2 104.264 52.4 104.164 51.7C103.764 50.3 103.664 46 104.064 44.9C104.264 44.1 105.964 44.1 107.664 45M38.6638 54.7C41.6638 70.3 42.8638 80.7 41.7638 81.2C40.9638 81.5 19.1638 81.4 18.6638 81.2C18.0638 80.8 18.9638 71.3 20.1638 64.8C20.3638 63.8 20.8638 61 21.2638 58.6C21.6638 56.1 22.2638 53.4 22.5638 52.5L23.0638 50.9H30.4638L37.8638 51L38.5638 54.8M14.6638 77.6C14.8638 77.8 15.0638 78.7 15.1638 79.6L15.3638 81.2H14.3638C13.7638 81.3 13.1638 81.5 12.9638 81.7C12.6638 81.9 12.6638 81.6 12.7638 80.2C12.7638 79 13.0638 78.2 13.4638 78C13.7638 77.8 13.8638 77.6 13.5638 77.6C13.2638 77.6 13.1638 77.5 13.1638 77.3C13.1638 76.9 14.3638 77.3 14.6638 77.7M51.4638 78C51.5638 78.3 51.6638 78.6 51.6638 78.7C51.6638 78.7 51.5638 80.3 51.4638 82.1C51.3638 83.9 51.1638 85.6 51.1638 86.1C51.1638 86.5 50.9638 87.8 50.9638 88.9C50.9638 90 50.7638 91 50.6638 91.1C50.5638 91.1 50.4638 91.6 50.5638 92.1C50.5638 92.7 50.5638 93 49.8638 93.1C48.7638 93.4 48.1638 92.6 48.3638 91.2C48.3638 90.6 48.6638 88.5 48.8638 86.3C49.5638 77.7 49.6638 77.5 50.7638 77.5C51.8638 77.5 51.4638 77.8 51.5638 78.1M79.4638 78.8C79.5638 81.1 79.5638 81.1 78.6638 81.4C77.6638 81.7 77.7638 81.7 77.2638 79.1C77.1305 78.3 77.4305 77.9 78.1638 77.9C79.1638 77.9 79.2638 77.9 79.3638 78.9M47.1638 82.7C47.2638 82.8 46.8638 90 46.6638 90.2C46.3638 90.6 14.3638 90.3 14.1638 89.9C13.9638 89.5 13.7638 87.5 13.8638 86.7C13.8638 86.6 13.7638 85.7 13.5638 84.8C13.3638 83.9 13.3638 83 13.4638 82.9C13.6638 82.6 46.9638 82.5 47.2638 82.8M111.764 82.9C111.364 83.1 111.364 83.2 111.764 83.2C112.064 83.2 112.164 83.6 111.964 85.2C111.864 86.3 111.664 87.7 111.664 88.3C111.664 88.9 111.564 89.5 111.564 89.6C111.564 89.6 111.564 89.9 111.564 90C111.564 90.1 105.564 90.3 98.0638 90.3C90.6638 90.3 83.3638 90.3 81.9638 90.3C80.5638 90.3 79.4638 90.2 79.5638 90C79.5638 89.8 79.5638 89.6 79.2638 89.5C78.9638 89.3 78.7638 88.5 78.7638 87.4C78.7638 86.4 78.5638 85.1 78.4638 84.5C78.0638 82.4 76.9638 82.5 95.5638 82.5C106.564 82.5 112.264 82.6 111.964 82.8M12.6638 91.6C12.6638 92 12.6638 94.1 12.9638 96.2C13.3638 100.1 13.7638 113.3 13.4638 113.3C13.1638 113.3 11.6638 109.6 11.4638 108.2C11.3638 107.4 11.1638 106.3 10.9638 105.8C10.7638 105.3 10.5638 104.2 10.4638 103.4C10.3638 102.6 10.2638 101.6 10.1638 101.2C9.06384 95.1 8.56384 89.2 8.96384 88C9.16384 87.5 9.76383 86.9 10.3638 86.7C10.9638 86.5 11.5638 86 11.6638 85.7C11.9638 85 12.8638 90.5 12.6638 91.7M114.064 85.9C114.264 86.1 114.964 86.5 115.464 86.8C116.064 87.1 116.364 87.5 116.364 88C116.364 88.4 116.364 88.6 116.564 88.5C117.164 88.1 116.764 93.6 115.664 99.7C115.164 102.4 114.964 103.3 114.364 104.8C114.264 105.2 114.064 105.5 114.064 105.6C114.064 105.6 113.664 106.8 113.264 108C112.864 109.2 112.464 110.4 112.464 110.7C112.164 112.3 112.064 110.7 111.964 106.2C111.964 99.9 111.864 100.7 112.364 96.8C112.564 95 112.764 93.2 112.764 92.6C112.764 90.2 112.764 89.7 112.764 88.9C112.764 88.5 112.864 87.5 112.864 86.7C112.864 85.3 113.164 85 113.864 85.8M46.4638 94C46.4638 95.1 46.2638 96.7 46.1638 97.7L45.9638 99.5H14.5638L14.3638 97.9C13.9638 95.1 13.8638 92.3 14.1638 92.5C14.2638 92.5 14.4638 92.5 14.4638 92.3C14.4638 92.1 19.2638 92 30.5638 92H46.6638V94M49.8638 96.3C49.8638 98.3 49.3638 99.4 48.4638 99.1C47.3638 98.7 47.8638 94.4 49.0638 94.4C50.2638 94.4 49.7638 94.5 49.7638 96.3M45.4638 101.5C45.8638 102.3 45.8638 111.8 45.4638 111.8C45.0638 111.8 45.1638 112.1 45.2638 112.4C45.2638 112.9 44.9638 113 43.4638 113.1C42.2638 113.1 41.6638 113.1 41.7638 112.9C41.8638 112.7 41.7638 112.6 41.6638 112.6C41.5638 112.6 41.3638 111.3 41.3638 108.9C41.3638 103.8 42.3638 104.2 30.3638 104.2C18.3638 104.2 19.2638 103.7 19.2638 109.2V113.2H17.3638C16.1638 113.2 15.4638 113.1 15.6638 112.9C15.7638 112.7 15.6638 112.6 15.3638 112.6C14.7638 112.6 14.5638 102.1 15.2638 101.5C15.9638 100.9 45.1638 101 45.5638 101.7M110.464 101.5C110.964 102.4 110.864 112.2 110.464 112.7C110.264 112.9 109.264 113.1 108.264 113.1H106.364V109.2C106.364 103.7 107.364 104.1 95.7638 104.1C84.1638 104.1 86.2638 104 86.2638 103.8C86.2638 103.6 85.8638 103.8 85.4638 104.2C84.6638 104.9 84.6638 105.1 84.6638 109V113H82.6638C79.8638 113 79.8638 113 79.8638 106.9C79.8638 100.8 79.9638 101.5 80.2638 101.2C81.0638 100.4 110.164 100.7 110.564 101.4M39.3638 105.7C39.3638 106 39.3638 106 39.6638 105.7C39.8638 105.4 39.9638 106.5 39.9638 109.2C39.9638 111.9 39.8638 113 39.6638 112.7C39.4638 112.4 39.3638 112.4 39.3638 112.7C39.3638 113 37.3638 113.1 30.2638 113.1C23.1638 113.1 21.1638 113.1 21.1638 112.7C21.1638 112.4 21.0638 112.5 20.8638 112.7C20.6638 113 20.5638 111.9 20.5638 109.3V105.4H29.9638C37.4638 105.4 39.3638 105.4 39.3638 105.8M104.664 105.8C104.864 106.1 105.064 107.4 104.964 109.6V113H95.4638C89.0638 113 86.0638 112.9 86.0638 112.7C86.0638 112.5 85.9638 112.5 85.7638 112.6C85.2638 112.9 85.3638 106.3 85.7638 105.8C86.3638 105.2 104.064 105.3 104.564 105.8M2.96384 145.1H123.164M137.464 2.3L137.364 134.3M34.8638 43.6C35.2638 44 35.3638 48.2 35.0638 49.1C34.7638 49.9 26.1638 49.9 25.8638 49.1C25.4638 48.2 25.6638 44 26.0638 43.6C26.4638 43.2 27.7638 43.2 30.4638 43.2C33.1638 43.2 34.6638 43.3 34.8638 43.6ZM88.9638 46.5C88.9638 48.9 88.9638 49.7 88.5638 49.6C88.1638 49.5 87.7638 44.6 88.1638 43.7C88.6638 42.4 88.9638 43.5 88.9638 46.5ZM100.164 49.7H90.2638V43.3H100.164V49.7ZM101.764 43.6C101.764 43.3 101.864 43.2 102.264 43.6C102.764 44.1 102.564 49 101.964 49.4C101.264 49.8 101.164 49.2 101.164 46.2C101.164 44.1 101.264 43.3 101.464 43.6C101.664 44 101.764 44 101.764 43.6ZM42.8638 45.1C45.5638 46.3 46.9638 54.3 46.9638 69C46.9638 83.7 46.8638 75.7 45.1638 76.3C44.8638 76.4 44.5638 76.7 44.5638 77C44.5638 77.3 44.4638 77.4 44.2638 77.3C44.0638 77.2 43.9638 77.3 43.9638 77.7C43.9638 78.8 43.5638 77.9 43.4638 76.6C43.4638 75.9 43.4638 75.2 43.6638 75.1C43.8638 75 43.7638 74.7 43.6638 74.4C43.4638 74.1 42.9638 71.9 42.6638 69.4C42.3638 66.9 41.9638 64.4 41.8638 63.9C41.8638 63.4 41.6638 62.6 41.5638 62.1C41.5638 61.7 41.3638 61.1 41.2638 60.8C41.2638 60.5 40.6638 58.3 40.2638 55.8C39.3638 51 39.2638 50.4 39.1638 50.4C38.9638 50.4 38.9638 46 39.1638 45.2C39.5638 44 40.5638 44 42.8638 45.1ZM103.564 55.3C104.964 62.2 105.564 65.6 106.064 69.6C106.964 77.8 107.164 79.6 107.064 80.4V81.3H83.3638V78.9C83.3638 75.8 83.9638 70 84.3638 69.5C84.5638 69.3 84.5638 69 84.3638 68.8C84.2638 68.6 84.3638 68.3 84.5638 68C84.7638 67.8 84.8638 67.4 84.8638 67.1C84.8638 66.7 84.8638 65.9 85.3638 63.3C85.3638 63 85.5638 62.3 85.6638 61.7C85.6638 61.1 85.9638 60.3 86.0638 59.8C86.1638 59.4 86.4638 57.8 86.6638 56.4C87.1638 53.6 87.6638 51.8 88.1638 51.3C88.3638 51.1 88.3638 50.9 88.2638 50.8C88.2638 50.8 91.3638 50.8 95.3638 50.8H102.664L103.564 55.3ZM112.264 78.4C112.264 79.1 112.364 80 112.464 80.5C112.664 81.4 111.464 81.7 110.464 81C109.964 80.7 110.264 77.7 110.864 77.4C111.764 76.8 112.264 77.2 112.264 78.4ZM75.8638 77.9C76.0638 78.1 76.2638 78.9 76.2638 79.6C76.2638 80.3 76.3638 82.1 76.5638 83.7C76.7638 85.3 76.9638 88 77.0638 89.7L77.2638 92.8L76.3638 93C75.1638 93.3 74.9638 93 74.7638 90.2C74.7638 88.9 74.5638 87.4 74.4638 86.9C73.3638 79.8 73.9638 75.6 75.8638 77.9ZM48.0638 78.1C48.0638 78.3 47.8638 78.4 47.6638 78.4C47.3638 78.4 47.3638 78.4 47.6638 78.6C47.8638 78.6 48.0638 79.2 48.0638 79.7C48.0638 81.2 47.7638 81.5 46.7638 81.4C45.8638 81.3 45.2638 78.8 46.0638 78C46.3638 77.7 48.0638 77.8 48.0638 78.1ZM44.1638 80.1C44.1638 81 43.5638 81.5 43.5638 80.6C43.5638 80.1 43.6638 79.7 43.8638 79.7C44.0638 79.7 44.1638 79.9 44.1638 80.1ZM111.564 93.1C111.564 93.8 111.364 94.5 111.264 94.8C111.264 95.1 111.064 96.1 111.064 97C111.064 98 110.864 98.9 110.664 99.2C110.364 99.6 79.3638 99.8 79.4638 99.3C79.4638 99.2 79.4638 98.3 79.2638 97.3C79.1638 96.3 78.9638 94.7 78.9638 93.7V91.9C78.8638 91.9 95.2638 91.9 95.2638 91.9H111.764L111.564 93.1ZM77.2638 96.5C77.4638 98.8 77.3638 99.2 76.4638 99.2C75.5638 99.2 75.5638 99 75.4638 96.4C75.3972 95.0667 75.6305 94.4 76.1638 94.4C76.9638 94.4 77.0638 94.4 77.2638 96.5ZM70.9638 113.2C66.5638 113.2 59.4638 113.2 55.1638 113.2C50.7638 113.2 54.3638 113.2 63.0638 113.2C71.7638 113.2 75.3638 113.2 70.9638 113.2ZM55.7354 147.273V156H54.6786V148.381H54.6275L52.4968 149.795V148.722L54.6786 147.273H55.7354ZM58.4797 156.068C58.2695 156.068 58.0891 155.993 57.9385 155.842C57.788 155.692 57.7127 155.511 57.7127 155.301C57.7127 155.091 57.788 154.911 57.9385 154.76C58.0891 154.609 58.2695 154.534 58.4797 154.534C58.6899 154.534 58.8704 154.609 59.0209 154.76C59.1715 154.911 59.2468 155.091 59.2468 155.301C59.2468 155.44 59.2113 155.568 59.1402 155.685C59.0721 155.801 58.9797 155.895 58.8633 155.966C58.7496 156.034 58.6218 156.068 58.4797 156.068ZM63.5859 156.119C63.0859 156.119 62.6356 156.02 62.235 155.821C61.8345 155.622 61.5134 155.349 61.272 155.003C61.0305 154.656 60.8984 154.261 60.8757 153.818H61.8984C61.9382 154.213 62.1172 154.54 62.4353 154.798C62.7564 155.054 63.1399 155.182 63.5859 155.182C63.9439 155.182 64.2621 155.098 64.5405 154.93C64.8217 154.763 65.0419 154.533 65.201 154.24C65.3629 153.945 65.4438 153.611 65.4438 153.239C65.4438 152.858 65.3601 152.518 65.1924 152.22C65.0277 151.919 64.8004 151.682 64.5106 151.509C64.2208 151.335 63.8899 151.247 63.5177 151.244C63.2507 151.241 62.9765 151.283 62.6953 151.368C62.414 151.45 62.1825 151.557 62.0007 151.688L61.0121 151.568L61.5405 147.273H66.0746V148.21H62.4268L62.12 150.784H62.1711C62.3501 150.642 62.5745 150.524 62.8444 150.43C63.1143 150.337 63.3956 150.29 63.6882 150.29C64.2223 150.29 64.6981 150.418 65.1157 150.673C65.5362 150.926 65.8657 151.273 66.1044 151.713C66.3458 152.153 66.4666 152.656 66.4666 153.222C66.4666 153.778 66.3416 154.276 66.0916 154.713C65.8444 155.148 65.5035 155.491 65.0688 155.744C64.6342 155.994 64.1399 156.119 63.5859 156.119ZM68.1594 156V155.233L71.0401 152.08C71.3782 151.71 71.6566 151.389 71.8753 151.116C72.0941 150.841 72.256 150.582 72.3611 150.341C72.4691 150.097 72.523 149.841 72.523 149.574C72.523 149.267 72.4492 149.001 72.3015 148.777C72.1566 148.553 71.9577 148.379 71.7049 148.257C71.452 148.135 71.1679 148.074 70.8526 148.074C70.5174 148.074 70.2248 148.143 69.9748 148.283C69.7276 148.419 69.5358 148.611 69.3995 148.858C69.266 149.105 69.1992 149.395 69.1992 149.727H68.1935C68.1935 149.216 68.3114 148.767 68.5472 148.381C68.783 147.994 69.104 147.693 69.5103 147.477C69.9193 147.261 70.3782 147.153 70.8867 147.153C71.3981 147.153 71.8512 147.261 72.2461 147.477C72.6409 147.693 72.9506 147.984 73.175 148.351C73.3995 148.717 73.5117 149.125 73.5117 149.574C73.5117 149.895 73.4535 150.209 73.337 150.516C73.2233 150.82 73.0245 151.159 72.7404 151.534C72.4591 151.906 72.0685 152.361 71.5685 152.898L69.6083 154.994V155.062H73.6651V156H68.1594ZM78.8171 156V149.455H79.7887V150.477H79.8739C80.0103 150.128 80.2304 149.857 80.5344 149.663C80.8384 149.467 81.2034 149.369 81.6296 149.369C82.0614 149.369 82.4208 149.467 82.7077 149.663C82.9975 149.857 83.2233 150.128 83.3853 150.477H83.4535C83.6211 150.139 83.8725 149.871 84.2077 149.672C84.5429 149.47 84.9449 149.369 85.4137 149.369C85.9989 149.369 86.4776 149.553 86.8498 149.919C87.2219 150.283 87.408 150.849 87.408 151.619V156H86.4023V151.619C86.4023 151.136 86.2702 150.791 86.006 150.584C85.7418 150.376 85.4307 150.273 85.0728 150.273C84.6125 150.273 84.256 150.412 84.0032 150.69C83.7503 150.966 83.6239 151.315 83.6239 151.739V156H82.6012V151.517C82.6012 151.145 82.4804 150.845 82.239 150.618C81.9975 150.388 81.6864 150.273 81.3057 150.273C81.0444 150.273 80.8 150.342 80.5728 150.482C80.3483 150.621 80.1665 150.814 80.0273 151.061C79.8909 151.305 79.8228 151.588 79.8228 151.909V156H78.8171ZM146.135 68.6727V77.4H145.079V69.7807H145.027L142.897 71.1955V70.1216L145.079 68.6727H146.135ZM148.88 77.4682C148.67 77.4682 148.489 77.3929 148.339 77.2423C148.188 77.0918 148.113 76.9114 148.113 76.7011C148.113 76.4909 148.188 76.3105 148.339 76.1599C148.489 76.0094 148.67 75.9341 148.88 75.9341C149.09 75.9341 149.27 76.0094 149.421 76.1599C149.571 76.3105 149.647 76.4909 149.647 76.7011C149.647 76.8403 149.611 76.9682 149.54 77.0847C149.472 77.2011 149.38 77.2949 149.263 77.3659C149.15 77.4341 149.022 77.4682 148.88 77.4682ZM151.23 75.6102V74.7409L155.065 68.6727H155.696V70.0193H155.27L152.372 74.6045V74.6727H157.537V75.6102H151.23ZM155.338 77.4H156.344V68.6727H155.338V77.4ZM159.406 77.4L163.31 69.6784V69.6102H158.81V68.6727H164.401V69.6614L160.514 77.4H159.406ZM169.381 77.4V70.8545H170.353V71.8773H170.438C170.574 71.5278 170.795 71.2565 171.098 71.0634C171.402 70.8673 171.767 70.7693 172.194 70.7693C172.625 70.7693 172.985 70.8673 173.272 71.0634C173.562 71.2565 173.787 71.5278 173.949 71.8773H174.018C174.185 71.5392 174.437 71.2707 174.772 71.0719C175.107 70.8702 175.509 70.7693 175.978 70.7693C176.563 70.7693 177.042 70.9526 177.414 71.319C177.786 71.6827 177.972 72.2494 177.972 73.0193V77.4H176.966V73.0193C176.966 72.5364 176.834 72.1912 176.57 71.9838C176.306 71.7764 175.995 71.6727 175.637 71.6727C175.177 71.6727 174.82 71.8119 174.567 72.0903C174.314 72.3659 174.188 72.7153 174.188 73.1386V77.4H173.165V72.917C173.165 72.5449 173.044 72.2452 172.803 72.0179C172.562 71.7878 172.25 71.6727 171.87 71.6727C171.608 71.6727 171.364 71.7423 171.137 71.8815C170.912 72.0207 170.731 72.2139 170.591 72.4611C170.455 72.7054 170.387 72.9881 170.387 73.3091V77.4H169.381Z" stroke="white" stroke-width="0.5" stroke-miterlimit="10"/>
</svg>
