<svg width="347" height="135" viewBox="0 0 347 135" fill="none" xmlns="http://www.w3.org/2000/svg">
<path fill-rule="evenodd" clip-rule="evenodd" d="M167.4 0.400391L115.7 0.600403L115.5 2.20039C115.4 3.10039 115.1 5.2004 114.9 6.8004C114.7 8.4004 114.4 10.8004 114.2 12.1004C114 13.3004 113.8 15.3004 113.7 16.4004C113.6 17.6004 113.3 18.8004 112.9 19.3004L112.3 20.1004L83.1 20.3004C52.2 20.5004 49.6 20.6004 30.1 22.4004C22.6 23.1004 12.3 24.2004 9.6 24.6004C9.2 24.6004 7.9 24.8004 6.9 24.9004C5.8 25.0004 3.9 25.3004 2.6 25.5004L0.200001 25.9004V67.1004L0 108.3L0.700001 108.5C3 109 21.7 111.2 23.5 111.2C25.3 111.2 24.6 111.3 24.6 111.5C24.6 111.7 25.3 111.7 26.2 111.7C27.1 111.7 27.8 111.7 27.8 111.8C27.8 111.9 28.4 112 29 112C29.7 112 31.1 112 32.3 112.2C33.4 112.4 35 112.5 35.8 112.6C40.9 113 43.5 113.2 44.4 113.3C45 113.3 47.4 113.5 49.6 113.6C51.9 113.7 54.3 113.9 55 113.9C61.9 114.3 78.9 114.4 79.4 114.1C80 113.6 80 114.1 79.4 114.9C79 115.4 78.9 117 78.9 123.9V132.3L79.8 133.3C81.1 134.7 81.6 134.7 97.4 134.6H111.3L112.2 133.5L113.1 132.5V124.1C113.1 119.5 113.2 115.9 113.3 116.2C113.3 116.5 113.7 119.1 114.1 122C114.5 124.9 114.8 127.8 114.9 128.4C114.9 129 115.1 130.5 115.2 131.6C115.3 132.7 115.5 133.8 115.6 133.9C116.3 134.5 224 134.3 224.1 133.7C224.1 133.3 224.4 132.1 224.6 131C224.9 129.9 225.5 126.8 226.1 124.3C227.6 117.1 228 115.9 228.5 115.3C229 114.7 230.5 114.7 271.2 114.7C296.2 114.7 313.8 114.6 314.4 114.4C315.5 114.1 316.8 113.9 319.2 113.6C319.8 113.6 320.7 113.4 321.1 113.3C321.5 113.3 322.4 113.1 323.1 113C323.8 113 324.7 112.7 325.1 112.6C325.5 112.4 326.2 112.4 326.5 112.5C326.9 112.6 327.2 112.5 327.2 112.3C327.2 112.1 327.5 112 328 112.1C328.4 112.2 329 112.1 329.2 112C329.4 111.8 331.7 111.4 334.2 111C339.6 110.2 339.3 110.4 339.3 106.5C339.3 104.1 339.4 103.1 340 101.9C340.9 99.7004 341.8 97.3004 342.7 94.1004C343.1 92.6004 343.5 91.2004 343.6 91.1004C343.6 90.9004 343.7 90.6004 343.8 90.5004C343.8 90.3004 344 90.0004 344.2 89.8004C344.4 89.6004 344.5 88.9004 344.6 88.3004C344.6 87.6004 344.9 86.7004 345.1 86.1004C345.3 85.5004 345.4 84.8004 345.4 84.6004C345.4 84.3004 345.4 83.8004 345.6 83.3004C346.7 77.7004 347.1 61.8004 346.4 57.7004C346.4 57.3004 346.1 56.2004 346 55.3004C345.7 53.4004 345.7 53.3004 345.2 50.4004C345 49.1004 344.7 48.1004 344.5 48.1004C344.3 48.1004 344.3 47.7004 344.5 47.3004C344.6 46.8004 344.5 46.5004 344.3 46.5004C344.1 46.5004 344 46.3004 344 46.1004C344.1 45.5004 342.3 39.9004 339.8 32.9004C339.2 31.3004 339.1 30.6004 339.3 28.4004C339.6 25.1004 340.4 25.5004 329.4 23.7004C324.5 22.9004 319 21.9004 317.3 21.6004C314.2 21.0004 312.3 21.0004 272 21.0004H229.9L229.1 20.3004C228.2 19.6004 228 18.7004 225.4 6.3004C225 4.6004 224.6 2.7004 224.4 2.1004L224.1 0.900391H221.6C220.2 1.00039 195.9 1.10039 167.5 1.20039M170.2 1.1004H223.2L225.1 9.6004C227.1 18.7004 227.3 19.6004 227.9 20.0004C228.1 20.1004 202.5 20.2004 171 20.2004C116.6 20.2004 113.8 20.2004 114 19.6004C114.2 19.1004 116.3 2.8004 116.4 1.3004C116.4 0.8004 116.6 0.6004 116.8 0.8004C117 0.9004 141 1.0004 170.2 1.0004M78.1 30.8004C78.1 38.8004 78.1 39.7004 77.6 39.3004C77.3 39.0004 77.1 38.7004 77.1 38.6004C77.1 37.5004 75.6 36.9004 73.3 36.9004C70.9 36.9004 70.9 36.9004 71.9 36.4004C72.8 36.0004 72.9 35.7004 72.9 34.6004C72.9 32.9004 72.9 32.9004 67.9 32.7004C65.2 32.6004 63.8 32.4004 64.3 32.3004C65.6 31.8004 66.7 29.2004 66.7 26.5004C66.7 23.8004 65.7 22.8004 58.1 22.8004C50.5 22.8004 52.4 22.4004 65.4 22.2004C72.3 22.1004 78 21.9004 78.1 21.9004C78.1 21.9004 78.1 25.9004 78.1 30.8004ZM112.6 23.5004C112.6 26.4004 113 26.3004 95 26.3004H79.5V21.9004H112.7V23.4004M127.7 25.7004L128.6 26.5004H120.5C113.7 26.5004 112.5 26.5004 113.2 26.1004C113.9 25.7004 114 25.5004 114 23.9004V22.2004H120.3L126.6 22.0004V23.4004C126.8 24.5004 127 25.0004 127.7 25.6004M146.6 24.1004V26.3004H130.2L129.1 25.3004C128.3 24.6004 128 24.0004 128 23.2004V22.1004H137.2C142.3 22.0004 146.4 21.9004 146.5 21.8004C146.5 21.8004 146.5 22.7004 146.5 24.0004M147.8 25.4004C147.8 26.2004 147.7 25.6004 147.7 24.2004C147.7 22.8004 147.7 22.2004 147.8 22.8004C147.8 23.5004 147.8 24.6004 147.8 25.4004ZM153.9 23.2004C153.9 24.7004 151.9 26.4004 150.2 26.4004H149.1V22.0004H153.9V23.2004ZM167.7 23.1004C167.5 24.1004 167.7 24.3004 168.7 25.3004L169.9 26.4004H161.4C155.6 26.4004 153.1 26.3004 153.4 26.1004C154.7 25.4004 155.1 24.6004 155.1 23.3004V21.9004H167.8L167.6 23.0004M173.7 24.2004V26.4004L172.6 26.3004C171.2 26.1004 169 24.0004 169 22.8004C169 22.2004 169.8 21.9004 171.4 21.9004H173.8V24.1004M175 25.4004C175 26.2004 174.9 25.6004 174.9 24.2004C174.9 22.8004 174.9 22.2004 175 22.8004C175 23.5004 175 24.6004 175 25.4004ZM194.6 23.0004C194.6 23.7004 194.1 24.4004 193.2 25.2004L191.9 26.4004L188.7 26.2004C186.9 26.1004 183.3 26.0004 180.7 26.0004H176V22.0004H194.8V23.0004M209 23.6004C209 25.2004 209.3 25.7004 210.8 26.3004C211 26.3004 207.2 26.5004 202.4 26.5004H193.6L194.7 25.4004C195.5 24.5004 195.8 24.0004 195.8 23.2004V22.1004H208.9V23.7004M249.9 23.5004C249.9 24.7004 250.1 25.1004 250.8 25.7004L251.7 26.4004H249.3C248 26.4004 244.5 26.3004 241.5 26.3004H236.1L236.8 25.6004C237.4 25.0004 237.5 24.7004 237.4 23.4004V21.9004C237.3 21.9004 243.6 21.9004 243.6 21.9004H249.9V23.4004M267.5 23.1004C267.5 23.9004 267.2 24.5004 266.5 25.3004L265.5 26.4004H253.5L252.4 25.4004C251.6 24.7004 251.3 24.1004 251.2 23.2004V22.0004C251.1 22.0004 259.3 22.0004 259.3 22.0004H267.5V23.1004ZM281.4 23.7004C281.3 24.8004 281.4 25.5004 281.6 25.8004C281.9 26.2004 281 26.3004 274.4 26.4004C266.5 26.5004 266.1 26.4004 267.1 26.1004C268.4 25.6004 268.8 25.0004 268.8 23.5004V22.0004H281.6L281.4 23.7004ZM318.4 23.1004C327.7 24.8004 337.4 26.6004 337.4 26.7004C337.4 26.7004 337.4 27.5004 337.4 28.5004C337.3 30.3004 337 30.5004 334.9 29.8004C334.4 29.6004 333.4 29.5004 332.8 29.4004C332.2 29.4004 331.3 29.2004 330.8 29.1004C330.3 29.0004 329.5 28.8004 329 28.8004C325.3 28.1004 324.5 28.0004 323.6 27.9004C323.1 27.9004 320.7 27.4004 318.3 26.9004C314.1 26.1004 313.6 26.1004 299.8 26.1004H285.6L284.4 25.3004C283.3 24.6004 283.2 24.4004 283.2 23.3004V22.1004H313L318.3 23.1004M236.2 23.2004C236.2 23.9004 235.9 24.5004 235.2 25.3004L234.2 26.4004H212.5L211.4 25.4004C210.7 24.7004 210.3 24.1004 210.2 23.3004V22.2004C210.1 22.2004 223.1 22.2004 223.1 22.2004H236.2V23.2004ZM48.9 22.9004C48.9 22.9004 47.3 23.1004 45.4 23.2004C43.5 23.2004 42.6 23.2004 43.5 23.2004C45 22.9004 49.1 22.8004 48.9 23.0004M50.8 23.0004C50.5 23.0004 50 23.0004 49.7 23.0004C49.4 23.0004 49.7 22.9004 50.3 22.9004C50.9 22.9004 51.2 22.9004 50.9 23.0004M39.3 23.7004C39 23.7004 38.5 23.7004 38.2 23.7004C37.9 23.7004 38.2 23.6004 38.8 23.6004C39.4 23.6004 39.7 23.6004 39.4 23.7004M32.8 24.6004C27.8 25.6004 22.7 27.8004 23.6 28.7004C23.7 28.8004 23.6 28.9004 23.5 28.9004C23 28.9004 23.2 30.9004 23.7 31.4004C24.1 31.8004 24.1 31.8004 23.7 31.6004C23.4 31.5004 23.7 31.7004 24.2 32.2004C24.7 32.6004 25.7 33.2004 26.3 33.3004C27.9 33.8004 31.8 34.8004 32.4 34.9004C32.7 34.9004 34 35.3004 35.4 35.6004C36.8 36.0004 38.2 36.3004 38.5 36.4004C40.1 36.8004 40.3 36.9004 40.3 37.9004C40.3 38.9004 40.3 38.8004 40.2 38.8004C40.1 38.8004 35.7 37.7004 30.3 36.4004C19 33.6004 18.9 33.6004 17.5 35.1004C16.4 36.3004 15.4 37.5004 15.4 37.7004C15.4 37.9004 14.9 38.7004 14.2 39.9004C13.1 41.8004 12.1 43.7004 11.1 46.1004C10.4 47.7004 8.4 53.9004 8.4 54.5004C8.4 55.1004 8.3 55.2004 8.1 55.4004C7.9 55.6004 7.7 56.2004 7.6 56.8004C7.6 57.4004 7.4 58.2004 7.3 58.6004C6.5 62.0004 6.9 64.2004 8.3 65.5004C9 66.2004 10.5 66.2004 29.9 65.9004C38.8 65.8004 39.5 65.7004 40.3 65.1004C40.7 64.8004 41 64.5004 40.9 64.5004C40.8 64.5004 40.9 64.3004 41 64.1004C41.2 63.9004 41.4 63.0004 41.3 62.3004C41.3 60.0004 41.3 59.8004 42.2 60.1004C42.6 60.3004 45.3 60.4004 48.2 60.4004H53.5V61.2004C53.5 63.0004 53.7 63.0004 63.5 62.9004C73.2 62.8004 73 62.9004 73 60.9004C73 60.0004 72.6 59.3004 71.7 59.0004C71.4 58.9004 72.2 58.8004 73.3 58.8004C75.7 58.8004 76.7 58.3004 77.1 56.8004C77.9 53.6004 78.1 55.6004 78.1 67.2004C78.1 78.8004 78 80.1004 77 77.5004C76.3 75.7004 75.8 75.4004 73.1 75.4004C71.9 75.4004 71.2 75.3004 71.6 75.2004C73.1 74.9004 73.5 73.0004 72.4 71.9004C71.8 71.3004 71.3 71.3004 63 71.3004C54.7 71.3004 53.5 71.3004 53.5 73.2004C53.5 75.1004 53.3 73.9004 48.2 73.9004C43.1 73.9004 42.6 74.0004 42.1 74.2004C41.5 74.4004 41.3 74.4004 41.3 74.2004C41.2 70.5004 41.2 70.5004 40.2 69.6004L39.2 68.7004L30 68.5004C6.8 68.0004 6.6 68.0004 7 73.0004C7.2 76.4004 7.3 77.1004 7.6 77.6004C7.7 77.8004 7.8 78.1004 7.6 78.2004C7.6 78.2004 7.7 78.9004 8 79.5004C8.3 80.1004 8.6 80.9004 8.6 81.1004C8.6 82.9004 16.5 99.4004 17.7 100.2C19.1 101.1 19.3 101.1 31.4 98.1004C33.7 97.5004 36.1 96.9004 36.7 96.6004C39 95.7004 39.8 95.7004 40.1 96.8004C40.4 98.0004 40.7 97.8004 36.9 98.7004C32.2 99.8004 31.6 100.9 33.8 104.2C36.5 108.3 42 110.6 50.6 111.3C55.1 111.7 54 112.1 49 111.9C46.4 111.8 44.1 111.6 43.9 111.5C43.7 111.4 42.6 111.3 41.3 111.2C38.7 111.2 36.7 111 33.9 110.6C32.8 110.5 31.4 110.3 30.7 110.3C27.2 110 19.2 109.2 17.1 108.9C15.8 108.7 14.1 108.5 13.3 108.4C10.9 108.1 6.1 107.5 5.3 107.4C4.9 107.4 3.9 107.2 3.1 107.1L1.7 106.9V67.3004L1.9 27.7004L3.7 27.5004C4.7 27.4004 9.9 26.8004 15.2 26.1004C34.1 23.9004 39.7 23.5004 32.6 24.8004M65 24.6004C65.8 25.4004 65.9 26.5004 65.3 28.6004C64.5 31.6004 62.3 32.8004 57.6 32.8004C52.9 32.8004 53.5 33.1004 53.5 34.6004V35.4004L47.7 35.6004C44.5 35.7004 41.4 35.8004 40.9 35.8004C38.4 36.0004 24.5 32.1004 24.7 31.3004C24.7 31.1004 24.7 31.0004 24.5 31.0004C24 31.0004 24.7 29.1004 25.3 28.6004C27.9 26.5004 35.4 25.0004 46.4 24.2004C52.6 23.8004 64.5 24.2004 65.1 24.8004M79.6 46.1004C79.6 49.4004 79.6 46.6004 79.6 39.9004C79.6 33.2004 79.6 30.5004 79.6 33.9004C79.6 37.3004 79.6 42.8004 79.6 46.1004ZM216.6 28.2004C235.6 28.2004 236.2 28.2004 235.7 28.8004C234.7 29.9004 235.3 31.6004 236.8 31.8004C237.2 31.8004 217.9 32.0004 193.8 32.0004C163.2 32.0004 150 32.0004 150 31.7004C150 31.4004 150.1 31.4004 150.3 31.5004C150.7 31.8004 151.3 30.1004 151.1 29.3004C151 28.9004 150.8 28.5004 150.7 28.5004C147.6 28.0004 146.3 29.4004 148.1 31.4004L148.8 32.1004H120.3V30.8004C120.3 30.1004 120.2 29.3004 120.2 29.0004C120.2 28.3004 134.4 28.1004 172.5 28.2004C186 28.2004 205.8 28.2004 216.6 28.2004ZM106.2 32.1004H80.6V28.3004H106.2V32.1004ZM113.6 36.0004C113.6 40.3004 113.5 43.5004 113.4 43.3004C113.3 43.0004 112.1 41.6004 110.8 40.2004C107.7 36.9004 107.3 35.8004 107.3 31.6004V28.3004H113.7V36.1004M119 39.8004V51.3004H116.3C113.9 51.3004 113.6 51.3004 113.6 50.7004C113.6 50.2004 113.6 50.2004 113.9 50.7004C114.5 51.6004 114.6 50.7004 114.3 48.4004C114.1 47.1004 114.1 45.8004 114.3 45.5004C114.5 45.2004 114.6 41.2004 114.6 36.6004V28.3004H119.1V39.8004M193.7 28.6004C193.2 29.1004 193.2 30.5004 193.7 31.2004C194.9 32.8004 197.7 31.0004 196.9 29.1004C196.5 28.3004 194.4 28.0004 193.7 28.7004M278.4 28.6004C278.4 28.8004 278.3 28.9004 278.1 28.9004C277.5 28.9004 277.8 30.6004 278.5 31.4004L279.2 32.1004H258.7C247.4 32.1004 238.2 32.1004 238.2 31.9004C238.2 31.7004 238.4 31.4004 238.7 31.1004C239.1 30.6004 239.2 30.3004 238.9 29.4004L238.6 28.3004H258.6C271.7 28.3004 278.6 28.4004 278.6 28.6004M312.3 30.2004V32.1004H280.9L281.4 31.3004C281.9 30.6004 281.9 29.3004 281.4 28.6004C281.3 28.4004 286.3 28.3004 296.7 28.3004H312.2V30.2004M322.9 30.0004C327.6 30.8004 331.7 31.5004 332.2 31.5004C332.6 31.5004 333 31.6004 333 31.7004C333 31.8004 333.7 31.8004 334.5 31.9004C335.3 31.9004 336.4 32.2004 336.8 32.3004L337.7 32.6004V101.6L333.6 102.3C328.3 103.2 313.7 105.6 313.5 105.6C313.3 105.6 313.3 103.8 313.4 101.5V97.4004H305.4C299.6 97.4004 297.2 97.2004 296.8 96.9004C296.4 96.6004 293.5 96.5004 285.6 96.4004H274.8L275.1 94.5004C275.5 92.0004 275.5 84.9004 275.1 81.7004C274.6 78.5004 273.9 77.6004 270.6 76.6004C269.8 76.3004 269.2 76.0004 269.2 75.7004C269.2 74.1004 269 74.0004 256.5 74.0004C244 74.0004 243 74.0004 243 76.1004C243 78.2004 242.8 77.2004 242.6 77.2004C242.2 77.2004 241.4 77.4004 240.4 77.6004C239.3 77.8004 239.2 78.5004 239.2 88.0004V97.4004H223.9L224.1 95.4004C224.1 94.3004 224.4 93.1004 224.6 92.7004C224.9 92.0004 224.8 86.5004 224.3 82.3004C224.1 80.0004 223.2 77.8004 222.5 77.8004C221.8 77.8004 221.8 77.5004 221.3 77.2004C220.8 76.9004 220 76.5004 219.6 76.4004C218.5 76.2004 218 75.9004 218.3 75.6004C219.4 73.9004 193.9 73.1004 192.7 74.8004C192.5 75.1004 192.2 75.8004 192.2 76.3004C192.2 77.1004 192 77.2004 190.9 77.4004C190.2 77.5004 189.3 77.9004 189 78.2004C188.4 78.8004 188.4 78.8004 188 77.8004C187.4 76.3004 186.8 76.3004 175.3 76.3004C163.8 76.3004 162.9 76.3004 162.5 78.4004C162.3 79.3004 162.2 79.5004 161.8 79.2004C161.6 79.0004 161.4 78.7004 161.5 78.6004C161.5 78.5004 161.5 78.3004 161.1 78.3004C159.1 78.3004 158.5 77.9004 158.5 76.8004C158.5 74.8004 158.1 74.7004 145 74.8004C132.5 74.8004 132.6 74.8004 132.6 76.5004C132.6 76.8004 132.5 77.1004 132.4 77.1004C131.8 77.1004 130.9 77.4004 130.5 77.6004C130.2 77.7004 129.8 77.9004 129.5 77.9004C129.2 77.9004 129 78.1004 128.9 78.3004C128.8 78.5004 128.5 78.7004 128.1 78.8004C127.8 78.9004 127.5 79.2004 127.5 79.5004C127.5 79.9004 126.5 80.0004 120 80.0004H112.5V85.2004C112.5 98.3004 112.1 106.2 111.5 106.3C111 106.4 110.9 106.8 110.9 109.6V112.7L110.6 109.2C110.4 105.3 110.1 104.7 108.4 103.4L107.2 102.5H96.1C86.7 102.5 81.9 104.734 81.7 109.2L81.5 112.7V109.6C81.5 107.8 81.3 106.5 81.1 106.5C80.9 106.5 80.8 102.1 80.8 93.9004C80.8 85.7004 80.8 81.3004 81.3 81.5004C81.8 81.7004 81.8 81.5004 81.7 80.2004C81.5 78.3004 80.2 77.2004 80.2 78.9004C80.2 80.6004 80.1 79.7004 79.9 79.7004C79.7 79.7004 79.6 76.6004 79.6 71.0004C79.6 66.2004 79.7 62.9004 79.8 63.7004C80 65.4004 81.1 66.0004 81.1 64.4004C81.1 62.0004 80.7 60.5004 80.1 60.5004C79.5 60.5004 79.5 60.3004 79.5 59.9004C79.5 59.5004 79.7 59.3004 80.1 59.3004C80.5 59.3004 80.7 59.1004 80.7 56.6004C80.7 55.1004 80.7 53.8004 80.7 53.8004C80.7 53.8004 87.9 53.6004 96.6 53.5004L112.4 53.3004V55.3004H120.1C125.1 55.3004 127.8 55.4004 128 55.6004C128.3 56.0004 131.6 57.5004 132.2 57.5004C132.8 57.5004 132.6 57.6004 132.5 57.8004C132.5 58.0004 132.6 58.5004 133 58.9004L133.7 59.7004H145C158.1 59.7004 158.6 59.7004 158.6 57.4004C158.6 56.6004 158.8 56.5004 160 56.3004C160.8 56.2004 161.7 55.9004 161.9 55.6004C162.3 55.2004 162.4 55.2004 162.4 55.8004C162.4 56.4004 162.8 56.8004 163.2 57.3004L164 58.1004H175C186.8 58.1004 187.5 58.1004 188.1 56.5004C188.4 55.6004 188.5 55.6004 189.3 56.0004C189.8 56.2004 190.6 56.4004 191.2 56.4004C192.2 56.4004 192.2 56.4004 192.2 57.5004C192.2 59.7004 192 59.6004 205.5 59.6004H217.6L218.1 58.5004C218.5 57.7004 218.9 57.4004 220.3 57.0004C223.2 56.1004 223.8 55.2004 224.3 52.0004C224.8 48.0004 225 41.4004 224.6 41.0004C224.4 40.8004 224.3 39.9004 224.3 39.0004V37.3004H240.3V47.0004C240.3 56.5004 240.3 56.7004 241 57.3004C241.6 57.9004 242.4 57.9004 252.9 58.0004C265.1 58.1004 265.2 58.0004 266 56.3004C266.3 55.6004 266.4 55.6004 267.2 56.0004C267.7 56.2004 268.4 56.4004 268.9 56.4004C269.6 56.4004 269.8 56.5004 269.8 57.2004C269.8 57.9004 270.1 58.3004 270.5 58.8004L271.2 59.6004H283.1C295.6 59.6004 295.5 59.6004 295.8 58.2004C295.8 57.8004 296.3 57.5004 296.9 57.4004C299 56.9004 300.9 55.8004 301.5 54.7004C302.5 52.8004 303 43.6004 302.3 39.7004C302.1 38.6004 302 37.7004 302 37.7004C302 37.7004 304.6 37.6004 307.8 37.5004H313.5V33.1004C313.5 29.0004 313.5 28.8004 314.1 28.9004C314.5 28.9004 318.6 29.7004 323.2 30.5004M150.3 29.7004C150.4 30.5004 149.6 31.3004 149.3 30.8004C149.2 30.6004 149 30.5004 148.8 30.6004C148.5 30.8004 148.4 29.4004 148.8 29.0004C149.2 28.6004 150.3 29.0004 150.4 29.6004M196 29.6004C196.3 30.6004 195.4 31.4004 194.7 30.9004C194.2 30.5004 194 29.6004 194.4 29.2004C194.9 28.7004 195.8 29.0004 196 29.7004M238 30.1004C238.1 31.0004 237.2 31.4004 236.5 30.7004C235.8 30.0004 236.2 29.1004 237.1 29.2004C237.6 29.2004 237.9 29.6004 237.9 30.0004M280.8 29.7004C281.1 30.4004 280.7 31.1004 280 31.1004C279.3 31.1004 278.6 30.3004 278.8 29.7004C279 29.1004 280.5 29.1004 280.7 29.7004M137 32.9004C137.7 33.0004 138.2 32.9004 138.2 32.9004C138.2 32.4004 146.8 32.4004 147.3 32.9004C147.7 33.2004 148.2 33.2004 149.6 32.9004C150.6 32.7004 153.8 32.5004 156.8 32.5004H162.2V34.3004C162.2 35.3004 162.1 35.9004 162 35.6004C161.7 34.3004 159.5 34.0004 147.2 33.7004C129.8 33.2004 131.3 33.2004 129.5 34.1004C127.4 35.1004 126.8 36.0004 126.4 38.9004C126 41.8004 125.9 47.8004 126.2 49.9004L126.5 51.4004H120.3V42.8004C120.3 38.1004 120.2 34.0004 120.1 33.6004C120.1 33.0004 120.1 33.0004 123.4 33.1004C125.5 33.1004 126.9 33.1004 127.1 32.9004C127.5 32.5004 134.8 32.6004 137 33.0004M222.4 32.8004C222.9 33.1004 223.2 33.1004 223.8 32.8004C224.4 32.5004 227 32.4004 232.3 32.4004H240V35.9004H223.6L222.9 35.1004C221.5 33.6004 215.7 32.3004 214.7 33.3004C214.5 33.5004 209.4 33.7004 203.4 33.7004C191.4 33.9004 189.4 34.1004 188.8 35.4004C188.3 36.6004 188.1 36.2004 188.3 34.3004C188.3 32.9004 188.3 32.5004 188 32.8004C187.7 33.1004 187.6 35.1004 187.6 39.7004C187.6 43.3004 187.6 46.7004 187.4 47.3004L187.2 48.3004H163.3V41.0004C163.3 37.0004 163.2 33.5004 163 33.3004C162.8 33.0004 162.8 32.7004 162.9 32.6004C163.2 32.2004 221.8 32.3004 222.5 32.7004M265 40.4004V48.4004H240.6V40.4004L240.7 32.4004H264.9V40.4004M275.7 32.7004C275.9 33.1004 282.2 33.1004 282.4 32.7004C282.7 32.3004 291.2 32.3004 291.2 32.7004C291.2 33.1004 291.4 33.0004 291.7 33.0004C292 33.0004 292.1 33.1004 292 33.3004C291.9 33.5004 288.4 33.6004 282.6 33.6004C272.8 33.6004 268.4 33.9004 266.8 34.7004C265.9 35.2004 265.8 35.1004 265.8 34.4004C265.8 33.7004 265.6 33.6004 265.4 33.5004C265.2 33.5004 265.1 33.1004 265.2 32.8004C265.4 32.2004 275.1 32.0004 275.5 32.6004M294.7 32.7004C294.7 32.9004 294.3 33.0004 293.7 33.0004C293.1 33.0004 292.7 32.9004 292.7 32.7004C292.7 32.5004 293.1 32.4004 293.7 32.4004C294.3 32.4004 294.7 32.5004 294.7 32.7004ZM308.5 32.7004C308.5 32.9004 309.4 33.0004 310.4 33.0004H312.3V36.2004H301.4L300.5 35.2004C300 34.7004 298.8 34.0004 297.9 33.7004L296.2 33.1004H301.6C304.6 33.0004 307.2 32.8004 307.3 32.6004C307.7 32.2004 308.4 32.2004 308.4 32.6004M106.3 33.5004C105.9 35.7004 107.1 38.0004 110.6 41.7004L112.9 44.2004V47.8004C112.9 50.8004 112.9 51.5004 112.4 51.6004C112.1 51.7004 104.8 51.8004 96.2 51.8004H80.5V32.6004H106.3L106.1 33.4004M57.3 34.6004C55.8 35.4004 54.7 35.4004 54.7 34.6004C54.7 33.8004 54.9 34.0004 56.5 34.0004H58.3L57.2 34.6004M71.5 34.6004C71.5 35.2004 71.3 35.3004 65 35.3004C58.7 35.3004 58.5 35.3004 59.2 34.7004C60.4 33.7004 71.5 33.7004 71.5 34.7004M136.9 36.9004C136.9 40.2004 135.2 39.7004 134.8 36.2004L134.6 33.8004L135.8 35.0004C136.5 35.7004 137 36.5004 136.9 36.9004ZM215.5 35.5004C215.3 38.2004 215 39.1004 214.4 39.1004C213.8 39.1004 213.4 37.4004 213.4 36.6004C213.4 35.8004 215.2 34.3004 215.5 34.3004C215.8 34.3004 215.5 34.8004 215.5 35.5004ZM293 36.3004C292.7 39.0004 292.3 39.8004 291.7 38.8004C291 37.6004 291.2 36.4004 292.1 35.3004C293.2 34.0004 293.3 34.0004 293 36.3004ZM163.9 35.2004C163.4 35.7004 163.3 46.9004 163.8 47.2004C164.2 47.4004 186.1 47.5004 186.5 47.2004C187 46.9004 186.9 35.2004 186.5 35.0004C185.4 34.6004 164.4 34.7004 164 35.1004M221.9 36.4004C222.8 37.6004 223 39.7004 222.2 39.3004C221.9 39.2004 221.4 39.1004 221 39.1004C219.7 39.1004 219.4 38.6004 219.3 36.6004V34.7004L220.2 35.0004C220.7 35.2004 221.5 35.8004 221.9 36.4004ZM243 35.0004L241.4 35.2004V41.0004C241.2 45.5004 241.4 46.9004 241.7 47.2004C242.3 47.7004 264 47.8004 264.3 47.2004C264.5 46.8004 264.3 35.3004 264.1 35.1004C263.9 34.9004 244.9 34.9004 243 35.1004M21.9 35.3004C22.4 35.5004 23 35.7004 23.4 35.8004C26 36.4004 30.8 37.6004 32.4 38.0004C33.5 38.3004 35.7 38.8004 37.3 39.2004L40.3 39.9004V42.4004C40.3 45.2004 40.5 45.5004 42.2 45.7004H43.3V49.6004L42 49.9004C41.1 50.1004 40.6 50.4004 40.3 51.0004C39.8 52.1004 39.9 57.2004 40.3 58.1004C40.8 59.0004 40.3 63.9004 39.8 63.9004C39.3 63.9004 39.6 64.0004 39.7 64.2004C40.4 65.4004 38.7 65.5004 24 65.5004H9.6L8.6 64.7004C7.6 63.9004 7 61.1004 7.9 61.1004C8.8 61.1004 8.2 60.7004 8.2 60.2004C8.3 57.9004 8.4 57.2004 8.7 57.2004C9 57.2004 8.9 57.1004 8.7 56.9004C8.6 56.7004 8.7 55.8004 9.1 54.7004C9.5 53.7004 9.9 52.2004 10.1 51.4004C11.4 46.4004 16.8 36.0004 18.5 35.3004C19.2 35.0004 20.9 35.1004 21.8 35.4004M131.2 36.9004C131.2 39.0004 131.4 38.8004 128.7 39.3004L127.6 39.5004L127.8 38.3004C128.1 36.6004 128.4 36.1004 129.6 35.6004C131.1 34.9004 131.1 34.9004 131.1 37.0004M152.8 36.1004C152.1 36.7004 151.4 37.2004 151.1 37.2004C150.9 37.2004 150.7 37.3004 150.7 37.5004C150.7 38.1004 148.2 38.8004 144.4 39.3004C138.9 40.1004 139.1 39.8004 139.1 45.0004C139.1 50.2004 138.7 49.8004 144.4 50.8004C149.9 51.8004 149.5 51.7004 150.3 52.4004C150.7 52.7004 151 52.9004 151 52.8004C151 52.7004 151.4 53.0004 151.9 53.4004C152.4 53.8004 153.1 54.4004 153.4 54.7004C153.9 55.1004 153 55.2004 145.7 55.1004C141.1 55.1004 137.6 55.1004 137.8 54.9004C138.3 54.7004 138.3 52.7004 137.8 50.8004C137.1 48.6004 137.1 40.6004 137.8 39.5004C138.4 38.5004 138.4 35.9004 137.8 35.4004C137.5 35.1004 139.3 35.0004 145.7 35.0004H154L152.7 36.1004M212.3 36.2004C212.2 36.9004 212.3 38.0004 212.6 38.9004C213.3 41.0004 213.4 49.4004 212.6 51.0004C212.3 51.6004 212.1 52.8004 212.2 53.6004V55.1004H196.5L198.3 53.5004C200.1 51.9004 201.2 51.5004 204.2 51.1004C205.1 51.0004 206.1 50.8004 206.5 50.7004C206.9 50.7004 207.8 50.5004 208.6 50.4004C211.2 50.0004 211.4 49.7004 211.4 45.2004C211.4 40.2004 211.4 40.0004 207.9 39.6004C201.9 38.9004 200.2 38.3004 197.2 35.7004L196.2 34.9004H212.4L212.2 36.1004M290 36.6004C290 37.7004 290 38.7004 290.4 39.5004C291.1 41.2004 291.1 49.0004 290.4 50.7004C290.1 51.4004 289.9 52.5004 290 53.5004V55.0004C290.1 55.0004 282.2 55.0004 282.2 55.0004H274.3L276 53.4004C277.9 51.7004 278.4 51.5004 283.7 50.7004C289.1 49.9004 288.8 50.2004 288.9 45.0004V40.6004L288.1 40.2004C287.6 40.0004 285.6 39.5004 283.5 39.2004C278.6 38.5004 277.9 38.2004 275.7 36.4004L273.8 34.8004H290V36.5004M298.5 35.6004C299.7 36.2004 299.9 36.4004 300.3 38.4004C300.5 39.4004 300.5 39.4004 299.4 39.3004C297.6 39.0004 296.5 38.5004 296.7 38.0004C296.7 37.7004 296.9 37.0004 296.9 36.3004C296.9 34.8004 296.9 34.9004 298.5 35.7004M194.7 38.1004C196 39.1004 197 40.0004 197.1 40.2004C197.1 40.3004 197.4 40.5004 197.7 40.5004C198 40.5004 198.2 40.6004 198.2 40.8004C198.2 41.1004 199.6 41.5004 201.8 41.9004L203 42.1004V45.2004L202.8 48.3004L201 48.6004C199.1 48.9004 197.1 50.1004 193.4 53.3004C191.9 54.6004 191.2 55.0004 190.7 54.8004C190.3 54.7004 189.9 54.6004 189.8 54.6004C189.4 54.6004 189.5 36.5004 190 36.1004C190.7 35.6004 191.7 35.5004 192.1 36.0004C192.3 36.2004 193.6 37.2004 194.8 38.2004M274.1 39.7004C275.3 40.7004 277.3 41.5004 279 41.8004L280.3 42.0004V48.3004L278.7 48.5004C276.7 48.7004 275.1 49.6004 271.7 52.5004C269 54.8004 268.6 55.0004 267.5 54.4004C266.8 54.0004 266.7 36.5004 267.3 35.9004C268.1 35.1004 268.9 35.4004 271 37.1004C272.2 38.1004 273.5 39.2004 274 39.6004M154.4 37.3004C151.1 40.0004 150.2 40.3004 143 41.2004C139.8 41.6004 141.5 41.0004 145.1 40.5004C149.8 39.8004 150.4 39.6004 154.2 36.7004C156.5 34.9004 156.7 35.4004 154.4 37.3004ZM160.6 35.9004C160.9 36.1004 161 38.2004 160.9 45.2004V54.3004L159.9 54.5004C159.1 54.7004 157.3 53.7004 156.5 52.6004C156.5 52.5004 155.7 51.9004 154.9 51.3004C154.1 50.7004 153.4 50.1004 153.3 50.0004C152.9 49.5004 150.1 48.4004 149.4 48.4004C147.6 48.4004 147.6 48.2004 147.6 45.0004C147.6 41.8004 147.6 41.7004 149.6 41.6004C150.4 41.6004 153.6 40.1004 153.6 39.7004C153.6 39.3004 153.8 39.4004 154.1 39.4004C154.4 39.4004 154.6 39.3004 154.7 39.1004C155.3 37.6004 159.7 35.2004 160.7 35.8004M185.8 41.1004C185.8 44.8004 185.8 46.5004 185.5 46.5004C185.2 46.5004 185.2 46.6004 185.4 46.8004C185.5 47.0004 182.1 47.1004 175.3 47.1004C168.5 47.1004 165 47.0004 165 46.8004C165 46.6004 164.9 46.6004 164.7 46.7004C164.3 46.9004 164.2 36.2004 164.6 35.9004C164.7 35.8004 169.5 35.7004 175.2 35.8004H185.6V41.2004M195.2 35.9004C195.2 36.1004 195.4 36.2004 195.6 36.2004C195.8 36.2004 196.3 36.5004 196.6 36.8004C199.3 39.4004 200.2 39.8004 206.5 40.7004C208.1 40.9004 209.1 41.2004 208.7 41.2004C207.5 41.4004 200.8 40.3004 199.5 39.7004C197.6 38.9004 193.6 35.5004 194.5 35.5004C195.4 35.5004 195.2 35.6004 195.2 35.8004M263.1 35.8004C263.7 36.0004 263.5 46.3004 262.9 46.8004C262.6 47.0004 259.4 47.1004 252.4 47.1004H242.4V35.6004H252.5C258.1 35.6004 262.9 35.6004 263.1 35.8004ZM274.9 37.6004C277.4 39.7004 278 39.9004 284 40.8004C285.6 41.0004 286.7 41.3004 286.5 41.3004C285.8 41.5004 278 40.4004 277 39.9004C276.1 39.4004 271.7 36.0004 271.7 35.8004C271.7 35.3004 272.9 36.0004 274.9 37.6004ZM340.4 39.9004C340.9 41.5004 341.5 43.2004 341.6 43.7004C341.7 44.2004 341.9 44.8004 341.9 45.0004C341.9 45.2004 342.1 45.6004 342.2 46.0004C342.2 46.4004 342.5 47.0004 342.6 47.4004C342.7 47.8004 342.8 48.4004 342.9 48.8004C342.9 49.2004 343.1 49.8004 343.2 50.2004C343.2 50.6004 343.4 51.5004 343.5 52.2004C343.5 52.9004 343.8 53.8004 344 54.3004C345.3 57.8004 345.3 77.7004 344 80.4004C343.8 80.8004 343.7 81.5004 343.6 82.2004C343.6 82.8004 343.4 83.5004 343.3 83.7004C343.2 83.9004 343.1 84.3004 343.3 84.6004C343.3 84.8004 343.3 85.1004 343.2 85.2004C343 85.3004 343 85.5004 343.1 85.7004C343.2 85.9004 343.1 86.2004 343.1 86.4004C343 86.6004 342.8 86.9004 342.8 87.1004C342.8 87.3004 342.5 88.2004 342.2 89.2004C341.9 90.2004 341.7 91.0004 341.7 91.1004C341.7 91.5004 341.3 92.9004 341.1 93.5004C341 93.9004 340.6 94.9004 340.3 95.9004C340 96.9004 339.6 97.9004 339.5 98.1004C339.4 98.4004 339.2 84.5004 339.2 67.2004C339.2 49.9004 339.3 36.1004 339.5 36.3004C339.7 36.6004 340.2 38.1004 340.7 39.7004M53.3 36.8004C52 38.0004 50.2 38.2004 47.2 37.5004C43.3 36.6004 43.4 36.6004 48.9 36.6004C54.4 36.6004 53.5 36.7004 53.3 36.9004M63.9 37.1004C62.5 37.8004 62.4 38.6004 63 43.5004C63.4 47.3004 63.4 48.6004 63 52.6004L62.6 57.2004L64.2 58.6004L54.4 58.8004C44.9 59.0004 42.6 59.0004 42.1 58.4004C41.6 57.8004 45 48.7004 47.3 45.6004C49.1 43.2004 47.7 40.7004 44 39.8004C41.1 39.1004 41.2 39.1004 41.4 38.1004C41.7 37.1004 41.3 37.1004 45.7 38.2004C50.4 39.4004 50.9 39.4004 53.6 37.9004L55.8 36.6004H60.3C64.5 36.6004 64.7 36.6004 63.9 37.1004ZM68.9 36.8004C68.3 36.8004 67.4 36.8004 66.8 36.8004C66.2 36.8004 66.7 36.7004 67.8 36.7004C68.9 36.7004 69.4 36.7004 68.8 36.8004M89 37.3004C88.8 37.5004 88.6 38.0004 88.6 38.3004C88.6 38.6004 88.4 39.0004 88.1 39.1004C87.6 39.3004 87.1 40.4004 87.2 40.9004C87.2 41.0004 87.2 41.1004 87 41.1004C86.5 41.1004 86.3 42.5004 86.7 42.9004C87.2 43.5004 87.6 43.4004 87.6 42.8004C87.6 42.5004 87.8 41.8004 88.1 41.3004L88.6 40.3004L88.4 41.4004C88.3 42.0004 87.9 43.0004 87.6 43.6004L87 44.6004H87.8C88.6 44.6004 88.6 44.7004 88.7 46.4004C88.8 49.0004 89.6 49.1004 89.7 46.4004V44.4004L89.9 46.2004C90.1 49.2004 91.2 49.1004 91.1 46.1004C91.1 44.8004 91.1 44.6004 91.7 44.6004C92.3 44.6004 92.3 44.4004 92.2 44.0004C92.2 43.7004 92.3 43.3004 92.6 43.1004C93.2 42.6004 92.2 39.1004 91.5 39.1004C90.8 39.1004 91 38.8004 91 38.1004C91 37.4004 90.9 37.1004 90.7 37.1004C90.5 37.1004 90.2 37.1004 90 36.9004C89.8 36.9004 89.4 36.9004 89.2 37.1004M93.3 37.1004C93.2 37.2004 93.1 39.8004 93.1 42.9004V48.4004H93.9L94.7 48.3004V42.7004C94.5 37.1004 94.3 36.1004 93.3 37.1004ZM97.5 37.1004C97.2 37.1004 96.9 37.5004 96.9 37.8004C96.9 38.1004 96.5 38.8004 96.1 39.2004C95 40.3004 94.9 43.2004 95.9 43.5004C96.5 43.6004 96.5 43.9004 96.5 45.9004C96.5 49.0004 97.7 49.3004 97.8 46.3004V44.5004L98 46.2004C98.1 48.1004 98.8 49.0004 99.2 47.9004C99.3 47.5004 99.3 45.7004 99.2 43.8004C99 41.3004 99.1 40.5004 99.3 40.7004C99.5 40.8004 99.6 41.5004 99.6 42.2004C99.6 43.0004 99.6 43.6004 99.9 43.6004C100.6 43.8004 100.4 39.6004 99.7 39.1004C99.3 38.9004 99.1 38.5004 99.1 38.1004C99.1 37.5004 98.2 36.9004 97.4 37.1004M188.4 48.5004C188.4 50.7004 188.3 48.9004 188.3 44.6004C188.3 40.3004 188.3 38.5004 188.4 40.7004C188.4 42.9004 188.4 46.4004 188.4 48.5004ZM69.8 57.4004H67.5C65.1 57.4004 64.0667 55.7671 64.4 52.5004C64.7 49.2004 64.7 47.6004 64.4 43.8004C63.9 38.1004 63.8 38.2004 67.3 38.2004H69.8V57.4004ZM75.5 38.5004C76 39.0004 76 55.8004 75.5 56.7004C75.2 57.3004 73.5 57.6004 72.7 57.1004C72.3 56.9004 72.3 55.1004 72.7 55.1004C72.8 55.1004 72.9 54.6004 72.9 54.1004C72.9 53.5004 73.1 52.6004 73.2 52.0004C73.8 50.1004 73.3 41.4004 72.6 40.0004C71.8 38.6004 74.2 37.3004 75.4 38.5004M298.1 40.4004C300.4 40.4004 301.1 41.4004 301.1 44.9004C301.1 48.4004 300.6 49.2004 299.3 49.5004C297.7 49.9004 295.4 50.7004 295.4 51.0004C295.4 51.3004 295.1 51.1004 294.8 51.0004C294.2 50.7004 294.2 50.3004 294.2 45.3004C294.2 40.3004 294.4 38.4004 296.3 39.7004C296.9 40.1004 297.8 40.5004 298.2 40.5004M133.7 45.0004C133.7 51.4004 133.7 51.4004 131.7 50.4004C131 50.0004 130 49.8004 129.6 49.8004C127.9 49.8004 127.1 48.3004 127.1 44.8004V41.8004L128.1 41.2004C128.7 40.9004 129.5 40.6004 129.9 40.6004C130.3 40.6004 131.1 40.3004 131.7 40.0004C133.6 38.8004 133.6 38.9004 133.7 45.2004M218.6 39.8004C219.2 40.2004 220 40.4004 220.4 40.4004C220.8 40.4004 221.6 40.6004 222.2 40.9004L223.3 41.4004V44.9004C223.3 48.9004 223 49.5004 220.5 49.9004C219.8 50.0004 218.9 50.4004 218.5 50.7004C216.9 52.0004 216.8 51.5004 216.8 45.5004C216.9 38.6004 216.8 38.8004 218.5 39.8004M71.5 41.7004C71.6 42.8004 71.8 44.0004 72 44.3004C72.4 45.1004 72.4 50.2004 72 51.0004C71.8 51.3004 71.6 52.3004 71.6 53.1004C71.6 53.9004 71.4 54.5004 71.3 54.5004C71.2 54.5004 71.1 51.1004 71.1 46.9004C71.1 39.3004 71.2 37.9004 71.6 41.7004M44 40.8004C45.9 41.2004 47.1 42.3004 47.1 43.6004C47.1 44.9004 47 44.6004 46.8 44.6004C46.6 44.6004 46.5 44.8004 46.5 44.9004C46.5 45.0004 46.1 45.8004 45.7 46.4004C45 47.4004 44.9 47.5004 44.9 46.9004C44.9 45.5004 44.2 44.6004 43.1 44.6004C42 44.6004 41.3 44.0004 41.4 41.9004C41.4 40.4004 41.6 40.1004 42 40.3004C42.3 40.4004 43.2 40.6004 44.1 40.8004M135.7 45.1004C135.7 46.7004 135.6 47.8004 135.4 47.8004C135.2 47.8004 135.1 46.6004 135.1 44.9004C135.1 43.2004 135.2 42.1004 135.4 42.2004C135.6 42.3004 135.7 43.6004 135.7 45.1004ZM215.6 45.2004C215.6 48.4004 215.6 48.4004 215 48.0004C213.7 47.2004 214.1 42.5004 215.5 42.0004C215.5 42.0004 215.5 43.4004 215.5 45.2004M78.1 47.4004C78.1 51.8004 78.1 52.5004 77.6 52.3004C77.2 52.1004 77.1 51.3004 77.1 47.4004C77.1 43.5004 77.1 42.6004 78 42.3004C78 42.3004 78 44.6004 78 47.4004M146.2 45.1004V47.9004L144.7 47.6004C143.9 47.4004 142.6 47.3004 141.8 47.3004H140.4V42.8004L142.1 42.6004C143 42.5004 144.2 42.4004 144.9 42.4004H146.1V45.2004M209.4 42.8004C210.3 43.0004 210.3 43.0004 210.3 45.2004C210.3 47.4004 210.3 47.4004 209.6 47.2004C209.2 47.2004 208.4 47.2004 207.8 47.4004C207.2 47.6004 206.1 47.8004 205.4 47.9004L204.2 48.1004V42.3004L206.4 42.5004C207.6 42.6004 209 42.8004 209.4 42.9004M287 42.9004C288.2 43.2004 288.1 47.5004 287 47.2004C286.6 47.2004 285.8 47.2004 285.3 47.4004C284.8 47.6004 283.8 47.8004 283.1 47.9004L281.7 48.1004V42.2004L284 42.4004C285.3 42.5004 286.6 42.7004 287 42.8004M292.8 45.2004C292.8 47.1004 292.7 48.0004 292.5 47.9004C292.1 47.7004 292.1 42.9004 292.4 42.5004C292.8 42.1004 292.8 42.3004 292.8 45.2004ZM143.8 48.9004C144.5 49.0004 145.5 49.2004 146 49.2004C149.3 49.6004 150.2 49.8004 150.7 50.2004C151 50.4004 151.4 50.7004 151.5 50.7004C151.6 50.7004 152.9 51.6004 154.1 52.6004C155.5 53.8004 156.2 54.5004 155.8 54.5004C155.5 54.5004 154.6 53.9004 153.9 53.2004C151.2 50.7004 149.8 50.2004 143.7 49.3004C142.2 49.1004 141.1 48.8004 141.1 48.7004C141.1 48.4004 141.5 48.5004 143.8 48.9004ZM209.9 48.7004C209.6 48.8004 207.5 49.3004 205.2 49.6004C201.2 50.2004 199 50.9004 198.3 51.7004C197.5 52.6004 194.6 54.8004 194.4 54.6004C193.8 54.0004 199.7 49.6004 201.2 49.6004C201.8 49.6004 202.4 49.6004 202.5 49.6004C202.9 49.6004 206.5 49.0004 207.5 48.9004C208 48.9004 208.5 48.7004 208.6 48.7004C208.6 48.7004 209.1 48.5004 209.6 48.5004C210.1 48.5004 210.3 48.5004 210 48.8004M265.9 49.4004C265.9 50.3004 265.9 50.4004 265.6 49.9004C265.4 49.6004 265.3 49.1004 265.4 48.9004C265.7 48.1004 265.9 48.4004 265.9 49.5004M287 48.7004C287 48.9004 287 49.0004 286.9 49.0004C285.9 49.0004 279.5 50.1004 278.2 50.5004C276.9 50.9004 274.6 52.5004 272.7 54.4004C272.5 54.6004 272.1 54.8004 272 54.8004C271.5 54.8004 272.3 53.6004 273.2 53.0004C273.7 52.7004 274.5 52.1004 274.9 51.7004C276.3 50.4004 277.9 49.7004 280 49.5004C281.1 49.4004 282.4 49.2004 282.7 49.1004C283 49.0004 284.1 48.8004 284.9 48.7004C285.8 48.6004 286.6 48.4004 286.7 48.4004C286.8 48.4004 286.9 48.5004 286.9 48.7004M187.3 52.2004C187.2 57.1004 188.2 56.7004 175.2 56.7004C162.2 56.7004 163.3 57.1004 163.3 52.6004C163.3 48.1004 161.7 48.8004 175.9 48.9004H187.4V52.3004M263.8 48.9004L265 49.1004V52.4004C265 57.0004 266 56.7004 252.6 56.7004C239.2 56.7004 240.6 57.1004 240.6 52.2004V48.7004H251.6C257.6 48.7004 263.1 48.7004 263.8 48.9004ZM163.8 50.2004C163.6 50.4004 163.5 51.7004 163.6 53.1004V55.6004H174.9C181.2 55.6004 186.3 55.5004 186.5 55.3004C187 55.0004 187.1 51.0004 186.6 50.3004C186.2 49.7004 164.3 49.6004 163.8 50.2004ZM252.3 49.9004C240.4 50.0004 241.3 49.8004 241.2 52.9004C241.2 55.7004 239.6 55.5004 259.1 55.7004C264.3 55.7004 264.3 55.7004 264.1 55.4004C264 55.2004 264.1 55.1004 264.1 55.1004C264.5 55.1004 264.2 50.5004 263.8 50.1004C263.6 49.9004 263.3 49.7004 263.1 49.8004C262.9 49.8004 258 49.9004 252.2 50.0004M131.1 53.4004V55.3004L130.2 54.9004C128.8 54.4004 128 53.4004 127.8 51.8004L127.6 50.3004L131 51.5004V53.4004M185.9 53.0004V55.2004H164.6V50.7004H175.2L185.8 50.9004V53.1004M222.7 51.8004C222.7 53.5004 221.7 54.7004 219.9 55.3004C219.2 55.5004 219.2 55.5004 219.3 53.5004V51.5004L220.8 51.1004C222.5 50.7004 222.7 50.8004 222.7 51.8004ZM263.2 50.9004C263.4 51.0004 263.5 51.9004 263.4 53.1004L263.2 55.1004H242.2V50.6004H252.5C258.2 50.6004 263 50.7004 263.2 50.8004M300.3 51.8004C299.9 53.8004 299 54.9004 297.5 55.1004C297 55.1004 296.9 55.0004 296.9 53.4004V51.6004L298.1 51.2004C298.8 51.0004 299.5 50.8004 299.7 50.7004C300.5 50.5004 300.6 50.7004 300.3 51.7004M42.8 51.7004C42.6 52.1004 42.2 53.2004 41.8 54.2004L41.2 56.0004V54.1004C41.2 52.0004 41.6 51.0004 42.5 51.0004C43.4 51.0004 43.1 51.0004 42.8 51.7004ZM136.6 51.8004C137.1 53.1004 137 53.8004 135.9 55.0004C134.5 56.5004 134.4 56.5004 134.8 54.0004C135.3 51.0004 135.9 50.2004 136.6 51.9004M215.2 52.3004C215.2 52.7004 215.3 53.7004 215.4 54.6004L215.6 56.2004L214.8 55.4004C213.5 54.2004 213.3 53.6004 213.7 52.2004C214.1 50.8004 215.1 50.9004 215.2 52.3004ZM292.9 53.4004C293.1 55.9004 292.9 56.2004 292 55.0004C291.2 54.0004 291 52.9004 291.6 51.9004C292.3 50.7004 292.8 51.2004 293 53.4004M117.7 52.2004C118.9 52.2004 119.1 52.2004 119.1 53.0004C119.1 53.8004 119.1 53.8004 116.1 53.8004C113.1 53.8004 113.1 53.8004 113.3 53.1004C113.6 52.3004 114.7 51.9004 115.7 52.1004C116.1 52.1004 117 52.2004 117.7 52.2004ZM126.7 53.1004C126.7 53.9004 126.7 53.9004 123.5 53.9004C120.3 53.9004 120.3 53.9004 120.3 53.1004C120.3 52.3004 120.8 52.1004 124.4 52.2004C126.6 52.3004 126.7 52.3004 126.7 53.1004ZM218.2 53.1004C218.2 53.8004 218.2 53.8004 218 53.3004C218 52.9004 217.7 52.6004 217.5 52.4004C217.3 52.3004 217.3 52.2004 217.7 52.2004C218.1 52.2004 218.3 52.4004 218.2 53.1004ZM154.2 56.3004C157.1 56.5004 158.2 57.2004 156.6 57.8004C155.7 58.1004 134.1 58.0004 133.9 57.7004C133.8 57.5004 134 57.4004 134.5 57.4004C135 57.4004 135.4 57.2004 135.6 57.0004C136.4 56.2004 147.3 55.8004 154.2 56.3004ZM214.5 56.9004C214.8 57.2004 215.5 57.4004 215.9 57.4004C216.3 57.4004 216.6 57.5004 216.6 57.7004C216.6 58.0004 194.6 58.2004 193.7 57.8004C193.4 57.7004 193.2 57.3004 193.2 57.0004C193.2 56.2004 213.4 56.1004 214.5 56.9004ZM292 56.9004C292.3 57.2004 293 57.4004 293.4 57.4004C293.8 57.4004 294.1 57.5004 294.1 57.7004C294.1 58.2004 271.6 58.1004 271.1 57.7004C269.9 56.5004 270.4 56.5004 281 56.5004C289.6 56.5004 291.4 56.5004 291.9 57.0004M68.3 58.6004C67.4 59.0004 65.9 59.0004 65.9 58.6004C65.9 58.2004 66.6 58.3004 67.4 58.3004C68.5 58.3004 68.8 58.3004 68.3 58.6004ZM71.4 60.9004C71.4 61.5004 71.2 61.5004 63.1 61.5004C55 61.5004 54.8 61.5004 54.8 60.9004C54.8 60.3004 55 60.3004 63.1 60.3004C71.2 60.3004 71.4 60.3004 71.4 60.9004ZM79.7 68.6004C79.7 70.6004 79.7 70.8004 80.3 70.8004C80.9 70.8004 80.9 70.6004 80.9 68.6004C80.9 66.6004 80.9 66.4004 80.3 66.4004C79.7 66.4004 79.7 66.6004 79.7 68.6004ZM38.9 69.1004C40.3 69.6004 40.6 72.0004 40.2 79.0004C40 83.3004 40.2 84.1004 42 84.2004C44 84.4004 44.2 88.1004 42.2 88.1004C40.2 88.1004 39.6 89.4004 39.7 92.2004C39.7 93.5004 39.7 94.5004 39.7 94.6004C39.7 94.7004 39.3 94.6004 38.9 94.8004C38.5 94.8004 38 95.0004 37.8 95.0004C37.5 95.0004 37.1 95.2004 36.8 95.3004C35.9 95.7004 20.6 99.4004 19.7 99.4004C18.7 99.4004 17.6 98.4004 16.6 96.4004C12.2 87.7004 7.8 76.7004 8.2 75.5004C8.2 75.3004 8.2 75.0004 8 74.9004C7.1 74.4004 7.6 70.9004 8.7 69.9004L9.7 69.0004H24C31.9 69.0004 38.5 69.0004 38.8 69.2004M71.3 73.0004C71.4 73.6004 60 74.2004 56.2 73.8004C54.1 73.6004 54.1 72.5004 56.2 72.4004C61.7 72.0004 71.2 72.4004 71.3 73.0004ZM80 74.3004C80 76.4004 80 76.6004 80.7 76.6004C81.6 76.6004 81.5 72.4004 80.7 72.2004C80.2 72.2004 80.1 72.4004 80.1 74.4004M64 75.4004C62.5 76.2004 62.4 77.0004 62.9 82.4004C63.3 86.7004 63.3 87.8004 62.9 91.2004C62.4 95.8004 62.5 96.3004 64.2 97.3004C64.7 97.6004 63.8 97.7004 60 97.7004H55.2L53.8 96.6004C53 96.0004 52.2 95.4004 52 95.2004C51.6 94.9004 50 94.9004 49.3 95.2004C46.9 96.2004 42.1 97.0004 41.7 96.5004C40.8 95.3004 41.2 94.9004 43.8 94.3004C47 93.6004 47.8 92.8004 47.5 90.5004C47.3 89.0004 47.1 88.3004 44.5 82.9004C43.7 81.2004 43.1 79.7004 43.1 79.6004C43.1 79.5004 42.9 79.0004 42.8 78.5004C42.6 78.0004 42.5 77.5004 42.5 77.4004C42.5 77.4004 42.3 77.1004 42.2 76.8004C42 76.6004 42 76.4004 42.2 76.4004C42.4 76.4004 42.2 76.2004 42 75.9004C41.2 75.0004 43 74.8004 54 74.8004C63.5 74.8004 64.8 74.8004 64.1 75.2004M68.9 75.2004C68.3 75.2004 67.4 75.2004 66.8 75.2004C66.2 75.2004 66.7 75.1004 67.8 75.1004C68.9 75.1004 69.4 75.1004 68.8 75.2004M216.6 75.5004C216.6 75.8004 216.4 75.9004 215.9 75.9004C215.4 75.9004 214.8 76.1004 214.6 76.4004C213.8 77.2004 193.4 77.1004 193.4 76.3004C193.4 75.1004 194.5 75.0004 205.7 75.1004C214.1 75.1004 216.6 75.3004 216.7 75.6004M267.4 75.5004C267.4 75.7004 267.2 75.9004 266.7 75.9004C266.2 75.9004 265.7 76.1004 265.5 76.4004C264.8 77.2004 244.1 77.1004 244.1 76.3004C244.1 75.1004 245.2 75.0004 256.4 75.1004C264.8 75.1004 267.3 75.3004 267.4 75.6004M157 76.4004C157.2 76.7004 157.4 77.1004 157.3 77.3004C157 77.8004 136.2 77.6004 135.7 77.1004C135.5 76.8004 135 76.6004 134.5 76.6004C133.7 76.6004 133.4 76.1004 134.1 75.9004C135.6 75.4004 156.6 75.9004 157 76.4004ZM69.8 86.3004V96.1004H67.4C65.1 96.1004 63.4 95.4004 63.8 94.6004C64.6 93.3004 64.6 83.3004 63.8 78.6004C63.5 77.0004 64.1 76.6004 67 76.6004H69.7V86.4004M75.5 76.9004C75.8 77.2004 75.9 79.7004 75.9 86.2004V95.1004L75.1 95.6004C73.7 96.5004 72.5 96.1004 72.5 94.6004C72.5 93.9004 72.5 93.2004 72.7 93.2004C73.3 92.7004 73.7 85.7004 73.3 83.0004C73.1 81.7004 72.9 80.3004 72.9 80.0004C72.9 79.7004 72.8 79.2004 72.6 79.0004C72.4 78.8004 72.4 78.3004 72.4 77.9004C72.4 77.5004 72.6 77.0004 72.6 76.9004C72.6 76.5004 75 76.6004 75.4 77.0004M186.9 77.8004C187.1 78.2004 187.3 79.9004 187.4 81.6004L187.6 84.8004H163.2V81.6004C163.2 76.7004 161.9 77.1004 175.2 77.1004C188.5 77.1004 186.5 77.1004 186.9 77.7004M215.6 78.8004C215.6 79.7004 215.4 80.4004 215.3 80.4004C215.2 80.4004 215.1 80.7004 215.3 81.0004C215.7 82.3004 214.4 82.8004 213.9 81.5004C213.4 80.2004 213.6 79.3004 214.8 78.1004C215.9 77.0004 215.8 76.9004 215.7 78.8004M266.6 79.5004C266.3 82.0004 265.8 82.9004 265.1 82.1004C264.3 81.1004 264.7 78.8004 265.8 78.0004C267 77.1004 266.9 77.0004 266.6 79.6004M43.1 82.2004C43.6 83.2004 43.6 83.2004 42.6 83.0004C41.4 82.8004 41.2 82.5004 41.3 79.7004V77.3004L42 79.4004C42.4 80.5004 42.9 81.8004 43.1 82.2004ZM135.8 78.8004C136.8 79.2004 137.2 81.0004 136.6 82.3004C135.9 84.0004 135.2 83.3004 134.9 80.5004C134.8 79.4004 134.6 78.3004 134.5 77.9004C134.4 77.3004 134.4 77.3004 134.7 77.9004C134.9 78.2004 135.4 78.6004 135.8 78.8004ZM217.3 78.2004C217.3 78.6004 217.2 78.8004 217 78.7004C216.8 78.6004 216.7 78.3004 216.7 78.0004C216.7 77.7004 216.8 77.5004 217 77.5004C217.2 77.5004 217.3 77.8004 217.3 78.2004ZM220.5 78.3004C222 79.2004 222.7 80.3004 222.7 81.9004V82.9004L219.3 82.1004V80.0004C219.1 78.8004 218.9 77.8004 218.7 77.7004C217.7 77.1004 219.2 77.5004 220.4 78.2004M271.7 78.4004C274.2 79.9004 274.5 83.1004 272 82.5004L270.6 82.2004V80.3004C270.4 79.2004 270.2 78.2004 270.1 78.0004C269.6 77.4004 270.1 77.6004 271.7 78.5004M163.9 78.5004C163.4 79.3004 163.4 83.3004 163.9 83.8004C164.2 84.1004 167.1 84.2004 175.2 84.2004C183.3 84.2004 186.2 84.1004 186.5 83.8004C186.9 83.4004 187 79.6004 186.6 78.7004C186.3 77.8004 164.4 77.6004 163.9 78.5004ZM131.6 78.6004C131.4 78.8004 131.2 79.9004 131.2 80.9004V82.8004L129.4 83.2004C127.5 83.6004 127.4 83.5004 128 81.3004C128.2 80.4004 128.7 79.9004 129.8 79.1004C131.3 78.1004 132.1 77.8004 131.6 78.5004M212.3 79.8004C212.3 80.7004 212.3 81.7004 212.5 81.9004C212.7 82.1004 212.7 82.3004 212.6 82.3004C212.5 82.3004 212.6 82.5004 212.6 82.7004C213.3 83.6004 213.3 92.8004 212.6 94.0004C212.2 94.7004 212 97.0004 212.3 97.8004L212.6 98.7004H196.2L197.3 97.8004C197.9 97.3004 198.8 96.6004 199.2 96.1004C200.3 95.0004 201.6 94.6004 205.9 94.0004C211.5 93.2004 211.3 93.3004 211.3 88.4004C211.3 83.5004 211.4 83.6004 206 82.8004C200.5 82.0004 199.4 81.5004 197 78.9004L196.3 78.1004H212.2V79.8004M263.7 78.6004C263.7 78.9004 263.6 79.1004 263.4 79.2004C263.2 79.3004 263.1 80.7004 263.4 81.2004C263.4 81.2004 263.4 81.4004 263.4 81.5004C263.4 81.5004 263.6 82.1004 263.9 82.5004C264.9 84.0004 265 91.2004 264 93.4004C263.6 94.3004 263.4 95.2004 263.5 95.3004C263.8 95.8004 263 96.2004 261.6 96.5004C260.9 96.6004 259.6 97.1004 258.8 97.7004C257 98.8004 246.8 99.2004 247.7 98.2004C247.9 97.9004 248.3 97.7004 248.5 97.7004C248.7 97.7004 249.2 97.3004 249.5 96.9004C249.8 96.5004 250.2 96.1004 250.4 96.1004C250.6 96.1004 251 95.8004 251.4 95.5004C251.9 95.0004 253.3 94.7004 256.8 94.1004C262.8 93.1004 262.5 93.5004 262.5 88.4004C262.5 83.3004 262.8 83.7004 256.6 82.7004C252 82.0004 251.4 81.8004 248.9 79.6004C248.3 79.0004 247.7 78.5004 247.7 78.4004C247.7 78.3004 251.3 78.2004 255.7 78.2004C262.5 78.2004 263.7 78.2004 263.7 78.7004M153.3 79.7004C152.7 80.3004 152 80.7004 151.9 80.7004C151.8 80.7004 151.2 81.1004 150.7 81.5004C149.6 82.4004 148.7 82.7004 143.9 83.4004C139 84.1004 139.1 84.0004 139.1 89.0004C139.1 94.0004 138.8 93.7004 144.3 94.6004C146.6 95.0004 148.6 95.3004 148.7 95.4004C148.8 95.5004 149 95.6004 149.2 95.6004C149.4 95.6004 150.3 96.2004 151.1 96.9004C151.9 97.6004 152.9 98.4004 153.1 98.6004C153.5 98.9004 152 99.0004 145.7 99.0004H137.8L137.9 97.6004C137.9 96.7004 137.9 95.7004 137.5 95.0004C136.8 93.3004 136.7 85.3004 137.5 83.6004C138.1 82.0004 138.2 79.9004 137.6 79.2004C137.1 78.7004 137.7 78.7004 145.7 78.7004H154.3L153.1 79.7004M192.6 79.8004C193.2 80.5004 193.8 81.1004 194 81.1004C194.2 81.1004 195 81.7004 195.7 82.3004C197.4 83.9004 198.9 84.8004 200.5 85.1004C203 85.5004 202.9 85.3004 202.9 88.5004C202.9 91.7004 203 91.4004 200.6 91.9004C199.3 92.1004 197.6 93.0004 196.6 93.9004C191.7 98.4004 191.7 98.4004 190.5 98.0004L189.5 97.6004V79.1004H190.2C190.6 78.9004 191.1 78.8004 191.3 78.8004C191.5 78.8004 192.1 79.3004 192.7 80.0004M195.8 79.7004C196.2 80.2004 196.5 80.4004 196.5 80.3004C196.5 80.2004 197.1 80.6004 197.8 81.3004C199.3 82.8004 200.6 83.3004 206 84.1004C210.7 84.8004 210.1 85.0004 205.2 84.4004C199.8 83.7004 199.3 83.5004 196.4 81.1004C193 78.4004 192.9 78.3004 194.1 78.6004C194.6 78.7004 195.4 79.2004 195.8 79.7004ZM243.2 79.4004C243.6 79.9004 244 80.3004 244.2 80.3004C244.4 80.3004 244.8 80.7004 245.3 81.2004C245.8 81.7004 246.1 82.0004 246.1 81.9004C246.1 81.8004 246.4 81.9004 246.7 82.4004C247 82.8004 247.4 83.1004 247.6 83.1004C247.8 83.1004 248.1 83.3004 248.3 83.6004C248.9 84.4004 250.5 85.1004 252.1 85.3004L253.6 85.5004V88.5004C253.8 91.7004 253.8 91.6004 251.8 91.9004C249.9 92.1004 248.6 93.0004 243.9 97.1004C240.6 100 240.3 99.3004 240.3 88.5004V79.4004L241 79.1004C242.1 78.6004 242.4 78.7004 243.2 79.7004M245.5 78.7004C246 78.9004 247.2 79.8004 249.6 81.9004C250.6 82.7004 252.7 83.5004 254.8 83.7004C257.8 84.1004 260.4 84.5004 260.5 84.7004C261.1 85.3004 251 83.7004 250.3 83.1004C250 82.8004 249.6 82.6004 249.4 82.6004C249.2 82.6004 248.9 82.4004 248.8 82.1004C248.7 81.8004 248.5 81.6004 248.3 81.6004C248 81.6004 246.2 80.2004 244.4 78.7004C244 78.4004 244.8 78.4004 245.5 78.7004ZM185.9 81.1004V83.4004H164.7V81.1004L164.5 78.8004H186V81.1004M159.8 79.4004C159.9 79.6004 160.2 79.6004 160.5 79.5004C160.9 79.3004 161 80.5004 160.9 88.7004V98.1004L160 98.4004C159.1 98.7004 157.3 97.5004 154.3 94.8004C153.7 94.2004 152.6 93.5004 151.7 93.0004C150.5 92.4004 149.7 92.2004 147.6 91.9004C147.6 91.9004 147.6 90.6004 147.6 88.9004V85.9004L149 85.7004C150.6 85.5004 152.7 84.7004 152.7 84.4004C152.7 84.1004 152.8 84.1004 153 84.1004C153.4 84.1004 154.1 83.5004 155.6 82.0004C156.1 81.5004 156.6 81.2004 156.6 81.3004C156.6 81.4004 157.1 81.0004 157.8 80.3004C159 79.0004 159.6 78.7004 160 79.3004M71.6 80.8004C71.6 81.5004 71.8 82.8004 72 83.5004C72.4 84.8004 72.3 86.4004 71.7 90.4004C71.2 93.9004 71 92.6004 71 86.1004C71 79.6004 71.4 77.0004 71.5 80.8004M156.2 79.9004C156.2 80.2004 151.9 83.4004 150.7 83.9004C149.4 84.5004 141.3 85.8004 140.9 85.4004C140.8 85.3004 143.5 84.8004 146.9 84.3004C149.8 83.9004 151.7 83.0004 153.2 81.4004C153.6 81.0004 153.9 80.7004 154 80.8004C154.1 80.9004 154.4 80.7004 154.7 80.3004C155.2 79.8004 156.1 79.4004 156.1 79.8004M188.5 88.7004C188.5 93.6004 188.4 97.7004 188.3 97.7004C188.2 97.7004 188.1 93.7004 188.1 88.7004C188.1 83.8004 188.3 79.7004 188.3 79.7004C188.3 79.7004 188.4 83.7004 188.4 88.7004M126.8 81.0004C126.7 81.4004 126.6 81.9004 126.5 82.0004C126.3 82.4004 113.3 82.3004 113.3 81.8004C113.3 81.6004 113.3 81.1004 113.1 80.8004C112.9 80.2004 113.1 80.2004 120 80.2004H127L126.8 81.0004ZM216.7 80.9004C216.7 81.3004 216.5 81.7004 216.4 81.7004C216.3 81.7004 216.3 81.3004 216.3 80.9004C216.3 80.5004 216.4 80.1004 216.6 80.1004C216.8 80.1004 216.8 80.5004 216.7 80.9004ZM78.1 86.6004C78.1 91.2004 78.1 91.7004 77.6 91.2004C76.7 90.0004 77 81.4004 78 81.4004C79 81.4004 78 83.7004 78 86.6004M219.8 83.6004C220.5 83.8004 221.2 83.9004 221.5 83.9004C222.8 83.9004 223.4 85.4004 223.4 88.7004C223.4 92.0004 223.3 92.4004 220.4 93.0004C219.7 93.1004 218.8 93.6004 218.4 94.0004C217.2 95.2004 217 94.7004 216.9 88.4004C216.9 82.4004 217 81.6004 218.2 82.8004C218.4 83.0004 219.1 83.3004 219.8 83.5004M269.9 83.3004C270.6 83.7004 271.6 83.9004 272 83.9004C273.8 83.9004 274.2 84.8004 274.2 88.5004C274.2 92.2004 274.2 92.3004 272 92.9004C269.8 93.5004 268.8 94.0004 268.8 94.5004C268.8 94.8004 268.8 94.9004 268.6 94.5004C268.6 94.3004 268.3 94.2004 268.2 94.3004C267.9 94.5004 267.8 83.2004 268.1 82.8004C268.4 82.5004 268.6 82.5004 270 83.2004M133.7 88.8004C133.7 95.2004 133.5 96.0004 132 94.4004C131.5 93.8004 130.8 93.4004 130.3 93.4004C127.5 93.4004 127 92.6004 127 89.0004C127 85.4004 127.6 84.8004 129.9 84.4004C130.7 84.3004 131.6 83.9004 132.1 83.6004C133.6 82.4004 133.7 82.8004 133.8 88.8004M119 94.6004V106H112.8L113 98.1004C113.1 93.7004 113.2 88.6004 113.2 86.7004V83.3004H119V94.7004M126.2 84.5004C125.5 87.8004 126.2 97.0004 127.2 98.5004C127.6 99.1004 128.9 99.9004 131.2 100.8C131.8 101.1 130.6 101.1 126.2 101.2H120.4V92.7004C120.3 82.2004 119.9 83.3004 123.6 83.3004H126.6L126.4 84.5004M162.1 86.4004C162.1 86.7004 162 86.4004 162 85.8004C162 85.2004 162 84.9004 162.1 85.2004C162.1 85.5004 162.1 86.0004 162.1 86.3004M186.3 85.4004L187.5 85.6004V101.4H163V85.7004L163.8 85.5004C164.9 85.2004 184.7 85.2004 186.3 85.5004M215.5 89.9004C215.4 90.9004 215.2 91.2004 214.8 91.1004C214.1 90.8004 214.1 86.0004 214.8 85.6004C215.4 85.2004 215.7 87.4004 215.4 89.9004M207.5 86.0004L210.2 86.2004V88.2004C210.2 90.5004 210.2 90.4004 207.2 90.7004C206.1 90.8004 205 91.0004 204.7 91.1004C204.2 91.2004 204.1 90.9004 204.1 88.4004C204.1 86.3004 204.1 85.5004 204.4 85.6004C204.6 85.6004 206 85.8004 207.5 86.0004ZM261.1 88.3004C261.1 90.6004 261.2 90.5004 257.7 90.9004C256.5 91.0004 255.4 91.2004 255.2 91.3004C255.1 91.3004 255 90.2004 255 88.6004V85.8004L261 86.4004V88.4004M266.6 88.2004C266.6 89.8004 266.5 90.9004 266.3 90.9004C265.9 90.9004 265.8 86.0004 266.2 85.7004C266.6 85.3004 266.6 85.5004 266.6 88.2004ZM135.7 89.1004C135.7 90.6004 135.6 91.6004 135.4 91.6004C135.2 91.6004 135.1 90.5004 135.1 88.9004C135.1 87.3004 135.2 86.2004 135.4 86.4004C135.6 86.5004 135.7 87.7004 135.7 89.1004ZM146.2 88.9004V91.7004L143.9 91.5004C140.3 91.2004 140.5 91.3004 140.5 89.0004V87.0004L143.1 86.7004C144.6 86.5004 145.8 86.4004 146 86.3004C146.1 86.3004 146.2 87.5004 146.2 89.0004M164 86.6004C163.4 86.9004 163.3 98.3004 164 98.9004C164.6 99.5004 185.9 99.4004 186.5 98.9004C187.1 98.3004 187.2 87.5004 186.5 86.8004C186.2 86.5004 185.4 86.4004 182.6 86.7004C180.6 86.9004 176 86.9004 171.8 86.7004C167.8 86.5004 164.3 86.5004 164.1 86.7004M46.1 88.9004C47 91.7004 46.8 92.6004 45.2 93.0004C44.8 93.0004 44.2 93.2004 43.8 93.3004C43.4 93.4004 42.7 93.6004 42.2 93.7004L41.3 93.9004V91.8004C41.3 89.5004 41.1 89.7004 43.7 89.2004C44.3 89.1004 44.5 88.8004 44.7 87.7004C45 86.1004 45.2 86.3004 46.1 88.9004ZM185.8 92.9004V98.5004H182.8C181.1 98.5004 176.3 98.5004 172.2 98.5004H164.6V93.0004C164.6 90.0004 164.6 87.5004 164.8 87.4004C164.9 87.3004 169.7 87.2004 175.4 87.3004H185.8V93.0004M209.3 92.0004C209.2 92.1004 205.9 92.7004 203.7 93.0004C200.6 93.4004 199.5 94.0004 197 96.2004C195.9 97.2004 194.9 98.0004 194.7 98.0004C194.1 98.0004 194.4 97.3004 195.1 96.9004C195.4 96.7004 195.9 96.3004 196.1 96.0004C196.3 95.7004 197.3 95.0004 198.2 94.3004C199.9 93.1004 200.1 93.1004 206.8 92.0004C208 91.8004 209.5 91.8004 209.3 92.0004ZM260.4 92.1004C260.4 92.1004 258.7 92.5004 256.7 92.7004C252.3 93.3004 250.8 93.7004 250.5 94.2004C250.4 94.4004 250.1 94.6004 250 94.6004C249.9 94.6004 249.4 95.0004 248.9 95.4004C246.6 97.6004 243.5 99.3004 245.3 97.4004C245.6 97.1004 245.9 96.9004 246 96.9004C246 96.9004 246.6 96.5004 247.2 95.9004C249.4 93.7004 250.4 93.2004 254.5 92.6004C258.3 92.0004 260.6 91.8004 260.3 92.1004M144.6 92.9004C145.7 93.1004 147.4 93.3004 148.2 93.4004C149.7 93.6004 152.2 94.8004 153.2 95.8004C153.5 96.1004 154.3 96.8004 154.9 97.3004C155.6 97.9004 156.1 98.4004 155.9 98.5004C155.6 98.8004 154.5 98.0004 153.4 96.9004C153 96.4004 152.4 96.1004 152.2 96.1004C152 96.1004 151.6 95.8004 151.4 95.5004C150.8 94.7004 149.8 94.2004 148.5 94.0004C145.7 93.6004 143.2 93.1004 142 92.9004C140.2 92.5004 141.8 92.5004 144.4 92.9004M222.7 95.1004C222.4 96.9004 222.1 97.5004 220.8 98.1004C219.4 98.8004 219.3 98.7004 219.3 96.5004V94.4004L220.5 94.2004C221.4 94.0004 222.7 93.7004 223 93.4004C223 93.4004 223 94.1004 222.8 95.0004M78.1 103.2V112.5L66.6 112.3C60.3 112.2 54.9 112 54.6 111.9C53.6 111.5 54.1 111.1 55.8 111.1C57.5 111.1 57.6 111.2 57.6 111.4C57.6 111.6 58.3 111.7 59.2 111.7C60.1 111.7 60.7 111.6 60.6 111.4C60.5 111.2 60.6 111.1 60.6 111.1C64 111.7 66.5 110.3 66.5 107.8C66.5 105.3 65.5 102.3 63.7 101.8C63.1 101.6 64.2 101.5 67.2 101.5C71 101.5 71.6 101.4 72.3 100.9C73.4 99.9004 73 97.7004 71.6 97.7004C70.2 97.7004 71 97.5004 71 97.3004C71 97.1004 71.7 97.0004 73.2 97.1004C74.5 97.1004 75.4 97.1004 75.4 96.9004C75.4 96.7004 75.4 96.7004 75.6 96.8004C75.9 97.1004 76.6 96.2004 76.9 95.2004C77.1 94.4004 77.5 93.8004 77.9 93.8004C77.9 93.8004 77.9 98.0004 77.9 103.1M266.3 95.4004C266.4 96.3004 266.3 96.3004 265.5 96.3004C264.7 96.3004 264.4 95.9004 265 94.6004C265.5 93.6004 266.1 93.9004 266.3 95.3004M273.6 95.1004V96.4004H272C270.4 96.4004 270.4 96.4004 270.4 95.4004C270.4 94.4004 270.5 94.3004 272.6 94.0004C273 94.0004 273.4 93.9004 273.5 93.8004C273.5 93.8004 273.5 94.3004 273.5 95.0004M215 94.6004C215.2 94.8004 215.3 95.1004 215.2 95.2004C215.1 95.3004 215.2 95.6004 215.2 95.8004C215.3 96.0004 215.5 96.9004 215.5 97.7004V99.2004L214.8 98.6004C213.6 97.7004 213.3 96.8004 213.7 95.3004C214.1 94.0004 214.4 93.8004 214.9 94.5004M130.6 95.0004C131.1 95.1004 131.2 95.5004 131.2 97.2004C131.2 98.9004 131.2 99.5004 129.6 98.6004C128.3 97.9004 128.2 97.7004 127.8 95.7004L127.6 94.5004L128.8 94.7004C129.5 94.8004 130.3 95.0004 130.6 95.1004M136.8 96.6004C137 97.9004 136.9 98.1004 135.2 99.5004C134.4 100.1 134.4 100.1 134.8 97.5004C135.3 94.1004 136.3 93.6004 136.7 96.6004M79.6 103.2C79.6 104.8 79.5 103.6 79.5 100.4C79.5 97.2004 79.5 95.9004 79.6 97.4004C79.6 98.9004 79.6 101.5 79.6 103.2ZM267.8 96.3004C267.8 96.5004 267.7 96.6004 267.5 96.5004C267.3 96.4004 267.2 96.0004 267.2 95.6004C267.2 94.8004 267.8 95.5004 267.8 96.3004ZM51.4 96.3004C51.8 96.6004 52.2 96.7004 52.2 96.5004C52.2 96.3004 52.4 96.5004 52.6 96.7004C52.8 97.0004 53.2 97.3004 53.5 97.4004C53.8 97.5004 51.8 97.6004 49.2 97.6004C46.6 97.6004 44.5 97.6004 44.6 97.5004C44.7 97.4004 48.2 96.5004 49.5 96.2004C49.8 96.2004 50.2 96.0004 50.3 95.9004C50.5 95.7004 50.6 95.7004 51.5 96.2004M217 96.6004C217 97.3004 217 97.4004 216.7 97.0004C216.3 96.4004 216.3 95.7004 216.7 95.7004C217.1 95.7004 217 96.1004 217 96.6004ZM69.8 97.4004C69.8 97.6004 68.9 97.7004 67.9 97.7004C66.9 97.7004 66 97.6004 66 97.4004C66 97.2004 66.9 97.1004 67.9 97.1004C68.9 97.1004 69.8 97.2004 69.8 97.4004ZM47.9 98.6004H53.4V99.5004C53.4 101.2 53.7 101.3 57.2 101.4C59.2 101.4 60.6 101.6 60.9 101.8C61.2 102 62.1 102.4 63 102.7C64.8 103.2 64.9 103.4 65.5 106.3C66.3 110.3 65.5 110.7 56.6 110.5C49.2 110.3 48.3 110.2 45.5 109.5C45.5 109.5 44.5 109.2 43.6 108.9C42.6 108.6 41.7 108.4 41.6 108.4C41.2 108.4 38.1 106.8 37.1 106C36.1 105.3 33.7 101.9 33.7 101.2C33.7 100.5 34.4 100.1 36.1 99.7004C37 99.5004 38.2 99.2004 38.9 98.9004C39.6 98.7004 40.7 98.5004 41.3 98.6004C41.9 98.6004 44.9 98.7004 48 98.7004M162.2 99.8004V101.3H149.1C141.9 101.3 135.9 101.1 135.8 101C135.2 100.4 137.1 100.3 147.8 100.1C159.7 99.9004 161.9 99.7004 161.9 98.6004C161.9 97.5004 161.9 98.2004 162.1 98.2004C162.3 98.2004 162.3 98.9004 162.3 99.7004M188.8 98.6004C188.8 99.4004 191.9 99.7004 202.9 99.9004C209.7 99.9004 214.3 100.2 214.5 100.4C215.2 101.5 221.8 100.1 222.6 98.7004C222.9 98.3004 239.5 98.3004 239.9 98.7004C240.7 99.5004 244.3 99.9004 250.8 99.9004C253.8 99.9004 256.3 100 256.3 100.2C256.3 101.2 256 101.2 221.9 101.3H188L188.1 99.9004C188.1 98.7004 188.8 97.6004 188.8 98.6004ZM263.6 98.5004C263.3 98.5004 262.7 98.5004 262.3 98.5004C261.9 98.5004 262.2 98.4004 262.9 98.4004C263.6 98.4004 263.9 98.4004 263.6 98.5004ZM266.9 98.8004C266.9 99.2004 266.9 99.3004 266.3 98.8004C266 98.6004 265.7 98.3004 265.6 98.3004C265.6 98.3004 265.8 98.3004 266.2 98.3004C266.6 98.3004 266.9 98.5004 266.9 98.8004ZM296.7 99.2004C300 101.3 300.8 101.2 278.4 101.2C256 101.2 258.2 101.2 258.6 100.6C259 99.8004 264.7 99.7004 265.8 100.5C266.9 101.4 271.4 100.5 273.1 99.0004C274.4 97.9004 295 98.2004 296.8 99.3004M312.6 101.2H301L299.2 98.4004H312.6V101.2ZM55.4 99.0004C55.4 99.2004 55.6 99.3004 55.8 99.3004C57.1 99.3004 57.4 100.3 56.1 100.3C54.8 100.3 54.8 100.3 54.8 99.5004C54.8 98.7004 54.9 98.7004 55.1 98.7004C55.3 98.7004 55.4 98.8004 55.4 99.0004ZM71.5 99.4004C71.5 100.3 60.4 100.6 58.7 99.7004C56.4 98.6004 57 98.5004 64.4 98.6004C71.3 98.7004 71.6 98.7004 71.6 99.3004M28.3 100.5C20.9 102.2 20.5 102.4 20.5 104C20.5 105.6 21.2 106 25.8 107.4C31.3 109 32.1 109 33.1 107C33.8 105.7 33.5 104.6 32.2 102.6C30.7 100.3 30.2 100.1 28.2 100.5M31.4 103.3C32.6 105.2 32.6 105.3 32.1 106.3C31.3 107.9 31.2 107.9 26.3 106.4C25.4 106.1 24.1 105.7 23.3 105.5C19.9 104.6 20.7 103.2 25.4 102C28.4 101.267 30.4 101.667 31.4 103.2M149.6 102.7C148.9 103.4 148.9 105.3 149.6 105.7C150 105.9 145.5 106 135.2 106H120.2V102.2H135.1C148.6 102.2 150 102.2 149.5 102.7M196.2 102.5C195.2 102.9 195.2 104.8 196.2 105.5C196.8 106 194.8 106 173.9 106C152.6 106 150.9 106 151.9 105.5C153.1 104.9 153.3 103.8 152.4 102.8C151.9 102.2 152.6 102.2 174.4 102.2C188.2 102.2 196.6 102.3 196.2 102.5ZM237.2 102.4C236.4 102.9 236.1 104.4 236.6 105.2L237.1 106H198L198.6 105.4C199.4 104.6 199.4 103.9 198.7 102.9L198.2 102.2H217.8C228.6 102.2 237.2 102.3 237 102.5M255.4 104.1V106H247.3C241 106 239.3 106 239.6 105.6C240.3 104.9 240.1 103.2 239.3 102.6C238.6 102.1 239.3 102.1 247 102.1H255.4V104M279.1 102.5C277.7 103 277.4 104.3 278.4 105.3L279.1 106H257.3V104.8C257.3 104.1 257.3 103.3 257.5 102.9L257.7 102.2H268.8C275.5 102.2 279.6 102.4 279.2 102.5M299.5 104.2V106H290.3C281.3 106 281 106 281.5 105.4C282.2 104.6 282.2 103.8 281.2 102.9L280.4 102.1H289.9L299.4 102.3V104.1M312.6 106H301.4V102.2H312.6V106ZM151.8 103.6C152.1 103.9 152.2 104.1 152 104.1C151.8 104.1 151.7 104.2 151.8 104.4C152 104.7 151.1 105 150.5 104.8C150.3 104.8 150.1 104.4 150.1 104.1C150.1 103 150.8 102.8 151.8 103.6ZM198.3 104C198.3 104.8 197.7 105.1 197 104.9C196.5 104.7 196.3 103.8 196.7 103.4C197.1 103 198.2 103.4 198.3 104.1M238.5 103.3C239.2 103.6 239.2 104.7 238.5 104.9C237.8 105.2 237.3 104.6 237.6 103.8C237.733 103.334 238.033 103.167 238.5 103.3ZM280.6 103.6C281.1 104.2 280.8 105 280 105C279.2 105 278.6 104 279.1 103.4C279.6 102.9 280.1 102.9 280.6 103.5M337.6 105.8C337.6 108.1 337.7 107.9 334.9 108.4C333.3 108.7 332.1 108.9 331.2 109C329 109.4 326.7 109.8 325.1 110C324.1 110.1 323.1 110.3 322.8 110.5C322.5 110.7 322 110.7 321.8 110.5C321.5 110.4 321.1 110.5 320.9 110.5C320.7 110.6 320.2 110.8 319.8 110.8C319.4 110.8 318.9 110.9 318.7 111C317.1 111.6 311.5 112.2 306.7 112.2H301.4V107.6H307.7C313.9 107.6 314.2 107.6 324.7 105.8C330.6 104.8 335.8 103.9 336.2 103.8C336.6 103.8 337.1 103.6 337.2 103.6C337.3 103.6 337.4 104.5 337.4 105.6M107.4 105.2C108.5 106.3 108.5 106.3 108.5 109.4V112.5H83.1L83.3 109.5C83.6 104.1 83.3 104.2 96.1 104.2H106.3L107.4 105.3M80.3 109.7C80.3 111.9 80.3 112.4 79.8 112.4C79.3 112.4 79.3 111.9 79.3 109.7C79.3 107.5 79.3 107 79.8 107C80.3 107 80.3 107.5 80.3 109.7ZM137 108.6C135.8 109.5 135.7 109.7 135.7 111V112.4H122.9V111C122.9 110 122.7 109.4 122.1 108.8L121.3 107.9H129.4C133.8 107.8 137.7 107.7 137.9 107.6C138.1 107.5 137.8 108 137 108.5M151.3 108.2C151.3 108.5 151.9 109 152.4 109.3C153.2 109.8 153.3 110.1 153.3 111.1V112.4H137.3V111.1C137.3 110 137.5 109.7 138.5 108.9L139.7 107.9H145.1C148.1 107.8 150.6 107.7 150.8 107.6C150.9 107.6 151.1 107.8 151.2 108.1M168.6 108.3C167.4 109 167.1 109.6 167.1 111.4V112.4H154.6V111C154.6 110 154.4 109.4 153.9 108.8L153.2 108L161 107.8C165.3 107.8 169 107.6 169.3 107.6C169.6 107.6 169.3 107.8 168.6 108.2M209.6 108.2C208.6 108.8 208.5 108.9 208.4 110.6V112.4H195.5V110.8C195.5 109.5 195.4 109.1 194.7 108.6L193.9 107.9H201.5C205.7 107.8 209.5 107.7 209.9 107.6C210.6 107.6 210.6 107.6 209.6 108.1M248.3 107.9H255.3V112.4H242.2V110.9C242.2 109.3 241.9 108.7 240.8 108C240.3 107.7 240.3 107.6 240.8 107.8C241.1 107.9 244.5 108 248.4 108M291.2 107.9H299.5V112.4H257.3V107.9H268.7C275 107.7 280.8 107.7 281.5 107.8C282.3 107.8 286.6 107.8 291.2 107.8M119.4 108.2C119.4 108.4 119.6 108.5 119.8 108.5C120.7 108.5 121.7 109.9 121.7 111.1V112.3H112.7V107.8H116.1C118.1 107.8 119.5 107.9 119.5 108.1M193 108.9C194.1 109.8 194.3 110.1 194.3 111.1V112.3H168.7V110.9C168.7 109.7 168.9 109.4 169.9 108.7L171.1 107.8H191.7L193 108.8M225.3 109C225.7 112.5 225.9 112.4 216.4 112.4H209.6V111C209.6 108.3 210.7 108 218.6 107.9H225.2L225.3 108.9M239.9 108.9C240.7 109.7 241 110.2 241 111.1V112.3H227.9V107.8H238.9L240 108.8M82.7 116.5C82.8 117.7 82.8 119.1 82.7 119.6C82.7 120.1 82.7 121.1 82.8 121.9C83 122.8 83 123.3 82.8 123.6C82.3 124.1 82.8 126.6 83.7 127.6L84.5 128.5H95.3C101.3 128.5 106.4 128.5 106.8 128.5C107.8 128.5 108.8 128.1 109 127.5C109 127.2 109 127.7 109 128.6C109 129.6 108.6 130.4 108.2 130.9L107.5 131.6H85.2L84.4 130.8C83.8 130.2 83.6 129.7 83.6 128.7C83.6 127.1 83 127 82.9 128.7C82.9 130.5 82.9 130.8 83.8 131.7L84.6 132.5H96.1L107.6 132.7L109.8 131.1V114.5H110.5C112.3 114.5 112.4 114.8 112.4 123.7C112.4 134.8 114.3 133.6 96.1 133.6H82L81 132.6L80.1 131.6V123.3C80.3 114.4 80.3 114.4 81.9 114.3C82.5 114.3 82.6 114.5 82.8 116.5M108.8 116.4C108.8 119.9 109.2 119.8 96.5 119.8C83.8 119.8 83.6 119.8 83.6 115.9V114.3H108.9V116.4M227.3 115.2C227.1 115.7 226.7 116.8 226.5 117.7C226.3 118.6 225.9 120.6 225.5 122.1C225.1 123.7 224.8 125.3 224.7 125.8C224.7 126.2 224.3 128 223.9 129.8C223.5 131.5 223.3 133 223.3 133.1C223.3 133.2 199.3 133.2 169.9 133.1C140.5 133.1 116.5 132.9 116.5 132.8C116.5 131.5 114.5 115.5 114.3 115L114 114.3H227.9L227.4 115.2M96.3 120.5C103.7 120.5 108 120.5 108.4 120.2C109 119.9 109 120 108.9 121.1C108.6 123.7 108.9 123.7 96.4 123.7H85.3L84.5 122.9C83.4 121.8 83.2 119.7 84.3 120.2C84.7 120.4 88.9 120.6 96.4 120.6M108.9 124.8C108.6 127.6 108.1 127.8 101.7 127.8C91.4 127.8 85.4 127.8 84.9 127.4C83.6 126.3 83 123.2 84.3 124.1C85.5 124.9 107.7 124.8 108.5 124C108.8 123.7 109.1 123.4 109.1 123.4C109.1 123.4 109.1 124 109 124.9" fill="white"/>
</svg>
