<svg width="195" height="173" viewBox="0 0 195 173" fill="none" xmlns="http://www.w3.org/2000/svg">
<path fill-rule="evenodd" clip-rule="evenodd" d="M106.5 0.519447C105.31 1.09945 105.36 1.62945 106.6 1.62945C107.59 1.62945 107.6 1.66945 107.6 4.99945C107.6 8.51945 107.84 9.77945 108.44 9.40945C108.64 9.28945 108.8 7.12945 108.8 4.60945C108.8 -0.360549 108.7 -0.540553 106.5 0.519447ZM114.66 1.52945C114.15 4.60945 114.24 4.82945 116 4.82945C118.45 4.82945 119.88 6.48945 118.57 7.79945C117.77 8.59945 116.63 8.59945 115.42 7.79945C114.17 6.97945 113.7 7.71945 114.78 8.80945C116.67 10.6894 120 9.33945 120 6.68945C120 5.05945 119.12 4.18945 117.08 3.80945C114.58 3.34945 115.05 1.46945 117.7 1.29945C120.69 1.10945 120.3 0.0194468 117.25 0.0194468H114.9L114.65 1.51945M121.85 0.92945C121.14 3.58945 121.51 4.82945 123.02 4.82945C124.92 4.82945 125.99 5.45945 125.99 6.55945C125.99 8.34945 124.19 8.99945 122.5 7.81945C121.26 6.94945 120.77 7.91945 121.97 8.88945C124.06 10.5794 127.19 9.15945 127.19 6.51945C127.19 5.07945 126.15 4.15945 124.08 3.77945C121.86 3.35945 122.36 1.49945 124.76 1.22945C127.55 0.909454 127.34 0.029449 124.47 0.029449C122.33 0.029449 122.06 0.11945 121.84 0.92945M128.8 6.31945C128.8 10.4295 129.72 10.9395 129.92 6.93945C130.15 2.21945 133.2 2.33945 133.2 7.05945C133.2 10.5094 134.14 10.4794 134.32 7.01945C134.57 2.14945 137.6 2.37945 137.6 7.26945C137.6 9.62945 138.11 10.3995 138.61 8.79945C138.98 7.64945 138.46 3.78945 137.87 3.31945C137.61 3.10945 135.46 2.93945 133.09 2.93945H128.79V6.32945M111.49 8.29945C111.38 8.47945 111.16 9.23945 111 9.97945C110.64 11.6595 111.55 11.5695 112.12 9.86945C112.47 8.80945 111.96 7.50945 111.49 8.29945ZM54.59 14.0495C53.87 14.8395 53.88 14.8894 54.75 15.7494C55.58 16.5694 55.67 16.5895 56.04 15.9395C56.65 14.8695 182.94 14.8494 183.54 15.9194C183.96 16.6794 185.2 16.0295 185.2 15.0495C185.2 14.1395 183.74 13.0994 183.46 13.8194C183.1 14.7494 56 14.7594 56 13.8394C56 13.0094 55.46 13.0895 54.59 14.0495ZM113.6 24.0195C55.7201 29.4295 25.9 96.0194 60.59 142.369C99.91 194.909 183.09 174.039 193.45 109.029C200.89 62.3694 160.73 19.5994 113.6 24.0094M129.95 25.2395C191.08 34.3695 215.22 108.499 170.87 150.889C124.12 195.569 46.72 162.649 46.63 98.0294C46.58 59.6795 74.34 29.3695 113.8 24.6895C117.51 24.2495 125.08 24.5094 129.95 25.2294M33.77 30.4695C33.06 31.2595 33.05 31.3294 33.71 31.8094C34.86 32.6494 34.78 145.509 33.63 145.699C32.9 145.819 32.92 145.899 33.84 146.959L34.82 148.089L35.6 147.159C36.54 146.029 36.6 145.629 35.8 145.629C35.27 145.629 35.2 139.049 35.2 88.8295C35.2 38.6095 35.27 32.0294 35.8 32.0294C36.59 32.0294 36.54 31.6294 35.62 30.5294C35.0067 29.7961 34.3867 29.7761 33.76 30.4695M115 31.2695C51.21 36.7695 30.17 119.359 83.7 154.199C132.89 186.219 197.87 141.849 185.63 84.5894C178.55 51.4994 147.99 28.4195 115.01 31.2695M133.2 33.0195C179.8 43.3095 201.16 95.4294 174.96 134.919C173.54 137.059 171.49 139.759 170.41 140.919L168.44 143.039V138.779L168.41 134.519L170.29 133.579C172.96 132.239 173.46 130.989 174.05 124.189C174.57 118.089 174.13 110.739 173 106.929C170.81 99.4894 167.74 82.1995 167.46 75.6895C167.21 69.9495 166.85 68.8095 164.99 67.9595C164.03 67.5195 164.01 67.4294 164.01 62.4794C164.01 54.2094 163.64 53.9095 153.21 53.7195C141.55 53.5095 141.01 53.8894 141.01 62.2294V67.5495L139.94 68.1595C137.96 69.2995 137.73 70.1595 137.02 79.0195C136.36 87.3295 135.19 95.7894 134.43 97.7894C129.04 111.969 129.4 131.469 135.11 133.899L136.41 134.449V156.439H104.01V152.289C104.01 149.059 103.87 148.029 103.4 147.629C102.89 147.209 102.81 146.079 102.9 140.899L103.01 134.679L104.83 133.739C107.48 132.379 107.95 131.279 108.66 124.939C109.34 118.879 108.98 111.939 107.75 107.349C105 97.0595 102.51 83.0494 102.18 76.0294L101.91 70.2294L98.41 66.8495V61.8694C98.41 54.1694 97.67 53.6395 87.01 53.6395C76.35 53.6395 75.87 53.9494 75.68 62.0394L75.55 67.5894L74.2 68.3795C72.44 69.4195 71.94 71.2695 72.09 76.3295L72.2101 80.2294L72.5201 75.8295C72.9901 69.2095 74.39 67.3495 77.37 69.3795C78.91 70.4295 78.94 70.4294 86.89 70.4294C94.84 70.4294 95.7401 70.3195 97.4901 68.7195C98.3201 67.9595 98.4301 67.9495 99.3801 68.5695C101 69.6295 101.21 70.4695 101.6 77.3195C101.8 80.8995 102.25 85.1395 102.6 86.7495C103.31 90.0295 103.27 90.1795 101.48 91.0795C100.78 91.4295 99.66 92.2295 99.01 92.8495C97.87 93.9195 97.71 93.9595 95.81 93.5795C92.69 92.9595 82.6601 93.0694 79.2101 93.7594L76.2101 94.3595L75.26 93.1694C74.74 92.5094 73.6201 91.5394 72.7701 91.0094C71.9201 90.4794 71.3 89.8094 71.39 89.5394C71.79 88.2594 72.01 84.0394 71.68 84.0394C71.48 84.0394 71.18 85.3395 71.03 86.9395C70.74 89.9295 69.64 95.2595 67.87 102.239C65.67 110.919 64.4 121.509 65.16 124.839C65.38 125.829 65.76 127.519 65.98 128.589C66.56 131.319 67.77 133.079 69.62 133.899L71.2 134.599V138.319C71.2 142.599 71.04 142.719 68.89 140.139C35.82 100.489 59.66 39.9894 111.4 32.2894C114.4 31.8394 130.28 32.3794 133.2 33.0294M95.3801 54.8195C97.5001 55.6295 98.05 57.3094 97.92 62.5594L97.8 67.2894L95.18 69.6295H78.73L77.56 68.4595C75.33 66.2295 75.88 56.3695 78.3 55.0495C79.59 54.3495 93.63 54.1595 95.36 54.8195M163.2 57.1494V61.8094C163.2 67.0161 159.6 69.6228 152.4 69.6295C145.2 69.6361 141.6 67.0294 141.6 61.8094V57.1494L144.32 54.4294H160.48L163.2 57.1494ZM165.91 69.8094C166.56 70.6394 166.73 71.7395 166.97 76.9095C167.13 80.2695 167.51 84.3794 167.83 86.0294C168.57 89.9394 168.55 90.3295 167.59 90.6295C167.14 90.7695 165.99 91.5694 165.03 92.3994C163.3 93.8994 163.25 93.9095 161.14 93.5495C157.91 92.9895 148.2 93.0994 144.8 93.7294L141.8 94.2894L139.98 92.6595C138.98 91.7595 137.83 90.8494 137.43 90.6194C136.74 90.2294 136.73 89.9194 137.33 83.4194C137.67 79.6894 138.07 75.2095 138.21 73.4695C138.59 68.8895 140.18 67.3995 142.63 69.3295C143.72 70.1895 144.16 70.2395 152.2 70.3495L160.63 70.4695L162.16 69.2594C163.84 67.9194 164.5 68.0194 165.91 69.8094ZM0.500042 79.4995C-0.279958 79.8195 -0.0799549 80.4294 0.800045 80.4294C1.53005 80.4294 1.60004 80.6995 1.60004 83.4095C1.60004 85.0495 1.78004 86.4995 2.00004 86.6295C2.26004 86.7895 2.40004 85.4995 2.40004 83.0495C2.40004 79.0595 2.25004 78.7795 0.500042 79.4895M7.47004 79.4995C7.32004 79.6495 7.20004 80.5495 7.20004 81.4995V83.2294H8.81004C10.56 83.2294 11.26 84.0194 10.51 85.1794C10.08 85.8494 9.10004 85.9495 7.90004 85.4395C7.40004 85.2295 7.20004 85.3294 7.20004 85.7794C7.20004 86.1294 7.65004 86.5294 8.20004 86.6694C11.83 87.5794 13.56 83.4595 10 82.3895C7.79004 81.7295 7.64004 80.0394 9.78004 80.0394C10.54 80.0394 11.27 79.8595 11.4 79.6395C11.68 79.1895 7.91004 79.0594 7.47004 79.5094M13.2 84.1095C13.2 87.2795 13.9 87.8095 14.08 84.7695C14.31 80.8795 16.8 81.2595 16.8 85.1895C16.8 87.4795 17.5 86.9095 17.68 84.4695C17.93 80.8995 20.4 81.4795 20.4 85.1095C20.4 86.0595 20.58 86.8295 20.8 86.8295C21.02 86.8295 21.2 85.8695 21.2 84.6895C21.2 81.6995 20.66 81.3095 16.5 81.3495L13.2 81.3795V84.0995M4.58004 86.1395C4.06004 87.5095 4.59004 88.7795 5.14004 87.4695C5.47004 86.6895 5.49005 86.1694 5.23005 85.8994C4.96005 85.6294 4.75004 85.7095 4.58004 86.1395ZM73.41 92.4895C75.08 93.9595 75.8301 95.2695 76.3801 97.7095C76.7601 99.4095 78.41 114.019 78.41 115.709C78.41 116.619 79.08 116.609 71.22 115.779C69.65 115.609 68.41 115.699 67.61 116.029C66.93 116.309 66.28 116.429 66.16 116.309C65.5 115.649 70.85 91.2294 71.65 91.2294C71.83 91.2294 72.63 91.7995 73.42 92.4895M104.36 95.5294C104.83 97.8994 105.66 101.719 106.2 104.029C108.4 113.329 108.74 116.639 107.48 116.229C105.58 115.609 103.32 115.559 99.91 116.039C95.34 116.699 95.3701 116.719 95.9601 111.959C96.2101 109.909 96.69 105.899 97.01 103.059C97.81 96.0694 98.16 94.9595 100.18 92.9395C102.92 90.1995 103.35 90.4594 104.35 95.5294M138.44 92.1395C141.2 93.9995 141.82 96.1494 143.02 108.029C143.98 117.599 144.44 116.859 138.16 115.949C135.65 115.589 134.51 115.589 133.36 115.939C132.53 116.199 131.76 116.309 131.65 116.199C131.23 115.779 132.48 107.989 133.77 103.019C134.51 100.159 135.43 96.3395 135.82 94.5195C136.61 90.8295 136.57 90.8695 138.45 92.1295M169.42 94.3295C169.8 96.0395 170.43 98.8695 170.84 100.629C172.41 107.419 173.13 111.129 173.4 113.789L173.68 116.549L172.74 116.219C171.5 115.789 167.27 115.779 163.9 116.209L161.2 116.549V114.999C161.2 114.149 161.57 110.019 162.02 105.849C163.1 95.8595 163.81 93.6895 166.55 92.0195C168.47 90.8495 168.68 91.0195 169.42 94.3495M93.62 94.0894L97.67 94.5495L97.42 95.5894C97.17 96.6194 95.99 105.639 95.19 112.619C94.68 117.059 95.15 116.819 87 116.819C78.85 116.819 79.37 117.129 78.81 112.229C78.56 110.029 78.1 105.929 77.78 103.119C77.46 100.309 77.09 97.2894 76.95 96.4194C76.76 95.2194 76.83 94.8195 77.25 94.7995C77.55 94.7795 79.33 94.5295 81.2 94.2495C85.64 93.5695 88.67 93.5395 93.62 94.0995M158.97 94.0894C160.96 94.3394 162.64 94.5794 162.7 94.6194C162.75 94.6594 162.54 96.4794 162.22 98.6694C161.9 100.849 161.34 105.609 160.98 109.239C160.15 117.559 160.96 116.839 152.37 116.839C143.78 116.839 144.78 118.459 143.39 104.839C143.04 101.429 142.57 97.9394 142.35 97.0894C141.81 95.0294 142.05 94.8495 146.27 94.2395C150.86 93.5695 154.5 93.5294 158.98 94.0894M80.6301 117.229C85.8801 117.579 89.1801 117.489 102.46 116.579C108.68 116.159 109.13 117.169 107.63 128.239C106.9 133.629 106.87 133.629 86.91 133.629C66.81 133.629 67.92 133.979 66.34 127.039C65.11 121.619 65.4801 117.829 67.3201 116.879C68.2101 116.419 68.9501 116.439 80.6301 117.219M145.86 117.219C150.07 117.509 153.86 117.509 158.26 117.219C161.75 116.989 166.13 116.699 168 116.569C173.74 116.189 174.12 116.879 173.18 126.069C172.37 133.939 173.2 133.639 152.37 133.639C131.54 133.639 133.19 134.009 131.61 126.789C130.65 122.409 130.6 120.499 131.36 118.669C132.4 116.179 131.71 116.249 145.86 117.219ZM73.6001 139.369C73.6001 144.519 73.43 145.289 72.55 144.129C71.58 142.859 71.8 134.439 72.8 134.439C73.56 134.439 73.6001 134.709 73.6001 139.369ZM99.6001 147.629H87.93C73.22 147.629 74.4 148.279 74.4 140.159V134.429H99.6001V147.629ZM102 141.059C102 147.159 101.94 147.679 101.3 147.549C100.13 147.329 100.02 134.429 101.19 134.429C101.97 134.429 102 134.669 102 141.059ZM138.8 141.059C138.8 147.159 138.74 147.679 138.1 147.549C136.93 147.329 136.82 134.429 137.99 134.429C138.77 134.429 138.8 134.669 138.8 141.059ZM165.2 140.369C165.2 148.399 166.58 147.669 151.76 147.539L139.8 147.429L139.69 141.449C139.63 138.159 139.67 135.229 139.78 134.949C139.94 134.539 142.64 134.429 152.59 134.429H165.2V140.369ZM167.52 139.139C167.63 143.439 167.3 145.229 166.39 145.229C166.16 145.229 166 143.019 166 139.799C166 134.839 166.06 134.379 166.7 134.499C167.31 134.619 167.42 135.219 167.51 139.129M103.2 152.829V157.229H137.17L137.39 148.629L162.53 148.409L161.59 149.409C157.86 153.389 146.29 159.369 137.65 161.799C117.82 167.379 93.07 162.349 78.98 149.869L77.3801 148.449L103.18 148.409V152.809" fill="white"/>
</svg>
