<svg width="386" height="84" viewBox="0 0 386 84" fill="none" xmlns="http://www.w3.org/2000/svg">
<path fill-rule="evenodd" clip-rule="evenodd" d="M139.829 3.99922C131.429 5.29922 121.029 8.59922 121.029 9.89922C121.029 11.1992 129.529 18.9992 130.129 18.9992C130.729 18.9992 131.429 18.5992 132.329 18.1992C135.229 16.6992 140.129 15.3992 144.729 14.7992C147.429 14.4992 147.529 14.1992 147.329 8.59921V3.69922C147.229 3.69922 145.229 3.69922 145.229 3.69922C144.129 3.69922 141.729 3.89922 139.829 4.19922M200.829 6.59921C200.529 7.09921 201.329 7.59922 201.829 7.19922C202.229 6.89922 202.029 6.19922 201.429 6.19922C200.829 6.19922 200.929 6.39921 200.829 6.59921ZM237.429 6.59921C237.429 6.89921 240.129 6.99922 244.829 6.99922C249.529 6.99922 252.129 6.89921 252.029 6.59921C251.929 6.39921 248.929 6.19922 244.629 6.19922C240.329 6.19922 237.429 6.29921 237.429 6.59921ZM287.629 6.59921C286.929 6.89921 286.929 6.89922 287.629 7.19922C288.029 7.39922 288.529 7.29922 288.729 7.19922C289.229 6.69922 288.629 6.39922 287.629 6.69922M296.129 6.49922C296.129 6.69922 296.129 7.19921 296.229 7.59921C296.429 7.99921 296.529 8.19922 296.629 7.89922C296.629 7.19922 298.129 6.89922 299.029 7.29922C299.729 7.69922 300.329 7.29922 300.329 6.29922C300.329 5.29922 296.429 6.09922 296.229 6.39922M303.029 6.69922C303.029 7.59922 303.729 8.89921 303.729 8.09921C303.729 6.89921 307.429 6.39921 308.029 7.59921C308.329 8.19921 308.429 8.19921 308.929 7.59921C309.829 6.49921 320.329 6.69922 321.129 7.89922C321.629 8.59922 321.729 8.59921 321.729 8.09921C321.729 6.69921 325.529 6.49922 326.029 7.79922L326.329 8.69922L326.529 7.79922C326.629 7.29922 326.729 6.69922 326.529 6.49922C326.129 5.89922 302.729 6.09922 302.829 6.69922M280.129 12.3992C280.229 12.9992 280.329 13.3992 280.429 13.3992C280.529 13.3992 280.629 12.9992 280.729 12.3992C280.829 11.7992 280.729 11.3992 280.429 11.3992C280.129 11.3992 280.029 11.7992 280.129 12.3992ZM113.429 14.1992C105.729 19.5992 99.5286 28.0992 97.6286 35.8992C96.5286 40.4992 95.9286 40.1992 106.029 40.1992H114.629L114.929 38.6992C115.729 33.8992 119.729 27.4992 123.629 24.4992C127.529 21.4992 127.629 22.0992 122.229 16.6992C117.029 11.4992 117.329 11.5992 113.529 14.1992M326.329 29.9992C326.329 30.8992 326.329 31.1992 326.529 30.6992C326.529 30.1992 326.529 29.4992 326.529 29.0992C326.429 28.6992 326.329 29.0992 326.329 29.9992ZM97.3286 44.0992C96.8286 46.6992 99.1286 53.8992 102.029 58.3992C105.129 63.2992 115.429 72.4992 117.329 72.0992C117.929 71.9992 126.629 63.3992 126.629 62.9992C126.629 62.8992 125.329 61.5992 123.829 60.1992C119.429 56.1992 116.429 51.5992 115.429 47.2992C114.429 42.8992 115.429 43.2992 105.829 43.2992C96.2286 43.2992 97.4286 43.2992 97.3286 43.9992M280.129 58.4992C280.329 59.4992 280.329 59.4992 280.629 58.7992C281.129 57.5992 281.029 57.3992 280.429 57.3992C279.829 57.3992 279.929 57.6992 280.129 58.4992ZM125.529 69.1992C120.229 74.1992 120.329 73.6992 123.929 75.4992C129.529 78.1992 134.829 79.5992 142.029 80.1992C147.629 80.6992 147.429 80.8992 147.429 74.9992C147.429 69.3992 147.529 69.5992 143.829 68.9992C139.229 68.2992 135.929 67.3992 133.029 66.0992C131.629 65.4992 130.329 64.9992 130.229 64.9992C130.129 64.9992 127.929 66.8992 125.529 69.1992ZM201.829 74.9992C201.829 75.1992 202.129 75.3992 202.429 75.3992C202.729 75.3992 203.129 75.1992 203.229 74.9992C203.329 74.7992 203.129 74.5992 202.629 74.5992C202.129 74.5992 201.829 74.7992 201.829 74.9992ZM287.829 74.9992C287.829 75.1992 288.129 75.3992 288.429 75.3992C288.729 75.3992 289.129 75.1992 289.229 74.9992C289.329 74.7992 289.129 74.5992 288.629 74.5992C288.129 74.5992 287.829 74.7992 287.829 74.9992ZM163.129 75.6992C163.729 75.6992 164.629 75.6992 165.129 75.6992C165.629 75.6992 165.129 75.4992 164.029 75.4992C162.929 75.4992 162.529 75.4992 163.129 75.6992ZM167.529 79.0992C167.529 80.5992 167.329 82.0992 167.229 82.3992C167.029 82.9992 168.429 82.9992 182.029 82.9992C195.629 82.9992 197.029 82.9992 196.829 82.3992C196.629 81.9992 196.329 81.8992 195.629 82.1992C194.429 82.5992 169.129 82.6992 168.429 82.1992C168.129 81.9992 167.929 80.6992 167.829 79.0992V76.2992C167.729 76.2992 167.629 78.9992 167.629 78.9992" fill="#FFFDFA"/>
<path fill-rule="evenodd" clip-rule="evenodd" d="M131.229 0.599991C129.729 0.799991 126.429 0.899994 124.029 0.899994C121.629 0.899994 118.229 1.1 116.429 1.3C114.629 1.5 111.129 1.89999 108.629 2.09999C99.4286 2.99999 96.7286 3.29999 92.8286 3.89999C90.6286 4.19999 87.7286 4.69999 86.4286 4.89999C85.1286 5.09999 82.6286 5.49999 80.8286 5.89999C79.0286 6.19999 76.9286 6.6 76.0286 6.7C75.1286 6.8 73.3286 7.19999 72.0286 7.39999C70.7286 7.69999 68.5286 8.09999 67.2286 8.39999C59.6286 9.89999 53.0286 11.5 50.0286 12.4C49.3286 12.6 48.5286 12.8 48.2286 12.8C47.9286 12.8 46.1286 13.3 44.2286 13.8C42.3286 14.4 39.8286 15.1 38.6286 15.5C37.4286 15.9 36.2286 16.3 36.0286 16.5C35.8286 16.7 35.3286 16.8 35.0286 16.8C34.3286 16.8 31.1286 17.9 24.8286 20.4C-6.4714 32.6 -8.3714 49.8 20.2286 61.2C21.9286 61.9 23.6286 62.6 24.1286 62.8C26.5286 63.8 30.6286 65.2 31.1286 65.2C31.6286 65.2 31.9286 65.4 32.1286 65.5C32.3286 65.7 33.6286 66.2 35.1286 66.5C36.5286 66.9 38.1286 67.4 38.5286 67.6C38.9286 67.8 40.7286 68.3 42.5286 68.8C44.3286 69.3 46.7286 69.9 47.9286 70.2C49.1286 70.5 50.7286 70.9 51.5286 71.1C52.3286 71.3 54.2286 71.7 55.7286 72.1C57.2286 72.5 59.2286 72.9 60.1286 73.1C61.0286 73.3 63.1286 73.7 64.9286 74.1C66.7286 74.5 69.0286 74.9 70.1286 75.1C71.2286 75.3 73.8286 75.7 75.9286 76.1C78.0286 76.5 80.7286 76.9 81.9286 77.1C83.1286 77.3 85.7286 77.7 87.7286 78.1C97.3286 79.8 105.729 80.8 118.129 81.8C121.229 82 125.929 82.4 128.529 82.6C138.129 83.4 153.929 83.5 233.329 83.6C320.429 83.6 321.329 83.6 339.129 81.8C347.429 80.9 349.429 80.7 353.329 80.1C355.529 79.7 358.429 79.3 359.729 79.1C361.029 78.9 363.929 78.5 366.129 78.1C368.329 77.7 371.129 77.3 372.329 77.1C373.529 76.9 376.029 76.5 377.929 76.1C379.829 75.7 381.929 75.4 382.629 75.2C385.229 74.8 385.129 76.6 385.129 41.2C385.129 5.8 385.729 7.89999 380.129 7.09999C378.129 6.79999 375.629 6.4 374.529 6.2C372.429 5.8 367.329 5 362.329 4.2C360.629 3.9 358.629 3.5 357.729 3.3C356.829 3.1 355.029 2.79999 353.729 2.59999C352.429 2.39999 349.129 1.99999 346.529 1.59999C335.429 0.0999908 333.829 0.1 233.129 0C178.729 0 132.829 -3.05474e-06 131.329 0.199997M335.829 2.5C338.129 2.7 341.529 3.1 343.429 3.3C346.929 3.7 353.129 4.6 357.029 5.3C360.429 5.9 366.229 6.9 368.629 7.3C369.829 7.5 372.629 7.9 374.829 8.3C377.029 8.7 379.729 9.1 380.829 9.2L382.829 9.5V41.4C382.929 41.4 383.029 73.3 383.029 73.3L382.129 73.7C381.629 73.9 379.829 74.3 378.229 74.5C376.529 74.8 373.929 75.2 372.429 75.5C367.329 76.5 364.829 76.9 363.329 76.9C361.829 76.9 361.429 77.1 360.829 77.3C359.729 77.7 355.629 78.3 350.329 78.9C348.529 79.1 346.929 79.3 346.629 79.5C346.229 79.8 339.029 80.5 332.129 80.9C329.329 81.1 325.229 81.4 322.929 81.7C319.929 82 300.829 82.1 257.929 82H197.129V76.3H261.729C297.229 76.2 326.529 76 326.829 75.9C327.229 75.7 327.329 68.7 327.229 40.6V5.5C327.129 5.5 244.529 5.39999 244.529 5.39999C183.829 5.39999 161.829 5.4 161.429 5.7C160.529 6.4 160.629 75.9 161.429 76.2C161.729 76.3 163.029 76.4 164.229 76.4H166.429V79.1C166.329 79.1 166.229 81.8 166.229 81.8H155.829C150.129 82 142.629 81.8 139.229 81.6C135.829 81.4 129.929 81 126.029 80.8C117.029 80.3 108.929 79.7 108.429 79.4C108.229 79.3 106.229 79 103.929 78.8C99.1286 78.4 95.1286 77.8 92.0286 77.3C90.8286 77.1 88.5286 76.7 86.8286 76.4C85.1286 76.2 82.8286 75.7 81.5286 75.4C80.2286 75.1 78.7286 74.8 78.0286 74.8C76.9286 74.8 75.8286 74.6 69.8286 73.4C68.3286 73.1 66.4286 72.7 65.6286 72.6C64.8286 72.5 63.0286 72.1 61.6286 71.8C60.2286 71.5 58.2286 71 57.2286 70.8C53.3286 70 51.6286 69.6 50.8286 69.2C50.4286 69 49.6286 68.8 49.0286 68.8C48.4286 68.8 47.6286 68.6 47.1286 68.5C46.6286 68.3 45.2286 67.9 44.0286 67.5C42.0286 66.9 37.5286 65.6 32.8286 64.1C31.8286 63.8 30.6286 63.4 30.2286 63.2C29.8286 63 28.7286 62.6 27.8286 62.4C26.9286 62.1 25.7286 61.7 25.0286 61.4C24.3286 61.1 21.9286 60.1 19.7286 59.2C1.72861 51.9 -3.3714 41.7 6.5286 32.6C8.8286 30.5 10.3286 29.2 10.6286 29.2C10.9286 29.2 12.3286 28.3 14.2286 27.2C16.1286 26.1 17.7286 25.2 17.8286 25.2C17.9286 25.2 19.3286 24.6 21.0286 23.8C22.7286 23 24.1286 22.4 24.3286 22.4C24.5286 22.4 25.1286 22.1 25.8286 21.8C28.8286 20.5 39.9286 16.7 42.5286 16.2C43.3286 16 44.1286 15.8 44.3286 15.6C44.5286 15.4 45.2286 15.2 45.9286 15.1C46.6286 15 48.2286 14.6 49.5286 14.2C50.8286 13.8 52.6286 13.4 53.5286 13.2C54.4286 13 56.3286 12.5 57.7286 12.2C59.1286 11.9 61.0286 11.4 61.9286 11.2C65.6286 10.4 70.0286 9.5 71.9286 9.2C73.0286 9 75.3286 8.5 77.1286 8.2C80.3286 7.6 81.3286 7.4 88.7286 6.2C94.3286 5.3 105.229 3.99999 111.729 3.39999C121.329 2.59999 126.029 2.3 136.329 2C155.729 1.5 330.729 1.8 335.729 2.3M143.829 2.89999C136.629 3.29999 124.129 6.69999 120.829 9.09999C119.829 9.89999 120.029 10.1 125.129 15.4C129.929 20.4 129.729 20.2 132.929 18.7C134.229 18.1 136.029 17.4 136.829 17.1C140.429 16.1 143.929 15.4 145.429 15.4C148.029 15.4 148.229 14.9 148.229 8.8V3.39999L147.229 3C146.629 2.8 146.129 2.6 146.129 2.7C146.129 2.8 145.029 2.79999 143.829 2.89999ZM147.329 8.5C147.429 14.2 147.329 14.4 144.729 14.7C140.029 15.3 135.229 16.6 132.329 18.1C131.429 18.6 130.429 18.9 130.129 18.9C129.529 18.9 121.029 10.4 121.029 9.8C121.029 8 139.029 3.29999 145.229 3.39999H147.229L147.329 8.39999M202.029 6.59999C202.329 7.09999 201.529 7.6 201.029 7.2C200.629 6.9 200.829 6.2 201.429 6.2C202.029 6.2 201.929 6.39999 202.029 6.59999ZM252.029 6.59999C252.229 6.89999 249.729 7 244.829 7C239.929 7 237.429 6.89999 237.429 6.59999C237.429 6.29999 240.129 6.2 244.629 6.2C249.129 6.2 251.929 6.39999 252.029 6.59999ZM288.729 7.09999C288.529 7.29999 288.029 7.29999 287.629 7.09999C286.929 6.79999 286.929 6.8 287.629 6.5C288.529 6.2 289.229 6.5 288.729 7M300.229 6.39999C300.229 7.29999 299.629 7.79999 298.929 7.39999C298.029 6.89999 296.629 7.3 296.529 8C296.529 8.3 296.329 8.1 296.129 7.7C295.929 7.3 295.929 6.79999 296.029 6.59999C296.229 6.29999 300.129 6.2 300.129 6.5M326.829 6.5C326.929 6.7 326.829 7.3 326.829 7.8L326.629 8.7L326.329 7.8C325.829 6.4 322.029 6.59999 322.029 8.09999C322.029 9.59999 321.929 8.49999 321.429 7.89999C320.629 6.69999 310.129 6.49999 309.229 7.59999C308.729 8.19999 308.629 8.19999 308.329 7.59999C307.729 6.39999 304.029 6.89999 304.029 8.09999C304.029 8.79999 303.329 7.6 303.329 6.7C303.329 6.1 326.729 6 327.029 6.5M196.329 7.2C197.129 7.5 196.729 10.6 195.829 11.4C194.529 12.5 194.329 22.2 195.629 23.7C196.229 24.4 196.629 25.4 196.629 26.1C196.629 27.6 197.529 28.6 198.829 28.6C200.129 28.6 200.229 28.9 200.729 29.2C201.929 30 227.829 30.2 229.229 29.5C230.429 28.8 230.629 27 230.529 16.7C230.529 6.6 230.329 7.1 233.629 7C237.229 7 236.929 6.09999 236.929 18.1C236.929 30.1 236.729 31.4 245.029 31.4C252.729 31.4 252.729 31.4 252.629 18.1C252.629 6.39999 252.429 6.8 255.829 7H257.929C257.929 7.1 258.129 17.8 258.129 17.8C258.329 27.6 258.429 28.5 259.129 29.3C260.129 30.4 286.329 30.6 288.429 29.5C289.029 29.2 290.029 28.9 290.629 28.9C291.929 28.9 292.929 27.6 292.929 25.8C292.929 24 293.129 24.4 293.529 24.2C293.829 24.1 294.129 23.7 294.129 23.4C294.129 23.1 294.429 22.8 294.729 22.8C295.229 22.8 295.329 23.4 295.329 25.5C295.329 29.8 295.429 30 297.929 30C300.429 30 300.929 30.1 300.929 18C300.929 7.3 300.929 6.69999 301.929 7.09999C302.429 7.29999 302.529 9 302.529 18.5V29.6L303.629 30.4C304.629 31.2 305.129 31.2 315.229 31.2H325.729V74.4H313.429C313.429 74.3 301.129 74.2 301.129 74.2L300.929 63.6C300.729 51.6 300.829 52 297.929 52C295.029 52 295.329 52.2 295.329 56.1C295.329 57.4 295.129 58.5 295.029 58.6C294.529 58.9 292.929 56.6 292.929 55.5C292.929 54.4 291.829 52.8 290.729 52.8C289.629 52.8 289.229 52.5 288.529 52.2C286.429 51.1 259.429 51.5 258.829 52.6C258.529 53.1 258.329 56.9 258.129 63.8L257.929 74.2H253.129L252.929 64.2C252.629 50.9 252.929 51.4 243.529 51.7C237.029 51.9 237.329 51.5 237.329 63.8C237.329 76.1 237.329 74.5 234.729 74.5C232.129 74.5 232.529 74.8 232.529 63.3C232.529 51.8 232.529 53.3 231.729 52.5C230.629 51.4 203.729 51.2 202.329 52.3C201.929 52.6 200.929 52.9 200.229 52.9C198.829 52.9 198.129 53.8 198.129 55.4C198.129 57 197.729 57 197.129 57.7C195.629 59.8 195.629 67.9 197.129 70.1C198.429 71.9 198.329 74.2 197.129 74.4C195.529 74.7 195.329 75.3 195.329 78.5V81.7H168.129V78.4C168.029 78.4 167.929 75.1 167.929 75.1H165.529C164.229 74.9 163.029 74.6 162.829 74.4C162.229 73.5 162.429 7.4 163.029 7.2C163.729 6.9 195.529 6.9 196.229 7.2M294.829 7.2C295.529 7.5 295.829 13 295.129 13C294.429 13 293.029 10.7 293.029 9.7C293.029 9.2 292.829 8.5 292.629 8.2C292.329 7.8 292.429 7.5 292.929 7.3C293.829 6.9 294.029 6.9 294.829 7.3M208.629 9C208.629 10.9 208.129 11.3 206.729 10.6C203.729 8.99999 203.629 7.5 206.429 7.5H208.629V9.09999M222.229 7.7C222.229 7.9 222.029 8.2 221.829 8.5C221.629 8.8 221.129 9.39999 220.929 9.89999C220.529 10.8 220.229 10.8 215.329 10.9H210.229C210.229 11 210.229 9.2 210.229 9.2V7.39999H216.229C219.529 7.39999 222.229 7.5 222.229 7.7ZM228.829 17.8V28H226.529C222.529 28.3 222.129 27.4 222.129 17.8V10.1L223.129 8.7C224.129 7.4 224.329 7.29999 226.429 7.39999H228.729V17.7M250.929 12.7V18C250.829 18 245.429 18.1 245.429 18.1C237.629 18.3 238.229 18.7 238.229 12.8C238.229 6.9 237.529 7.3 244.929 7.3H251.029V12.6M265.829 9.09999L267.029 10.8V25.4L265.829 27C264.329 29.1 261.229 29.7 260.129 28.1C259.729 27.6 259.729 9.69999 260.129 8.39999C260.629 6.59999 264.429 7.1 265.829 9.2M279.829 9.2V11H274.229C268.629 11 268.629 11 268.229 10C268.029 9.5 267.629 8.9 267.429 8.8C265.729 7.7 267.129 7.39999 273.429 7.39999H279.829V9.2ZM285.029 8C285.029 8.8 283.829 9.99999 282.529 10.6C281.429 11.1 280.429 9.09999 281.229 7.89999C281.629 7.19999 285.029 7.4 285.029 8ZM298.829 8.39999C299.729 10.6 299.029 28.6 298.029 28.6C297.029 28.6 297.029 27.5 297.029 18.2C297.029 8.9 297.129 7.8 298.029 7.8C298.929 7.8 298.629 8.09999 298.829 8.39999ZM307.729 14.8C307.829 23.5 307.529 23.1 314.429 23.3C318.129 23.4 319.629 23.3 320.729 22.8L322.229 22.2V15.3C322.329 15.3 322.429 8.39999 322.429 8.39999L323.529 8C325.929 7.2 325.929 7.09999 325.829 18.6V29.1C325.729 29.1 315.829 29.2 315.829 29.2C302.929 29.3 304.329 30.6 304.329 18.5C304.329 6.4 304.329 7.6 306.729 7.8H307.729L307.829 14.7M320.029 8C320.529 8.2 320.629 9.19999 320.629 14.6V20.9L319.129 21.3C317.229 21.8 314.029 21.8 311.429 21.3L309.429 20.9V14.6C309.429 9.89999 309.529 8.19999 309.929 8.09999C310.629 7.79999 319.229 7.79999 320.029 8.09999M202.929 17.7V27C203.029 27 200.629 27 200.629 27H198.229V25.7C198.429 24.7 198.629 24.4 199.529 24.3C202.829 23.9 202.429 11 199.129 11C195.829 11 198.329 10.7 198.329 9.89999C198.329 8.29999 198.629 8.2 200.929 8.3H202.929C202.929 8.4 203.029 17.7 203.029 17.7M290.829 9.8C290.829 11 290.629 11.2 289.629 11.5C287.929 12 287.829 12.4 287.829 17.9C287.829 23.9 287.829 24.1 289.729 24.5C292.429 25 291.529 27.3 288.629 27.3H286.429V18.1C286.229 7.89999 286.129 8.29999 289.029 8.39999C290.829 8.39999 290.829 8.4 290.829 9.8ZM206.929 11.6C207.729 12.2 207.829 12.5 207.829 18V23.7L206.529 24.3C205.829 24.6 205.229 24.9 205.129 24.9C204.829 24.9 205.029 11.4 205.229 11.2C205.629 10.8 205.929 10.9 206.829 11.6M284.029 11.2C285.229 11.7 284.929 25 283.729 24.9C280.529 24.9 280.129 11.5 283.329 10.9C283.329 10.9 283.729 10.9 284.029 11.1M114.429 12.9C108.329 16.7 101.829 23.8 99.4286 29.3C99.0286 30.3 98.4286 31.5 98.2286 32C96.9286 34.8 95.9286 40 96.5286 40.4C97.0286 40.7 113.329 41 114.329 40.7C114.729 40.6 115.129 40.1 115.229 39.7C117.029 32.8 118.029 31.2 123.529 25.8C125.729 23.7 127.429 21.8 127.429 21.6C127.429 21.1 117.829 11.5 117.229 11.5C116.629 11.5 115.729 12.2 114.429 13M280.729 12.4C280.629 13 280.529 13.4 280.429 13.4C280.329 13.4 280.229 13 280.129 12.4C280.029 11.8 280.129 11.4 280.429 11.4C280.729 11.4 280.829 11.8 280.729 12.4ZM122.129 16.7C127.529 22.1 127.429 21.5 123.529 24.5C119.629 27.5 115.629 34 114.829 38.7L114.529 40.2H105.929C95.9286 40.2 96.4286 40.5 97.5286 35.9C99.4286 28.1 105.629 19.6 113.329 14.2C117.129 11.6 116.729 11.5 122.029 16.7M220.029 12.8C220.929 13.7 220.929 22.2 220.029 22.9C219.629 23.2 217.929 23.3 214.729 23.2H210.029C210.029 23.1 209.929 17.9 209.929 17.9C209.929 14 209.929 12.7 210.329 12.4C211.329 11.8 219.329 12 220.029 12.7M199.829 17.8V23H198.629C196.229 23 196.229 23 196.229 17.8C196.229 12.6 196.229 12.6 198.329 12.6H199.829V17.8ZM279.329 18.1V23.6C279.229 23.6 274.329 23.7 274.329 23.7C268.029 23.8 268.229 24 268.229 18.1C268.229 12.2 267.929 12.6 274.329 12.6H279.429V18.1M292.929 17.9V23C293.029 23 291.229 23 291.229 23H289.429V18C289.429 12.6 289.429 12.5 291.629 12.7H292.829L292.929 17.9ZM250.929 24.2C251.029 29.8 251.429 29.4 244.729 29.4C238.029 29.4 238.229 29.5 238.229 24.3C238.229 19.1 237.929 19.4 245.029 19.5H250.829C250.829 19.6 250.929 24.2 250.929 24.2ZM208.129 25.3C209.629 26.2 208.529 27.9 206.329 28.1C203.729 28.2 203.529 27.5 205.729 26C207.429 24.9 207.429 24.9 208.129 25.3ZM220.429 25.3C220.929 25.7 221.829 27.3 221.829 27.8C221.829 28.3 219.729 28.2 216.029 28.2H210.229V25H215.129C217.829 25 220.229 25.1 220.429 25.3ZM279.729 27.1V28.8C279.629 28.8 273.629 28.9 273.629 28.9C266.929 29 266.529 28.9 267.629 26.8L268.429 25.4H279.929V27.1M283.029 26C285.329 27.2 285.529 29 283.229 29C280.929 29 280.829 27.9 281.229 26.4C281.529 25.3 281.429 25.3 283.029 26.1M326.529 30.7C326.529 31.2 326.329 30.9 326.329 30C326.329 29.1 326.329 28.7 326.529 29.1C326.629 29.5 326.629 30.2 326.529 30.7ZM96.7286 43.6C95.1286 47.7 100.929 59.9 107.029 65.6C110.829 69.1 115.829 72.6 117.029 72.6C118.229 72.6 126.729 64.6 127.129 63.5C127.329 63.1 126.229 61.8 123.829 59.5C118.629 54.5 116.529 50.8 115.129 44.2L114.929 43.1H105.929C98.1286 43.1 96.9286 43.1 96.7286 43.7M114.629 44.3C114.829 44.8 115.229 46.2 115.429 47.4C116.429 51.7 119.329 56.3 123.829 60.3C125.329 61.7 126.629 63 126.629 63.1C126.629 63.5 117.829 72.1 117.329 72.2C115.529 72.6 105.129 63.3 102.029 58.5C99.1286 54 96.8286 46.8 97.3286 44.2C97.6286 43 114.129 43.1 114.629 44.4M210.229 55.2C210.229 57.4 209.629 57.5 207.529 56C205.429 54.4 205.729 53.4 208.229 53.4H210.229V55.2ZM224.229 53.7C224.229 53.9 223.729 54.7 223.229 55.5L222.229 57H217.329C213.229 57 212.329 56.9 212.129 56.4C211.829 55.6 211.829 54 212.129 53.7C212.529 53.3 224.229 53.4 224.229 53.7ZM231.029 63.8V74.2L229.929 74.6C225.629 76.2 224.229 73.7 224.129 64C224.129 54.5 224.529 53.4 228.629 53.4H230.929V63.8M250.829 54C250.929 54.3 251.029 56.5 251.029 58.8V63H239.029V58.8C239.029 52.9 238.529 53.4 245.029 53.4C251.529 53.4 250.629 53.4 250.829 54ZM265.829 55.1L267.029 56.8V71.4L265.829 73.1C264.529 75 260.629 75.6 260.029 74.1C259.729 73.3 259.729 55.6 260.029 54.4C260.529 52.6 264.329 53.1 265.729 55.2M279.829 55.2V57H274.229C274.229 56.9 268.629 56.8 268.629 56.8L267.629 55.1L266.629 53.4H279.829V55.2ZM285.029 53.8C285.029 54.9 282.829 57 281.629 57C280.429 57 281.029 54.2 281.229 53.8C281.529 53.2 285.029 53.2 285.029 53.8ZM204.329 54.6C204.529 54.6 204.629 58.9 204.629 64V73.4H202.329C199.429 73.1 198.829 71.3 201.429 70.4L202.829 69.9V64.2C203.029 58 202.929 57.6 201.029 57.2C198.529 56.7 199.729 54.1 202.429 54.4C203.329 54.4 204.229 54.6 204.429 54.6M290.829 55.8C290.829 56.9 290.629 57.2 290.029 57.3C288.029 57.7 287.829 58.4 287.829 63.8C287.829 69.2 287.829 70.1 289.729 70.4C292.429 70.9 291.529 73.2 288.629 73.2H286.429V63.9C286.229 53.5 285.929 54.4 289.229 54.4C292.529 54.4 290.829 54.4 290.829 55.8ZM298.929 64.3C299.029 74.4 298.729 76.3 297.429 74.1C297.029 73.4 296.929 54.8 297.429 54.4C298.729 53.1 298.929 54.3 299.029 64.3M209.829 64.4C209.829 70 209.829 70.1 208.929 70.6C206.629 71.8 206.529 71.4 206.329 64.4C206.229 57.1 206.529 56.3 208.729 57.8L209.829 58.6V64.3M284.029 57.2C285.229 57.7 284.929 71 283.729 70.9C280.529 70.9 280.129 57.5 283.329 56.9C283.329 56.9 283.729 56.9 284.029 57.1M281.029 57.7C280.929 59 280.329 59.5 280.129 58.5C280.029 57.7 280.129 57.4 280.429 57.4C280.729 57.4 280.929 57.5 280.929 57.7M222.429 59.2C222.929 60.4 222.729 68.8 222.229 69.3C221.729 69.8 220.029 69.8 216.629 69.8H211.529V58.6H216.929C221.429 58.6 222.329 58.6 222.529 59.2M279.429 64.2V69.8H274.429C268.029 70.1 268.229 70.3 268.229 64.2C268.229 58.1 267.929 58.7 274.329 58.7H279.429V64.3M201.629 64V68.8H200.029C197.929 69.1 197.829 68.8 197.829 63.8C197.829 59 197.829 59 200.029 59.1H201.629V64ZM292.929 64.1V69C293.029 69 291.229 69 291.229 69H289.429V59H291.129C291.129 59.1 292.829 59.2 292.829 59.2V64.1M126.729 67.1C125.029 68.7 123.029 70.6 122.329 71.2C119.529 73.6 119.729 74.3 123.629 76.1C128.229 78.3 133.529 79.8 138.529 80.5C148.429 81.9 148.229 82 148.229 74.8C148.229 68.5 148.529 68.9 143.029 68.1C141.429 67.9 139.529 67.5 138.829 67.3C135.329 66.3 133.129 65.5 131.929 64.8C130.662 64.1333 128.929 64.8667 126.729 67M251.229 65.2C251.529 66 251.529 72.9 251.229 74.1C251.029 75 250.829 75 245.029 75H239.029V64.6H245.029C250.129 64.6 251.029 64.6 251.229 65.2ZM133.029 66.1C135.829 67.4 139.229 68.3 143.829 69C147.529 69.6 147.429 69.4 147.429 75C147.429 80.8 147.629 80.7 142.029 80.2C134.029 79.5 121.029 75.6 121.029 73.8C121.029 72 129.829 65 130.229 65C130.629 65 131.629 65.5 133.029 66.1ZM295.329 71.7V74.4H294.029C292.729 74.4 292.429 71.3 293.629 70.4C293.929 70.2 294.229 69.8 294.229 69.5C294.229 69.2 294.529 69 294.829 69C295.329 69 295.429 69.5 295.329 71.7ZM210.229 72.6C210.229 74.7 209.929 75 207.929 75C205.929 75 206.129 75 206.229 73.9C206.529 71.8 210.129 70.5 210.129 72.5M223.229 72.4C224.829 74.8 224.429 75 218.129 75H212.329L212.029 73.6C211.629 71.5 211.829 71.4 217.429 71.4C223.029 71.4 222.529 71.4 223.229 72.4ZM279.729 73.1V74.8C279.629 74.8 273.629 74.9 273.629 74.9C266.929 75 266.529 74.9 267.629 72.8L268.429 71.4H279.929V73.1M283.329 72.2C285.129 73.3 285.229 75 283.429 75C281.629 75 281.029 74.1 281.029 73.5C281.029 71.5 281.629 71.2 283.329 72.2ZM203.229 75C203.129 75.2 202.729 75.4 202.429 75.4C202.129 75.4 201.829 75.2 201.829 75C201.829 74.8 202.229 74.6 202.629 74.6C203.029 74.6 203.329 74.8 203.229 75ZM289.229 75C289.129 75.2 288.729 75.4 288.429 75.4C288.129 75.4 287.829 75.2 287.829 75C287.829 74.8 288.229 74.6 288.629 74.6C289.029 74.6 289.329 74.8 289.229 75ZM165.129 75.7C164.629 75.7 163.729 75.7 163.129 75.7C162.529 75.7 162.929 75.5 164.029 75.5C165.129 75.5 165.629 75.5 165.129 75.7ZM168.329 82.3C169.029 82.7 194.329 82.7 195.529 82.3C196.329 82 196.529 82.1 196.729 82.5C196.929 83 194.829 83.1 181.929 83.1C169.029 83.1 166.929 83.1 167.129 82.5C167.229 82.2 167.429 80.7 167.429 79.2V76.5L167.629 79.3C167.629 80.9 167.929 82.2 168.229 82.4" fill="#FFFDFA"/>
</svg>
