<svg width="24" height="19" viewBox="0 0 24 19" fill="none" xmlns="http://www.w3.org/2000/svg">
<path d="M8.55093 13.9722L19.1156 11.1753C19.4002 11.103 19.6194 10.9372 19.7732 10.678C19.9271 10.4188 19.9679 10.1507 19.8956 9.87375C19.8233 9.59683 19.6598 9.39491 19.4052 9.26799C19.1506 9.14107 18.8848 9.11376 18.6079 9.18606L15.6217 9.98916L10.8217 5.48915L9.34938 5.83991L12.2294 10.8799L9.14169 11.6461L7.64169 10.5061L6.70937 10.7599L8.55093 13.9722ZM21.5155 18.7307H3.05401C2.45555 18.7307 1.9444 18.5188 1.52056 18.0949C1.0967 17.671 0.884766 17.1599 0.884766 16.5614V12.6153C1.56785 12.4846 2.13862 12.1495 2.59708 11.6103C3.05554 11.0711 3.28477 10.4445 3.28477 9.73068C3.28477 9.01682 3.05554 8.39028 2.59708 7.85106C2.13862 7.31181 1.56785 6.9768 0.884766 6.84602V2.89993C0.884766 2.30147 1.0967 1.79032 1.52056 1.36647C1.9444 0.942613 2.45555 0.730682 3.05401 0.730682H21.5155C22.114 0.730682 22.6251 0.942613 23.049 1.36647C23.4729 1.79032 23.6848 2.30147 23.6848 2.89993V16.5614C23.6848 17.1599 23.4729 17.671 23.049 18.0949C22.6251 18.5188 22.114 18.7307 21.5155 18.7307ZM21.5155 16.9307C21.6232 16.9307 21.7117 16.8961 21.7809 16.8268C21.8502 16.7576 21.8848 16.6691 21.8848 16.5614V2.89993C21.8848 2.79223 21.8502 2.70376 21.7809 2.63452C21.7117 2.56528 21.6232 2.53066 21.5155 2.53066H3.05401C2.94631 2.53066 2.85784 2.56528 2.7886 2.63452C2.71936 2.70376 2.68474 2.79223 2.68474 2.89993V5.59067C3.42474 6.03067 4.00975 6.61567 4.43975 7.34567C4.86975 8.07568 5.08475 8.87068 5.08475 9.73068C5.08475 10.5907 4.86975 11.3857 4.43975 12.1157C4.00975 12.8457 3.42474 13.4307 2.68474 13.8707V16.5614C2.68474 16.6691 2.71936 16.7576 2.7886 16.8268C2.85784 16.8961 2.94631 16.9307 3.05401 16.9307H21.5155Z" fill="#fffdfa"/>
</svg>
