<svg width="20" height="20" viewBox="0 0 20 20" fill="none" xmlns="http://www.w3.org/2000/svg">
<path d="M9.59348 19.5791C8.28066 19.5791 7.04619 19.3297 5.89006 18.8311C4.73391 18.3324 3.72822 17.6556 2.87301 16.8008C2.01777 15.946 1.34071 14.9407 0.841831 13.7851C0.342948 12.6295 0.0935059 11.3947 0.0935059 10.0808C0.0935059 8.76682 0.342839 7.53179 0.841506 6.37565C1.34017 5.2195 2.01692 4.21382 2.87176 3.3586C3.72661 2.50337 4.73185 1.82631 5.88748 1.32743C7.0431 0.828544 8.27787 0.579102 9.59181 0.579102C10.9057 0.579102 12.1408 0.828478 13.2969 1.32723C14.4531 1.82598 15.4587 2.50285 16.314 3.35785C17.1692 4.21285 17.8462 5.21827 18.3451 6.3741C18.844 7.52992 19.0935 8.76491 19.0935 10.0791V11.2983C19.0935 12.2111 18.7801 12.9861 18.1533 13.6233C17.5265 14.2605 16.7566 14.5791 15.8435 14.5791C15.2537 14.5791 14.7069 14.4348 14.2031 14.1464C13.6992 13.8579 13.3012 13.4611 13.0089 12.956C12.5768 13.4713 12.0662 13.8707 11.4771 14.154C10.888 14.4374 10.2601 14.5791 9.59348 14.5791C8.34478 14.5791 7.28261 14.1412 6.40696 13.2656C5.53132 12.39 5.09351 11.3278 5.09351 10.0791C5.09351 8.83038 5.53132 7.7682 6.40696 6.89255C7.28261 6.01692 8.34478 5.5791 9.59348 5.5791C10.8422 5.5791 11.9044 6.01692 12.78 6.89255C13.6556 7.7682 14.0935 8.83038 14.0935 10.0791V11.2983C14.0935 11.7893 14.2624 12.2089 14.6002 12.557C14.938 12.905 15.3524 13.0791 15.8435 13.0791C16.3345 13.0791 16.7489 12.905 17.0868 12.557C17.4246 12.2089 17.5935 11.7893 17.5935 11.2983V10.0791C17.5935 7.84574 16.8185 5.95408 15.2685 4.40408C13.7185 2.85408 11.8268 2.07908 9.59348 2.07908C7.36015 2.07908 5.46848 2.85408 3.91848 4.40408C2.36848 5.95408 1.59348 7.84574 1.59348 10.0791C1.59348 12.3124 2.36848 14.2041 3.91848 15.7541C5.46848 17.3041 7.36015 18.0791 9.59348 18.0791H14.5935V19.5791H9.59348ZM9.59348 13.0791C10.4268 13.0791 11.1351 12.7874 11.7185 12.2041C12.3018 11.6207 12.5935 10.9124 12.5935 10.0791C12.5935 9.24574 12.3018 8.53741 11.7185 7.95408C11.1351 7.37074 10.4268 7.07908 9.59348 7.07908C8.76015 7.07908 8.05181 7.37074 7.46848 7.95408C6.88515 8.53741 6.59348 9.24574 6.59348 10.0791C6.59348 10.9124 6.88515 11.6207 7.46848 12.2041C8.05181 12.7874 8.76015 13.0791 9.59348 13.0791Z" fill="#fffdfa"/>
</svg>
