<svg width="18" height="18" viewBox="0 0 18 18" fill="none" xmlns="http://www.w3.org/2000/svg">
<path d="M3.84351 13.8291H10.3435V12.3291H3.84351V13.8291ZM3.84351 9.82905H13.3435V8.3291H3.84351V9.82905ZM3.84351 5.82905H13.3435V4.3291H3.84351V5.82905ZM1.90121 17.5791C1.39607 17.5791 0.968506 17.4041 0.618506 17.0541C0.268506 16.7041 0.0935059 16.2765 0.0935059 15.7714V2.3868C0.0935059 1.88167 0.268506 1.4541 0.618506 1.1041C0.968506 0.754102 1.39607 0.579102 1.90121 0.579102H15.2858C15.7909 0.579102 16.2185 0.754102 16.5685 1.1041C16.9185 1.4541 17.0935 1.88167 17.0935 2.3868V15.7714C17.0935 16.2765 16.9185 16.7041 16.5685 17.0541C16.2185 17.4041 15.7909 17.5791 15.2858 17.5791H1.90121ZM1.90121 16.0791H15.2858C15.3627 16.0791 15.4332 16.047 15.4973 15.9829C15.5614 15.9188 15.5935 15.8483 15.5935 15.7714V2.3868C15.5935 2.30987 15.5614 2.23934 15.4973 2.17523C15.4332 2.11113 15.3627 2.07908 15.2858 2.07908H1.90121C1.82427 2.07908 1.75375 2.11113 1.68963 2.17523C1.62553 2.23934 1.59348 2.30987 1.59348 2.3868V15.7714C1.59348 15.8483 1.62553 15.9188 1.68963 15.9829C1.75375 16.047 1.82427 16.0791 1.90121 16.0791Z" fill="#fffdfa"/>
</svg>
