<svg width="10" height="19" viewBox="0 0 10 19" fill="none" xmlns="http://www.w3.org/2000/svg">
<path d="M4.48239 18.4807V16.3884C3.61189 16.2332 2.86221 15.8932 2.23336 15.3682C1.60451 14.8432 1.14009 14.1089 0.840088 13.1653L2.22851 12.5884C2.49775 13.3628 2.8814 13.9551 3.37949 14.3653C3.87757 14.7756 4.54264 14.9807 5.37469 14.9807C6.09649 14.9807 6.73335 14.8089 7.28526 14.4653C7.8372 14.1217 8.11316 13.5769 8.11316 12.8307C8.11316 12.1833 7.90579 11.6663 7.49104 11.2797C7.07631 10.8932 6.2183 10.4897 4.91701 10.0691C3.5542 9.63837 2.60772 9.13453 2.07759 8.55761C1.54745 7.98068 1.28239 7.25504 1.28239 6.38069C1.28239 5.37429 1.6356 4.5823 2.34201 4.00474C3.04843 3.42717 3.76189 3.10634 4.48239 3.04224V0.980713H5.98236V3.04224C6.74518 3.14352 7.38621 3.3916 7.90544 3.78646C8.42465 4.18133 8.8285 4.69479 9.11696 5.32684L7.74776 5.95374C7.52855 5.47169 7.22278 5.09733 6.83046 4.83066C6.43815 4.564 5.92212 4.43066 5.28239 4.43066C4.52982 4.43066 3.925 4.614 3.46794 4.98066C3.01089 5.34735 2.78236 5.81402 2.78236 6.38069C2.78236 6.96274 3.01634 7.42812 3.48429 7.77684C3.95224 8.12557 4.8221 8.49096 6.09389 8.87301C7.27595 9.23198 8.15801 9.74351 8.74006 10.4076C9.32211 11.0717 9.61314 11.8691 9.61314 12.7999C9.61314 13.8935 9.26153 14.7422 8.55831 15.3461C7.85511 15.9499 6.99646 16.3076 5.98236 16.4191V18.4807H4.48239Z" fill="#04045C"/>
</svg>
