<svg width="10" height="18" viewBox="0 0 10 18" fill="none" xmlns="http://www.w3.org/2000/svg">
<path d="M3.98996 17.8291V15.7368C3.11946 15.5816 2.36978 15.2416 1.74093 14.7166C1.11208 14.1916 0.647656 13.4573 0.347656 12.5137L1.73608 11.9368C2.00531 12.7112 2.38897 13.3035 2.88706 13.7137C3.38514 14.124 4.05021 14.3291 4.88226 14.3291C5.60406 14.3291 6.24091 14.1573 6.79283 13.8137C7.34476 13.4701 7.62073 12.9252 7.62073 12.1791C7.62073 11.5316 7.41336 11.0147 6.99861 10.6281C6.58387 10.2416 5.72586 9.83804 4.42458 9.41753C3.06176 8.98676 2.11529 8.48292 1.58516 7.906C1.05502 7.32907 0.789956 6.60343 0.789956 5.72908C0.789956 4.72268 1.14316 3.93069 1.84958 3.35313C2.556 2.77556 3.26946 2.45473 3.98996 2.39063V0.329102H5.48993V2.39063C6.25275 2.49191 6.89377 2.73999 7.41301 3.13485C7.93222 3.52972 8.33607 4.04318 8.62453 4.67523L7.25533 5.30213C7.03611 4.82008 6.73035 4.44572 6.33803 4.17905C5.94571 3.91239 5.42969 3.77905 4.78996 3.77905C4.03739 3.77905 3.43257 3.96239 2.97551 4.32905C2.51846 4.69574 2.28993 5.16241 2.28993 5.72908C2.28993 6.31113 2.52391 6.77651 2.99186 7.12523C3.45981 7.47396 4.32967 7.83935 5.60146 8.2214C6.78352 8.58037 7.66558 9.0919 8.24763 9.756C8.82968 10.4201 9.12071 11.2175 9.12071 12.1483C9.12071 13.2419 8.7691 14.0906 8.06588 14.6945C7.36268 15.2983 6.50403 15.656 5.48993 15.7675V17.8291H3.98996Z" fill="#fffdfa"/>
</svg>
