<svg width="19" height="19" viewBox="0 0 19 19" fill="none" xmlns="http://www.w3.org/2000/svg">
<path d="M6.8268 12.3912L9.12085 10.9995L11.4149 12.3912L10.8063 9.7823L12.8409 8.02832L10.1635 7.80314L9.12085 5.34267L8.07824 7.80314L5.40076 8.02832L7.43539 9.7823L6.8268 12.3912ZM9.12085 18.0791L6.45805 15.4424H2.75754V11.7419L0.12085 9.07907L2.75754 6.41627V2.71576H6.45805L9.12085 0.079071L11.7836 2.71576H15.4842V6.41627L18.1208 9.07907L15.4842 11.7419V15.4424H11.7836L9.12085 18.0791ZM9.12085 16.2908L11.242 14.1697H14.2115V11.2002L16.3326 9.07907L14.2115 6.95796V3.98841H11.242L9.12085 1.8673L6.99974 3.98841H4.03018V6.95796L1.90907 9.07907L4.03018 11.2002V14.1697H6.99974L9.12085 16.2908Z" fill="#fffdfa"/>
</svg>
