<svg width="22" height="20" viewBox="0 0 22 20" fill="none" xmlns="http://www.w3.org/2000/svg">
<path d="M9.01078 19.3941V17.8941H21.0107V19.3941H9.01078ZM10.0108 16.7018C10.0108 15.448 10.4149 14.357 11.2233 13.4288C12.0316 12.5006 13.0441 11.9486 14.2608 11.773V11.2538C14.2608 11.0474 14.3326 10.8708 14.4762 10.724C14.6197 10.5772 14.7979 10.5038 15.0108 10.5038C15.2172 10.5038 15.3938 10.5772 15.5406 10.724C15.6873 10.8708 15.7607 11.0474 15.7607 11.2538V11.773C16.9671 11.9486 17.9771 12.5006 18.7905 13.4288C19.604 14.357 20.0107 15.448 20.0107 16.7018H10.0108ZM11.9242 15.1865H18.0569C17.798 14.5954 17.397 14.1127 16.854 13.7384C16.3111 13.364 15.6967 13.1768 15.0108 13.1768C14.3146 13.1768 13.6909 13.364 13.1396 13.7384C12.5883 14.1127 12.1832 14.5954 11.9242 15.1865ZM0.0300293 10.3556V0.778812H5.02995V2.15189L12.3377 0.0672607L19.8376 2.41341V3.14416C19.8376 3.84928 19.5764 4.45183 19.054 4.95181C18.5315 5.45181 17.9017 5.70181 17.1646 5.70181H14.8953V6.24411C14.8953 6.62231 14.7761 6.96783 14.5376 7.28066C14.2992 7.59348 14.0043 7.81847 13.653 7.95564L7.19151 10.3556H0.0300293ZM1.52998 8.85566H3.52998V2.27879H1.52998V8.85566ZM5.02995 8.85566H6.93765L12.8338 6.69221C13.0043 6.63194 13.1406 6.52906 13.2425 6.38356C13.3444 6.23804 13.3954 6.07169 13.3954 5.88451V5.70181H11.5434L8.61843 6.66144L8.15306 5.23261L11.2684 4.20186H17.1646C17.353 4.20186 17.5758 4.13968 17.8329 4.01531C18.0899 3.89094 18.2313 3.7185 18.2569 3.49799L12.2877 1.64799L5.02995 3.70186V8.85566Z" fill="#fffdfa"/>
</svg>
