<svg width="21" height="21" viewBox="0 0 21 21" fill="none" xmlns="http://www.w3.org/2000/svg">
<path d="M10.8473 20.7557C10.5806 20.7557 10.3264 20.7057 10.0848 20.6057C9.8431 20.5057 9.62227 20.364 9.42227 20.1807L1.39727 12.1557C1.21393 11.9557 1.07227 11.7349 0.972266 11.4932C0.872266 11.2515 0.822266 10.9974 0.822266 10.7307C0.822266 10.464 0.872266 10.2057 0.972266 9.95569C1.07227 9.70569 1.21393 9.48902 1.39727 9.30569L9.42227 1.28069C9.62227 1.08069 9.8431 0.934855 10.0848 0.843188C10.3264 0.751522 10.5806 0.705688 10.8473 0.705688C11.1139 0.705688 11.3723 0.751522 11.6223 0.843188C11.8723 0.934855 12.0889 1.08069 12.2723 1.28069L20.2973 9.30569C20.4973 9.48902 20.6431 9.70569 20.7348 9.95569C20.8264 10.2057 20.8723 10.464 20.8723 10.7307C20.8723 10.9974 20.8264 11.2515 20.7348 11.4932C20.6431 11.7349 20.4973 11.9557 20.2973 12.1557L12.2723 20.1807C12.0889 20.364 11.8723 20.5057 11.6223 20.6057C11.3723 20.7057 11.1139 20.7557 10.8473 20.7557ZM10.8473 18.7557L18.8723 10.7307L10.8473 2.70569L2.82227 10.7307L10.8473 18.7557ZM9.84727 11.7307H11.8473V5.73069H9.84727V11.7307ZM10.8473 14.7307C11.1306 14.7307 11.3681 14.6349 11.5598 14.4432C11.7514 14.2515 11.8473 14.014 11.8473 13.7307C11.8473 13.4474 11.7514 13.2099 11.5598 13.0182C11.3681 12.8265 11.1306 12.7307 10.8473 12.7307C10.5639 12.7307 10.3264 12.8265 10.1348 13.0182C9.9431 13.2099 9.84727 13.4474 9.84727 13.7307C9.84727 14.014 9.9431 14.2515 10.1348 14.4432C10.3264 14.6349 10.5639 14.7307 10.8473 14.7307Z" fill="#04045C"/>
</svg>
