<svg width="20" height="20" viewBox="0 0 20 20" fill="none" xmlns="http://www.w3.org/2000/svg">
<path d="M10.342 19.2307C9.02805 19.2307 7.79302 18.9813 6.63688 18.4827C5.48073 17.984 4.47505 17.3072 3.61983 16.4524C2.7646 15.5976 2.08754 14.5923 1.58866 13.4367C1.08977 12.2811 0.840332 11.0463 0.840332 9.73236C0.840332 8.41843 1.08967 7.1834 1.58833 6.02726C2.087 4.87111 2.76375 3.86543 3.61858 3.01021C4.47343 2.15498 5.47867 1.47792 6.63431 0.979039C7.78992 0.480156 9.0247 0.230713 10.3386 0.230713C11.6526 0.230713 12.8876 0.480047 14.0437 0.978714C15.1999 1.47738 16.2056 2.15413 17.0608 3.00896C17.916 3.86381 18.5931 4.86906 19.092 6.02469C19.5908 7.18031 19.8403 8.41508 19.8403 9.72901C19.8403 11.0429 19.591 12.278 19.0923 13.4341C18.5936 14.5903 17.9169 15.5959 17.062 16.4512C16.2072 17.3064 15.2019 17.9835 14.0463 18.4823C12.8907 18.9812 11.6559 19.2307 10.342 19.2307ZM10.3403 17.7307C12.5736 17.7307 14.4653 16.9557 16.0153 15.4057C17.5653 13.8557 18.3403 11.964 18.3403 9.73069C18.3403 9.61402 18.3377 9.49479 18.3326 9.37299C18.3275 9.25121 18.3217 9.14223 18.3153 9.04606C18.2512 9.51016 18.0503 9.89414 17.7124 10.198C17.3746 10.5018 16.9685 10.6538 16.4942 10.6538H14.2249C13.7172 10.6538 13.2826 10.4731 12.9211 10.1118C12.5596 9.75057 12.3788 9.31627 12.3788 8.80894V7.88654H8.68648V6.04171C8.68648 5.53438 8.86725 5.09931 9.22878 4.73649C9.59033 4.37367 10.0249 4.19226 10.5326 4.19226H11.4557V3.80761C11.4557 3.373 11.5871 3.01306 11.8499 2.72781C12.1128 2.44255 12.4294 2.24351 12.8 2.13069C12.4089 2.00249 12.0102 1.90377 11.6039 1.83454C11.1976 1.76531 10.7764 1.73069 10.3403 1.73069C8.10697 1.73069 6.21531 2.50569 4.66531 4.05569C3.11531 5.60569 2.34031 7.49736 2.34031 9.73069V9.87494C2.34031 9.91981 2.34352 9.96788 2.34993 10.0192H7.09028C8.11337 10.0192 8.98452 10.3788 9.70373 11.098C10.423 11.8172 10.7826 12.6869 10.7826 13.7071V14.6345H8.01336V17.3749C8.38516 17.4903 8.76401 17.5784 9.14991 17.6393C9.53581 17.7002 9.93261 17.7307 10.3403 17.7307Z" fill="#04045C"/>
</svg>
