<svg width="16" height="20" viewBox="0 0 16 20" fill="none" xmlns="http://www.w3.org/2000/svg">
<path d="M6.30957 13.3194H8.80952V10.8194H11.3095V8.3195H8.80952V5.8195H6.30957V8.3195H3.80957V10.8194H6.30957V13.3194ZM7.55955 19.5502C5.39673 18.9605 3.60603 17.6874 2.18745 15.731C0.768862 13.7746 0.0595703 11.5874 0.0595703 9.16947V3.41565L7.55955 0.607971L15.0595 3.41565V9.16947C15.0595 11.5874 14.3502 13.7746 12.9316 15.731C11.5131 17.6874 9.72236 18.9605 7.55955 19.5502ZM7.55955 17.9695C9.29288 17.4195 10.7262 16.3195 11.8595 14.6695C12.9929 13.0195 13.5595 11.1861 13.5595 9.16947V4.44447L7.55955 2.2041L1.55955 4.44447V9.16947C1.55955 11.1861 2.12621 13.0195 3.25955 14.6695C4.39288 16.3195 5.82621 17.4195 7.55955 17.9695Z" fill="#fffdfa"/>
</svg>
