<svg width="19" height="19" viewBox="0 0 19 19" fill="none" xmlns="http://www.w3.org/2000/svg">
<path d="M8.97431 14.2307H10.3953V8.78331H8.97431V14.2307ZM9.68481 7.16186C9.90162 7.16186 10.0833 7.08854 10.23 6.94188C10.3767 6.79523 10.45 6.6135 10.45 6.3967C10.45 6.1799 10.3767 5.99818 10.23 5.85151C10.0833 5.70485 9.90162 5.63153 9.68481 5.63153C9.46801 5.63153 9.28628 5.70485 9.13963 5.85151C8.99297 5.99818 8.91965 6.1799 8.91965 6.3967C8.91965 6.6135 8.99297 6.79523 9.13963 6.94188C9.28628 7.08854 9.46801 7.16186 9.68481 7.16186ZM9.6864 18.7307C8.44162 18.7307 7.27158 18.4945 6.1763 18.022C5.08099 17.5496 4.12824 16.9085 3.31803 16.0986C2.50781 15.2888 1.86638 14.3365 1.39376 13.2416C0.921128 12.1468 0.684814 10.9771 0.684814 9.73227C0.684814 8.48749 0.921026 7.31745 1.39345 6.22217C1.86587 5.12686 2.507 4.17411 3.31685 3.3639C4.12671 2.55368 5.07904 1.91225 6.17386 1.43962C7.26866 0.966997 8.43845 0.730682 9.68323 0.730682C10.928 0.730682 12.098 0.966895 13.1933 1.43932C14.2886 1.91174 15.2414 2.55287 16.0516 3.36272C16.8618 4.17258 17.5032 5.12491 17.9759 6.21973C18.4485 7.31452 18.6848 8.48431 18.6848 9.7291C18.6848 10.9739 18.4486 12.1439 17.9762 13.2392C17.5038 14.3345 16.8626 15.2873 16.0528 16.0975C15.2429 16.9077 14.2906 17.5491 13.1958 18.0217C12.101 18.4944 10.9312 18.7307 9.6864 18.7307ZM9.68481 17.3097C11.8006 17.3097 13.5927 16.5754 15.0611 15.107C16.5296 13.6386 17.2638 11.8465 17.2638 9.73068C17.2638 7.61489 16.5296 5.82278 15.0611 4.35435C13.5927 2.88593 11.8006 2.15172 9.68481 2.15172C7.56902 2.15172 5.77691 2.88593 4.30848 4.35435C2.84006 5.82278 2.10585 7.61489 2.10585 9.73068C2.10585 11.8465 2.84006 13.6386 4.30848 15.107C5.77691 16.5754 7.56902 17.3097 9.68481 17.3097Z" fill="#fffdfa"/>
</svg>
