<svg width="161" height="14" viewBox="0 0 161 14" fill="none" xmlns="http://www.w3.org/2000/svg">
<path d="M3.52 6.91179L2.848 12.6238H0L1.808 0.863788L6.576 7.69579L11.36 0.863788L13.168 12.6238H10.32L9.648 6.91179L6.576 11.5838L3.52 6.91179Z" fill="black"/>
<path d="M17.322 12.6238V10.3998H22.97V12.6238H17.322ZM17.322 3.64779V1.42379H22.97V3.64779H17.322ZM17.322 7.82379V5.64779H22.65V7.82379H17.322ZM15.53 1.42379H18.122V12.6238H15.53V1.42379Z" fill="black"/>
<path d="M25.8106 1.42379H28.5146V10.3038H33.0106V12.6238H25.8106V1.42379Z" fill="black"/>
<path d="M37.7837 6.91179L37.1117 12.6238H34.2637L36.0717 0.863788L40.8397 7.69579L45.6237 0.863788L47.4317 12.6238H44.5837L43.9117 6.91179L40.8397 11.5838L37.7837 6.91179Z" fill="black"/>
<path d="M51.5538 10.4638L51.7458 8.39979H57.2978L57.4738 10.4638H51.5538ZM54.4818 5.53579L52.9138 9.15179L53.0418 9.74379L51.6497 12.6238H48.5938L54.4818 0.719788L60.3858 12.6238H57.3138L55.9698 9.85579L56.0658 9.16779L54.4818 5.53579Z" fill="black"/>
<path d="M69.9274 1.42379H72.5354V13.1838L64.7914 6.31979V12.6238H62.1994V0.863788L69.9274 7.72779V1.42379Z" fill="black"/>
<path d="M82.7394 10.4638L82.9314 8.39979H88.4834L88.6594 10.4638H82.7394ZM85.6674 5.53579L84.0994 9.15179L84.2274 9.74379L82.8354 12.6238H79.7794L85.6674 0.719788L91.5714 12.6238H88.4994L87.1554 9.85579L87.2514 9.16779L85.6674 5.53579Z" fill="black"/>
<path d="M95.9793 8.11179L98.7153 1.42379H101.883L95.9793 13.3278L90.0913 1.42379H93.2433L95.9793 8.11179Z" fill="black"/>
<path d="M103.697 1.42379H106.449V12.6238H103.697V1.42379Z" fill="black"/>
<path d="M111.222 10.4638L111.414 8.39979H116.966L117.142 10.4638H111.222ZM114.15 5.53579L112.582 9.15179L112.71 9.74379L111.318 12.6238H108.262L114.15 0.719788L120.054 12.6238H116.982L115.638 9.85579L115.734 9.16779L114.15 5.53579Z" fill="black"/>
<path d="M119.622 3.83979V1.42379H128.486V3.83979H125.398V12.6238H122.695V3.83979H119.622Z" fill="black"/>
<path d="M130.351 1.42379H133.103V12.6238H130.351V1.42379Z" fill="black"/>
<path d="M138.34 7.02379C138.34 7.68512 138.468 8.27179 138.724 8.78379C138.991 9.28512 139.359 9.67979 139.828 9.96779C140.308 10.2558 140.868 10.3998 141.508 10.3998C142.138 10.3998 142.687 10.2558 143.156 9.96779C143.636 9.67979 144.004 9.28512 144.26 8.78379C144.527 8.27179 144.66 7.68512 144.66 7.02379C144.66 6.36245 144.532 5.78112 144.276 5.27979C144.02 4.76779 143.658 4.36779 143.188 4.07979C142.719 3.79179 142.159 3.64779 141.508 3.64779C140.868 3.64779 140.308 3.79179 139.828 4.07979C139.359 4.36779 138.991 4.76779 138.724 5.27979C138.468 5.78112 138.34 6.36245 138.34 7.02379ZM135.476 7.02379C135.476 6.15979 135.626 5.37045 135.924 4.65579C136.234 3.94112 136.66 3.32245 137.204 2.79979C137.748 2.27712 138.388 1.87712 139.124 1.59979C139.86 1.31179 140.655 1.16779 141.508 1.16779C142.372 1.16779 143.167 1.31179 143.892 1.59979C144.628 1.87712 145.268 2.27712 145.812 2.79979C146.356 3.32245 146.778 3.94112 147.076 4.65579C147.375 5.37045 147.524 6.15979 147.524 7.02379C147.524 7.88779 147.375 8.68245 147.076 9.40779C146.788 10.1331 146.372 10.7625 145.828 11.2958C145.295 11.8291 144.66 12.2451 143.924 12.5438C143.188 12.8318 142.383 12.9758 141.508 12.9758C140.623 12.9758 139.812 12.8318 139.076 12.5438C138.34 12.2451 137.7 11.8291 137.156 11.2958C136.623 10.7625 136.207 10.1331 135.908 9.40779C135.62 8.68245 135.476 7.88779 135.476 7.02379Z" fill="black"/>
<path d="M157.625 1.42379H160.233V13.1838L152.489 6.31979V12.6238H149.897V0.863788L157.625 7.72779V1.42379Z" fill="black"/>
</svg>
