<svg width="23" height="19" viewBox="0 0 23 19" fill="none" xmlns="http://www.w3.org/2000/svg">
<path d="M3.463 16.9307H17.8538L20.6462 2.53066H13.7355L3.463 16.9307ZM0.0107422 18.7307L12.7839 0.730682H22.8223L19.3377 18.7307H0.0107422ZM14.2838 11.7614C15.0237 11.7614 15.649 11.5076 16.1599 10.9998C16.6707 10.4921 16.9261 9.87056 16.9261 9.13524C16.9261 8.3999 16.6707 7.77685 16.1599 7.26608C15.649 6.75532 15.0237 6.49994 14.2838 6.49994C13.5504 6.49994 12.9306 6.75459 12.4242 7.26389C11.9178 7.7732 11.6646 8.39665 11.6646 9.13425C11.6646 9.87187 11.9178 10.4941 12.4242 11.0011C12.9306 11.508 13.5504 11.7614 14.2838 11.7614Z" fill="#fffdfa"/>
</svg>
