<svg width="16" height="20" viewBox="0 0 16 20" fill="none" xmlns="http://www.w3.org/2000/svg">
<path d="M3.15118 19.5791C2.30631 19.5791 1.58549 19.2807 0.988706 18.6839C0.391906 18.0871 0.0935059 17.3662 0.0935059 16.5214V3.8291C0.0935059 2.92654 0.409531 2.15923 1.04158 1.52718C1.67363 0.895127 2.44094 0.579102 3.34351 0.579102H15.0935V14.9637C14.664 14.9637 14.297 15.1159 13.9925 15.4204C13.688 15.7249 13.5358 16.0919 13.5358 16.5214C13.5358 16.9509 13.688 17.3179 13.9925 17.6224C14.297 17.9268 14.664 18.0791 15.0935 18.0791V19.5791H3.15118ZM1.59348 13.9234C1.8204 13.7682 2.06366 13.6528 2.32328 13.5772C2.5829 13.5015 2.85886 13.4637 3.15118 13.4637H3.78581V2.07908H3.34351C2.86272 2.07908 2.45086 2.25055 2.10791 2.5935C1.76496 2.93645 1.59348 3.34832 1.59348 3.8291V13.9234ZM5.28576 13.4637H13.5935V2.07908H5.28576V13.4637ZM3.15118 18.0791H12.4954C12.3505 17.8522 12.2377 17.6115 12.1569 17.357C12.0762 17.1025 12.0358 16.8239 12.0358 16.5214C12.0358 16.2355 12.0736 15.9611 12.1493 15.6983C12.2249 15.4355 12.3403 15.1906 12.4954 14.9637H3.15118C2.70503 14.9637 2.33387 15.1159 2.03771 15.4204C1.74156 15.7249 1.59348 16.0919 1.59348 16.5214C1.59348 16.9675 1.74156 17.3387 2.03771 17.6349C2.33387 17.931 2.70503 18.0791 3.15118 18.0791Z" fill="#fffdfa"/>
</svg>
