<svg width="19" height="20" viewBox="0 0 19 20" fill="none" xmlns="http://www.w3.org/2000/svg">
<path d="M15.9403 19.5791C14.0557 19.5791 12.1625 19.1409 10.2606 18.2646C8.35863 17.3883 6.61121 16.1521 5.01828 14.556C3.42533 12.9598 2.19071 11.2124 1.31443 9.3137C0.438142 7.41499 0 5.52333 0 3.63873C0 3.33598 0.1 3.08369 0.3 2.88185C0.5 2.68002 0.75 2.5791 1.05 2.5791H4.3115C4.56407 2.5791 4.78682 2.66148 4.97977 2.82623C5.17272 2.99098 5.29548 3.1945 5.34803 3.4368L5.9211 6.37908C5.96085 6.65216 5.95252 6.88678 5.8961 7.08293C5.8397 7.27908 5.73842 7.44382 5.59225 7.57715L3.28265 9.82523C3.65445 10.506 4.07913 11.1499 4.5567 11.757C5.03427 12.364 5.55125 12.9438 6.10765 13.4964C6.65638 14.0451 7.23973 14.5547 7.85768 15.0253C8.47563 15.4958 9.14293 15.9336 9.8596 16.3387L12.1038 14.0753C12.2602 13.9124 12.4497 13.7983 12.6721 13.733C12.8945 13.6676 13.1256 13.6515 13.3654 13.6849L16.1423 14.2503C16.3948 14.3169 16.6009 14.4458 16.7605 14.6368C16.9201 14.8278 17 15.0445 17 15.2868V18.5291C17 18.8291 16.899 19.0791 16.6972 19.2791C16.4954 19.4791 16.2431 19.5791 15.9403 19.5791ZM2.57305 8.40603L4.35768 6.69833C4.38973 6.67268 4.41056 6.63742 4.42018 6.59255C4.42979 6.54767 4.42819 6.506 4.41538 6.46755L3.98075 4.23293C3.96793 4.18164 3.9455 4.14319 3.91345 4.11755C3.8814 4.0919 3.83973 4.07908 3.78845 4.07908H1.64998C1.61153 4.07908 1.57948 4.0919 1.55383 4.11755C1.52818 4.14319 1.51535 4.17524 1.51535 4.2137C1.56663 4.89704 1.67849 5.59127 1.85093 6.2964C2.02338 7.00154 2.26408 7.70474 2.57305 8.40603ZM11.273 17.0483C11.9359 17.3573 12.6272 17.5935 13.3471 17.757C14.067 17.9204 14.7397 18.0175 15.3654 18.0483C15.4038 18.0483 15.4359 18.0355 15.4615 18.0099C15.4872 17.9842 15.5 17.9521 15.5 17.9137V15.8099C15.5 15.7586 15.4872 15.7169 15.4615 15.6848C15.4359 15.6528 15.3974 15.6303 15.3461 15.6175L13.2461 15.1906C13.2077 15.1778 13.174 15.1762 13.1452 15.1858C13.1163 15.1954 13.0859 15.2163 13.0538 15.2483L11.273 17.0483ZM14.2514 10.0791C12.9376 10.0791 11.8173 9.6161 10.8904 8.69013C9.96343 7.76416 9.49998 6.64429 9.49998 5.33053C9.49998 4.01676 9.96296 2.89642 10.8889 1.9695C11.8149 1.04257 12.9348 0.579102 14.2485 0.579102C15.5623 0.579102 16.6826 1.04209 17.6096 1.96808C18.5365 2.89404 19 4.01391 19 5.32768C19 6.64144 18.537 7.76179 17.611 8.6887C16.685 9.61562 15.5651 10.0791 14.2514 10.0791ZM13.8077 8.2714H14.6923V4.48295H13.8077V8.2714ZM14.25 3.42525C14.3833 3.42525 14.5 3.37525 14.6 3.27525C14.7 3.17525 14.75 3.05859 14.75 2.92525C14.75 2.79192 14.7 2.67525 14.6 2.57525C14.5 2.47525 14.3833 2.42525 14.25 2.42525C14.1166 2.42525 14 2.47525 13.9 2.57525C13.8 2.67525 13.75 2.79192 13.75 2.92525C13.75 3.05859 13.8 3.17525 13.9 3.27525C14 3.37525 14.1166 3.42525 14.25 3.42525Z" fill="#fffdfa"/>
</svg>
