<svg width="15" height="19" viewBox="0 0 15 19" fill="none" xmlns="http://www.w3.org/2000/svg">
<path d="M10.4015 10.2601C9.81913 10.2601 9.3206 10.0527 8.90589 9.63804C8.49119 9.22333 8.28383 8.7248 8.28383 8.14245V2.84833C8.28383 2.26598 8.49119 1.76745 8.90589 1.35274C9.3206 0.938035 9.81913 0.730682 10.4015 0.730682H12.5191C13.1015 0.730682 13.6 0.938035 14.0147 1.35274C14.4294 1.76745 14.6368 2.26598 14.6368 2.84833V8.14245C14.6368 8.7248 14.4294 9.22333 14.0147 9.63804C13.6 10.0527 13.1015 10.2601 12.5191 10.2601H10.4015ZM10.4015 8.14245H12.5191V2.84833H10.4015V8.14245ZM5.63678 15.5542C5.16031 15.5542 4.73678 15.4174 4.36619 15.1439C3.9956 14.8704 3.73972 14.5042 3.59854 14.0454L0.87207 4.96598V0.730682H2.98972V4.96598L5.63678 13.4366H14.6368V15.5542H5.63678ZM4.04854 18.7307V16.613H14.6368V18.7307H4.04854Z" fill="#fffdfa"/>
</svg>
