<svg width="16" height="17" viewBox="0 0 16 17" fill="none" xmlns="http://www.w3.org/2000/svg">
<path d="M7.99743 16.0791C6.90224 16.0791 5.86839 15.8693 4.89589 15.4496C3.92338 15.03 3.07409 14.4571 2.34803 13.7311C1.62198 13.005 1.04913 12.1557 0.629475 11.1832C0.209825 10.2107 0 9.17684 0 8.08165C0 6.9731 0.21026 5.93467 0.63078 4.96635C1.05129 3.99806 1.62375 3.15169 2.34817 2.42725C3.07261 1.70283 3.92204 1.13037 4.89648 0.70986C5.87092 0.28934 6.90543 0.0790787 8 0.0790787C8.17895 0.0790787 8.32894 0.139634 8.44998 0.260743C8.57103 0.381852 8.63156 0.531915 8.63156 0.710933C8.63156 0.889965 8.57103 1.03994 8.44998 1.16085C8.32894 1.28176 8.17895 1.34222 8 1.34222C6.13333 1.34222 4.54385 1.99836 3.23157 3.31065C1.91928 4.62293 1.26314 6.21241 1.26314 8.07908C1.26314 9.94575 1.91928 11.5352 3.23157 12.8475C4.54385 14.1598 6.13333 14.8159 8 14.8159C9.86667 14.8159 11.4561 14.1598 12.7684 12.8475C14.0807 11.5352 14.7369 9.94575 14.7369 8.07908C14.7369 7.89986 14.7974 7.7498 14.9185 7.62889C15.0396 7.50797 15.1897 7.44752 15.3687 7.44752C15.5477 7.44752 15.6977 7.50805 15.8186 7.6291C15.9395 7.75014 16 7.90013 16 8.07908C16 9.17365 15.7897 10.2082 15.3692 11.1826C14.9487 12.157 14.3762 13.0065 13.6518 13.7309C12.9274 14.4553 12.081 15.0278 11.1127 15.4483C10.1444 15.8688 9.10598 16.0791 7.99743 16.0791Z" fill="#fffdfa"/>
</svg>
