<svg width="16" height="20" viewBox="0 0 16 20" fill="none" xmlns="http://www.w3.org/2000/svg">
<path d="M7.54975 9.93965C8.04733 9.93965 8.47272 9.76249 8.82592 9.40815C9.17912 9.05382 9.35573 8.62786 9.35573 8.13028C9.35573 7.63269 9.17856 7.2073 8.82423 6.8541C8.46989 6.5009 8.04393 6.3243 7.54635 6.3243C7.04877 6.3243 6.62338 6.50147 6.27018 6.8558C5.91698 7.21014 5.74038 7.63609 5.74038 8.13368C5.74038 8.63126 5.91754 9.05665 6.27187 9.40985C6.62621 9.76305 7.05217 9.93965 7.54975 9.93965ZM7.54805 19.5839C5.0314 17.4031 3.14423 15.3736 1.88653 13.4954C0.628842 11.6172 0 9.89287 0 8.32235C0 6.01469 0.746475 4.14643 2.23942 2.71758C3.73236 1.28873 5.5019 0.574303 7.54805 0.574303C9.5942 0.574303 11.3637 1.28873 12.8567 2.71758C14.3496 4.14643 15.0961 6.01469 15.0961 8.32235C15.0961 9.89287 14.4673 11.6172 13.2096 13.4954C11.9519 15.3736 10.0647 17.4031 7.54805 19.5839Z" fill="#052545"/>
</svg>
