<svg width="20" height="16" viewBox="0 0 20 16" fill="none" xmlns="http://www.w3.org/2000/svg">
<path d="M2.42074 15.2307C1.9156 15.2307 1.48804 15.0557 1.13804 14.7057C0.788037 14.3557 0.613037 13.9281 0.613037 13.423V2.03841C0.613037 1.53328 0.788037 1.10571 1.13804 0.755713C1.48804 0.405713 1.9156 0.230713 2.42074 0.230713H17.8053C18.3104 0.230713 18.738 0.405713 19.088 0.755713C19.438 1.10571 19.613 1.53328 19.613 2.03841V13.423C19.613 13.9281 19.438 14.3557 19.088 14.7057C18.738 15.0557 18.3104 15.2307 17.8053 15.2307H2.42074ZM10.113 8.28834L2.11301 3.17296V13.423C2.11301 13.5127 2.14186 13.5864 2.19956 13.6441C2.25726 13.7018 2.33099 13.7307 2.42074 13.7307H17.8053C17.895 13.7307 17.9688 13.7018 18.0265 13.6441C18.0842 13.5864 18.113 13.5127 18.113 13.423V3.17296L10.113 8.28834ZM10.113 6.73069L17.9592 1.73069H2.26686L10.113 6.73069ZM2.11301 3.17296V1.73069V13.423C2.11301 13.5127 2.14186 13.5864 2.19956 13.6441C2.25726 13.7018 2.33099 13.7307 2.42074 13.7307H2.11301V3.17296Z" fill="#052545"/>
</svg>
