<svg width="20" height="20" viewBox="0 0 20 20" fill="none" xmlns="http://www.w3.org/2000/svg">
<path d="M3.73295 19.5791C2.91373 19.5791 2.21213 19.2871 1.62815 18.7031C1.04418 18.1191 0.752197 17.4175 0.752197 16.5983C0.752197 15.7791 1.04418 15.0775 1.62815 14.4935C2.21213 13.9096 2.91373 13.6176 3.73295 13.6176C4.02628 13.6176 4.31147 13.6615 4.58852 13.7493C4.86557 13.8371 5.11948 13.9605 5.35025 14.1195L9.5022 9.96755V6.43865C8.85861 6.27327 8.32592 5.92606 7.90412 5.39703C7.48234 4.86798 7.27145 4.25559 7.27145 3.55985C7.27145 2.74064 7.56343 2.03904 8.1474 1.45505C8.73136 0.871086 9.43296 0.579102 10.2522 0.579102C11.0714 0.579102 11.773 0.871086 12.3569 1.45505C12.9409 2.03904 13.2329 2.74064 13.2329 3.55985C13.2329 4.25559 13.0236 4.86798 12.605 5.39703C12.1864 5.92606 11.6521 6.27327 11.0021 6.43865V9.96755L15.1695 14.1195C15.4003 13.9605 15.6511 13.8371 15.9219 13.7493C16.1928 13.6615 16.4759 13.6176 16.7714 13.6176C17.5906 13.6176 18.2922 13.9096 18.8762 14.4935C19.4602 15.0775 19.7521 15.7791 19.7521 16.5983C19.7521 17.4175 19.4602 18.1191 18.8762 18.7031C18.2922 19.2871 17.5906 19.5791 16.7714 19.5791C15.9522 19.5791 15.2506 19.2871 14.6666 18.7031C14.0827 18.1191 13.7907 17.4175 13.7907 16.5983C13.7907 16.3494 13.8202 16.1073 13.8791 15.8722C13.9381 15.637 14.0246 15.4169 14.1387 15.2118L10.2522 11.3252L6.3656 15.2118C6.4797 15.4169 6.56624 15.637 6.62522 15.8722C6.68419 16.1073 6.71367 16.3494 6.71367 16.5983C6.71367 17.4175 6.42169 18.1191 5.83772 18.7031C5.25376 19.2871 4.55216 19.5791 3.73295 19.5791ZM16.7703 18.0791C17.1813 18.0791 17.531 17.9352 17.8195 17.6475C18.1079 17.3598 18.2522 17.0105 18.2522 16.5995C18.2522 16.1884 18.1083 15.8387 17.8206 15.5502C17.5329 15.2618 17.1835 15.1176 16.7725 15.1176C16.3615 15.1176 16.0118 15.2614 15.7233 15.5491C15.4349 15.8368 15.2906 16.1862 15.2906 16.5972C15.2906 17.0082 15.4345 17.3579 15.7222 17.6464C16.0099 17.9348 16.3593 18.0791 16.7703 18.0791ZM10.251 5.0406C10.662 5.0406 11.0118 4.89675 11.3002 4.60905C11.5887 4.32135 11.7329 3.97199 11.7329 3.56098C11.7329 3.14996 11.5891 2.80023 11.3014 2.51178C11.0137 2.22331 10.6643 2.07908 10.2533 2.07908C9.8423 2.07908 9.49256 2.22293 9.2041 2.51063C8.91563 2.79834 8.7714 3.1477 8.7714 3.5587C8.7714 3.96972 8.91526 4.31946 9.20297 4.60793C9.49067 4.89638 9.84003 5.0406 10.251 5.0406ZM3.7318 18.0791C4.14281 18.0791 4.49256 17.9352 4.78102 17.6475C5.06947 17.3598 5.2137 17.0105 5.2137 16.5995C5.2137 16.1884 5.06985 15.8387 4.78215 15.5502C4.49445 15.2618 4.14509 15.1176 3.73407 15.1176C3.32306 15.1176 2.97332 15.2614 2.68487 15.5491C2.39641 15.8368 2.25217 16.1862 2.25217 16.5972C2.25217 17.0082 2.39602 17.3579 2.68372 17.6464C2.97144 17.9348 3.3208 18.0791 3.7318 18.0791Z" fill="#fffdfa"/>
</svg>
