<svg width="20" height="20" viewBox="0 0 20 20" fill="none" xmlns="http://www.w3.org/2000/svg">
<path d="M7.88474 19.2307C7.03604 19.2307 6.32387 18.9428 5.74822 18.3672C5.17258 17.7916 4.88477 17.0794 4.88477 16.2307C4.88477 16.0038 4.88797 15.8182 4.89439 15.6739C4.90079 15.5297 4.86297 15.4166 4.78092 15.3345C4.69887 15.2525 4.58572 15.2114 4.44149 15.2114H3.88474C3.03604 15.2114 2.32387 14.9268 1.74822 14.3576C1.17258 13.7884 0.884766 13.0794 0.884766 12.2307C0.884766 11.382 1.17258 10.6698 1.74822 10.0942C2.32387 9.51853 3.03604 9.23071 3.88474 9.23071C4.21037 9.23071 4.51229 9.27271 4.79049 9.35669C5.06869 9.44066 5.32062 9.56661 5.54627 9.73456C5.63602 9.80508 5.74019 9.84034 5.85879 9.84034C5.97739 9.84034 6.07836 9.79867 6.16169 9.71534L10.3309 5.54609C10.4143 5.46276 10.4623 5.35698 10.4752 5.22876C10.488 5.10055 10.4591 4.98836 10.3886 4.89221C10.2271 4.66016 10.1027 4.40664 10.0155 4.13164C9.92836 3.85664 9.88477 3.55632 9.88477 3.23069C9.88477 2.38199 10.1726 1.66981 10.7482 1.09416C11.3239 0.51853 12.036 0.230713 12.8847 0.230713C13.7334 0.230713 14.4456 0.51853 15.0213 1.09416C15.5969 1.66981 15.8847 2.38199 15.8847 3.23069C15.8847 3.45762 15.8815 3.64321 15.8751 3.78744C15.8687 3.93167 15.9065 4.04481 15.9886 4.12686C16.0706 4.20891 16.1838 4.24674 16.328 4.24034C16.4722 4.23392 16.6578 4.23071 16.8847 4.23071C17.7334 4.23071 18.4456 4.51853 19.0213 5.09416C19.5969 5.66981 19.8847 6.38199 19.8847 7.23069C19.8847 8.07939 19.5969 8.79156 19.0213 9.36721C18.4456 9.94285 17.7334 10.2307 16.8847 10.2307C16.5591 10.2307 16.2588 10.1871 15.9838 10.0999C15.7088 10.0127 15.4553 9.88835 15.2232 9.72681C15.1271 9.66271 15.0181 9.63547 14.8963 9.64509C14.7745 9.65469 14.6719 9.70116 14.5886 9.78451L10.4386 13.9345C10.3552 14.0178 10.3071 14.1156 10.2943 14.2278C10.2815 14.34 10.3039 14.4474 10.3616 14.5499C10.5168 14.782 10.6427 15.0387 10.7395 15.3201C10.8363 15.6015 10.8847 15.9051 10.8847 16.2307C10.8847 17.0794 10.5969 17.7916 10.0213 18.3672C9.44562 18.9428 8.73344 19.2307 7.88474 19.2307ZM7.88474 17.7307C8.31807 17.7307 8.67641 17.589 8.95974 17.3057C9.24308 17.0224 9.38474 16.664 9.38474 16.2307C9.38474 16.0807 9.36391 15.9349 9.32224 15.7932C9.28057 15.6515 9.21807 15.514 9.13474 15.3807C8.86422 14.9871 8.75077 14.5595 8.79437 14.098C8.83795 13.6365 9.03474 13.2307 9.38474 12.8807L13.5347 8.73069C13.8847 8.38069 14.2905 8.1855 14.752 8.14511C15.2136 8.10473 15.6412 8.21659 16.0347 8.48069C16.1681 8.56402 16.3056 8.62652 16.4472 8.66819C16.5889 8.70986 16.7347 8.73069 16.8847 8.73069C17.3181 8.73069 17.6764 8.58902 17.9597 8.30569C18.2431 8.02236 18.3847 7.66402 18.3847 7.23069C18.3847 6.79736 18.2431 6.43902 17.9597 6.15569C17.6764 5.87236 17.3181 5.73069 16.8847 5.73069C16.3527 5.73069 15.9524 5.69671 15.6838 5.62876C15.4152 5.56081 15.1655 5.41146 14.9347 5.18069C14.704 4.94992 14.5546 4.70024 14.4867 4.43164C14.4187 4.16306 14.3847 3.76274 14.3847 3.23069C14.3847 2.79736 14.2431 2.43902 13.9597 2.15569C13.6764 1.87236 13.3181 1.73069 12.8847 1.73069C12.4514 1.73069 12.0931 1.87236 11.8097 2.15569C11.5264 2.43902 11.3847 2.79736 11.3847 3.23069C11.3847 3.40121 11.403 3.55216 11.4395 3.68356C11.4761 3.81498 11.5412 3.94736 11.6347 4.08069C11.9053 4.47427 12.0187 4.90184 11.9751 5.36339C11.9315 5.82492 11.7347 6.23069 11.3847 6.58069L7.23474 10.7307C6.88474 11.0807 6.47897 11.2759 6.01744 11.3163C5.55589 11.3566 5.12832 11.2448 4.73474 10.9807C4.60141 10.8974 4.46391 10.8349 4.32224 10.7932C4.18057 10.7515 4.03474 10.7307 3.88474 10.7307C3.45141 10.7307 3.09307 10.8724 2.80974 11.1557C2.52641 11.439 2.38474 11.7974 2.38474 12.2307C2.38474 12.664 2.52641 13.0191 2.80974 13.2961C3.09307 13.573 3.45141 13.7115 3.88474 13.7115C4.41679 13.7115 4.81711 13.7486 5.08569 13.823C5.35429 13.8974 5.60397 14.0499 5.83474 14.2807C6.06551 14.5115 6.21487 14.7643 6.28282 15.0393C6.35077 15.3143 6.38474 15.7179 6.38474 16.2499C6.38474 16.6832 6.52641 17.0384 6.80974 17.3153C7.09307 17.5922 7.45141 17.7307 7.88474 17.7307Z" fill="#fffdfa"/>
</svg>
