<svg width="20" height="16" viewBox="0 0 20 16" fill="none" xmlns="http://www.w3.org/2000/svg">
<path d="M5.15575 2.86754V1.79061C5.15575 1.37813 5.30261 1.02501 5.59635 0.731264C5.8901 0.43753 6.24321 0.290665 6.6557 0.290665H12.4634C12.8759 0.290665 13.229 0.43753 13.5227 0.731264C13.8165 1.02501 13.9633 1.37813 13.9633 1.79061V2.86754H15.2595C15.557 2.86754 15.8265 2.94959 16.0682 3.11369C16.3098 3.27779 16.4864 3.49317 16.598 3.75984L18.8903 8.98674C18.9467 9.12649 18.989 9.27105 19.0172 9.42041C19.0454 9.56976 19.0595 9.71004 19.0595 9.84124V14.3675C19.0595 14.78 18.9126 15.1331 18.6189 15.4269C18.3251 15.7206 17.972 15.8675 17.5595 15.8675H1.55955C1.14706 15.8675 0.793945 15.7206 0.500195 15.4269C0.206445 15.1331 0.0595703 14.78 0.0595703 14.3675V9.84444C0.0595703 9.69187 0.0736787 9.54572 0.101895 9.40599C0.130095 9.26624 0.172404 9.12649 0.22882 8.98674L2.52112 3.75984C2.63265 3.49317 2.80925 3.27779 3.05092 3.11369C3.29257 2.94959 3.56211 2.86754 3.85955 2.86754H5.15575ZM6.6557 2.86754H12.4634V1.79061H6.6557V2.86754ZM4.80957 8.71369V7.71369H6.30952V8.71369H12.8096V7.71369H14.3095V8.71369H17.1326L15.2595 4.36751H3.85955L1.98645 8.71369H4.80957ZM4.80957 10.2137H1.55955V14.3675H17.5595V10.2137H14.3095V11.2137H12.8096V10.2137H6.30952V11.2137H4.80957V10.2137Z" fill="#fffdfa"/>
</svg>
