<svg width="11" height="19" viewBox="0 0 11 19" fill="none" xmlns="http://www.w3.org/2000/svg">
<path d="M0.0960577 2.40492C0.0960577 1.92637 0.261847 1.52131 0.593427 1.18973C0.925007 0.85815 1.33007 0.69236 1.80862 0.69236L8.80453 0.69236C9.28308 0.69236 9.68814 0.85815 10.0197 1.18973C10.3513 1.52131 10.5171 1.92637 10.5171 2.40492L10.5171 16.9798C10.5171 17.4583 10.3513 17.8634 10.0197 18.195C9.68814 18.5266 9.28308 18.6924 8.80453 18.6924H1.80862C1.33007 18.6924 0.925007 18.5266 0.593427 18.195C0.261847 17.8634 0.0960577 17.4583 0.0960577 16.9798L0.0960577 2.40492ZM1.51709 2.40492L1.51709 16.9798C1.51709 17.0527 1.54745 17.1195 1.60818 17.1802C1.66892 17.241 1.73573 17.2713 1.80862 17.2713H8.80453C8.87741 17.2713 8.94422 17.241 9.00497 17.1802C9.06569 17.1195 9.09606 17.0527 9.09606 16.9798V14.1923H5.67098V12.7713H9.09606V10.4029H5.67098V8.98186H9.09606V6.61338H5.67098V5.19237H9.09606V2.40492C9.09606 2.33204 9.06569 2.26522 9.00497 2.20448C8.94422 2.14376 8.87741 2.11339 8.80453 2.11339L1.80862 2.11339C1.73573 2.11339 1.66892 2.14376 1.60818 2.20448C1.54745 2.26522 1.51709 2.33204 1.51709 2.40492Z" fill="#fffdfa"/>
</svg>
