<svg width="132" height="130" viewBox="0 0 132 130" fill="none" xmlns="http://www.w3.org/2000/svg">
<mask id="mask0_2922_213" style="mask-type:luminance" maskUnits="userSpaceOnUse" x="18" y="17" width="114" height="113">
<path d="M18.6216 17.1211H131.215V129.715H18.6216V17.1211Z" fill="white"/>
</mask>
<g mask="url(#mask0_2922_213)">
<mask id="mask1_2922_213" style="mask-type:luminance" maskUnits="userSpaceOnUse" x="18" y="17" width="114" height="113">
<path d="M74.9185 17.1211C43.8299 17.1211 18.6216 42.3242 18.6216 73.418C18.6216 104.512 43.8299 129.715 74.9185 129.715C106.012 129.715 131.215 104.512 131.215 73.418C131.215 42.3242 106.012 17.1211 74.9185 17.1211Z" fill="white"/>
</mask>
<g mask="url(#mask1_2922_213)">
<path d="M74.9185 17.1211C43.8299 17.1211 18.6216 42.3242 18.6216 73.418C18.6216 104.512 43.8299 129.715 74.9185 129.715C106.012 129.715 131.215 104.512 131.215 73.418C131.215 42.3242 106.012 17.1211 74.9185 17.1211Z" stroke="#FFFDFA" stroke-width="2"/>
</g>
</g>
<mask id="mask2_2922_213" style="mask-type:luminance" maskUnits="userSpaceOnUse" x="23" y="22" width="103" height="103">
<path d="M23.9028 22.3965H125.898V124.396H23.9028V22.3965Z" fill="white"/>
</mask>
<g mask="url(#mask2_2922_213)">
<mask id="mask3_2922_213" style="mask-type:luminance" maskUnits="userSpaceOnUse" x="23" y="22" width="103" height="103">
<path d="M74.9237 22.3965C46.7466 22.3965 23.9028 45.1725 23.9028 73.2663C23.9028 101.355 46.7466 124.131 74.9237 124.131C103.101 124.131 125.939 101.355 125.939 73.2663C125.939 45.1725 103.101 22.3965 74.9237 22.3965Z" fill="white"/>
</mask>
<g mask="url(#mask3_2922_213)">
<path d="M74.9237 22.3965C46.7466 22.3965 23.9028 45.1725 23.9028 73.2663C23.9028 101.355 46.7466 124.131 74.9237 124.131C103.101 124.131 125.939 101.355 125.939 73.2663C125.939 45.1725 103.101 22.3965 74.9237 22.3965Z" stroke="#FFFDFA" stroke-width="2"/>
</g>
</g>
<path d="M34.0645 102.803H115.814" stroke="#FFFDFA"/>
<mask id="mask4_2922_213" style="mask-type:luminance" maskUnits="userSpaceOnUse" x="43" y="57" width="17" height="10">
<path d="M43.5903 57.5273H59.5903V66.7669H43.5903V57.5273Z" fill="white"/>
</mask>
<g mask="url(#mask4_2922_213)">
<path d="M58.981 62.6003L58.1685 59.3659C58.0383 58.8242 57.7518 58.3815 57.3091 58.043C56.8716 57.6992 56.3768 57.5273 55.8195 57.5273H47.0278C46.4705 57.5273 45.9705 57.6992 45.533 58.043C45.0955 58.3867 44.8091 58.8242 44.6737 59.3659L43.8664 62.6003C43.7726 62.9596 43.7674 63.3242 43.8455 63.6888C43.9237 64.0534 44.0747 64.3867 44.3039 64.6784C44.5383 64.9753 44.8195 65.2044 45.1528 65.3659C45.4914 65.5326 45.8455 65.6107 46.2153 65.6107H56.6268C57.0018 65.6107 57.356 65.5326 57.6893 65.3659C58.0278 65.2044 58.3091 64.9753 58.5383 64.6784C58.7674 64.3867 58.9237 64.0534 58.9966 63.6888C59.0747 63.3242 59.0695 62.9596 58.981 62.6003Z" fill="#FFFDFA"/>
</g>
<mask id="mask5_2922_213" style="mask-type:luminance" maskUnits="userSpaceOnUse" x="34" y="93" width="35" height="10">
<path d="M34.2573 93.4336H68.924V102.527H34.2573V93.4336Z" fill="white"/>
</mask>
<g mask="url(#mask5_2922_213)">
<path d="M68.0334 96.2454C67.7366 95.7663 67.3459 95.3913 66.8564 95.1152C66.3668 94.8444 65.8407 94.709 65.2834 94.709H37.5647C37.2886 94.709 37.0178 94.7454 36.7522 94.8132C36.4814 94.8861 36.2314 94.985 35.9866 95.1204C35.747 95.2559 35.5282 95.4173 35.3303 95.6048C35.1324 95.7975 34.9553 96.0111 34.8147 96.2454C34.6689 96.4798 34.5543 96.7298 34.4761 96.9902C34.3928 97.2559 34.3459 97.5215 34.3355 97.7975C34.3199 98.0736 34.3459 98.3444 34.4032 98.6152C34.4553 98.8861 34.5491 99.1413 34.6689 99.3913L35.0334 100.115C35.4397 100.938 36.0386 101.589 36.8199 102.074C37.6011 102.558 38.4501 102.798 39.372 102.792H63.4761C64.3928 102.798 65.247 102.558 66.0282 102.074C66.8095 101.589 67.4032 100.938 67.8147 100.115L68.1741 99.3913C68.4241 98.8913 68.5386 98.36 68.5126 97.7975C68.4918 97.2402 68.3303 96.7194 68.0334 96.2454Z" fill="#FFFDFA"/>
</g>
<path d="M48.1896 68.8451C47.9657 68.8451 47.7729 68.7669 47.6167 68.6107C47.4604 68.4492 47.3823 68.2617 47.3823 68.0378V64.8034C47.3823 64.5794 47.4604 64.3919 47.6167 64.2305C47.7729 64.0742 47.9657 63.9961 48.1896 63.9961C48.4136 63.9961 48.6011 64.0742 48.7625 64.2305C48.9188 64.3919 48.9969 64.5794 48.9969 64.8034V68.0378C48.9969 68.2617 48.9188 68.4492 48.7625 68.6107C48.6011 68.7669 48.4136 68.8451 48.1896 68.8451Z" fill="#FFFDFA"/>
<path d="M54.653 68.8451C54.4342 68.8451 54.2415 68.7669 54.0853 68.6107C53.9238 68.4492 53.8457 68.2617 53.8457 68.0378V64.8034C53.8457 64.5794 53.9238 64.3919 54.0853 64.2305C54.2415 64.0742 54.4342 63.9961 54.653 63.9961C54.877 63.9961 55.0697 64.0742 55.2259 64.2305C55.3874 64.3919 55.4655 64.5794 55.4655 64.8034V68.0378C55.4655 68.2617 55.3874 68.4492 55.2259 68.6107C55.0697 68.7669 54.877 68.8451 54.653 68.8451Z" fill="#FFFDFA"/>
<path d="M57.8875 73.6934H44.9552C44.7313 73.6934 44.5438 73.7715 44.3823 73.9329C44.2261 74.0892 44.1479 74.2819 44.1479 74.5007V80.1621H58.6948V74.5007C58.6948 74.2819 58.6167 74.0892 58.4604 73.9329C58.3042 73.7715 58.1115 73.6934 57.8875 73.6934Z" fill="#FFFDFA"/>
<path d="M42.5334 93.0951V74.5013C42.5334 74.1836 42.5907 73.8711 42.7157 73.5742C42.8407 73.2773 43.0125 73.0169 43.2417 72.7878C43.4709 72.5638 43.7313 72.3867 44.0282 72.2617C44.325 72.1419 44.6323 72.0794 44.9552 72.0794H57.8875C58.2105 72.0794 58.5177 72.1419 58.8146 72.2617C59.1115 72.3867 59.3771 72.5638 59.6011 72.7878C59.8302 73.0169 60.0073 73.2773 60.1271 73.5742C60.2521 73.8711 60.3146 74.1836 60.3146 74.5013V93.0951H65.1636V74.5013C65.1636 74.0273 65.1167 73.5534 65.023 73.0846C64.9292 72.6159 64.7886 72.1628 64.6063 71.7201C64.424 71.2773 64.2 70.8607 63.9344 70.4648C63.6688 70.069 63.3667 69.6992 63.0282 69.3607C62.6948 69.0221 62.325 68.7201 61.9292 68.4596C61.5334 68.194 61.1115 67.9701 60.674 67.7826C60.2313 67.6003 59.7782 67.4648 59.3094 67.3711C58.8407 67.2773 58.3667 67.2305 57.8875 67.2305H44.9552C44.4761 67.2305 44.0073 67.2773 43.5386 67.3711C43.0698 67.4648 42.6167 67.6003 42.174 67.7826C41.7313 67.9701 41.3146 68.194 40.9136 68.4596C40.5177 68.7201 40.1532 69.0221 39.8146 69.3607C39.4761 69.6992 39.174 70.069 38.9084 70.4648C38.6427 70.8607 38.4188 71.2773 38.2365 71.7201C38.0542 72.1628 37.9136 72.6159 37.8198 73.0846C37.7261 73.5534 37.6792 74.0273 37.6792 74.5013V93.0951H42.5334Z" fill="#FFFDFA"/>
<path d="M44.1479 81.7773H58.6948V93.0951H44.1479V81.7773Z" fill="#FFFDFA"/>
<mask id="mask6_2922_213" style="mask-type:luminance" maskUnits="userSpaceOnUse" x="90" y="57" width="17" height="10">
<path d="M90.2573 57.5273H106.257V66.7669H90.2573V57.5273Z" fill="white"/>
</mask>
<g mask="url(#mask6_2922_213)">
<path d="M105.929 62.6003L105.122 59.3659C104.986 58.8242 104.7 58.3815 104.257 58.043C103.82 57.6992 103.325 57.5273 102.768 57.5273H93.9761C93.4188 57.5273 92.9188 57.6992 92.4813 58.043C92.0438 58.3867 91.7573 58.8242 91.6219 59.3659L90.8146 62.6003C90.7209 62.9596 90.7157 63.3242 90.7938 63.6888C90.8719 64.0534 91.023 64.3867 91.2573 64.6784C91.4865 64.9753 91.7677 65.2044 92.1011 65.3659C92.4396 65.5326 92.7938 65.6107 93.1688 65.6107H103.575C103.95 65.6107 104.304 65.5326 104.638 65.3659C104.976 65.2044 105.257 64.9753 105.486 64.6784C105.716 64.3867 105.872 64.0534 105.95 63.6888C106.023 63.3242 106.018 62.9596 105.929 62.6003Z" fill="#FFFDFA"/>
</g>
<mask id="mask7_2922_213" style="mask-type:luminance" maskUnits="userSpaceOnUse" x="81" y="93" width="35" height="10">
<path d="M81.0122 93.4336H115.59V102.527H81.0122V93.4336Z" fill="white"/>
</mask>
<g mask="url(#mask7_2922_213)">
<path d="M114.981 96.2454C114.689 95.7663 114.293 95.3913 113.804 95.1152C113.314 94.8444 112.788 94.709 112.231 94.709H84.5122C84.2362 94.709 83.9653 94.7454 83.6997 94.8132C83.4289 94.8861 83.1789 94.985 82.9393 95.1204C82.6945 95.2559 82.4757 95.4173 82.2778 95.6048C82.0799 95.7975 81.908 96.0111 81.7622 96.2454C81.6164 96.4798 81.5018 96.7298 81.4237 96.9902C81.3403 97.2559 81.2934 97.5215 81.283 97.7975C81.2674 98.0736 81.2934 98.3444 81.3507 98.6152C81.408 98.8861 81.4966 99.1413 81.6216 99.3913L81.9809 100.115C82.3872 100.938 82.9862 101.589 83.7674 102.074C84.5487 102.558 85.3976 102.798 86.3195 102.792H110.424C111.34 102.798 112.194 102.558 112.976 102.074C113.757 101.589 114.351 100.938 114.762 100.115L115.122 99.3913C115.377 98.8913 115.486 98.36 115.465 97.7975C115.439 97.2402 115.278 96.7194 114.981 96.2454Z" fill="#FFFDFA"/>
</g>
<path d="M95.1374 68.8451C94.9134 68.8451 94.7259 68.7669 94.5645 68.6107C94.4082 68.4492 94.3301 68.2617 94.3301 68.0378V64.8034C94.3301 64.5794 94.4082 64.3919 94.5645 64.2305C94.7259 64.0742 94.9134 63.9961 95.1374 63.9961C95.3613 63.9961 95.5488 64.0742 95.7103 64.2305C95.8665 64.3919 95.9447 64.5794 95.9447 64.8034V68.0378C95.9447 68.2617 95.8665 68.4492 95.7103 68.6107C95.5488 68.7669 95.3613 68.8451 95.1374 68.8451Z" fill="#FFFDFA"/>
<path d="M101.606 68.8451C101.382 68.8451 101.189 68.7669 101.033 68.6107C100.877 68.4492 100.793 68.2617 100.793 68.0378V64.8034C100.793 64.5794 100.877 64.3919 101.033 64.2305C101.189 64.0742 101.382 63.9961 101.606 63.9961C101.825 63.9961 102.017 64.0742 102.174 64.2305C102.335 64.3919 102.413 64.5794 102.413 64.8034V68.0378C102.413 68.2617 102.335 68.4492 102.174 68.6107C102.017 68.7669 101.825 68.8451 101.606 68.8451Z" fill="#FFFDFA"/>
<path d="M104.835 73.6934H91.903C91.679 73.6934 91.4915 73.7715 91.3353 73.9329C91.1738 74.0892 91.0957 74.2819 91.0957 74.5007V80.1621H105.648V74.5007C105.648 74.2819 105.564 74.0892 105.408 73.9329C105.252 73.7715 105.059 73.6934 104.835 73.6934Z" fill="#FFFDFA"/>
<path d="M89.4811 93.0951V74.5013C89.4811 74.1836 89.5436 73.8711 89.6634 73.5742C89.7884 73.2773 89.9655 73.0169 90.1895 72.7878C90.4186 72.5638 90.679 72.3867 90.9759 72.2617C91.2728 72.1419 91.5853 72.0794 91.903 72.0794H104.835C105.158 72.0794 105.465 72.1419 105.762 72.2617C106.059 72.3867 106.325 72.5638 106.549 72.7878C106.778 73.0169 106.955 73.2773 107.075 73.5742C107.2 73.8711 107.262 74.1836 107.262 74.5013V93.0951H112.111V74.5013C112.111 74.0273 112.064 73.5534 111.971 73.0846C111.877 72.6159 111.742 72.1628 111.554 71.7201C111.372 71.2773 111.148 70.8607 110.882 70.4648C110.617 70.069 110.314 69.6992 109.981 69.3607C109.643 69.0221 109.273 68.7201 108.877 68.4596C108.481 68.194 108.059 67.9701 107.622 67.7826C107.179 67.6003 106.726 67.4648 106.257 67.3711C105.788 67.2773 105.314 67.2305 104.835 67.2305H91.903C91.429 67.2305 90.9551 67.2773 90.4863 67.3711C90.0176 67.4648 89.5645 67.6003 89.1217 67.7826C88.679 67.9701 88.2624 68.194 87.8665 68.4596C87.4655 68.7201 87.1009 69.0221 86.7624 69.3607C86.4238 69.6992 86.1217 70.069 85.8561 70.4648C85.5905 70.8607 85.3665 71.2773 85.1842 71.7201C85.002 72.1628 84.8665 72.6159 84.7728 73.0846C84.679 73.5534 84.6322 74.0273 84.627 74.5013V93.0951H89.4811Z" fill="#FFFDFA"/>
<path d="M91.0957 81.7773H105.648V93.0951H91.0957V81.7773Z" fill="#FFFDFA"/>
<path d="M29.8301 11.7246H125.45" stroke="#FFFDFA"/>
<path d="M29.5801 10.2246L27.5801 11.7246L29.5801 13.2246V10.2246Z" fill="#FFFDFA" stroke="#FFFDFA" stroke-linecap="round" stroke-linejoin="round"/>
<path d="M123.45 10.2246L125.45 11.7246L123.45 13.2246" stroke="#FFFDFA" stroke-linecap="round" stroke-linejoin="round"/>
<path d="M10.7832 100.043V22.8919" stroke="#FFFDFA"/>
<path d="M9.2832 100.293L10.7832 102.293L12.2832 100.293H9.2832Z" fill="#FFFDFA" stroke="#FFFDFA" stroke-linecap="round" stroke-linejoin="round"/>
<path d="M9.2832 24.8926L10.7832 22.8926L12.2832 24.8926" stroke="#FFFDFA" stroke-linecap="round" stroke-linejoin="round"/>
<path d="M68.0335 4.25V0.979167H67.0752V0.5625C67.2835 0.552083 67.4554 0.531251 67.596 0.5C67.7314 0.473959 67.8512 0.427083 67.9502 0.354167C68.0439 0.270833 68.1273 0.156251 68.2002 0H68.6585V4.25H68.0335Z" fill="#FFFDFA"/>
<path d="M69.5032 4.25065V3.52148H70.2323V4.25065H69.5032Z" fill="#FFFDFA"/>
<path d="M73.0983 2.875C73.0983 2.65625 73.0462 2.47396 72.9525 2.33333C72.8691 2.18229 72.7546 2.07292 72.6191 2C72.4785 1.93229 72.3379 1.89583 72.2025 1.89583C71.9941 1.89583 71.8171 1.94792 71.6816 2.04167C71.541 2.14063 71.4525 2.24479 71.4108 2.35417L70.8066 2.33333L71.0983 0H73.5775V0.5625H71.5983L71.4525 1.6875C71.5618 1.59375 71.6921 1.52083 71.8483 1.47917C71.9993 1.42708 72.166 1.39583 72.3483 1.39583C72.5827 1.39583 72.8066 1.45313 73.015 1.5625C73.2337 1.67708 73.4108 1.84375 73.5358 2.0625C73.6712 2.28646 73.7441 2.55208 73.7441 2.85417C73.7441 3.17708 73.666 3.44792 73.515 3.66667C73.3743 3.89063 73.1868 4.05729 72.9525 4.16667C72.7285 4.27604 72.4785 4.33333 72.2025 4.33333C71.8691 4.33333 71.5879 4.27083 71.3691 4.14583C71.1608 4.02083 70.9941 3.85417 70.8691 3.64583C70.7546 3.4375 70.6921 3.21875 70.6816 2.97917H71.2858C71.3118 3.24479 71.4004 3.45313 71.5566 3.60417C71.7077 3.76042 71.9212 3.83333 72.2025 3.83333C72.3691 3.83333 72.5202 3.80208 72.6608 3.72917C72.7962 3.64583 72.9004 3.53646 72.9733 3.39583C73.0566 3.24479 73.0983 3.07292 73.0983 2.875Z" fill="#FFFDFA"/>
<path d="M76.6398 2.875C76.6398 2.65625 76.5877 2.47396 76.494 2.33333C76.4106 2.18229 76.2961 2.07292 76.1606 2C76.02 1.93229 75.8794 1.89583 75.744 1.89583C75.5356 1.89583 75.3586 1.94792 75.2231 2.04167C75.0825 2.14063 74.994 2.24479 74.9523 2.35417L74.3481 2.33333L74.6398 0H77.119V0.5625H75.1398L74.994 1.6875C75.1034 1.59375 75.2336 1.52083 75.3898 1.47917C75.5409 1.42708 75.7075 1.39583 75.8898 1.39583C76.1242 1.39583 76.3481 1.45313 76.5565 1.5625C76.7752 1.67708 76.9523 1.84375 77.0773 2.0625C77.2127 2.28646 77.2856 2.55208 77.2856 2.85417C77.2856 3.17708 77.2075 3.44792 77.0565 3.66667C76.9159 3.89063 76.7284 4.05729 76.494 4.16667C76.27 4.27604 76.02 4.33333 75.744 4.33333C75.4106 4.33333 75.1294 4.27083 74.9106 4.14583C74.7023 4.02083 74.5356 3.85417 74.4106 3.64583C74.2961 3.4375 74.2336 3.21875 74.2231 2.97917H74.8273C74.8534 3.24479 74.9419 3.45313 75.0981 3.60417C75.2492 3.76042 75.4627 3.83333 75.744 3.83333C75.9106 3.83333 76.0617 3.80208 76.2023 3.72917C76.3377 3.64583 76.4419 3.53646 76.5148 3.39583C76.5981 3.24479 76.6398 3.07292 76.6398 2.875Z" fill="#FFFDFA"/>
<path d="M78.5566 4.24935H77.9524V1.10352H78.5566V1.56185C78.6399 1.39518 78.7545 1.27018 78.9107 1.18685C79.0618 1.0931 79.2545 1.04102 79.4941 1.04102C79.7284 1.04102 79.9159 1.0931 80.0566 1.18685C80.2076 1.28581 80.317 1.42643 80.3899 1.60352C80.5253 1.41081 80.6868 1.27018 80.8691 1.18685C81.0461 1.0931 81.2336 1.04102 81.4316 1.04102C81.8066 1.04102 82.067 1.1556 82.2232 1.37435C82.3899 1.59831 82.4732 1.89518 82.4732 2.27018V4.24935H81.8482V2.43685C81.8482 2.28581 81.8326 2.13997 81.8066 1.99935C81.7753 1.86393 81.7232 1.74935 81.6399 1.66602C81.5566 1.58268 81.4211 1.54102 81.2441 1.54102C80.9941 1.54102 80.8066 1.63476 80.6816 1.81185C80.567 1.99414 80.5149 2.24414 80.5149 2.56185V4.24935H79.9107V2.43685C79.9107 2.28581 79.8951 2.13997 79.8691 1.99935C79.8378 1.86393 79.7753 1.74935 79.6816 1.66602C79.5982 1.58268 79.4628 1.54102 79.2857 1.54102C79.0357 1.54102 78.8482 1.63476 78.7232 1.81185C78.6086 1.99414 78.5566 2.24414 78.5566 2.56185V4.24935Z" fill="#FFFDFA"/>
<path d="M4.3125 71.4512H1.04167V72.4095H0.625C0.614583 72.2012 0.593751 72.0293 0.5625 71.8887C0.536459 71.7533 0.489583 71.6335 0.416667 71.5345C0.333333 71.4408 0.218751 71.3574 0.0625 71.2845V70.8262H4.3125V71.4512Z" fill="#FFFDFA"/>
<path d="M4.31242 69.9811H3.58325V69.252H4.31242V69.9811Z" fill="#FFFDFA"/>
<path d="M2.9375 66.3861C2.71875 66.3861 2.53646 66.4382 2.39583 66.5319C2.24479 66.6152 2.13542 66.7298 2.0625 66.8652C1.99479 67.0059 1.95833 67.1465 1.95833 67.2819C1.95833 67.4902 2.01042 67.6673 2.10417 67.8027C2.20313 67.9434 2.30729 68.0319 2.41667 68.0736L2.39583 68.6777L0.0625 68.3861V65.9069H0.625V67.8861L1.75 68.0319C1.65625 67.9225 1.58333 67.7923 1.54167 67.6361C1.48958 67.485 1.45833 67.3184 1.45833 67.1361C1.45833 66.9017 1.51563 66.6777 1.625 66.4694C1.73958 66.2507 1.90625 66.0736 2.125 65.9486C2.34896 65.8132 2.61458 65.7402 2.91667 65.7402C3.23958 65.7402 3.51042 65.8184 3.72917 65.9694C3.95313 66.11 4.11979 66.2975 4.22917 66.5319C4.33854 66.7559 4.39583 67.0059 4.39583 67.2819C4.39583 67.6152 4.33333 67.8965 4.20833 68.1152C4.08333 68.3236 3.91667 68.4902 3.70833 68.6152C3.5 68.7298 3.28125 68.7923 3.04167 68.8027V68.1986C3.30729 68.1725 3.51563 68.084 3.66667 67.9277C3.82292 67.7767 3.89583 67.5632 3.89583 67.2819C3.89583 67.1152 3.86458 66.9642 3.79167 66.8236C3.70833 66.6882 3.59896 66.584 3.45833 66.5111C3.30729 66.4277 3.13542 66.3861 2.9375 66.3861Z" fill="#FFFDFA"/>
<path d="M2.1875 65.2409C1.74479 65.2409 1.36458 65.1784 1.04167 65.0534C0.708333 64.9284 0.453125 64.7513 0.270833 64.5117C0.0937507 64.2617 0 63.9492 0 63.5742C0 63.1888 0.0937507 62.8763 0.270833 62.6367C0.453125 62.3867 0.708333 62.1992 1.04167 62.0742C1.36458 61.9492 1.74479 61.8867 2.1875 61.8867C2.63542 61.8867 3.02083 61.9492 3.35417 62.0742C3.6875 62.1992 3.94792 62.3867 4.125 62.6367C4.30729 62.8763 4.39583 63.1888 4.39583 63.5742C4.39583 63.9492 4.30729 64.2617 4.125 64.5117C3.94792 64.7513 3.6875 64.9284 3.35417 65.0534C3.02083 65.1784 2.63542 65.2409 2.1875 65.2409ZM2.1875 62.5326C1.63542 62.5326 1.20833 62.6263 0.916667 62.8034C0.625 62.9857 0.479167 63.2409 0.479167 63.5742C0.479167 63.8971 0.625 64.1471 0.916667 64.3242C1.20833 64.5065 1.63542 64.5951 2.1875 64.5951C2.76042 64.5951 3.1875 64.5065 3.47917 64.3242C3.76042 64.1471 3.89583 63.8971 3.89583 63.5742C3.89583 63.2409 3.76042 62.9857 3.47917 62.8034C3.1875 62.6263 2.76042 62.5326 2.1875 62.5326Z" fill="#FFFDFA"/>
<path d="M4.31234 60.6178V61.222H1.1665V60.6178H1.62484C1.45817 60.5345 1.33317 60.4199 1.24984 60.2637C1.15609 60.1126 1.104 59.9199 1.104 59.6803C1.104 59.446 1.15609 59.2585 1.24984 59.1178C1.3488 58.9668 1.48942 58.8574 1.6665 58.7845C1.4738 58.6491 1.33317 58.4876 1.24984 58.3053C1.15609 58.1283 1.104 57.9408 1.104 57.7428C1.104 57.3678 1.21859 57.1074 1.43734 56.9512C1.6613 56.7845 1.95817 56.7012 2.33317 56.7012H4.31234V57.3262H2.49984C2.3488 57.3262 2.20296 57.3418 2.06234 57.3678C1.92692 57.3991 1.81234 57.4512 1.729 57.5345C1.64567 57.6178 1.604 57.7533 1.604 57.9303C1.604 58.1803 1.69775 58.3678 1.87484 58.4928C2.05713 58.6074 2.30713 58.6595 2.62484 58.6595H4.31234V59.2637H2.49984C2.3488 59.2637 2.20296 59.2793 2.06234 59.3053C1.92692 59.3366 1.81234 59.3991 1.729 59.4928C1.64567 59.5762 1.604 59.7116 1.604 59.8887C1.604 60.1387 1.69775 60.3262 1.87484 60.4512C2.05713 60.5658 2.30713 60.6178 2.62484 60.6178H4.31234Z" fill="#FFFDFA"/>
</svg>
