<svg width="388" height="79" viewBox="0 0 388 79" fill="none" xmlns="http://www.w3.org/2000/svg">
<path d="M144.9 7.09981C142.7 7.09981 138.6 7.2998 135.8 7.4998C133 7.5998 130.6 7.7998 130.4 7.7998C130.1 7.7998 130.1 8.5998 130.1 39.4998C130.1 70.3998 130.1 71.1998 130.4 71.1998C130.7 71.1998 132.9 71.2998 135.7 71.3998C146.9 71.9998 151.1 71.9998 237.2 71.9998H323.6V6.9998H236.2C188.1 6.9998 147 7.0998 144.8 7.1998M323.2 39.3998V71.3998H181.5V66.1998C181.5 60.5998 181.5 60.0998 180.6 59.6998C180.1 59.4998 161 59.3998 160.3 59.6998C159.3 59.9998 159.3 60.3998 159.3 66.1998V71.3998H151.4C139.9 71.0998 138 70.9998 136.7 70.3998C135.5 69.7998 135.5 69.7998 136.2 69.5998C136.7 69.4998 136.6 69.3998 135.8 69.5998C134.7 69.5998 134.6 69.7998 134.8 70.0998C135.1 70.3998 135 70.5998 134.7 70.5998C134.4 70.5998 134.4 70.5998 134.4 70.7998C134.4 70.9998 133.9 70.9998 133.2 70.9998C132.5 70.9998 132 70.9998 132 70.7998C132 70.5998 131.7 70.5998 131.3 70.5998H130.6V8.3998H132C133.7 8.1998 139.7 7.8998 144.2 7.6998C146.1 7.6998 187.2 7.5998 235.5 7.4998H323.4V39.4998M166.3 8.09981C165.9 8.49981 165.8 8.5998 165.7 9.6998V10.8998H149.3V30.0998H131.1V48.2998H157V58.4998H184V68.1998H191V69.1998C191 70.0998 191 70.1998 191.5 70.7998L192 71.3998H201.9L202.4 70.7998C202.8 70.2998 202.9 70.0998 202.9 69.1998V68.1998H214.7V68.9998C214.7 71.1998 214.9 71.2998 220.6 71.2998H225.5L226.1 70.6998C226.6 70.1998 226.7 69.9998 226.7 69.0998V68.0998H238.2V69.0998C238.2 69.9998 238.2 70.0998 238.8 70.6998L239.4 71.2998H244.3C247 71.2998 249.3 71.2998 249.4 71.1998C250 70.7998 250.5 69.7998 250.5 68.9998V68.1998H262V69.1998C262 70.0998 262.3 70.7998 262.9 71.1998C263.1 71.2998 272.6 71.3998 273.1 71.1998C273.5 71.0998 274 69.8998 274 68.9998V68.1998H290.4V48.1998H295.6V68.1998H299.4V69.1998C299.4 70.0998 299.4 70.1998 300 70.7998L300.6 71.3998H305.5C311.3 71.3998 311.6 71.2998 311.6 69.0998V68.2998H320.6V11.0998H311.6V10.2998C311.6 7.9998 311.5 7.9998 305.4 7.9998H300.5L299.9 8.59981C299.4 9.09981 299.3 9.1998 299.3 10.1998V11.1998H295.5V31.1998H290.3V11.1998H273.9V10.3998C273.9 8.0998 273.9 8.09981 267.9 8.09981H263L262.5 8.4998C262.1 8.7998 262 8.99981 262 10.0998V11.2998H250.5V10.4998C250.5 9.5998 250 8.5998 249.5 8.3998C249.3 8.3998 247.2 8.1998 244.3 8.1998H239.4L238.9 8.59981C238.5 8.89981 238.4 9.0998 238.4 10.1998V11.3998H228V8.2998H222C214.8 8.2998 214.9 8.29981 214.9 10.5998V11.3998H203.1V10.1998C203 9.1998 202.9 8.99981 202.5 8.59981L202 8.1998H192L191.5 8.59981C191.1 8.89981 191 9.0998 191 10.1998V11.3998H178.4V8.2998H166.6L166.1 8.6998M175.8 8.59981V9.09981H171.1C166.5 9.09981 166.2 9.09981 166.7 8.59981C167.2 8.19981 167.3 8.1998 171.6 8.1998H175.7V8.6998M225.2 8.59981C225.3 9.89981 225.6 10.3998 226.1 10.3998C226.6 10.3998 226.6 10.3998 226.6 10.5998C226.6 10.7998 225.9 10.7998 221 10.7998H215.4V10.0998C215.4 8.09981 215.6 7.99981 220.9 8.09981H225.2V8.4998M248.8 8.1998C249.4 8.3998 249.8 9.09981 249.8 10.0998V10.7998H238.6V9.9998C238.8 9.0998 239.3 8.19981 239.8 8.09981C240.6 7.89981 248.2 7.99981 248.7 8.09981M309.9 8.2998C310.6 8.5998 310.9 9.09981 310.9 10.0998V10.7998H299.6V10.2998C299.6 9.5998 300.2 8.4998 300.7 8.1998C301.4 7.7998 309 7.7998 309.9 8.1998M177.1 12.1998V13.1998H178.6V11.1998H208.9V13.9998H149.8V11.3998H150.7C151.2 11.3998 157.4 11.2998 164.4 11.2998H177.1V12.2998M226.6 12.8998V14.5998H228V11.1998H232.2V14.0998L230.8 14.4998C230.1 14.6998 228.8 14.9998 228.1 15.1998C227.3 15.3998 226.7 15.4998 226.6 15.5998C226.1 16.2998 214.6 16.2998 214.6 15.5998C214.6 14.8998 214.5 15.4998 214.3 15.4998C213.9 15.4998 211.5 14.8998 210.2 14.4998L209.2 14.1998V11.2998H226.4V12.9998M151.4 14.8998L150.6 15.2998V16.5998C150.3 18.2998 150.3 26.8998 150.5 29.0998C150.6 30.7998 150.7 30.8998 151.1 30.9998C151.3 30.9998 152 31.3998 152.5 31.5998L153.4 31.9998V33.3998C153.4 35.2998 152.9 35.1998 160.3 35.1998C167.7 35.1998 167 35.3998 167 33.2998V31.8998H168.8C171.3 31.8998 171.1 32.8998 171.1 22.7998V14.3998H186.7L185.1 15.1998L184.8 16.6998C184.2 20.2998 184.1 25.1998 184.8 29.0998C184.9 29.9998 185.1 30.6998 185.1 30.7998C185.1 30.8998 185.7 31.1998 187.2 31.7998L187.9 32.0998V33.4998C187.9 35.3998 187.4 35.2998 194.9 35.2998C202.4 35.2998 201.9 35.3998 201.9 33.4998V31.9998H203.7C206.4 31.9998 206.1 32.9998 206.2 22.9998V14.4998H207.8C208.7 14.4998 209.5 14.4998 209.6 14.5998C209.6 14.5998 210.3 14.8998 211.1 15.0998C211.8 15.2998 212.6 15.5998 212.9 15.6998C214.9 16.5998 221.5 16.8998 226 16.2998H226.9C226.9 16.1998 226.9 16.6998 226.9 16.6998C226.9 17.1998 226.9 17.1998 227.6 17.1998H228.3V16.5998C228.3 16.0998 228.3 15.8998 228.7 15.8998C228.9 15.8998 229.2 15.6998 229.4 15.6998C230.5 15.1998 233.4 14.5998 234.3 14.5998H235.4V23.0998C235.4 33.1998 235.1 32.1998 237.7 32.1998H239.5V33.5998C239.5 35.5998 238.8 35.3998 246.3 35.4998C254 35.4998 253.4 35.6998 253.4 33.6998C253.4 31.6998 253.4 32.1998 253.8 32.0998C254.1 32.0998 256.1 31.1998 256.2 31.0998C256.2 31.0998 256.4 30.0998 256.6 28.8998C257.2 24.4998 257.2 20.1998 256.5 16.6998L256.2 15.3998L254.6 14.7998H267.8V31.9998L268.2 32.1998C268.4 32.1998 269.4 32.3998 270.3 32.3998H272V33.7998C272 35.8998 271.4 35.6998 278.8 35.6998C286.2 35.6998 285.7 35.7998 285.7 33.8998V32.4998L287.1 31.8998C287.8 31.5998 288.5 31.2998 288.5 31.2998C288.6 31.2998 289 28.1998 289.1 26.7998C289.1 25.8998 289.3 25.1998 289.3 25.0998C289.5 24.9998 289.5 21.0998 289.3 20.9998C289.3 20.9998 289.1 20.5998 289.1 20.0998C289.1 19.3998 288.8 17.3998 288.5 15.9998C288.5 15.5998 288.2 15.3998 287.6 15.1998L286.8 14.8998H289.8V31.7998H295.5L297 32.4998C297.8 32.8998 298.6 33.2998 298.7 33.3998C298.8 33.3998 299.6 33.7998 300.4 33.9998C306.4 35.9998 313 35.5998 318.5 32.7998L320 32.0998V47.9998H289.9V64.8998H286.9L287.7 64.4998C288.6 63.9998 288.7 63.6998 289 60.9998C289 60.0998 289.2 59.0998 289.3 58.7998C289.5 58.0998 289.5 54.7998 289.3 54.6998C289.3 54.6998 289.1 54.1998 289.1 53.7998C289.1 52.9998 288.7 49.4998 288.5 48.7998C288.5 48.5998 288 48.2998 287 47.8998L285.6 47.2998V45.8998C285.6 43.9998 286.1 44.0998 278.7 44.0998C271.3 44.0998 271.9 43.8998 271.9 45.9998V47.3998H269.9C268.4 47.3998 267.9 47.5998 267.8 47.7998C267.8 47.8998 267.6 51.4998 267.6 56.4998V64.9998H261C254.8 64.9998 254.4 64.9998 254.9 64.6998C255.2 64.5998 255.4 64.3998 255.4 64.2998C255.4 64.1998 255.5 64.1998 255.6 64.1998C256.4 64.1998 256.9 56.1998 256.3 51.7998C255.9 48.2998 255.9 48.4998 253.6 47.6998L253.1 47.4998V45.9998C253.1 43.9998 253.7 44.1998 246 44.1998C238.5 44.1998 239.2 44.0998 239.2 46.0998V47.4998H237.4C234.8 47.4998 235.1 46.4998 235.1 56.4998V64.9998H205.9V56.4998C205.9 46.4998 206.1 47.4998 203.4 47.4998H201.6V45.9998C201.6 43.9998 202.2 44.1998 194.6 44.1998C187 44.1998 187.6 44.0998 187.6 45.9998V47.3998L187 47.6998C186.7 47.7998 186 48.0998 185.6 48.2998C184.6 48.6998 184.2 50.8998 184.1 56.1998V58.6998H157.4V48.4998H131.5V31.0998H149.5V14.9998H152.1L151.3 15.3998M156.7 14.9998C156.3 15.2998 155.9 15.5998 155.8 15.6998C155.3 16.2998 153.6 17.1998 153 17.1998C152.2 17.1998 151.1 16.2998 151.1 15.5998C151.1 14.8998 153.6 14.3998 155.4 14.3998H157.4L156.7 14.8998M170.5 16.3998V18.3998H158.5V14.4998H170.5V16.4998M191.1 14.9998C190.7 15.2998 190.3 15.5998 190.2 15.6998C190.2 15.7998 190 15.8998 189.9 15.8998C189.8 15.8998 189.3 16.1998 188.8 16.5998C187.5 17.4998 186.1 17.3998 185.6 16.2998C185.3 15.6998 185.3 15.5998 186.8 14.9998C187.8 14.5998 188.1 14.4998 189.9 14.4998H191.9L191.2 14.9998M205.4 16.3998V18.3998H192.8V14.4998H205.4V16.4998M248 16.3998V18.3998H235.4V14.4998H248V16.4998M280.4 16.3998V18.3998H267.8V14.4998H280.4V16.4998M286.7 15.0998C288 15.6998 288.1 15.8998 287.2 16.6998C286.4 17.4998 285.6 17.4998 284.2 16.4998C283.6 16.0998 283.1 15.6998 283.1 15.5998C283.1 15.4998 282.8 15.2998 282.5 15.0998C281.3 14.4998 281.5 14.3998 283.7 14.4998C285.6 14.4998 285.8 14.4998 286.8 15.0998M319.9 22.6998V30.9998L319.2 31.3998C318.8 31.5998 318 31.9998 317.4 32.2998C316.8 32.5998 316.2 32.7998 316.2 32.8998C316.1 33.0998 314.6 33.4998 313.1 33.8998C308.2 35.0998 303.1 34.4998 298.5 32.1998C297.6 31.6998 296.6 31.2998 296.4 31.1998H296V14.4998H319.9V22.7998M158.2 16.5998V18.3998L157.2 18.5998C156.5 18.6998 156.1 18.8998 155.8 19.2998L155.4 19.7998V27.1998L155.9 27.3998C156.1 27.4998 156.8 27.6998 157.3 27.7998L158.2 27.9998V29.6998C158.2 30.5998 158.2 31.3998 158.2 31.3998C158 31.3998 155.7 29.7998 155.4 29.4998C154.3 28.3998 152.4 28.1998 151.3 29.1998L151 29.4998V27.8998C150.8 25.7998 150.8 19.3998 150.9 17.9998V16.8998C151 16.8998 151.3 17.1998 151.3 17.1998C152.1 17.8998 153.3 18.0998 154.4 17.4998C155.3 17.0998 157 15.8998 157 15.6998C157 15.4998 158 14.8998 158.2 14.8998C158.2 14.8998 158.3 15.6998 158.3 16.6998M192.5 16.5998V18.3998L191.6 18.5998C191 18.6998 190.5 18.9998 190.1 19.3998L189.5 19.9998V23.3998C189.5 27.4998 189.5 27.3998 191.6 27.8998L192.5 28.0998V31.4998L191.3 30.6998C190.6 30.2998 190 29.8998 189.8 29.7998C189.6 29.7998 189.5 29.5998 189.5 29.4998C189.5 28.4998 186.2 28.1998 185.5 29.1998C185.3 29.4998 185.3 29.4998 185.2 29.1998C184.7 27.3998 184.5 21.1998 184.9 18.3998L185.1 16.7998L185.5 17.0998C186.4 17.9998 187.8 17.9998 189.2 17.0998C189.8 16.6998 190.3 16.3998 190.3 16.3998C190.3 16.3998 190.7 16.1998 191 15.8998C191.5 15.3998 192.3 14.7998 192.4 14.7998C192.4 14.7998 192.4 15.5998 192.4 16.5998M251.3 16.7998C253.1 17.9998 254.7 18.0998 255.5 16.8998C256.1 15.9998 256.5 23.7998 256 27.5998L255.8 29.3998L255.5 29.0998C254.4 28.0998 251.9 28.2998 251.5 29.3998C251.5 29.3998 250.9 29.7998 250.3 30.1998C249.7 30.5998 249.1 30.8998 249.1 30.9998C248.8 31.4998 248.7 30.9998 248.7 29.4998V27.8998H249.2C251.6 27.2998 251.5 27.3998 251.5 23.1998V19.7998L250.9 19.2998C250.6 18.9998 250 18.6998 249.5 18.5998L248.7 18.3998V14.7998L249.4 15.2998C249.8 15.5998 250.7 16.2998 251.5 16.7998M282 15.5998C284.6 17.5998 285 17.7998 286 17.6998H286.9V18.1998C286.9 18.6998 286.9 18.6998 287.6 18.6998H288.3V20.2998C288.7 23.4998 288.2 29.7998 287.7 29.1998C286.9 27.9998 284.2 28.1998 283.5 29.4998C283.5 29.6998 283 29.6998 282.4 29.6998H281.4V30.1998C281.4 30.6998 281.2 31.0998 280.9 31.0998C280.6 31.0998 280.8 30.3998 280.8 29.4998V27.8998H281.3C283.8 27.1998 283.6 27.5998 283.6 23.2998C283.6 19.4998 283.6 19.5998 282.9 18.9998L282.4 18.5998H284.3V17.8998C284.2 17.1998 284.2 17.1998 283.5 17.1998C283.1 17.1998 282.8 17.0998 282.8 16.9998C282.8 16.8998 282.5 16.7998 282.2 16.7998C281.9 16.7998 281.6 16.7998 281.6 16.9998C281.6 17.1998 281.5 17.1998 281.4 17.1998C281.3 17.1998 281.2 17.3998 281.2 17.7998C281.2 18.1998 281.2 18.3998 281 18.3998C280.8 18.3998 280.8 17.6998 280.8 16.6998C280.8 14.6998 280.8 14.7998 281.9 15.5998M170.5 23.0998V27.3998H158.5V18.6998H170.5V22.9998M205.4 23.0998V27.3998H192.8V18.6998H205.4V22.9998M248 23.0998V27.3998H235.4V18.6998H248V22.9998M280.4 23.0998V27.3998H267.8V18.6998H280.4V22.9998M158.2 23.1998V27.4998H157.6C157.3 27.2998 156.7 27.0998 156.4 26.9998L155.8 26.6998V23.3998C155.8 19.7998 155.8 19.6998 156.8 19.2998C157.1 19.1998 157.3 18.9998 157.3 18.9998C157.3 18.9998 157.5 18.8998 157.7 18.8998H158.1V23.1998M192.5 23.1998V27.4998H192C191.7 27.2998 191.2 27.0998 190.9 26.9998L190.3 26.6998V23.3998C190.3 19.7998 190.3 20.0998 191.4 19.2998C192.6 18.5998 192.6 18.3998 192.6 23.1998M249.5 19.1998C250.9 19.8998 250.8 19.5998 250.8 23.2998C250.8 26.9998 250.8 26.5998 250.6 26.6998C250.4 26.7998 248.8 27.3998 248.6 27.3998C248.4 27.3998 248.6 25.4998 248.6 23.0998C248.6 20.6998 248.6 18.7998 248.7 18.7998C248.8 18.7998 249.1 18.9998 249.6 19.1998M281.5 18.9998C281.5 18.9998 281.8 19.1998 282 19.2998C283.1 19.5998 283.2 19.7998 283.2 23.2998C283.2 26.7998 283.2 26.5998 283 26.6998C282.8 26.7998 281.3 27.2998 281 27.3998C281 27.3998 281 25.4998 281 23.0998C281 18.8998 281 18.1998 281.6 18.9998M170.5 29.4998C170.5 31.7998 171 31.5998 164.2 31.5998H158.6V27.7998H170.6V29.3998M280.4 29.7998V31.6998H268.7L268.3 31.2998C267.9 30.8998 267.9 30.7998 267.9 29.3998V27.8998H280.5V29.7998M154.4 29.4998C154.8 29.7998 155.7 30.3998 156.3 30.8998L157.4 31.6998H155.5C153.4 31.6998 151.1 30.9998 151.2 30.2998C151.5 28.8998 152.9 28.4998 154.3 29.4998M188.6 29.2998C188.9 29.5998 189.7 30.1998 190.5 30.6998L191.8 31.5998H190C188.4 31.5998 188.1 31.5998 187.2 31.2998C186.6 31.0998 186 30.7998 185.8 30.6998H185.4C185.4 30.5998 185.8 29.8998 185.8 29.8998C186.4 28.7998 187.7 28.5998 188.6 29.3998M254.3 28.9998C254.8 29.1998 255.5 30.2998 255.3 30.4998C254.7 31.0998 252.6 31.5998 250.9 31.5998H249.1L249.6 31.1998C249.9 30.9998 250.3 30.6998 250.6 30.4998C250.9 30.3998 251.5 29.8998 252 29.4998C252.9 28.6998 253.5 28.5998 254.4 28.8998M286.7 28.9998C287.4 29.2998 287.9 30.2998 287.5 30.5998C287 30.8998 286.9 30.8998 286.9 30.1998V29.5998H284.2L284.6 29.1998C285.1 28.7998 285.8 28.6998 286.6 28.8998M285.9 31.2998C285.1 31.6998 281.4 31.7998 281.6 31.3998C281.8 30.9998 282.5 30.8998 284.5 30.8998H286.5L285.8 31.1998M166.4 33.2998V34.6998H153.9V31.8998H166.5V33.2998M201.1 33.2998V34.6998H188.3V31.8998H201.3V33.2998M252.8 33.0998C252.8 34.8998 253.3 34.7998 246.2 34.6998H240V31.8998H252.9V32.9998M285.2 33.1998C285.2 34.8998 285.7 34.7998 278.5 34.6998H272.3V31.8998H285.2V33.0998M201.1 45.4998V46.8998H188.2V45.5998C188.2 44.8998 188.2 44.2998 188.3 44.1998C188.3 44.1998 191.3 44.1998 194.7 44.1998H201V45.5998M252.6 44.3998C252.6 44.5998 252.8 45.1998 252.8 45.7998V46.8998H239.9V45.5998C239.9 44.8998 239.9 44.2998 240 44.1998C240.3 43.8998 252.5 44.0998 252.7 44.3998M285 44.2998C285.1 44.3998 285.2 44.9998 285.2 45.6998V46.8998H272.3V45.5998C272.3 44.8998 272.3 44.2998 272.4 44.1998C272.6 43.9998 284.8 44.0998 285 44.1998M191.4 47.4998C191.1 47.6998 190.9 47.7998 190.9 47.6998C190.7 47.1998 189.6 47.4998 189.6 48.1998C189.6 49.9998 185.9 50.3998 185.6 48.6998C185.5 48.0998 187.8 47.2998 190.1 47.2998H192L191.5 47.5998M192.5 49.2998V50.9998L191.6 51.1998C189.5 51.6998 189.5 51.5998 189.5 55.6998V59.0998L189.9 59.4998C190.1 59.6998 190.6 59.9998 190.9 60.0998C191.2 60.1998 191.7 60.3998 191.9 60.4998L192.4 60.6998V62.4998C192.4 63.9998 192.4 64.1998 192.2 64.1998C192.1 64.1998 192 63.9998 192 63.9998C192 63.9998 191.6 63.5998 191.1 63.2998C190.6 62.9998 189.8 62.3998 189.3 62.0998C188.1 61.2998 186.6 61.1998 185.7 61.8998L185.1 62.2998L184.9 60.5998C184.6 58.4998 184.6 54.0998 184.9 51.7998C185.2 49.4998 185.1 49.5998 185.8 50.0998C186.5 50.6998 188.4 50.7998 188.7 50.2998C188.9 49.9998 190.2 49.1998 190.5 49.1998C190.8 49.1998 190.8 49.1998 190.8 48.9998C190.8 48.7998 192.1 47.7998 192.4 47.6998C192.4 47.6998 192.4 48.4998 192.4 49.3998M248.9 47.8998C248.9 47.8998 249.5 48.3998 250.1 48.6998C250.7 49.0998 251.5 49.5998 251.9 49.8998C252.9 50.6998 254.2 50.6998 255.1 49.8998L255.6 49.3998L255.8 50.9998C256.2 54.4998 256.2 58.4998 255.8 61.6998C255.8 62.2998 255.7 62.2998 255.5 61.9998C254.7 60.8998 253.1 60.8998 251.4 61.9998C250.7 62.4998 249.8 62.9998 249.5 63.2998C249.2 63.4998 248.9 63.7998 248.9 63.7998C248.9 63.7998 248.9 63.8998 248.7 63.8998C248.5 63.8998 248.5 63.1998 248.5 62.1998C248.5 60.2998 248.5 60.4998 250 59.8998C250.867 59.6331 251.3 58.1998 251.3 55.5998C251.3 51.3998 251.3 51.4998 249 50.9998H248.5V49.2998C248.5 47.7998 248.6 47.3998 248.9 47.7998M281.6 47.9998C281.8 48.1998 282.1 48.2998 282.2 48.2998C282.4 48.2998 283.8 49.2998 284.6 49.9998C285.4 50.6998 286.7 50.6998 287.6 49.8998L288.2 49.2998L288.4 51.0998C288.9 55.0998 288.6 62.7998 287.9 61.8998C287.2 60.7998 285.5 60.7998 284 61.8998C283.4 62.2998 282.6 62.7998 282.3 62.9998C282 63.1998 281.6 63.4998 281.4 63.6998L281 64.0998V60.4998L281.8 60.2998C282.6 60.0998 283.4 59.5998 283.7 59.1998C283.7 59.1998 283.8 57.3998 283.8 55.4998V51.8998L283.3 51.5998C283 51.3998 282.5 51.1998 282.2 51.1998C281 50.9998 281.1 51.1998 281.1 49.2998C281.1 47.3998 281.1 47.4998 281.8 47.9998M319.9 57.8998V67.6998H296V47.9998H319.9V57.7998M192.5 55.6998C192.5 60.2998 192.5 60.0998 191.4 59.5998C190.2 59.0998 190.2 59.1998 190.2 55.5998V52.3998L190.7 52.0998C191.3 51.7998 191.9 51.5998 192.3 51.5998C192.5 51.5998 192.5 52.4998 192.5 55.7998M205.4 55.6998V59.9998H192.8V51.4998H205.4V55.7998M248 55.6998V59.9998H235.4V51.4998H248V55.7998M249.5 51.6998C250.9 52.0998 250.8 51.8998 250.8 55.4998C250.8 59.0998 250.8 58.7998 250.5 58.9998C250.2 59.1998 248.9 59.7998 248.7 59.7998C248.5 59.7998 248.5 58.1998 248.5 55.5998C248.5 52.9998 248.5 51.3998 248.5 51.3998C248.5 51.3998 249 51.4998 249.4 51.6998M280.4 55.6998V59.9998H267.8V51.4998H280.4V55.7998M281.9 51.6998C283.3 52.0998 283.2 51.8998 283.2 55.5998C283.2 59.2998 282.9 59.8998 281 59.8998C281 59.8998 280.9 57.9998 280.9 55.6998C280.9 53.3998 280.9 51.4998 280.9 51.4998C280.9 51.4998 281.3 51.5998 281.8 51.6998M205.4 62.4998V64.4998H192.8V60.5998H205.4V62.5998M248 62.4998V64.4998H235.4V60.5998H248V62.5998M280.4 62.4998V64.4998H267.8V60.5998H280.4V62.5998M188.9 62.2998C189.4 62.6998 189.9 62.9998 190 62.9998C190.1 62.9998 190.5 63.2998 191 63.6998L191.9 64.3998H190C187.8 64.3998 185.5 63.5998 185.7 62.7998C185.9 61.4998 187.6 61.1998 189 62.1998M254.9 62.2998C255.5 62.9998 255.5 63.0998 254.9 63.3998C254.6 63.5998 254.3 63.6998 254.3 63.7998C254.1 64.1998 252.6 64.3998 250.9 64.3998H249.1L249.6 63.8998C249.9 63.5998 250.2 63.3998 250.4 63.2998C250.5 63.2998 251.2 62.7998 251.8 62.3998C253.2 61.3998 254.2 61.2998 255 62.1998M287.4 62.2998C288 62.9998 288 63.0998 287.4 63.3998C287.1 63.5998 286.8 63.6998 286.8 63.7998C286.5 64.1998 285.2 64.3998 283.4 64.3998H281.5L282 64.0998C282.3 63.8998 283.2 63.2998 284 62.6998C285.8 61.3998 286.7 61.2998 287.6 62.2998M185.3 63.6998C185.5 63.8998 185.9 64.0998 186.2 64.1998C186.7 64.3998 186.7 64.3998 185.7 64.3998H184.7V63.1998C184.7 62.0998 184.7 62.0998 184.9 62.6998C184.9 63.0998 185.2 63.4998 185.4 63.6998M202.6 68.7998C202.6 70.6998 202.1 70.7998 197 70.7998C191.9 70.7998 192.9 70.7998 192.9 70.5998C192.9 70.3998 192.8 70.3998 192.6 70.3998C192 70.3998 191.5 69.5998 191.5 68.7998V67.9998H202.5V68.6998M226.5 68.8998C226.4 69.7998 226.1 70.1998 225.4 70.5998C224.7 70.8998 216.9 70.9998 216.5 70.5998C215.6 69.7998 215.5 69.6998 215.5 68.7998V67.9998H226.7V68.7998M273.4 68.8998V69.6998H272.7C272 69.6998 272 69.6998 272 70.2998V70.8998H267.8C265.5 70.8998 263.6 70.8998 263.6 70.7998C263.6 70.6998 263.5 70.5998 263.3 70.5998C262.8 70.4998 262.4 69.7998 262.3 68.8998V68.1998H273.4V68.9998M310.9 68.7998C310.9 70.5998 310.3 70.7998 305.2 70.7998C300.1 70.7998 301.1 70.7998 301.1 70.6998C301.1 70.5998 301 70.4998 300.8 70.4998C300.4 70.3998 299.6 69.1998 299.6 68.5998V68.0998H310.9V68.8998M135 68.7998C135 69.1998 135.1 69.2998 135.6 69.0998C136.2 68.7998 136.1 68.4998 135.6 68.4998C135.1 68.4998 135.1 68.4998 135.1 68.7998M136.1 70.5998C136.3 70.6998 136.3 70.7998 136.1 70.8998C135.9 71.0998 135.1 70.8998 135.1 70.6998C135.1 70.4998 135.8 70.4998 136.1 70.6998M373.8 7.5998C361.2 6.1998 343.4 4.5998 322 3.2998C306.9 2.3998 294.4 1.99979 256.6 1.39979C205.6 0.599792 179.5 0.299798 153.4 0.999798C140 1.3998 119 2.0998 92.4999 4.9998C74.1999 6.9998 55.5999 9.6998 34.2999 17.7998C20.1999 23.0998 0.89993 30.3998 1.09993 39.2998C1.29993 46.3998 14.0999 51.2998 31.5999 57.8998C60.2999 68.5998 83.7999 72.0998 87.5999 72.5998C103.5 74.7998 119 76.0998 154.7 77.0998C208.2 78.5998 247.2 77.6998 257 77.3998C267.7 77.0998 290.3 76.3998 319.1 74.6998C338.9 73.4998 356.5 72.1998 371.3 70.8998L386.9 69.0998V8.89979L373.6 7.5998H373.8ZM201.7 8.2998C202.4 8.5998 202.6 9.09981 202.6 10.0998V10.7998H191.6V10.0998C191.6 9.09981 191.9 8.4998 192.5 8.2998C193.2 7.9998 200.9 7.9998 201.7 8.2998ZM272.4 8.1998C273 8.3998 273.4 9.09981 273.4 10.0998V10.7998H262.2V10.0998C262.4 9.19981 262.7 8.4998 263.2 8.1998C263.7 7.8998 271.6 7.8998 272.4 8.1998ZM289.8 13.9998H232.9V11.1998H289.8V13.9998ZM319.9 13.9998H296V11.1998H319.9V13.9998ZM254.1 14.9998C255.5 15.5998 255.6 15.7998 255 16.5998C254.2 17.4998 253.2 17.4998 251.8 16.4998C251.2 16.0998 250.3 15.3998 249.8 15.0998L248.9 14.4998H250.9C252.7 14.4998 252.9 14.4998 254.1 14.9998ZM288.1 16.8998C288.1 17.0998 288 17.1998 287.9 17.1998C287.7 17.1998 287.7 17.1998 287.9 16.8998C288 16.6998 288.1 16.5998 288.1 16.5998C288.1 16.5998 288.1 16.6998 288.1 16.8998ZM205.4 29.3998C205.4 31.7998 206 31.5998 198.8 31.5998H192.8V27.7998H205.4V29.3998ZM248 31.6998H241.9C234.7 31.5998 235.4 31.7998 235.4 29.3998V27.8998H248V31.6998ZM205.1 47.5998C205.4 47.8998 205.4 48.0998 205.4 49.4998V51.0998H192.8V47.2998H198.8C204.6 47.2998 204.8 47.2998 205.1 47.5998ZM248 50.9998H235.4V49.2998C235.5 46.9998 235 47.1998 242.1 47.1998H248V50.9998ZM254.1 47.7998C255.5 48.3998 255.6 48.4998 255 49.1998C254.2 50.0998 253.2 50.0998 251.8 49.0998C251.1 48.5998 250.6 48.2998 250.5 48.2998C250.4 48.2998 250.1 48.0998 249.7 47.7998L249 47.2998H250.9C252.7 47.2998 252.9 47.2998 254.1 47.7998ZM280.4 50.9998H267.8V49.4998C267.8 48.1998 267.8 47.9998 268.2 47.5998L268.6 47.1998H280.4V50.9998ZM286.5 47.7998C287.9 48.3998 288 48.4998 287.4 49.1998C286.5 50.1998 285.7 50.0998 283.8 48.7998C282.9 48.1998 282.2 47.6998 282.1 47.6998C282 47.6998 281.9 47.5998 281.8 47.4998C281.3 46.8998 285.1 47.1998 286.5 47.7998ZM181 61.1998V71.4998H159.7V66.4998C159.7 63.6998 159.7 61.3998 159.9 61.1998C159.9 61.0998 160.2 60.7998 160.3 60.5998L160.6 60.1998H180L181 61.1998ZM289.8 67.6998H184.6V64.8998H289.8V67.6998ZM249.8 68.7998C249.8 70.5998 249.2 70.7998 244.3 70.7998C239.4 70.7998 238.6 70.4998 238.6 68.5998V67.9998H249.8V68.7998ZM136.9 68.8998C136.9 69.0998 136.9 69.2998 137.1 69.2998C137.3 69.2998 137.3 69.0998 137.3 68.8998C137.3 68.6998 137.3 68.4998 137.1 68.4998C136.9 68.4998 136.9 68.6998 136.9 68.8998ZM136.8 69.9998C136.8 70.1998 136.9 70.2998 137.1 70.2998C137.5 70.2998 137.5 69.7998 137.1 69.6998C136.9 69.6998 136.8 69.6998 136.8 69.9998ZM121 7.9998V11.4998C118.8 11.7998 111 13.1998 104.7 19.9998C97.7999 27.4998 97.4999 36.3998 97.4999 38.4998H78.2999C78.5999 35.7998 79.3999 31.8998 81.5999 27.6998C86.6999 17.8998 95.7999 13.7998 99.8999 11.8998C108.4 8.09979 116.2 7.69979 120.9 7.89979L121 7.9998ZM121 71.3998V67.8998C118.7 67.5998 111 66.1998 104.7 59.3998C97.6999 51.8998 97.3999 42.9998 97.3999 40.8998C90.9999 40.8998 84.5999 40.8998 78.1999 40.8998C78.4999 43.5998 79.3999 47.4998 81.4999 51.5998C86.6999 61.3998 95.6999 65.4998 99.8999 67.3998C108.4 71.1998 116.2 71.4998 120.9 71.2998L121 71.3998Z" stroke="#FFFDFA" stroke-width="0.5" stroke-miterlimit="10"/>
</svg>
